<svg width="48" height="48" viewBox="0 0 48 48" fill="none" xmlns="http://www.w3.org/2000/svg">
<path fill-rule="evenodd" clip-rule="evenodd" d="M32.0584 3.73011C31.62 4.18289 30.6426 5.3657 29.8868 6.35832L28.512 8.16312L26.7265 7.93645C24.1207 7.60576 21.6312 7.72729 19.7233 8.27804C12.9396 10.2363 8.11787 16.491 8.13856 23.3058C8.14574 25.6493 8.85192 28.6808 9.87671 30.768C10.9785 33.0116 13.6771 36.0046 14.5982 36.0046C15.833 36.0046 15.6414 35.2082 13.9934 33.4934C10.8601 30.2325 9.40985 25.6886 10.135 21.4041C11.0765 15.8397 15.4446 11.1134 20.7828 9.88318C22.346 9.52291 26.7153 9.4778 26.9267 9.81969C27.0103 9.95558 26.0252 11.507 24.7375 13.2673L22.3957 16.4683H21.0747C20.3217 16.4683 19.4676 16.6686 19.0889 16.9338C18.0538 17.6586 15.9292 20.712 15.7333 21.7555C15.2179 24.5029 18.1828 26.5712 20.7403 25.2488C21.6594 24.7736 23.7409 22.1882 24.2209 20.9252C24.4669 20.2788 24.4617 19.7645 24.1997 18.8291C23.7986 17.3963 23.1441 18.4659 29.6092 9.98862C31.8611 7.03634 33.7032 4.39319 33.7032 4.11538C33.7032 3.83756 33.5125 3.452 33.2795 3.25865C32.9327 2.97078 32.7106 3.05639 32.0584 3.73011ZM31.8838 10.3394C31.3965 10.8264 31.8338 11.5972 33.5719 13.3164C35.733 15.4539 36.5627 16.7467 37.4453 19.3522C37.9828 20.939 38.0546 21.6469 37.9392 24.2254C37.828 26.7108 37.6639 27.5589 37.0072 29.042L36.2099 30.8422L36.8411 35.3214C37.1882 37.7853 37.4079 39.8654 37.3292 39.9441C37.2505 40.0228 35.6592 39.4028 33.7926 38.5662C30.1146 36.9174 29.3113 36.7936 26.3771 37.4225C24.6056 37.8023 21.1652 37.6882 20.3326 37.2222C19.9528 37.0096 20.1272 36.6488 21.4158 34.9784C22.8991 33.0558 23.0008 32.9828 24.4097 32.84C25.2118 32.7587 26.1005 32.5002 26.3846 32.2654C27.3749 31.4469 31.4241 25.8303 31.3396 25.3921C31.1489 24.4009 30.274 24.7968 28.9226 26.4859C27.6254 28.1071 27.0954 28.4157 27.0954 27.55C27.0954 27.3429 27.6125 26.5241 28.2446 25.73C29.5113 24.1392 29.5903 23.8841 28.9749 23.3736C28.5155 22.992 27.9288 23.4609 26.5136 25.3401C26.0579 25.9449 25.598 26.2644 25.2771 26.1983C24.8475 26.1095 24.9748 25.8127 26.078 24.3303C26.9121 23.2098 27.3252 22.3988 27.212 22.1037C26.7934 21.0128 26.0019 21.6957 22.9261 25.8027L20.992 28.3855L21.1638 30.2256L21.3356 32.0661L17.2206 37.5549C12.1978 44.2547 12.2168 44.2248 12.6448 44.6529C13.3481 45.3562 14.3293 44.5903 16.4125 41.7115L18.5143 38.8069L19.7164 38.9954C22.7109 39.4649 25.5658 39.4884 27.5263 39.0598L29.5374 38.6202L34.0825 40.6393C36.5822 41.75 38.8125 42.5875 39.0384 42.5007C39.5736 42.2956 39.5589 41.788 38.8792 37.0018C38.1391 31.792 38.1541 31.0614 39.0513 28.5133C41.2281 22.3327 38.889 14.8172 33.5883 10.9626C32.4107 10.1064 32.1955 10.0277 31.8838 10.3394ZM22.9166 28.091C21.7312 29.2761 22.0791 31.1053 23.59 31.632C26.0941 32.5048 27.7113 29.0264 25.3655 27.8135C24.2181 27.2202 23.7322 27.2751 22.9166 28.091ZM24.9737 28.7078C25.4818 28.9999 25.7701 29.9222 25.1173 30.5753C24.4953 31.197 23.9385 30.9766 23.2499 30.288C22.7494 28.8638 23.9641 28.1276 24.9737 28.7078Z" fill="#619E69"/>
</svg>
