<svg width="61" height="59" viewBox="0 0 61 59" fill="none" xmlns="http://www.w3.org/2000/svg">
<mask id="path-1-outside-1_430_3250" maskUnits="userSpaceOnUse" x="7.08583" y="-0.230286" width="47" height="59" fill="black">
<rect fill="white" x="7.08583" y="-0.230286" width="47" height="59"/>
<path fill-rule="evenodd" clip-rule="evenodd" d="M39.104 7.452C38.6272 7.9445 37.564 9.23107 36.7418 10.3108L35.2465 12.2739L33.3043 12.0273C30.47 11.6676 27.7622 11.7998 25.6868 12.3989C18.3081 14.5289 13.0634 21.3323 13.0859 28.7448C13.0937 31.2939 13.8618 34.5914 14.9765 36.8617C16.175 39.302 19.1103 42.5576 20.1122 42.5576C21.4553 42.5576 21.2468 41.6914 19.4543 39.8261C16.0462 36.2792 14.4687 31.3367 15.2575 26.6764C16.2815 20.6239 21.0328 15.4829 26.8393 14.1448C28.5397 13.7529 33.2922 13.7039 33.5222 14.0758C33.6131 14.2236 32.5415 15.9111 31.1409 17.8258L28.5937 21.3076H27.1568C26.3378 21.3076 25.4087 21.5254 24.9968 21.8139C23.8709 22.6023 21.56 25.9236 21.3468 27.0586C20.7862 30.047 24.0112 32.2967 26.7931 30.8583C27.7928 30.3414 30.0568 27.5292 30.579 26.1554C30.8465 25.4523 30.8409 24.8929 30.5559 23.8754C30.1197 22.317 29.4078 23.4804 36.44 14.2595C38.8893 11.0483 40.8931 8.17325 40.8931 7.87107C40.8931 7.56888 40.6856 7.1495 40.4322 6.93919C40.055 6.62607 39.8134 6.71919 39.104 7.452ZM38.914 14.6411C38.384 15.1708 38.8597 16.0092 40.7503 17.8792C43.1009 20.2042 44.0034 21.6104 44.9634 24.4445C45.5481 26.1704 45.6262 26.9404 45.5006 29.7451C45.3797 32.4486 45.2012 33.3711 44.4868 34.9842L43.6197 36.9423L44.3062 41.8145C44.6837 44.4945 44.9228 46.757 44.8372 46.8426C44.7515 46.9283 43.0206 46.2539 40.9903 45.3439C36.9897 43.5504 36.1159 43.4158 32.9243 44.0998C30.9975 44.5129 27.2553 44.3889 26.3497 43.882C25.9365 43.6508 26.1262 43.2583 27.5278 41.4414C29.1412 39.3501 29.2518 39.2708 30.7843 39.1154C31.6568 39.027 32.6234 38.7458 32.9325 38.4904C34.0097 37.6001 38.414 31.4908 38.3222 31.0142C38.1147 29.9361 37.1631 30.3667 35.6931 32.2039C34.2822 33.9673 33.7056 34.3029 33.7056 33.3614C33.7056 33.1361 34.2681 32.2454 34.9556 31.3817C36.3334 29.6514 36.4193 29.3739 35.75 28.8186C35.2503 28.4036 34.6122 28.9136 33.0728 30.9576C32.5772 31.6154 32.0768 31.9629 31.7278 31.8911C31.2606 31.7945 31.399 31.4717 32.599 29.8592C33.5062 28.6404 33.9556 27.7583 33.8325 27.4373C33.3772 26.2508 32.5162 26.9936 29.1706 31.4608L27.0668 34.2701L27.2537 36.2717L27.4406 38.2736L22.9647 44.2439C17.5012 51.5314 17.5218 51.4989 17.9875 51.9645C18.7525 52.7295 19.8197 51.8964 22.0856 48.7651L24.3718 45.6058L25.6793 45.8108C28.9365 46.3214 32.0418 46.347 34.1743 45.8808L36.3618 45.4026L41.3056 47.5989C44.0247 48.807 46.4506 49.7179 46.6962 49.6236C47.2784 49.4004 47.2625 48.8483 46.5231 43.6423C45.7181 37.9754 45.7343 37.1808 46.7103 34.4092C49.0781 27.6864 46.5337 19.5117 40.7681 15.3189C39.4872 14.3876 39.2531 14.302 38.914 14.6411ZM29.1603 33.9498C27.8709 35.2389 28.2493 37.2286 29.8928 37.8014C32.6165 38.7508 34.3756 34.9673 31.824 33.6479C30.5759 33.0026 30.0475 33.0623 29.1603 33.9498ZM31.3978 34.6208C31.9505 34.9384 32.264 35.9417 31.554 36.652C30.8775 37.3283 30.2718 37.0886 29.5228 36.3395C28.9784 34.7904 30.2996 33.9896 31.3978 34.6208Z"/>
</mask>
<path fill-rule="evenodd" clip-rule="evenodd" d="M39.104 7.452C38.6272 7.9445 37.564 9.23107 36.7418 10.3108L35.2465 12.2739L33.3043 12.0273C30.47 11.6676 27.7622 11.7998 25.6868 12.3989C18.3081 14.5289 13.0634 21.3323 13.0859 28.7448C13.0937 31.2939 13.8618 34.5914 14.9765 36.8617C16.175 39.302 19.1103 42.5576 20.1122 42.5576C21.4553 42.5576 21.2468 41.6914 19.4543 39.8261C16.0462 36.2792 14.4687 31.3367 15.2575 26.6764C16.2815 20.6239 21.0328 15.4829 26.8393 14.1448C28.5397 13.7529 33.2922 13.7039 33.5222 14.0758C33.6131 14.2236 32.5415 15.9111 31.1409 17.8258L28.5937 21.3076H27.1568C26.3378 21.3076 25.4087 21.5254 24.9968 21.8139C23.8709 22.6023 21.56 25.9236 21.3468 27.0586C20.7862 30.047 24.0112 32.2967 26.7931 30.8583C27.7928 30.3414 30.0568 27.5292 30.579 26.1554C30.8465 25.4523 30.8409 24.8929 30.5559 23.8754C30.1197 22.317 29.4078 23.4804 36.44 14.2595C38.8893 11.0483 40.8931 8.17325 40.8931 7.87107C40.8931 7.56888 40.6856 7.1495 40.4322 6.93919C40.055 6.62607 39.8134 6.71919 39.104 7.452ZM38.914 14.6411C38.384 15.1708 38.8597 16.0092 40.7503 17.8792C43.1009 20.2042 44.0034 21.6104 44.9634 24.4445C45.5481 26.1704 45.6262 26.9404 45.5006 29.7451C45.3797 32.4486 45.2012 33.3711 44.4868 34.9842L43.6197 36.9423L44.3062 41.8145C44.6837 44.4945 44.9228 46.757 44.8372 46.8426C44.7515 46.9283 43.0206 46.2539 40.9903 45.3439C36.9897 43.5504 36.1159 43.4158 32.9243 44.0998C30.9975 44.5129 27.2553 44.3889 26.3497 43.882C25.9365 43.6508 26.1262 43.2583 27.5278 41.4414C29.1412 39.3501 29.2518 39.2708 30.7843 39.1154C31.6568 39.027 32.6234 38.7458 32.9325 38.4904C34.0097 37.6001 38.414 31.4908 38.3222 31.0142C38.1147 29.9361 37.1631 30.3667 35.6931 32.2039C34.2822 33.9673 33.7056 34.3029 33.7056 33.3614C33.7056 33.1361 34.2681 32.2454 34.9556 31.3817C36.3334 29.6514 36.4193 29.3739 35.75 28.8186C35.2503 28.4036 34.6122 28.9136 33.0728 30.9576C32.5772 31.6154 32.0768 31.9629 31.7278 31.8911C31.2606 31.7945 31.399 31.4717 32.599 29.8592C33.5062 28.6404 33.9556 27.7583 33.8325 27.4373C33.3772 26.2508 32.5162 26.9936 29.1706 31.4608L27.0668 34.2701L27.2537 36.2717L27.4406 38.2736L22.9647 44.2439C17.5012 51.5314 17.5218 51.4989 17.9875 51.9645C18.7525 52.7295 19.8197 51.8964 22.0856 48.7651L24.3718 45.6058L25.6793 45.8108C28.9365 46.3214 32.0418 46.347 34.1743 45.8808L36.3618 45.4026L41.3056 47.5989C44.0247 48.807 46.4506 49.7179 46.6962 49.6236C47.2784 49.4004 47.2625 48.8483 46.5231 43.6423C45.7181 37.9754 45.7343 37.1808 46.7103 34.4092C49.0781 27.6864 46.5337 19.5117 40.7681 15.3189C39.4872 14.3876 39.2531 14.302 38.914 14.6411ZM29.1603 33.9498C27.8709 35.2389 28.2493 37.2286 29.8928 37.8014C32.6165 38.7508 34.3756 34.9673 31.824 33.6479C30.5759 33.0026 30.0475 33.0623 29.1603 33.9498ZM31.3978 34.6208C31.9505 34.9384 32.264 35.9417 31.554 36.652C30.8775 37.3283 30.2718 37.0886 29.5228 36.3395C28.9784 34.7904 30.2996 33.9896 31.3978 34.6208Z" fill="#487E4F"/>
<path d="M40.5119 7.75247L43.0641 6.1756L43.0637 6.17502L40.5119 7.75247ZM30.0725 22.15L27.6206 20.4214L27.6202 20.422L30.0725 22.15ZM29.9944 23.5534L27.2644 24.7973L27.2645 24.7974L29.9944 23.5534ZM28.9497 28.2993L31.3755 30.0645L31.3756 30.0644L28.9497 28.2993ZM24.9772 31.1831L24.9824 28.1831H24.9819L24.9772 31.1831ZM21.9213 28.8603L24.7702 27.9204L24.7702 27.9201L21.9213 28.8603ZM22.1925 26.4143L19.4932 25.1052L19.4931 25.1055L22.1925 26.4143ZM24.211 23.5281L21.9601 21.5447L21.96 21.5448L24.211 23.5281ZM27.2297 21.9893L27.1861 24.989L27.1863 24.989L27.2297 21.9893ZM28.8716 22.0131L28.8282 25.0128L30.4062 25.0356L31.3189 23.7482L28.8716 22.0131ZM19.1675 40.1934L17.0295 42.2979L17.0297 42.2981L19.1675 40.1934ZM20.4063 42.1928L18.285 40.0715L20.4063 42.1928ZM18.8144 41.3647L16.7185 43.5111L16.7186 43.5112L18.8144 41.3647ZM26.0253 12.9431L25.1954 10.0602L25.1953 10.0602L26.0253 12.9431ZM34.2353 12.7381L35.3022 9.93422L35.3016 9.93396L34.2353 12.7381ZM35.4275 12.8775L36.5836 15.6458L36.5856 15.6449L35.4275 12.8775ZM37.78 10.0737L40.1889 11.8618L40.189 11.8617L37.78 10.0737ZM45.2478 37.7156L42.406 36.7543L42.1758 37.4348L42.2789 38.1458L45.2478 37.7156ZM45.9407 42.4968L42.9717 42.9271L42.9717 42.9273L45.9407 42.4968ZM46.8091 48.2937L49.7654 47.7834L49.7652 47.7826L46.8091 48.2937ZM41.2688 47.2465L42.5166 44.5183L42.5165 44.5183L41.2688 47.2465ZM32.3322 45.8531L32.8482 48.8084L32.8483 48.8084L32.3322 45.8531ZM28.2697 45.8447L27.7916 48.8063L27.7919 48.8064L28.2697 45.8447ZM25.196 45.3509L24.7251 48.3137L24.7255 48.3138L25.196 45.3509ZM21.8066 48.5056L19.3976 46.7177L19.3974 46.7179L21.8066 48.5056ZM23.3569 44.8053L25.7586 46.603L25.7586 46.603L23.3569 44.8053ZM28.2366 38.2862L30.6383 40.084L31.5759 38.8314L31.0853 37.3457L28.2366 38.2862ZM27.8472 37.1068L24.9983 38.0469L24.9985 38.0474L27.8472 37.1068ZM27.6728 35.0715L30.5826 35.8019L30.5826 35.8018L27.6728 35.0715ZM33.0197 27.7375L31.104 25.4288L31.1037 25.429L33.0197 27.7375ZM32.0616 30.0856L34.431 31.9256L34.4311 31.9256L32.0616 30.0856ZM30.7575 32.2497L33.6092 31.3181L33.6078 31.3138L30.7575 32.2497ZM31.7825 32.664L31.5426 35.6544L31.5429 35.6544L31.7825 32.664ZM33.9172 31.0234L36.3604 32.7643L36.3606 32.7641L33.9172 31.0234ZM34.3682 31.6784L31.9741 29.8706L31.974 29.8707L34.3682 31.6784ZM33.4835 34.165L30.8383 35.5802L30.8383 35.5804L33.4835 34.165ZM35.601 33.399L33.1181 31.7152L33.118 31.7154L35.601 33.399ZM37.9485 31.0872L40.5003 29.5098L40.5001 29.5094L37.9485 31.0872ZM32.4969 38.4915L30.7757 36.0344L30.7743 36.0354L32.4969 38.4915ZM30.3607 39.0115L30.391 42.0114L30.392 42.0114L30.3607 39.0115ZM27.1394 41.4122L24.7476 39.6012L24.7476 39.6013L27.1394 41.4122ZM25.7907 44.2568L23.6693 46.3782L23.6698 46.3786L25.7907 44.2568ZM34.3357 44.4909L35.0947 47.3933L35.0947 47.3933L34.3357 44.4909ZM36.2882 43.9803L37.5021 41.2369L36.5434 40.8126L35.5291 41.0779L36.2882 43.9803ZM40.1541 45.6909L41.3683 42.9476L41.368 42.9475L40.1541 45.6909ZM44.8857 47.619L45.616 44.7093L45.6155 44.7092L44.8857 47.619ZM45.531 46.6634L42.5824 47.2166L42.5824 47.2166L45.531 46.6634ZM44.3775 38.0593L41.378 38.1137L41.378 38.1143L44.3775 38.0593ZM45.0053 35.1497L47.7566 36.3457L47.7567 36.3456L45.0053 35.1497ZM40.6897 17.1722L38.7412 19.4532L38.7413 19.4533L40.6897 17.1722ZM37.9598 9.32934C37.439 8.48649 37.5108 7.67956 37.5293 7.48829C37.5575 7.19697 37.6237 6.98121 37.6508 6.89725C37.6843 6.79371 37.7159 6.71849 37.7312 6.68307C37.7483 6.64375 37.761 6.61817 37.7651 6.60995C37.7711 6.59804 37.7394 6.65961 37.6361 6.82625C37.442 7.1393 37.1237 7.61748 36.6899 8.24107C35.8305 9.47648 34.6028 11.161 33.2174 12.9894L37.9996 16.613C39.4191 14.7396 40.6972 12.9872 41.6153 11.6675C42.0703 11.0135 42.4586 10.4345 42.7355 9.98792C42.8677 9.77475 43.0126 9.53089 43.1295 9.29756C43.1814 9.19391 43.2798 8.99088 43.3601 8.74235C43.3981 8.62464 43.4709 8.38068 43.5013 8.06687C43.522 7.85311 43.5916 7.02939 43.0641 6.1756L37.9598 9.32934ZM33.2174 12.9894C30.4409 16.6536 27.8993 20.026 27.6206 20.4214L32.5245 23.8785C32.5226 23.8812 32.5327 23.867 32.5632 23.8253C32.5907 23.7878 32.6275 23.7379 32.674 23.6753C32.7667 23.5502 32.8917 23.3827 33.046 23.1764C33.3544 22.7643 33.7738 22.2063 34.2747 21.5414C35.276 20.2122 36.5984 18.4622 37.9996 16.613L33.2174 12.9894ZM27.6202 20.422C27.3096 20.8628 26.8616 21.6108 26.8044 22.6357C26.7512 23.5918 27.0677 24.3656 27.2644 24.7973L32.7244 22.3095C32.6402 22.1247 32.8247 22.4396 32.7951 22.9695C32.7618 23.5682 32.4933 23.9228 32.5249 23.878L27.6202 20.422ZM27.2645 24.7974C27.3487 24.9822 27.3606 25.062 27.3618 25.0702C27.3624 25.0745 27.3619 25.0721 27.362 25.0675C27.3622 25.0632 27.3625 25.0698 27.3577 25.0916C27.3296 25.2191 27.1902 25.6185 26.5239 26.5343L31.3756 30.0644C32.1883 28.9474 32.919 27.7371 33.2174 26.3815C33.5497 24.8722 33.2791 23.5268 32.7243 22.3094L27.2645 24.7974ZM26.524 26.5342C25.9042 27.3859 25.4444 27.834 25.1425 28.0532C24.8756 28.2469 24.846 28.1829 24.9824 28.1831L24.9721 34.1831C27.8075 34.1879 29.856 32.1526 31.3755 30.0645L26.524 26.5342ZM24.9819 28.1831C25.1287 28.1833 25.1858 28.2142 25.1481 28.1994C25.1156 28.1866 25.0474 28.1526 24.9642 28.0894C24.8817 28.0267 24.8173 27.9601 24.7769 27.9076C24.7342 27.8521 24.7472 27.8506 24.7702 27.9204L19.0723 29.8002C19.5078 31.1202 20.4138 32.1672 21.3334 32.8662C22.2392 33.5546 23.5236 34.1808 24.9725 34.1831L24.9819 28.1831ZM24.7702 27.9201C24.7398 27.8281 24.7218 27.7682 24.711 27.729C24.7005 27.6906 24.7006 27.6852 24.7038 27.7033C24.7074 27.7235 24.7142 27.7685 24.7169 27.8316C24.7197 27.8964 24.7176 27.965 24.7101 28.0332C24.6949 28.1704 24.665 28.2363 24.6847 28.183C24.695 28.1552 24.7146 28.1058 24.7499 28.0263C24.7853 27.9468 24.8311 27.8487 24.892 27.7232L19.4931 25.1055C19.2226 25.6633 18.8484 26.4538 18.7466 27.3722C18.6336 28.3917 18.8848 29.2318 19.0724 29.8004L24.7702 27.9201ZM24.8918 27.7235C25.0891 27.3168 25.8163 26.2441 26.4619 25.5114L21.96 21.5448C21.0912 22.5309 20.0023 24.0557 19.4932 25.1052L24.8918 27.7235ZM26.4618 25.5115C26.8102 25.1161 26.9925 24.9152 27.1214 24.7888C27.2378 24.6747 27.1749 24.7597 26.9866 24.8557C26.8881 24.9059 26.7884 24.9427 26.6982 24.9667C26.6143 24.989 26.5638 24.9934 26.57 24.9928C26.5804 24.9918 26.6273 24.988 26.7384 24.9865C26.8503 24.985 26.9891 24.9862 27.1861 24.989L27.2734 18.9897C26.6647 18.9808 25.4372 18.911 24.2616 19.5102C23.2439 20.0291 22.4723 20.9635 21.9601 21.5447L26.4618 25.5115ZM27.1863 24.989L28.8282 25.0128L28.915 19.0134L27.2731 18.9897L27.1863 24.989ZM31.3189 23.7482L32.7624 21.7123L27.8677 18.2421L26.4243 20.278L31.3189 23.7482ZM32.7045 10.5339C21.332 9.31601 11.7347 17.8832 11.7347 29.3093H17.7347C17.7347 21.4755 24.2137 15.6589 32.0656 16.4998L32.7045 10.5339ZM11.7347 29.3093C11.7347 34.2926 13.5502 38.7631 17.0295 42.2979L21.3056 38.0889C18.943 35.6887 17.7347 32.7349 17.7347 29.3093H11.7347ZM17.0297 42.2981C17.3186 42.5916 17.5214 42.808 17.6617 42.9685C17.8127 43.1412 17.8339 43.1844 17.8042 43.1365C17.7999 43.1295 17.5516 42.7529 17.5112 42.1324C17.4884 41.7821 17.5339 41.3809 17.6944 40.9747C17.8524 40.5749 18.0795 40.2769 18.285 40.0715L22.5276 44.3141C23.1576 43.6841 23.5658 42.7765 23.4985 41.7424C23.4447 40.916 23.1 40.2917 22.9047 39.9765C22.5113 39.3415 21.8957 38.6883 21.3053 38.0887L17.0297 42.2981ZM18.285 40.0715C18.5943 39.7621 19.1518 39.3834 19.9302 39.3207C20.6173 39.2654 21.0971 39.4916 21.2411 39.5665C21.3928 39.6454 21.4384 39.6975 21.3393 39.615C21.2546 39.5444 21.1189 39.4219 20.9102 39.2181L16.7186 43.5112C17.1575 43.9397 17.7785 44.5286 18.4724 44.8895C18.8619 45.0921 19.546 45.371 20.4113 45.3014C21.3679 45.2244 22.0775 44.7642 22.5276 44.3141L18.285 40.0715ZM20.9103 39.2182C13.1221 31.6132 16.3379 18.8542 26.8554 15.826L25.1953 10.0602C10.2853 14.3532 5.61673 32.6705 16.7185 43.5111L20.9103 39.2182ZM26.8553 15.826C27.4543 15.6536 28.8695 15.4849 30.4644 15.4451C31.2182 15.4263 31.9212 15.4387 32.4788 15.4781C33.142 15.525 33.2999 15.592 33.1691 15.5422L35.3016 9.93396C34.5322 9.64141 33.5906 9.54176 32.9022 9.49306C32.1082 9.43689 31.2075 9.42465 30.3145 9.44696C28.6157 9.48939 26.5645 9.66607 25.1954 10.0602L26.8553 15.826ZM33.1684 15.542C33.6284 15.717 34.1146 15.8313 34.5671 15.8841C34.8539 15.9176 35.7131 16.0093 36.5836 15.6458L34.2714 10.1092C34.4939 10.0163 34.6802 9.9737 34.7939 9.95296C34.9135 9.93115 35.0078 9.92366 35.0671 9.92079C35.1817 9.91526 35.2501 9.92308 35.2631 9.92459C35.2834 9.92697 35.2817 9.92639 35.3022 9.93422L33.1684 15.542ZM36.5856 15.6449C37.1254 15.419 37.4985 15.0694 37.5393 15.0331C37.6779 14.9099 37.8049 14.7818 37.9064 14.6753C38.1147 14.4568 38.3465 14.1915 38.5791 13.9142C39.0509 13.352 39.6219 12.6256 40.1889 11.8618L35.3712 8.28561C34.8606 8.97338 34.3637 9.6036 33.9827 10.0577C33.789 10.2885 33.6482 10.4464 33.5635 10.5353C33.5185 10.5825 33.5188 10.5791 33.5539 10.548C33.5713 10.5325 33.6247 10.4856 33.706 10.4261C33.761 10.3859 33.9645 10.2376 34.2694 10.11L36.5856 15.6449ZM40.189 11.8617C40.6663 11.2186 41.0212 10.7536 41.2932 10.4192C41.5885 10.0563 41.6902 9.96804 41.666 9.9886C41.6485 10.0035 41.5014 10.1295 41.2408 10.2496C40.9622 10.378 40.4649 10.5389 39.8324 10.4625C39.1779 10.3834 38.692 10.0887 38.3921 9.82761C38.126 9.59596 37.9906 9.37927 37.9601 9.32992L43.0637 6.17502C42.8829 5.88251 42.1299 4.69643 40.552 4.50581C39.0907 4.32928 38.0771 5.16459 37.7809 5.41626C37.0654 6.02428 36.2541 7.09599 35.3711 8.28574L40.189 11.8617ZM43.3957 33.8286L42.406 36.7543L48.0896 38.6769L49.0793 35.7513L43.3957 33.8286ZM42.2789 38.1458L42.9717 42.9271L48.9096 42.0666L48.2168 37.2854L42.2789 38.1458ZM42.9717 42.9273C43.3501 45.5371 43.7477 48.1959 43.853 48.8049L49.7652 47.7826C49.6774 47.2746 49.2937 44.716 48.9096 42.0664L42.9717 42.9273ZM43.8528 48.804C43.8754 48.9349 43.859 48.8881 43.8595 48.7553C43.8599 48.655 43.8642 48.1254 44.225 47.5301C44.6719 46.7928 45.3684 46.4228 45.9427 46.3029C46.1857 46.2522 46.3768 46.2508 46.4819 46.255C46.5895 46.2593 46.6557 46.2716 46.6658 46.2736C46.6767 46.2756 46.5966 46.26 46.3808 46.1856C46.1753 46.1147 45.9016 46.0099 45.539 45.8599C44.8098 45.5581 43.835 45.1214 42.5166 44.5183L40.021 49.9747C41.3361 50.5762 42.4022 51.0553 43.245 51.404C44.0309 51.7292 44.8372 52.0342 45.5516 52.1692C45.9046 52.2359 46.4989 52.3161 47.1688 52.1763C47.9652 52.01 48.813 51.5361 49.356 50.6403C49.8129 49.8865 49.858 49.1437 49.8595 48.7787C49.861 48.381 49.8058 48.0177 49.7654 47.7834L43.8528 48.804ZM42.5165 44.5183C40.3179 43.5128 38.6927 42.7049 37.1014 42.4568C35.415 42.1938 33.7745 42.5558 31.8161 42.8978L32.8483 48.8084C35.3418 48.3729 35.7285 48.3152 36.1769 48.3851C36.7203 48.4699 37.3375 48.7475 40.0211 49.9748L42.5165 44.5183ZM31.8163 42.8978C30.791 43.0768 29.9911 43.0836 28.7476 42.883L27.7919 48.8064C29.6239 49.102 31.0991 49.1138 32.8482 48.8084L31.8163 42.8978ZM28.7478 42.883C27.5727 42.6933 26.1862 42.4706 25.6664 42.388L24.7255 48.3138C25.237 48.395 26.6167 48.6166 27.7916 48.8063L28.7478 42.883ZM25.6668 42.3881C25.3736 42.3415 24.6751 42.2333 23.8619 42.4453C23.0211 42.6645 22.4124 43.1235 21.9909 43.5158C21.2875 44.1704 20.4613 45.2845 19.3976 46.7177L24.2156 50.2935C24.7948 49.5131 25.2139 48.954 25.539 48.5421C25.8795 48.1108 26.0313 47.9519 26.0788 47.9077C26.1066 47.8818 25.8582 48.1254 25.3755 48.2512C24.9204 48.3699 24.5779 48.2903 24.7251 48.3137L25.6668 42.3881ZM19.3974 46.7179C18.7591 47.578 18.1475 48.3386 17.6884 48.8634C17.4526 49.1328 17.295 49.2964 17.2158 49.3715C17.1695 49.4154 17.2042 49.3773 17.2995 49.3085C17.3454 49.2755 17.4692 49.1885 17.6526 49.0986C17.7476 49.052 17.8936 48.9873 18.081 48.9311C18.2618 48.877 18.5519 48.8093 18.916 48.8093V54.8093C19.6124 54.8093 20.1237 54.5694 20.2942 54.4858C20.5238 54.3732 20.7016 54.2525 20.8088 54.1753C21.0266 54.0182 21.2131 53.8497 21.3438 53.7258C21.6184 53.4654 21.9156 53.1438 22.2038 52.8144C22.7925 52.1416 23.5056 51.2503 24.2158 50.2933L19.3974 46.7179ZM18.916 48.8093C19.2088 48.8093 19.6167 48.869 20.057 49.1123C20.3855 49.2938 21.4772 50.0335 21.4772 51.5668H15.4772C15.4772 53.2336 16.6677 54.0946 17.1552 54.3639C17.7546 54.6951 18.3819 54.8093 18.916 54.8093V48.8093ZM21.4772 51.5668C21.4772 52.0046 21.3786 52.3343 21.3485 52.4331C21.3053 52.5748 21.2605 52.6827 21.2364 52.7384C21.1876 52.8511 21.1441 52.9306 21.1323 52.952C21.104 53.0036 21.0898 53.0241 21.1105 52.9914C21.1453 52.9366 21.2163 52.8294 21.3335 52.6591C21.5626 52.3263 21.9058 51.8424 22.3433 51.2361C23.2149 50.0284 24.4241 48.3859 25.7586 46.603L20.9552 43.0075C19.606 44.81 18.3753 46.4816 17.478 47.7249C17.0311 48.3442 16.6576 48.8701 16.391 49.2574C16.2604 49.4471 16.1389 49.6276 16.0431 49.7787C15.9986 49.8489 15.9346 49.952 15.8727 50.0646C15.8443 50.1165 15.7881 50.2211 15.7308 50.3533C15.7024 50.4189 15.6545 50.5351 15.6092 50.6838C15.5769 50.7897 15.4772 51.125 15.4772 51.5668H21.4772ZM25.7586 46.603L30.6383 40.084L25.8349 36.4885L20.9552 43.0076L25.7586 46.603ZM31.0853 37.3457L30.696 36.1663L24.9985 38.0474L25.3878 39.2267L31.0853 37.3457ZM30.6961 36.1668C30.6895 36.1466 30.6744 36.0944 30.6587 36.0126C30.6433 35.9331 30.6315 35.8475 30.6245 35.7663C30.6174 35.683 30.6174 35.6276 30.6182 35.6062C30.6185 35.5967 30.6186 35.6062 30.6154 35.6323C30.6124 35.6563 30.6041 35.716 30.5826 35.8019L24.7631 34.3412C24.5856 35.0483 24.6036 35.7787 24.6464 36.2784C24.6938 36.8322 24.8044 37.4594 24.9983 38.0469L30.6961 36.1668ZM30.5826 35.8018C30.4907 36.1681 30.356 36.3406 30.5216 36.0525C30.6156 35.8891 30.7632 35.651 30.9647 35.344C31.3636 34.7358 31.9035 33.9629 32.4792 33.1732C33.0541 32.3848 33.6443 31.6074 34.1398 30.9897C34.7152 30.2722 34.9684 30.0188 34.9357 30.0459L31.1037 25.429C30.5812 25.8627 29.9465 26.6282 29.4593 27.2356C28.8921 27.9427 28.2449 28.7964 27.6309 29.6386C27.0178 30.4796 26.4173 31.3372 25.9478 32.053C25.7149 32.4079 25.4963 32.7552 25.3198 33.0623C25.2151 33.2445 24.9058 33.7727 24.7631 34.3413L30.5826 35.8018ZM34.9354 30.0462C34.9907 30.0003 34.8775 30.1062 34.6396 30.2226C34.5224 30.2798 34.237 30.4091 33.8335 30.4651C33.423 30.5222 32.6543 30.5304 31.8758 30.0351C31.0645 29.5191 30.7263 28.7669 30.6041 28.2646C30.4918 27.8031 30.5242 27.4346 30.5434 27.2787C30.5657 27.0971 30.6019 26.9668 30.6193 26.909C30.6387 26.8442 30.6545 26.8051 30.6578 26.7971C30.6632 26.7837 30.6493 26.8189 30.6003 26.9093C30.554 26.9948 30.4883 27.1075 30.4011 27.2457C30.226 27.5229 29.9872 27.8656 29.6921 28.2456L34.4311 31.9256C35.1814 30.9594 35.8677 29.9102 36.213 29.0641C36.2975 28.857 36.4415 28.4739 36.4984 28.0119C36.5265 27.7837 36.5578 27.3548 36.4339 26.8459C36.3001 26.2961 35.94 25.5094 35.096 24.9726C34.2848 24.4565 33.4726 24.4576 33.0075 24.5223C32.5494 24.586 32.1982 24.7374 32.0039 24.8324C31.6115 25.0243 31.2979 25.2679 31.104 25.4288L34.9354 30.0462ZM29.6921 28.2456C29.2466 28.8193 28.8345 29.4113 28.525 29.9249C28.3756 30.1727 28.2108 30.467 28.0789 30.7675C28.0156 30.9117 27.9229 31.1397 27.8542 31.4137C27.8208 31.5468 27.617 32.3015 27.9072 33.1855L33.6078 31.3138C33.7648 31.792 33.7601 32.1931 33.7476 32.393C33.7338 32.6129 33.6969 32.7817 33.6737 32.8742C33.6283 33.0551 33.5775 33.1685 33.5728 33.1794C33.5579 33.2133 33.5769 33.1662 33.6639 33.0218C33.8271 32.751 34.0978 32.3547 34.431 31.9256L29.6921 28.2456ZM27.9058 33.1812C28.201 34.0847 28.8115 34.5931 29.0804 34.7935C29.4077 35.0373 29.7335 35.1936 29.98 35.2933C30.4804 35.4956 31.0241 35.6128 31.5426 35.6544L32.0224 29.6736C32.0385 29.6749 32.1003 29.6787 32.2291 29.7308C32.2898 29.7553 32.4574 29.8273 32.6653 29.9822C32.8148 30.0936 33.3447 30.5083 33.6092 31.3181L27.9058 33.1812ZM31.5429 35.6544C31.8829 35.6817 32.3954 35.6984 32.9772 35.5635C33.6017 35.4186 34.1311 35.1416 34.5787 34.7976C35.302 34.2418 35.8911 33.4229 36.3604 32.7643L31.474 29.2825C31.2214 29.6371 31.0562 29.8564 30.9386 29.9988C30.8154 30.1479 30.8194 30.1195 30.9228 30.0401C30.9837 29.9933 31.0791 29.9285 31.2078 29.8655C31.3395 29.8011 31.4798 29.7515 31.6215 29.7186C31.8933 29.6556 32.074 29.6778 32.0222 29.6736L31.5429 35.6544ZM36.3606 32.7641C36.9666 31.9135 37.1803 31.7302 37.0939 31.7989C37.0519 31.8322 36.8462 31.9954 36.5045 32.128C36.1773 32.255 35.3481 32.4937 34.3834 32.0842C33.3723 31.6551 32.9522 30.834 32.8053 30.4135C32.6656 30.0138 32.6647 29.7044 32.6647 29.6353H38.6647C38.6647 29.3887 38.6456 28.9384 38.4695 28.4345C38.2862 27.9098 37.8115 27.0212 36.7276 26.5611C35.6901 26.1208 34.7698 26.3652 34.3335 26.5346C33.8826 26.7096 33.5494 26.9518 33.3618 27.1008C32.6928 27.6323 32.0329 28.498 31.4738 29.2827L36.3606 32.7641ZM32.6647 29.6353C32.6647 29.4447 32.6835 29.2879 32.7008 29.1798C32.7186 29.0687 32.7401 28.977 32.7577 28.9104C32.7918 28.7814 32.8274 28.6862 32.846 28.6388C32.8828 28.5453 32.9101 28.4955 32.9028 28.5095C32.8918 28.5305 32.846 28.6126 32.7509 28.7625C32.5671 29.0521 32.2911 29.4507 31.9741 29.8706L36.7623 33.4863C37.1583 32.9618 37.5306 32.4285 37.8169 31.9774C37.9567 31.757 38.1014 31.5166 38.2221 31.2853C38.2806 31.1731 38.3591 31.0147 38.4305 30.8329C38.459 30.7603 38.6647 30.2687 38.6647 29.6353H32.6647ZM31.974 29.8707C31.6778 30.263 31.4014 30.6344 31.1795 30.966C30.9702 31.2787 30.6954 31.7202 30.5092 32.2433C30.2899 32.8597 30.2062 33.5489 30.3504 34.2802C30.4711 34.8922 30.7272 35.3726 30.8383 35.5802L36.1287 32.7497C36.0992 32.6946 36.1086 32.7079 36.1292 32.757C36.1521 32.8115 36.2014 32.9388 36.237 33.1193C36.2747 33.3107 36.2899 33.5247 36.27 33.7488C36.2507 33.9667 36.2031 34.1395 36.1621 34.2547C36.1421 34.3108 36.1238 34.3529 36.1115 34.3795C36.0993 34.4059 36.0913 34.4203 36.091 34.421C36.0906 34.4217 36.0957 34.4124 36.1085 34.3917C36.1213 34.3709 36.1399 34.342 36.1659 34.3031C36.2811 34.131 36.4614 33.8848 36.7624 33.4861L31.974 29.8707ZM30.8383 35.5804C31.0051 35.892 31.3577 36.5288 31.9554 37.0358C32.2975 37.3261 32.8005 37.6449 33.4676 37.7891C34.1584 37.9385 34.8064 37.8532 35.3431 37.659C36.2572 37.3283 36.8522 36.678 37.1184 36.3731C37.4516 35.9916 37.7773 35.535 38.084 35.0827L33.118 31.7154C32.8398 32.1256 32.6813 32.3323 32.599 32.4266C32.5617 32.4693 32.5865 32.4347 32.668 32.3678C32.7435 32.3059 32.9571 32.1417 33.3019 32.0169C33.6835 31.8789 34.1855 31.8057 34.7355 31.9246C35.2619 32.0384 35.6292 32.2843 35.8368 32.4604C36.1656 32.7393 36.2537 32.9834 36.1286 32.7496L30.8383 35.5804ZM38.0839 35.0829C38.64 34.2628 39.0417 33.7815 39.2441 33.5822C39.3874 33.441 39.2523 33.6172 38.8876 33.7816C38.7028 33.8649 38.1679 34.0798 37.4396 33.9837C36.5448 33.8657 35.8145 33.3404 35.3969 32.6649L40.5001 29.5094C40.0261 28.7429 39.2176 28.1663 38.2243 28.0353C37.3976 27.9262 36.7442 28.1664 36.4222 28.3115C35.7832 28.5995 35.2996 29.0457 35.0338 29.3074C34.4179 29.9141 33.7585 30.7708 33.1181 31.7152L38.0839 35.0829ZM35.3966 32.6645C34.8379 31.7607 34.9596 30.8939 34.9794 30.7438C35.016 30.4664 35.0851 30.2686 35.1071 30.2073C35.1568 30.0683 35.196 30.0045 35.1642 30.0642C35.1146 30.1572 34.9993 30.3519 34.8005 30.6577C34.4155 31.2498 33.8523 32.0524 33.2354 32.8903C32.6208 33.7251 31.9808 34.5569 31.4498 35.2065C31.1828 35.5333 30.9609 35.7923 30.7942 35.9746C30.5661 36.2241 30.5899 36.1646 30.7757 36.0344L34.2181 40.9487C34.6379 40.6546 35.014 40.2512 35.2225 40.0231C35.4924 39.7278 35.7914 39.3756 36.0955 39.0036C36.7067 38.2558 37.4099 37.3402 38.0671 36.4477C38.7219 35.5583 39.3591 34.6537 39.8306 33.9285C40.06 33.5756 40.2871 33.2092 40.4598 32.8849C40.5392 32.7358 40.6595 32.4993 40.7561 32.2293C40.8015 32.1024 40.8856 31.8495 40.9279 31.5281C40.9535 31.3341 41.0719 30.4346 40.5003 29.5098L35.3966 32.6645ZM30.7743 36.0354C30.8715 35.9673 30.945 35.9285 30.9768 35.9125C31.0115 35.8951 31.0284 35.8889 31.0227 35.8911C31.0087 35.8965 30.9549 35.9154 30.8627 35.9378C30.7736 35.9595 30.6727 35.9787 30.5711 35.9922C30.4682 36.0059 30.385 36.0111 30.3293 36.0117L30.392 42.0114C31.0401 42.0046 31.7037 41.9083 32.2813 41.7677C32.7778 41.6469 33.5562 41.4129 34.2195 40.9477L30.7743 36.0354ZM30.3303 36.0117C29.724 36.0178 28.394 35.9685 27.1018 36.9315C26.6027 37.3036 26.2025 37.7535 25.8862 38.1354C25.5591 38.5304 25.1793 39.0311 24.7476 39.6012L29.5312 43.2231C29.9881 42.6196 30.2814 42.2352 30.5074 41.9623C30.7443 41.6762 30.7774 41.6753 30.6874 41.7423C30.6239 41.7897 30.5231 41.854 30.3899 41.9117C30.2568 41.9693 30.1415 41.9984 30.0671 42.0122C30.0037 42.024 29.9835 42.0219 30.0476 42.0186C30.1166 42.0151 30.2121 42.0132 30.391 42.0114L30.3303 36.0117ZM24.7476 39.6013C24.0293 40.5501 23.3604 41.4415 23.008 42.1846C22.8138 42.5944 22.5049 43.3731 22.6354 44.3391C22.778 45.3951 23.358 46.0668 23.6693 46.3782L27.912 42.1355C28.0221 42.2456 28.4716 42.7232 28.5813 43.5358C28.6789 44.2582 28.4347 44.7442 28.4295 44.7552C28.4138 44.7883 28.4535 44.7017 28.6641 44.3993C28.8598 44.1182 29.1368 43.744 29.5313 43.223L24.7476 39.6013ZM23.6698 46.3786C24.2856 46.9942 25.0241 47.2515 25.3373 47.3534C25.7563 47.4898 26.1981 47.5823 26.6037 47.6487C27.4245 47.7832 28.3851 47.8567 29.3392 47.8829C31.1835 47.9334 33.4702 47.8181 35.0947 47.3933L33.5766 41.5885C32.7658 41.8006 31.1419 41.93 29.5035 41.8851C28.7162 41.8636 28.0424 41.8044 27.5736 41.7276C27.3344 41.6885 27.2178 41.6557 27.1942 41.648C27.0647 41.6059 27.4766 41.7004 27.9115 42.1351L23.6698 46.3786ZM35.0947 47.3933L37.0472 46.8827L35.5291 41.0779L33.5766 41.5885L35.0947 47.3933ZM35.0742 46.7237L38.9402 48.4343L41.368 42.9475L37.5021 41.2369L35.0742 46.7237ZM38.9399 48.4342C40.0272 48.9155 41.1186 49.3795 42.0068 49.7414C42.7832 50.0578 43.6635 50.4054 44.1558 50.5289L45.6155 44.7092C45.6881 44.7274 45.6209 44.7123 45.3014 44.5921C45.0358 44.4921 44.6855 44.3539 44.2709 44.185C43.4439 43.848 42.4075 43.4076 41.3683 42.9476L38.9399 48.4342ZM44.1553 50.5288C44.2777 50.5595 44.6982 50.6727 45.0972 50.7102C45.3898 50.7377 47.0585 50.8728 48.0967 49.3356C48.5101 48.7236 48.6068 48.1208 48.6356 47.8031C48.6656 47.4725 48.6433 47.1887 48.6265 47.0253C48.5942 46.7119 48.5248 46.3518 48.4795 46.1103L42.5824 47.2166C42.6103 47.3653 42.6295 47.4685 42.6436 47.5515C42.6584 47.6381 42.6597 47.6567 42.6579 47.6388C42.6576 47.636 42.6399 47.4843 42.6602 47.2607C42.6793 47.0499 42.752 46.529 43.1245 45.9774C43.5557 45.339 44.1689 44.9775 44.7288 44.8238C45.1935 44.6962 45.5587 44.7271 45.6586 44.7365C45.8225 44.7519 45.9213 44.7859 45.616 44.7093L44.1553 50.5288ZM48.4795 46.1103C47.9572 43.3258 47.3958 39.0302 47.377 38.0044L41.378 38.1143C41.4067 39.6791 42.0535 44.3972 42.5824 47.2166L48.4795 46.1103ZM47.377 38.005C47.3716 37.7069 47.5316 36.8633 47.7566 36.3457L42.2541 33.9536C41.7422 35.131 41.3547 36.8262 41.378 38.1137L47.377 38.005ZM47.7567 36.3456C50.8817 29.1562 48.6502 20.026 42.6381 14.891L38.7413 19.4533C42.8136 22.9315 44.2934 29.2619 42.254 33.9538L47.7567 36.3456ZM42.6383 14.8911C42.2457 14.5558 41.9847 14.3166 41.8209 14.1521C41.6084 13.9386 41.707 13.9958 41.8418 14.2446C41.9094 14.3693 42.1251 14.7898 42.14 15.407C42.1585 16.1708 41.8582 16.974 41.2256 17.5555C40.71 18.0294 40.1806 18.1637 40.002 18.2025C39.7895 18.2487 39.6495 18.2468 39.6466 18.2468V12.2468C39.4191 12.2468 39.091 12.2605 38.7278 12.3394C38.3984 12.411 37.7557 12.5953 37.1652 13.1381C36.4577 13.7885 36.1207 14.6795 36.1418 15.5518C36.1593 16.2774 36.4169 16.827 36.5665 17.1031C36.8654 17.6546 37.2887 18.1039 37.5689 18.3853C37.8979 18.7157 38.2976 19.0743 38.7412 19.4532L42.6383 14.8911ZM39.104 7.452L43.4145 11.6257L43.415 11.6251L39.104 7.452ZM36.7418 10.3108L41.5149 13.9464L41.5154 13.9458L36.7418 10.3108ZM35.2465 12.2739L34.4909 18.2261L37.9231 18.6618L40.0196 15.9095L35.2465 12.2739ZM33.3043 12.0273L34.06 6.07509L34.0597 6.07505L33.3043 12.0273ZM25.6868 12.3989L24.0228 6.63424L24.0228 6.63425L25.6868 12.3989ZM13.0859 28.7448L7.08593 28.763L7.08593 28.7632L13.0859 28.7448ZM14.9765 36.8617L9.59068 39.5061L9.59093 39.5066L14.9765 36.8617ZM19.4543 39.8261L15.1279 43.9832L15.1281 43.9834L19.4543 39.8261ZM15.2575 26.6764L21.1733 27.6776L21.1734 27.6773L15.2575 26.6764ZM26.8393 14.1448L28.1867 19.9916L28.1868 19.9915L26.8393 14.1448ZM33.5222 14.0758L38.6325 10.9318L38.6288 10.9257L38.625 10.9197L33.5222 14.0758ZM31.1409 17.8258L35.9834 21.3683L35.9835 21.3682L31.1409 17.8258ZM28.5937 21.3076V27.3076H31.6385L33.4362 24.8502L28.5937 21.3076ZM24.9968 21.8139L28.4384 26.7287L28.4386 26.7286L24.9968 21.8139ZM21.3468 27.0586L15.4499 25.9513L15.4497 25.9523L21.3468 27.0586ZM26.7931 30.8583L24.0374 25.5285L24.0373 25.5286L26.7931 30.8583ZM30.579 26.1554L24.9712 24.022L24.9705 24.0236L30.579 26.1554ZM30.5559 23.8754L24.778 25.4928L24.7783 25.4937L30.5559 23.8754ZM36.44 14.2595L31.6693 10.6207L31.669 10.621L36.44 14.2595ZM40.4322 6.93919L36.5997 11.5557L36.6006 11.5564L40.4322 6.93919ZM38.914 14.6411L43.1554 18.885L43.1567 18.8837L38.914 14.6411ZM40.7503 17.8792L44.9696 13.6134L44.9696 13.6133L40.7503 17.8792ZM44.9634 24.4445L39.2806 26.3695L39.2806 26.3696L44.9634 24.4445ZM45.5006 29.7451L39.5066 29.4767L39.5066 29.477L45.5006 29.7451ZM44.4868 34.9842L49.9729 37.4138L49.9729 37.4137L44.4868 34.9842ZM43.6197 36.9423L38.1336 34.5127L37.439 36.0811L37.6784 37.7795L43.6197 36.9423ZM44.3062 41.8145L50.2476 40.9776L50.2475 40.9773L44.3062 41.8145ZM40.9903 45.3439L38.5359 50.8189L38.5363 50.8191L40.9903 45.3439ZM32.9243 44.0998L31.6669 38.2331L31.6665 38.2331L32.9243 44.0998ZM26.3497 43.882L23.419 49.1176L23.4192 49.1177L26.3497 43.882ZM27.5278 41.4414L22.7773 37.7763L22.7771 37.7766L27.5278 41.4414ZM30.7843 39.1154L31.3893 45.0849L31.3894 45.0849L30.7843 39.1154ZM32.9325 38.4904L36.7538 43.1162L36.7549 43.1152L32.9325 38.4904ZM38.3222 31.0142L32.4303 32.1482L32.4306 32.15L38.3222 31.0142ZM35.6931 32.2039L31.0082 28.4553L31.0081 28.4554L35.6931 32.2039ZM34.9556 31.3817L30.2619 27.6442L30.2611 27.6451L34.9556 31.3817ZM35.75 28.8186L31.9165 33.4343L31.919 33.4364L35.75 28.8186ZM33.0728 30.9576L37.8648 34.5682L37.8657 34.5671L33.0728 30.9576ZM31.7278 31.8911L30.5133 37.7669L30.5177 37.7678L31.7278 31.8911ZM32.599 29.8592L27.786 26.2766L27.7856 26.2771L32.599 29.8592ZM33.8325 27.4373L39.4344 25.2882L39.4342 25.2878L33.8325 27.4373ZM29.1706 31.4608L24.3681 27.864L24.3679 27.8643L29.1706 31.4608ZM27.0668 34.2701L22.2642 30.6737L20.8778 32.525L21.0928 34.8279L27.0668 34.2701ZM27.2537 36.2717L33.2277 35.714L33.2277 35.7139L27.2537 36.2717ZM27.4406 38.2736L32.2413 41.8726L33.6298 40.0206L33.4146 37.7159L27.4406 38.2736ZM22.9647 44.2439L27.7653 47.843H27.7653L22.9647 44.2439ZM17.9875 51.9645L22.2301 47.7219L17.9875 51.9645ZM22.0856 48.7651L26.9464 52.2826L26.9464 52.2826L22.0856 48.7651ZM24.3718 45.6058L25.3012 39.6782L21.6674 39.1084L19.511 42.0883L24.3718 45.6058ZM25.6793 45.8108L24.75 51.7383L24.7501 51.7384L25.6793 45.8108ZM34.1743 45.8808L32.8932 40.0191L32.8928 40.0192L34.1743 45.8808ZM36.3618 45.4026L38.7978 39.9194L37.0012 39.1212L35.0807 39.541L36.3618 45.4026ZM41.3056 47.5989L43.7418 42.1158L43.7415 42.1156L41.3056 47.5989ZM46.6962 49.6236L44.549 44.0209L44.5443 44.0228L46.6962 49.6236ZM46.5231 43.6423L52.4635 42.7986L52.4635 42.7985L46.5231 43.6423ZM46.7103 34.4092L41.051 32.416L41.0509 32.4164L46.7103 34.4092ZM40.7681 15.3189L44.2969 10.4663L44.2963 10.4658L40.7681 15.3189ZM29.1603 33.9498L33.4024 38.193L33.4037 38.1917L29.1603 33.9498ZM29.8928 37.8014L31.8676 32.1357L31.8675 32.1357L29.8928 37.8014ZM31.824 33.6479L34.5799 28.3183L34.5797 28.3182L31.824 33.6479ZM31.3978 34.6208L34.3877 29.4188L31.3978 34.6208ZM31.554 36.652L35.7957 40.8956L35.7976 40.8937L31.554 36.652ZM29.5228 36.3395L23.8621 38.3287L24.3147 39.6168L25.2801 40.5821L29.5228 36.3395ZM34.7936 3.27829C34.0611 4.03475 32.824 5.55202 31.9683 6.6757L41.5154 13.9458C41.8734 13.4757 42.2947 12.9465 42.6777 12.4831C42.8682 12.2526 43.039 12.0506 43.1792 11.8892C43.249 11.8088 43.3061 11.7444 43.3503 11.6955C43.3968 11.644 43.4168 11.6233 43.4145 11.6257L34.7936 3.27829ZM31.9688 6.67511L30.4735 8.63823L40.0196 15.9095L41.5149 13.9464L31.9688 6.67511ZM36.0022 6.32165L34.06 6.07509L32.5487 17.9795L34.4909 18.2261L36.0022 6.32165ZM34.0597 6.07505C30.6627 5.64397 27.0926 5.74811 24.0228 6.63424L27.3509 18.1635C28.4317 17.8515 30.2772 17.6913 32.549 17.9796L34.0597 6.07505ZM24.0228 6.63425C14.1995 9.46992 7.05489 18.5382 7.08593 28.763L19.0859 28.7266C19.0719 24.1265 22.4167 19.5878 27.3509 18.1635L24.0228 6.63425ZM7.08593 28.7632C7.09651 32.2156 8.07147 36.4118 9.59068 39.5061L20.3624 34.2173C19.6522 32.7709 19.0909 30.3722 19.0859 28.7264L7.08593 28.7632ZM9.59093 39.5066C10.505 41.3677 11.9051 43.2487 13.1619 44.6426C13.8036 45.3542 14.5505 46.0985 15.3372 46.7197C15.7253 47.0262 16.2451 47.4001 16.8621 47.7244C17.3549 47.9833 18.5432 48.5576 20.1122 48.5576V36.5576C20.8351 36.5576 21.3955 36.6991 21.7215 36.8028C22.0612 36.9109 22.3076 37.03 22.4439 37.1016C22.7039 37.2382 22.8206 37.3388 22.774 37.3019C22.6911 37.2365 22.4414 37.0143 22.0742 36.607C21.7266 36.2215 21.3629 35.7691 21.0395 35.3126C20.7072 34.8436 20.4826 34.462 20.3621 34.2168L9.59093 39.5066ZM20.1122 48.5576C20.7491 48.5576 22.7263 48.5234 24.5208 47.1222C25.5817 46.2937 26.402 45.1162 26.7715 43.704C27.114 42.3949 26.976 41.2495 26.7924 40.4869C26.4568 39.0931 25.7386 38.037 25.3493 37.5035C24.8783 36.8579 24.3273 36.2377 23.7806 35.6687L15.1281 43.9834C15.4776 44.3471 15.6249 44.5347 15.6551 44.5761C15.7671 44.7297 15.3531 44.2399 15.1258 43.2958C14.9963 42.758 14.8635 41.8084 15.1623 40.6664C15.4881 39.4213 16.2157 38.3822 17.1354 37.6641C17.9659 37.0155 18.7676 36.768 19.2037 36.6682C19.6547 36.5649 19.9872 36.5576 20.1122 36.5576V48.5576ZM23.7808 35.6689C21.6267 33.4271 20.7167 30.3759 21.1733 27.6776L9.3416 25.6751C8.22078 32.2975 10.4658 39.1313 15.1279 43.9832L23.7808 35.6689ZM21.1734 27.6773C21.8092 23.9198 24.8343 20.7641 28.1867 19.9916L25.492 8.29806C17.2313 10.2017 10.7539 17.328 9.34155 25.6754L21.1734 27.6773ZM28.1868 19.9915C28.1706 19.9953 28.4321 19.9455 29.0369 19.8981C29.5749 19.856 30.1991 19.8297 30.7941 19.8236C31.4093 19.8172 31.8765 19.8336 32.1272 19.8543C32.2778 19.8667 32.1916 19.868 31.974 19.8211C31.8804 19.8009 31.5468 19.7274 31.117 19.5481C30.897 19.4563 30.524 19.2844 30.0999 18.9942C29.7026 18.7225 29.0003 18.1712 28.4193 17.2318L38.625 10.9197C37.5606 9.19872 35.9855 8.57679 35.7387 8.47379C35.2133 8.25451 34.7523 8.14435 34.5034 8.09068C33.9753 7.97681 33.4668 7.92399 33.1128 7.89482C32.3546 7.83234 31.4843 7.81579 30.6701 7.8242C29.192 7.83947 27.0208 7.94569 25.4918 8.29809L28.1868 19.9915ZM28.4118 17.2197C27.752 16.1473 27.5904 15.132 27.5458 14.5646C27.499 13.9696 27.5524 13.492 27.5944 13.2165C27.6767 12.6768 27.8165 12.2824 27.866 12.1464C27.931 11.9681 27.989 11.8401 28.0154 11.7832C28.0453 11.7189 28.0663 11.6786 28.0718 11.6682C28.0756 11.6609 28.0084 11.7843 27.8258 12.0718C27.4826 12.6122 26.9435 13.4013 26.2983 14.2833L35.9835 21.3682C36.739 20.3355 37.4359 19.3235 37.956 18.5045C38.2049 18.1124 38.4761 17.6665 38.6991 17.2414C38.7973 17.054 38.9813 16.6927 39.1407 16.2551C39.2136 16.0552 39.3685 15.6075 39.4572 15.0259C39.4929 14.792 39.8341 12.885 38.6325 10.9318L28.4118 17.2197ZM26.2984 14.2832L23.7512 17.765L33.4362 24.8502L35.9834 21.3683L26.2984 14.2832ZM28.5937 15.3076H27.1568V27.3076H28.5937V15.3076ZM27.1568 15.3076C26.2566 15.3076 25.36 15.4222 24.5549 15.6109C23.8917 15.7664 22.6859 16.1073 21.5551 16.8992L28.4386 26.7286C28.0123 27.0271 27.6699 27.1656 27.5555 27.2098C27.4095 27.2662 27.3183 27.2884 27.2934 27.2943C27.2606 27.302 27.238 27.3076 27.1568 27.3076V15.3076ZM21.5552 16.8991C20.6368 17.5422 19.8844 18.3684 19.4321 18.8945C18.8971 19.5167 18.3716 20.2081 17.9047 20.8791C17.4397 21.5473 16.9745 22.2789 16.5841 22.993C16.2969 23.5183 15.6927 24.6583 15.4499 25.9513L27.2438 28.1659C27.194 28.4312 27.1347 28.6225 27.1036 28.7159C27.07 28.817 27.0439 28.8791 27.037 28.8951C27.0256 28.9219 27.0442 28.8758 27.1134 28.7493C27.2514 28.4967 27.4743 28.136 27.7544 27.7334C28.0326 27.3337 28.3093 26.976 28.5309 26.7182C28.641 26.5903 28.7089 26.5202 28.7321 26.4974C28.7754 26.4548 28.6715 26.5655 28.4384 26.7287L21.5552 16.8991ZM15.4497 25.9523C13.8663 34.3928 22.8237 39.6654 29.5489 36.1879L24.0373 25.5286C24.7453 25.1625 25.62 25.2585 26.2495 25.6976C26.8996 26.1512 27.4421 27.1087 27.244 28.1649L15.4497 25.9523ZM29.5488 36.188C30.6587 35.6141 31.5279 34.785 31.9566 34.3601C32.5114 33.8102 33.0544 33.1924 33.5388 32.5907C34.366 31.5632 35.5726 29.9051 36.1875 28.2873L24.9705 24.0236C25.0306 23.8655 25.0682 23.8058 25.0361 23.8648C25.0109 23.9112 24.9586 24.0015 24.8728 24.1339C24.6989 24.4021 24.46 24.732 24.1915 25.0656C23.9196 25.4033 23.6765 25.6713 23.5093 25.8371C23.4261 25.9195 23.4015 25.937 23.4346 25.9101C23.4363 25.9087 23.6505 25.7286 24.0374 25.5285L29.5488 36.188ZM36.1869 28.2889C36.5387 27.3641 36.7868 26.3021 36.7743 25.0726C36.7631 23.9581 36.5374 22.9849 36.3335 22.2571L24.7783 25.4937C24.8594 25.7834 24.7791 25.5987 24.775 25.1941C24.7727 24.9712 24.7932 24.7332 24.8395 24.4963C24.8841 24.2674 24.9406 24.1022 24.9712 24.022L36.1869 28.2889ZM36.3338 22.2581C36.2644 22.0101 36.1959 21.8029 36.1428 21.6494C36.1173 21.5758 36.0942 21.5112 36.0799 21.4715C36.0622 21.4221 36.0595 21.4147 36.0568 21.4068C36.0341 21.3421 36.2353 21.8619 36.287 22.5834C36.4103 24.3039 35.6182 25.3944 35.8151 25.0726C35.9592 24.8372 36.3336 24.3027 37.2804 23.049C38.186 21.85 39.4283 20.2353 41.2109 17.898L31.669 10.621C28.3572 14.9637 26.439 17.4044 25.5794 18.8092C25.1298 19.544 24.158 21.2121 24.3177 23.4409C24.3876 24.4166 24.6611 25.1733 24.7333 25.3792C24.8448 25.6969 24.7924 25.5443 24.778 25.4928L36.3338 22.2581ZM41.2106 17.8983C42.474 16.242 43.64 14.6496 44.5073 13.4053C44.9347 12.7921 45.3273 12.2096 45.6313 11.7226C45.7765 11.49 45.9556 11.1933 46.1179 10.8833C46.1955 10.7352 46.3229 10.4826 46.446 10.1729C46.4794 10.0887 46.8931 9.13027 46.8931 7.87107H34.8931C34.8931 7.13853 35.0309 6.58045 35.0925 6.35113C35.1673 6.07255 35.2472 5.85955 35.294 5.7418C35.3865 5.50895 35.4685 5.35227 35.4865 5.31798C35.5296 5.23557 35.5331 5.23808 35.4521 5.36773C35.3039 5.60517 35.0425 5.99875 34.6628 6.54344C33.9159 7.61501 32.8553 9.06577 31.6693 10.6207L41.2106 17.8983ZM46.8931 7.87107C46.8931 6.50491 46.4753 5.39701 46.1356 4.71029C45.7805 3.99245 45.1924 3.09258 44.2637 2.32194L36.6006 11.5564C35.9254 10.9961 35.5677 10.4111 35.3797 10.0311C35.2071 9.68215 34.8931 8.93504 34.8931 7.87107H46.8931ZM44.2646 2.32266C43.8819 2.00495 43.0255 1.34784 41.7556 0.998766C40.2921 0.596473 38.8868 0.760142 37.7319 1.20594C36.7514 1.58445 36.0594 2.12383 35.7172 2.40894C35.3416 2.72188 35.0184 3.04606 34.793 3.27886L43.415 11.6251C43.5444 11.4915 43.5174 11.5293 43.3984 11.6284C43.3128 11.6998 42.8377 12.098 42.0534 12.4008C41.0948 12.7709 39.8649 12.9242 38.5749 12.5696C37.4786 12.2682 36.7938 11.7169 36.5997 11.5557L44.2646 2.32266ZM34.6726 10.3972C33.5482 11.521 32.7158 13.1489 32.7115 15.0943C32.7079 16.751 33.3133 18.0262 33.7053 18.7174C34.4509 20.0321 35.605 21.2292 36.531 22.145L44.9696 13.6133C44.5553 13.2035 44.2921 12.9222 44.1319 12.7368C43.9509 12.5273 44.013 12.5674 44.1436 12.7977C44.2466 12.9793 44.7143 13.8287 44.7115 15.1207C44.708 16.7015 44.0149 18.026 43.1554 18.885L34.6726 10.3972ZM36.531 22.145C37.564 23.1668 38.0296 23.7454 38.3287 24.2115C38.6108 24.6512 38.8898 25.216 39.2806 26.3695L50.6462 22.5195C50.077 20.839 49.4247 19.2836 48.428 17.7304C47.4482 16.2036 46.2872 14.9165 44.9696 13.6134L36.531 22.145ZM39.2806 26.3696C39.5018 27.0225 39.5161 27.1681 39.5289 27.2953C39.5569 27.5711 39.5696 28.0695 39.5066 29.4767L51.4946 30.0136C51.5572 28.6161 51.5937 27.3271 51.4678 26.0852C51.3268 24.6948 51.0097 23.5925 50.6462 22.5194L39.2806 26.3696ZM39.5066 29.477C39.4478 30.791 39.3854 31.3241 39.3255 31.6337C39.2892 31.8216 39.2426 32.0086 39.0007 32.5547L49.9729 37.4137C50.4455 36.3467 50.8453 35.2658 51.107 33.9133C51.3451 32.6826 51.4324 31.4027 51.4946 30.0133L39.5066 29.477ZM39.0008 32.5546L38.1336 34.5127L49.1057 39.3719L49.9729 37.4138L39.0008 32.5546ZM37.6784 37.7795L38.3649 42.6517L50.2475 40.9773L49.561 36.1051L37.6784 37.7795ZM38.3649 42.6514C38.5468 43.9429 38.6915 45.1071 38.7785 45.9316C38.8233 46.3552 38.8463 46.6284 38.8546 46.764C38.8598 46.8494 38.8531 46.7835 38.8549 46.6386C38.8555 46.5855 38.8581 46.3456 38.8999 46.0254C38.9196 45.8738 38.969 45.535 39.0939 45.1156C39.158 44.9003 39.2698 44.5685 39.4592 44.1844C39.6367 43.8242 39.9819 43.2126 40.5945 42.6L49.0798 51.0853C50.178 49.9871 50.5244 48.7767 50.5946 48.541C50.7236 48.1078 50.7764 47.7511 50.799 47.5776C50.8465 47.2135 50.8524 46.9137 50.854 46.7853C50.8576 46.4898 50.8433 46.2121 50.8322 46.0315C50.808 45.6351 50.7637 45.159 50.7122 44.6713C50.6068 43.6732 50.4431 42.3661 50.2476 40.9776L38.3649 42.6514ZM40.5945 42.6C41.7794 41.4151 43.0953 41.0789 43.6112 40.9724C44.2215 40.8464 44.7149 40.8457 44.9558 40.8519C45.448 40.8645 45.8165 40.9383 45.9191 40.959C46.0706 40.9897 46.1789 41.0188 46.2213 41.0305C46.271 41.0442 46.2995 41.0533 46.3007 41.0537C46.301 41.0538 46.2597 41.0405 46.1664 41.0066C46.0776 40.9743 45.9627 40.9311 45.8211 40.8759C45.2411 40.6499 44.3958 40.2952 43.4443 39.8687L38.5363 50.8191C39.6151 51.3026 40.6504 51.74 41.4648 52.0573C41.8562 52.2098 42.2827 52.3684 42.6702 52.4914C42.8386 52.5448 43.1637 52.6448 43.542 52.7212C43.7041 52.754 44.1205 52.8344 44.6485 52.8479C44.9073 52.8546 45.4155 52.8529 46.0375 52.7245C46.5651 52.6156 47.8896 52.2755 49.0798 51.0853L40.5945 42.6ZM43.4447 39.8689C41.5326 39.0117 39.605 38.177 37.5685 37.8629C35.3028 37.5135 33.3764 37.8667 31.6669 38.2331L34.1818 49.9666C34.9214 49.8081 35.296 49.749 35.5278 49.7273C35.6974 49.7114 35.731 49.7214 35.7394 49.7227C35.9377 49.7533 36.4473 49.8826 38.5359 50.8189L43.4447 39.8689ZM31.6665 38.2331C31.5831 38.251 31.3119 38.2943 30.8485 38.3223C30.412 38.3488 29.9231 38.3548 29.4527 38.3392C28.9704 38.3232 28.5989 38.2876 28.3805 38.2547C28.2706 38.2382 28.2698 38.2328 28.3505 38.2541C28.3716 38.2597 28.7625 38.3566 29.2801 38.6463L23.4192 49.1177C24.6813 49.8241 26.0492 50.0391 26.5956 50.1212C27.3937 50.2413 28.248 50.3059 29.0553 50.3326C30.5777 50.3831 32.5418 50.3182 34.1822 49.9665L31.6665 38.2331ZM29.2803 38.6464C29.9537 39.0234 31.613 40.1833 32.0586 42.5474C32.409 44.407 31.716 45.7519 31.6614 45.8649C31.527 46.1434 31.4382 46.241 31.5997 46.0118C31.7305 45.826 31.9404 45.5445 32.2785 45.1062L22.7771 37.7766C22.2041 38.5194 21.3558 39.6102 20.855 40.6477C20.6294 41.1148 19.8789 42.7147 20.2661 44.7698C20.7485 47.3293 22.539 48.625 23.419 49.1176L29.2803 38.6464ZM32.2783 45.1065C32.479 44.8463 32.6371 44.6424 32.7721 44.472C32.9077 44.3006 32.9951 44.1947 33.0523 44.1281C33.1102 44.0608 33.1056 44.0708 33.0536 44.1215C32.9977 44.1761 32.8696 44.295 32.674 44.4347C32.4686 44.5814 32.2262 44.7245 31.9532 44.8464C31.6851 44.9662 31.4538 45.036 31.2933 45.0756C31.146 45.1119 31.0604 45.1221 31.0918 45.1177C31.1283 45.1127 31.2044 45.1036 31.3893 45.0849L30.1794 33.146C29.5676 33.208 27.5889 33.32 25.6988 34.6702C24.3788 35.6131 23.3325 37.0566 22.7773 37.7763L32.2783 45.1065ZM31.3894 45.0849C32.2012 45.0026 33.0193 44.838 33.7459 44.6266C34.1728 44.5024 35.5636 44.0994 36.7538 43.1162L29.1112 33.8647C29.4328 33.599 29.7092 33.4339 29.8571 33.3511C30.0188 33.2606 30.1447 33.2033 30.2147 33.1732C30.3497 33.115 30.4163 33.0978 30.3934 33.1044C30.3414 33.1196 30.2399 33.1399 30.1793 33.146L31.3894 45.0849ZM36.7549 43.1152C37.5903 42.4248 38.452 41.3573 38.9316 40.7563C39.5695 39.957 40.2781 39.014 40.9328 38.1059C41.583 37.204 42.2296 36.2677 42.7293 35.4841C42.9699 35.1067 43.2373 34.6701 43.4614 34.2476C43.5661 34.0503 43.7342 33.7208 43.8857 33.3285C43.9602 33.1357 44.0812 32.7992 44.1754 32.3747C44.2422 32.0734 44.4488 31.0978 44.2137 29.8784L32.4306 32.15C32.3042 31.4941 32.3143 30.9493 32.3386 30.6104C32.3641 30.2557 32.4175 29.9681 32.4603 29.7754C32.5431 29.402 32.6445 29.127 32.6915 29.0053C32.7461 28.8639 32.7929 28.7625 32.8157 28.7145C32.8407 28.6619 32.8574 28.6302 32.8608 28.6238C32.866 28.614 32.8496 28.6453 32.8008 28.7268C32.7546 28.8042 32.6919 28.9058 32.6112 29.0323C32.2773 29.556 31.7727 30.2921 31.1986 31.0884C30.629 31.8785 30.0403 32.6596 29.5523 33.2711C29.3067 33.5788 29.1132 33.8102 28.9775 33.964C28.7814 34.1864 28.8565 34.0752 29.11 33.8656L36.7549 43.1152ZM44.214 29.8802C44.0384 28.9675 43.4205 26.6861 41.0558 25.3054C38.5042 23.8156 36.0554 24.5752 35.0074 25.0494C33.9118 25.5452 33.0873 26.2466 32.5803 26.7244C32.0142 27.2577 31.4877 27.856 31.0082 28.4553L40.378 35.9524C40.6335 35.6331 40.7771 35.4887 40.8094 35.4583C40.9007 35.3723 40.6027 35.6889 39.9547 35.9821C39.3543 36.2538 37.2742 36.9931 35.0052 35.6684C32.9233 34.4527 32.5022 32.5218 32.4303 32.1482L44.214 29.8802ZM31.0081 28.4554C30.7075 28.8311 30.5284 29.0331 30.4452 29.1203C30.2757 29.298 30.5488 28.9627 31.1509 28.6121C31.4488 28.4386 32.2788 27.9894 33.4837 27.893C34.9452 27.776 36.6488 28.2205 37.9828 29.5069C39.0986 30.583 39.4523 31.7721 39.5687 32.2595C39.6999 32.8081 39.7056 33.2228 39.7056 33.3614H27.7056C27.7056 33.7354 27.7293 34.3456 27.8975 35.0491C28.051 35.6915 28.4608 36.9951 29.6527 38.1446C31.0627 39.5044 32.8625 39.9811 34.4411 39.8548C35.7632 39.7489 36.7314 39.2488 37.1896 38.9819C38.1121 38.4447 38.794 37.7536 39.1294 37.4019C39.5511 36.9597 39.9732 36.4583 40.3781 35.9524L31.0081 28.4554ZM39.7056 33.3614C39.7056 33.9314 39.6219 34.3784 39.5665 34.625C39.5065 34.8928 39.4386 35.103 39.3919 35.2358C39.3011 35.4942 39.2153 35.6717 39.1851 35.7329C39.1211 35.8627 39.0933 35.8978 39.146 35.8145C39.2393 35.6667 39.421 35.406 39.6501 35.1183L30.2611 27.6451C29.8027 28.2211 29.3594 28.8376 28.9996 29.4074C28.8257 29.6828 28.6143 30.0369 28.4233 30.4241C28.3297 30.6139 28.1945 30.9047 28.0703 31.2583C27.9894 31.4884 27.7056 32.2996 27.7056 33.3614H39.7056ZM39.6493 35.1192C39.9974 34.682 40.3767 34.1972 40.6976 33.7311C40.9682 33.3379 41.5179 32.5123 41.8516 31.4356C42.2759 30.0662 42.344 28.3052 41.4853 26.5604C40.8216 25.212 39.8333 24.4102 39.5809 24.2008L31.919 33.4364C31.9034 33.4234 31.7478 33.2956 31.5502 33.0809C31.3471 32.8602 31.0113 32.454 30.7187 31.8596C30.4065 31.2252 30.1994 30.4895 30.1625 29.6959C30.1271 28.9336 30.2574 28.3092 30.3894 27.8834C30.613 27.1618 30.9247 26.7647 30.8126 26.9275C30.7508 27.0174 30.6027 27.2162 30.2619 27.6442L39.6493 35.1192ZM39.5834 24.2029C38.3784 23.2021 36.5975 22.4579 34.5126 22.7472C32.8022 22.9846 31.6134 23.833 31.0558 24.2785C29.9658 25.1495 29.0034 26.3874 28.2799 27.3481L37.8657 34.5671C38.2128 34.1061 38.4507 33.8101 38.6101 33.6257C38.7931 33.4139 38.7562 33.4859 38.5467 33.6534C38.4035 33.7678 37.5641 34.4388 36.1621 34.6333C35.3905 34.7404 34.5552 34.6865 33.7312 34.4237C32.9315 34.1686 32.3289 33.7768 31.9165 33.4343L39.5834 24.2029ZM28.2807 27.3471C28.2929 27.331 28.3393 27.2708 28.4273 27.1814C28.5106 27.0968 28.6733 26.9431 28.9239 26.7691C29.162 26.6038 29.5933 26.3408 30.2092 26.1464C30.8331 25.9494 31.7956 25.7792 32.9378 26.0144L30.5177 37.7678C33.0778 38.2949 35.0188 37.146 35.7667 36.6269C36.6871 35.988 37.3769 35.2157 37.8648 34.5682L28.2807 27.3471ZM32.9422 26.0153C33.0684 26.0413 35.5853 26.476 36.8816 29.1106C38.1033 31.5935 37.0835 33.7361 37.0526 33.8082C36.8812 34.2079 36.7282 34.4015 36.8647 34.1992C36.9584 34.0604 37.1239 33.829 37.4124 33.4413L27.7856 26.2771C27.3499 26.8626 26.4927 27.9855 26.0238 29.079C25.8667 29.4454 24.8249 31.7877 26.1145 34.4086C27.4788 37.1813 30.1536 37.6925 30.5133 37.7669L32.9422 26.0153ZM37.412 33.4418C37.9651 32.6988 38.523 31.8702 38.9486 31.0346C39.1551 30.6291 39.4292 30.0319 39.6184 29.3191C39.7515 28.8178 40.157 27.1718 39.4344 25.2882L28.2306 29.5864C27.8707 28.6485 27.8374 27.8322 27.8568 27.3451C27.8767 26.843 27.9623 26.4581 28.0201 26.2403C28.0813 26.0099 28.1448 25.8432 28.181 25.7545C28.2192 25.661 28.2477 25.604 28.2556 25.5885C28.2605 25.579 28.1401 25.8009 27.786 26.2766L37.412 33.4418ZM39.4342 25.2878C39.2362 24.7719 37.9817 21.5195 34.2096 20.9945C32.5321 20.761 31.1844 21.2403 30.4099 21.618C29.6345 21.9961 29.0431 22.4605 28.6653 22.7865C27.3759 23.8993 25.9092 25.8063 24.3681 27.864L33.9731 35.0575C34.7941 33.9612 35.4108 33.1634 35.8817 32.5903C36.3957 31.965 36.5655 31.8194 36.5055 31.8712C36.4729 31.8993 36.1815 32.1543 35.6691 32.4041C35.1575 32.6535 34.0357 33.086 32.5553 32.8799C30.9372 32.6547 29.7854 31.7973 29.1151 31.028C28.5364 30.3639 28.2947 29.7535 28.2307 29.5868L39.4342 25.2878ZM24.3679 27.8643L22.2642 30.6737L31.8695 37.8665L33.9733 35.0572L24.3679 27.8643ZM21.0928 34.8279L21.2797 36.8295L33.2277 35.7139L33.0409 33.7124L21.0928 34.8279ZM21.2797 36.8294L21.4666 38.8312L33.4146 37.7159L33.2277 35.714L21.2797 36.8294ZM22.6399 34.6745L18.164 40.6448L27.7653 47.843L32.2413 41.8726L22.6399 34.6745ZM18.164 40.6448C15.5316 44.156 13.9789 46.2183 13.2098 47.4113C12.9979 47.7399 12.7417 48.1592 12.5166 48.6243C12.3157 49.0394 11.9431 49.8807 11.8313 50.9786C11.6931 52.3354 11.9883 53.6913 12.6873 54.866C12.9762 55.3515 13.2727 55.7013 13.4459 55.8938C13.5352 55.9932 13.6118 56.0725 13.6581 56.1197C13.6997 56.1622 13.743 56.2053 13.7448 56.2071L22.2301 47.7219C22.0002 47.492 22.5694 48.0066 22.9998 48.7299C23.6299 49.7889 23.8898 51.0139 23.7695 52.1944C23.6757 53.116 23.3744 53.7356 23.3176 53.8528C23.2367 54.02 23.1976 54.0654 23.2955 53.9135C23.7655 53.1845 24.9343 51.6192 27.7653 47.843L18.164 40.6448ZM13.7448 56.2071C14.9159 57.3782 16.7751 58.3955 19.1106 58.2085C21.0569 58.0528 22.4552 57.1102 23.1659 56.5553C24.5662 55.4621 25.8441 53.8058 26.9464 52.2826L17.2248 45.2476C16.7053 45.9655 16.3155 46.4663 16.0259 46.807C15.7108 47.1775 15.6432 47.2044 15.7815 47.0965C15.8465 47.0457 16.6929 46.3637 18.1532 46.2468C18.9558 46.1825 19.7967 46.3042 20.5895 46.6331C21.3512 46.9492 21.8894 47.3811 22.2301 47.7219L13.7448 56.2071ZM26.9464 52.2826L29.2326 49.1232L19.511 42.0883L17.2248 45.2477L26.9464 52.2826ZM23.4425 51.5333L24.75 51.7383L26.6087 39.8832L25.3012 39.6782L23.4425 51.5333ZM24.7501 51.7384C28.4043 52.3112 32.3247 52.4269 35.4559 51.7423L32.8928 40.0192C31.759 40.2671 29.4687 40.3315 26.6086 39.8832L24.7501 51.7384ZM35.4555 51.7424L37.643 51.2643L35.0807 39.541L32.8932 40.0191L35.4555 51.7424ZM33.9259 50.8859L38.8697 53.0822L43.7415 42.1156L38.7978 39.9194L33.9259 50.8859ZM38.8693 53.082C40.3093 53.7218 41.7069 54.299 42.8189 54.7166C43.3616 54.9204 43.9189 55.1175 44.4143 55.2656C44.647 55.3351 44.9929 55.4325 45.3762 55.506C45.561 55.5414 45.8891 55.5979 46.2906 55.6203C46.495 55.6317 47.5892 55.7081 48.8482 55.2244L44.5443 44.0228C45.2479 43.7524 45.8452 43.6776 46.1598 43.651C46.5064 43.6216 46.7867 43.6293 46.9596 43.639C47.2972 43.6578 47.5454 43.7033 47.6349 43.7205C47.828 43.7575 47.9228 43.7897 47.851 43.7682C47.7375 43.7343 47.4724 43.6459 47.038 43.4827C46.1958 43.1664 45.021 42.6841 43.7418 42.1158L38.8693 53.082ZM48.8434 55.2262C50.0301 54.7714 51.6748 53.7436 52.5538 51.6429C53.1507 50.2161 53.1179 48.8534 53.1027 48.3279C53.0669 47.089 52.8097 45.2363 52.4635 42.7986L40.5827 44.486C40.7677 45.7886 40.8998 46.7473 40.9884 47.4707C41.0813 48.2297 41.1045 48.5618 41.1078 48.675C41.1091 48.7221 41.1019 48.5943 41.1267 48.3639C41.1504 48.1432 41.2226 47.6351 41.4837 47.011C41.7744 46.3162 42.252 45.5921 42.9585 44.9803C43.6175 44.4096 44.2487 44.136 44.549 44.0209L48.8434 55.2262ZM52.4635 42.7985C52.0421 39.8325 51.934 38.7331 51.9476 38.0617C51.9537 37.7593 51.9556 37.5781 52.3697 36.402L41.0509 32.4164C40.4891 34.0119 39.9948 35.6138 39.9501 37.8183C39.9128 39.6539 40.1991 41.7852 40.5827 44.4862L52.4635 42.7985ZM52.3695 36.4024C55.6187 27.1771 52.2074 16.2189 44.2969 10.4663L37.2393 20.1714C40.86 22.8045 42.5375 28.1957 41.051 32.416L52.3695 36.4024ZM44.2963 10.4658C43.9081 10.1836 42.7749 9.31694 41.5481 8.86842C40.685 8.55287 39.2393 8.22178 37.5486 8.69525C35.9799 9.13458 35.0154 10.0544 34.6714 10.3984L43.1567 18.8837C42.9822 19.0582 42.1741 19.8616 40.7846 20.2507C39.2732 20.674 38.0297 20.3589 37.4276 20.1388C36.9186 19.9527 36.6291 19.7472 36.7347 19.8153C36.7912 19.8517 36.9309 19.9473 37.2399 20.1719L44.2963 10.4658ZM24.9182 29.7067C20.8979 33.7259 21.5764 41.2567 27.918 43.4671L31.8675 32.1357C33.0928 32.5627 34.0637 33.6702 34.3211 35.0232C34.57 36.332 34.0981 37.4974 33.4024 38.193L24.9182 29.7067ZM27.918 43.4671C32.6286 45.109 36.722 42.4501 38.2773 39.1051C39.0434 37.4574 39.3455 35.4029 38.7473 33.3263C38.1157 31.1335 36.6043 29.3651 34.5799 28.3183L29.0681 38.9776C28.3196 38.5905 27.5451 37.7898 27.2162 36.6478C26.9207 35.622 27.0911 34.7014 27.396 34.0458C27.7021 33.3874 28.2636 32.7302 29.124 32.3207C30.0769 31.8672 31.0943 31.8661 31.8676 32.1357L27.918 43.4671ZM34.5797 28.3182C33.8404 27.9359 31.9965 27 29.6815 27.2622C27.1745 27.5462 25.5876 29.037 24.9169 29.7079L33.4037 38.1917C33.6202 37.9751 32.741 38.9924 31.0321 39.186C30.2285 39.277 29.6066 39.1419 29.2906 39.0476C29.0152 38.9654 28.9052 38.8933 29.0684 38.9777L34.5797 28.3182ZM28.4079 39.8227C26.8712 38.9395 26.196 37.5435 26.0201 36.4071C25.8063 35.0263 26.2227 33.4985 27.3105 32.4103L35.7976 40.8937C39.499 37.1907 38.1161 31.5617 34.3877 29.4188L28.4079 39.8227ZM27.3124 32.4084C27.5676 32.1533 28.1068 31.6897 28.963 31.3709C29.8924 31.0248 30.884 30.9668 31.7954 31.1576C32.6232 31.331 33.1806 31.6653 33.4313 31.8354C33.6833 32.0065 33.8017 32.1331 33.7654 32.0969L25.2801 40.5821C25.7868 41.0888 27.1834 42.4521 29.3358 42.9029C32.2068 43.5041 34.4831 42.2076 35.7957 40.8956L27.3124 32.4084ZM35.1834 34.3503C35.5625 35.4291 35.6083 37.7589 33.5587 39.3745C31.7822 40.775 29.6923 40.561 28.4079 39.8227L34.3877 29.4188C32.0051 28.0494 28.7055 27.9202 26.1299 29.9505C23.2813 32.196 22.9386 35.7007 23.8621 38.3287L35.1834 34.3503Z" fill="#87C38F" mask="url(#path-1-outside-1_430_3250)"/>
</svg>
