<svg width="60" height="60" viewBox="0 0 60 60" fill="none" xmlns="http://www.w3.org/2000/svg">
<rect width="60" height="60" rx="30" fill="#619E69"/>
<mask id="path-2-outside-1_430_3250" maskUnits="userSpaceOnUse" x="11" y="5.2854" width="38" height="49" fill="black">
<rect fill="white" x="11" y="5.2854" width="38" height="49"/>
<path fill-rule="evenodd" clip-rule="evenodd" d="M39.1449 6.99723C38.6474 7.51106 37.5382 8.85334 36.6804 9.97978L35.1204 12.0279L33.0941 11.7707C30.1369 11.3954 27.3119 11.5333 25.1467 12.1583C17.4484 14.3806 11.9766 21.4786 12.0001 29.2121C12.0082 31.8716 12.8096 35.3119 13.9726 37.6805C15.2229 40.2265 18.2853 43.6231 19.3306 43.6231C20.7319 43.6231 20.5144 42.7193 18.6443 40.7732C15.0886 37.0728 13.4428 31.9162 14.2657 27.0541C15.3341 20.7395 20.2911 15.3759 26.3491 13.9799C28.123 13.571 33.0813 13.5198 33.3213 13.9078C33.4162 14.062 32.2982 15.8226 30.8369 17.8202L28.1794 21.4529H26.6803C25.8258 21.4529 24.8565 21.6801 24.4268 21.981C23.2521 22.8036 20.8411 26.2687 20.6187 27.4529C20.0338 30.5707 23.3985 32.9178 26.3008 31.4171C27.3438 30.8778 29.7059 27.9439 30.2507 26.5106C30.5298 25.777 30.5239 25.1934 30.2266 24.1319C29.7715 22.506 29.0288 23.7198 36.3655 14.0995C38.9209 10.7492 41.0114 7.74972 41.0114 7.43444C41.0114 7.11917 40.7949 6.68164 40.5305 6.46222C40.137 6.13553 39.885 6.23269 39.1449 6.99723ZM38.9467 14.4976C38.3937 15.0502 38.8899 15.925 40.8624 17.876C43.3149 20.3017 44.2564 21.7688 45.258 24.7256C45.868 26.5263 45.9495 27.3296 45.8185 30.2558C45.6923 33.0763 45.5061 34.0387 44.7608 35.7217L43.8561 37.7646L44.5724 42.8478C44.9662 45.6438 45.2156 48.0043 45.1263 48.0936C45.037 48.183 43.2311 47.4794 41.1128 46.53C36.939 44.6589 36.0274 44.5184 32.6976 45.2321C30.6873 45.6631 26.783 45.5336 25.8382 45.0048C25.4072 44.7636 25.6051 44.3541 27.0673 42.4585C28.7507 40.2767 28.8661 40.1939 30.4649 40.0318C31.3752 39.9396 32.3836 39.6461 32.7061 39.3798C33.8299 38.4509 38.425 32.077 38.3292 31.5798C38.1127 30.455 37.1199 30.9042 35.5863 32.821C34.1142 34.6608 33.5127 35.0109 33.5127 34.0286C33.5127 33.7935 34.0995 32.8643 34.8168 31.9632C36.2543 30.1579 36.344 29.8684 35.6456 29.2891C35.1243 28.8561 34.4585 29.3882 32.8525 31.5208C32.3354 32.2071 31.8134 32.5696 31.4492 32.4946C30.9618 32.3939 31.1062 32.0571 32.3582 30.3748C33.3047 29.1032 33.7735 28.1828 33.6451 27.848C33.17 26.6101 32.2718 27.385 28.7813 32.0457L26.5864 34.9767L26.7814 37.0649L26.9764 39.1535L22.3066 45.3824C16.6066 52.9854 16.6281 52.9515 17.1139 53.4373C17.912 54.2355 19.0254 53.3662 21.3895 50.0994L23.7747 46.8032L25.1389 47.0171C28.5371 47.5498 31.7769 47.5766 34.0017 47.0901L36.284 46.5913L41.4418 48.8826C44.2786 50.1431 46.8096 51.0935 47.0659 50.995C47.6733 50.7622 47.6566 50.1861 46.8852 44.7547C46.0454 38.8425 46.0623 38.0134 47.0805 35.1218C49.5509 28.1078 46.8963 19.5792 40.881 15.2048C39.5446 14.2332 39.3004 14.1439 38.9467 14.4976ZM28.7705 34.6425C27.4253 35.9874 27.8202 38.0633 29.5348 38.6609C32.3765 39.6514 34.2117 35.7041 31.5496 34.3276C30.2475 33.6543 29.6961 33.7166 28.7705 34.6425ZM31.1049 35.3425C31.6816 35.674 32.0087 36.7207 31.268 37.4617C30.5621 38.1673 29.9302 37.9172 29.1487 37.1357C28.5808 35.5195 29.9592 34.684 31.1049 35.3425Z"/>
</mask>
<path fill-rule="evenodd" clip-rule="evenodd" d="M39.1449 6.99723C38.6474 7.51106 37.5382 8.85334 36.6804 9.97978L35.1204 12.0279L33.0941 11.7707C30.1369 11.3954 27.3119 11.5333 25.1467 12.1583C17.4484 14.3806 11.9766 21.4786 12.0001 29.2121C12.0082 31.8716 12.8096 35.3119 13.9726 37.6805C15.2229 40.2265 18.2853 43.6231 19.3306 43.6231C20.7319 43.6231 20.5144 42.7193 18.6443 40.7732C15.0886 37.0728 13.4428 31.9162 14.2657 27.0541C15.3341 20.7395 20.2911 15.3759 26.3491 13.9799C28.123 13.571 33.0813 13.5198 33.3213 13.9078C33.4162 14.062 32.2982 15.8226 30.8369 17.8202L28.1794 21.4529H26.6803C25.8258 21.4529 24.8565 21.6801 24.4268 21.981C23.2521 22.8036 20.8411 26.2687 20.6187 27.4529C20.0338 30.5707 23.3985 32.9178 26.3008 31.4171C27.3438 30.8778 29.7059 27.9439 30.2507 26.5106C30.5298 25.777 30.5239 25.1934 30.2266 24.1319C29.7715 22.506 29.0288 23.7198 36.3655 14.0995C38.9209 10.7492 41.0114 7.74972 41.0114 7.43444C41.0114 7.11917 40.7949 6.68164 40.5305 6.46222C40.137 6.13553 39.885 6.23269 39.1449 6.99723ZM38.9467 14.4976C38.3937 15.0502 38.8899 15.925 40.8624 17.876C43.3149 20.3017 44.2564 21.7688 45.258 24.7256C45.868 26.5263 45.9495 27.3296 45.8185 30.2558C45.6923 33.0763 45.5061 34.0387 44.7608 35.7217L43.8561 37.7646L44.5724 42.8478C44.9662 45.6438 45.2156 48.0043 45.1263 48.0936C45.037 48.183 43.2311 47.4794 41.1128 46.53C36.939 44.6589 36.0274 44.5184 32.6976 45.2321C30.6873 45.6631 26.783 45.5336 25.8382 45.0048C25.4072 44.7636 25.6051 44.3541 27.0673 42.4585C28.7507 40.2767 28.8661 40.1939 30.4649 40.0318C31.3752 39.9396 32.3836 39.6461 32.7061 39.3798C33.8299 38.4509 38.425 32.077 38.3292 31.5798C38.1127 30.455 37.1199 30.9042 35.5863 32.821C34.1142 34.6608 33.5127 35.0109 33.5127 34.0286C33.5127 33.7935 34.0995 32.8643 34.8168 31.9632C36.2543 30.1579 36.344 29.8684 35.6456 29.2891C35.1243 28.8561 34.4585 29.3882 32.8525 31.5208C32.3354 32.2071 31.8134 32.5696 31.4492 32.4946C30.9618 32.3939 31.1062 32.0571 32.3582 30.3748C33.3047 29.1032 33.7735 28.1828 33.6451 27.848C33.17 26.6101 32.2718 27.385 28.7813 32.0457L26.5864 34.9767L26.7814 37.0649L26.9764 39.1535L22.3066 45.3824C16.6066 52.9854 16.6281 52.9515 17.1139 53.4373C17.912 54.2355 19.0254 53.3662 21.3895 50.0994L23.7747 46.8032L25.1389 47.0171C28.5371 47.5498 31.7769 47.5766 34.0017 47.0901L36.284 46.5913L41.4418 48.8826C44.2786 50.1431 46.8096 51.0935 47.0659 50.995C47.6733 50.7622 47.6566 50.1861 46.8852 44.7547C46.0454 38.8425 46.0623 38.0134 47.0805 35.1218C49.5509 28.1078 46.8963 19.5792 40.881 15.2048C39.5446 14.2332 39.3004 14.1439 38.9467 14.4976ZM28.7705 34.6425C27.4253 35.9874 27.8202 38.0633 29.5348 38.6609C32.3765 39.6514 34.2117 35.7041 31.5496 34.3276C30.2475 33.6543 29.6961 33.7166 28.7705 34.6425ZM31.1049 35.3425C31.6816 35.674 32.0087 36.7207 31.268 37.4617C30.5621 38.1673 29.9302 37.9172 29.1487 37.1357C28.5808 35.5195 29.9592 34.684 31.1049 35.3425Z" fill="#F9F7EB"/>
<path d="M40.6137 7.31071L40.7247 7.24216L40.7247 7.24214L40.6137 7.31071ZM29.7223 22.3317L29.6157 22.2565L29.6157 22.2566L29.7223 22.3317ZM29.6408 23.7959L29.5221 23.85L29.5221 23.85L29.6408 23.7959ZM28.5509 28.7474L28.6563 28.8241L28.6563 28.8241L28.5509 28.7474ZM24.4063 31.756L24.4066 31.6256L24.4065 31.6256L24.4063 31.756ZM21.2181 29.3326L21.3419 29.2917L21.3419 29.2917L21.2181 29.3326ZM21.5011 26.7807L21.3837 26.7238L21.3837 26.7238L21.5011 26.7807ZM23.6069 23.7695L23.5091 23.6833L23.5091 23.6833L23.6069 23.7695ZM26.7564 22.1641L26.7545 22.2945L26.7545 22.2945L26.7564 22.1641ZM28.4694 22.1889L28.4675 22.3193L28.5361 22.3203L28.5757 22.2643L28.4694 22.1889ZM18.3451 41.1565L18.2521 41.248L18.2521 41.248L18.3451 41.1565ZM19.6375 43.2424L19.5452 43.1502L19.6375 43.2424ZM17.9766 42.3785L17.8855 42.4718L17.8855 42.4718L17.9766 42.3785ZM25.4999 12.7261L25.4638 12.6008L25.4638 12.6008L25.4999 12.7261ZM34.0654 12.5122L34.1118 12.3903L34.1117 12.3903L34.0654 12.5122ZM35.3092 12.6576L35.3594 12.778L35.3595 12.778L35.3092 12.6576ZM37.7636 9.73248L37.8683 9.81021L37.8683 9.81021L37.7636 9.73248ZM45.5548 38.5714L45.4312 38.5296L45.4212 38.5592L45.4257 38.5901L45.5548 38.5714ZM46.2776 43.5597L46.1485 43.5784L46.1485 43.5784L46.2776 43.5597ZM47.1836 49.6076L47.3121 49.5854L47.3121 49.5854L47.1836 49.6076ZM41.4034 48.515L41.4576 48.3964L41.4576 48.3964L41.4034 48.515ZM32.0798 47.0613L32.1023 47.1897L32.1023 47.1897L32.0798 47.0613ZM27.8414 47.0525L27.8206 47.1812L27.8206 47.1812L27.8414 47.0525ZM24.6346 46.5373L24.6141 46.6661L24.6141 46.6661L24.6346 46.5373ZM21.0984 49.8286L20.9937 49.7509L20.9937 49.7509L21.0984 49.8286ZM22.7159 45.9681L22.8203 46.0462L22.8203 46.0462L22.7159 45.9681ZM27.8069 39.1667L27.9113 39.2449L27.952 39.1904L27.9307 39.1258L27.8069 39.1667ZM27.4006 37.9363L27.2768 37.9771L27.2768 37.9771L27.4006 37.9363ZM27.2187 35.8128L27.3452 35.8446L27.3452 35.8446L27.2187 35.8128ZM32.7971 28.1612L32.7138 28.0608L32.7138 28.0608L32.7971 28.1612ZM31.7975 30.611L31.9005 30.6909L31.9005 30.6909L31.7975 30.611ZM30.437 32.8687L30.5609 32.8282L30.5609 32.8281L30.437 32.8687ZM31.5063 33.3011L31.4959 33.4311L31.4959 33.4311L31.5063 33.3011ZM33.7335 31.5894L33.8397 31.6651L33.8397 31.6651L33.7335 31.5894ZM34.2039 32.2727L34.0999 32.1942L34.0999 32.1942L34.2039 32.2727ZM33.2809 34.867L33.166 34.9285L33.166 34.9285L33.2809 34.867ZM35.4901 34.0679L35.3822 33.9947L35.3822 33.9947L35.4901 34.0679ZM37.9393 31.6559L38.0502 31.5873L38.0502 31.5873L37.9393 31.6559ZM32.2517 39.3809L32.1768 39.2741L32.1768 39.2741L32.2517 39.3809ZM30.0229 39.9234L30.0242 40.0538L30.0243 40.0538L30.0229 39.9234ZM26.6622 42.428L26.5582 42.3493L26.5582 42.3493L26.6622 42.428ZM25.255 45.3959L25.1628 45.4881L25.1628 45.4881L25.255 45.3959ZM34.17 45.6401L34.203 45.7663L34.203 45.7663L34.17 45.6401ZM36.2071 45.1074L36.2599 44.9881L36.2182 44.9696L36.1741 44.9812L36.2071 45.1074ZM40.2404 46.8921L40.2932 46.7728L40.2932 46.7728L40.2404 46.8921ZM45.1769 48.9037L45.2086 48.7772L45.2086 48.7772L45.1769 48.9037ZM45.8502 47.9067L45.722 47.9307L45.722 47.9307L45.8502 47.9067ZM44.6468 38.93L44.5164 38.9324L44.5164 38.9324L44.6468 38.93ZM45.3018 35.8943L45.4214 35.9463L45.4214 35.9463L45.3018 35.8943ZM40.7993 17.1383L40.7146 17.2375L40.7146 17.2375L40.7993 17.1383ZM40.5028 7.37926C40.4924 7.3624 40.4891 7.3472 40.488 7.33901C40.4869 7.33068 40.4874 7.32528 40.4875 7.32434C40.4876 7.32292 40.4872 7.32763 40.4829 7.34085C40.4746 7.36673 40.4576 7.40665 40.4297 7.4623C40.3745 7.57247 40.2849 7.72784 40.1627 7.92496C39.9188 8.31832 39.5517 8.86759 39.0885 9.53338C38.1626 10.8645 36.8565 12.6558 35.394 14.5859L35.6019 14.7435C37.0659 12.8114 38.3741 11.0171 39.3026 9.68233C39.7667 9.01522 40.1369 8.46156 40.3844 8.0624C40.5078 7.86326 40.6024 7.69996 40.6629 7.57913C40.6929 7.51928 40.7167 7.46561 40.7311 7.42106C40.7382 7.39907 40.7447 7.37437 40.7471 7.34949C40.7491 7.32895 40.751 7.28475 40.7247 7.24216L40.5028 7.37926ZM35.394 14.5859C32.4688 18.4465 29.8675 21.8994 29.6157 22.2565L29.8289 22.4068C30.0773 22.0545 32.6742 18.6073 35.6019 14.7435L35.394 14.5859ZM29.6157 22.2566C29.4311 22.5185 29.3219 22.7477 29.3075 23.0053C29.2934 23.2599 29.3731 23.523 29.5221 23.85L29.7595 23.7418C29.6154 23.4256 29.5574 23.2098 29.568 23.0198C29.5784 22.8328 29.6565 22.6515 29.8289 22.4068L29.6157 22.2566ZM29.5221 23.85C29.876 24.6266 29.9822 25.3052 29.8193 26.0455C29.6548 26.7925 29.2138 27.6146 28.4454 28.6706L28.6563 28.8241C29.4311 27.7593 29.8978 26.902 30.074 26.1016C30.2517 25.2946 30.1313 24.5579 29.7595 23.7418L29.5221 23.85ZM28.4454 28.6706C26.9533 30.7211 25.6717 31.6277 24.4066 31.6256L24.4061 31.8864C25.8067 31.8888 27.1567 30.8848 28.6563 28.8241L28.4454 28.6706ZM24.4065 31.6256C23.8158 31.6247 23.1505 31.3517 22.5776 30.9163C22.0054 30.4813 21.5414 29.8963 21.3419 29.2917L21.0942 29.3734C21.3141 30.0398 21.8166 30.6654 22.4198 31.124C23.0224 31.582 23.7417 31.8854 24.4061 31.8864L24.4065 31.6256ZM21.3419 29.2917C21.1758 28.7885 21.1095 28.4718 21.1464 28.1392C21.1837 27.8023 21.3282 27.4361 21.6184 26.8376L21.3837 26.7238C21.0942 27.321 20.93 27.7239 20.8871 28.1105C20.8438 28.5016 20.9258 28.863 21.0942 29.3735L21.3419 29.2917ZM21.6184 26.8376C21.98 26.092 22.9196 24.7468 23.7048 23.8557L23.5091 23.6833C22.7142 24.5854 21.7589 25.9502 21.3837 26.7238L21.6184 26.8376ZM23.7048 23.8557C24.4066 23.0593 24.7614 22.6755 25.1405 22.4823C25.5127 22.2926 25.9175 22.2823 26.7545 22.2945L26.7583 22.0337C25.9374 22.0218 25.4626 22.0254 25.022 22.2499C24.5884 22.471 24.1975 22.902 23.5091 23.6833L23.7048 23.8557ZM26.7545 22.2945L28.4675 22.3193L28.4712 22.0585L26.7583 22.0337L26.7545 22.2945ZM28.5757 22.2643L30.0817 20.1402L29.8689 19.9894L28.363 22.1135L28.5757 22.2643ZM32.1488 13.195C22.0439 12.1129 13.5899 19.676 13.5899 29.8011H13.8507C13.8507 19.8321 22.1691 12.3886 32.1211 13.4544L32.1488 13.195ZM13.5899 29.8011C13.5899 34.2214 15.1804 38.1273 18.2521 41.248L18.438 41.065C15.4149 37.9937 13.8507 34.1537 13.8507 29.8011H13.5899ZM18.2521 41.248C18.8957 41.9017 19.2821 42.3399 19.4725 42.6473C19.5678 42.8011 19.6052 42.9085 19.6101 42.9845C19.6145 43.0514 19.5944 43.101 19.5452 43.1502L19.7297 43.3347C19.8275 43.2368 19.88 43.1154 19.8704 42.9675C19.8614 42.8287 19.7982 42.6777 19.6942 42.5099C19.4862 42.1741 19.0793 41.7164 18.438 41.065L18.2521 41.248ZM19.5452 43.1502C19.4883 43.2072 19.4365 43.2314 19.3813 43.2359C19.3221 43.2406 19.2408 43.2241 19.1244 43.1635C18.8878 43.0405 18.5588 42.7646 18.0678 42.2851L17.8855 42.4718C18.3739 42.9486 18.7284 43.2516 19.004 43.3949C19.1436 43.4675 19.2755 43.506 19.4022 43.4958C19.5329 43.4853 19.6397 43.4246 19.7297 43.3347L19.5452 43.1502ZM18.0678 42.2851C8.28577 32.7333 12.3671 16.6431 25.5359 12.8514L25.4638 12.6008C12.104 16.4474 7.95951 32.7792 17.8855 42.4718L18.0678 42.2851ZM25.5359 12.8514C26.5459 12.5607 28.3403 12.3807 30.0562 12.3379C30.9122 12.3165 31.7445 12.3294 32.4444 12.3789C33.1489 12.4287 33.7055 12.5149 34.019 12.6341L34.1117 12.3903C33.759 12.2562 33.1684 12.1686 32.4628 12.1187C31.7526 12.0685 30.9118 12.0556 30.0497 12.0771C28.3293 12.1201 26.5072 12.3004 25.4638 12.6008L25.5359 12.8514ZM34.019 12.6341C34.2586 12.7253 34.5237 12.7877 34.7595 12.8152C34.988 12.8419 35.2135 12.8389 35.3594 12.778L35.2589 12.5373C35.1793 12.5706 35.0121 12.5821 34.7897 12.5562C34.5745 12.531 34.3305 12.4736 34.1118 12.3903L34.019 12.6341ZM35.3595 12.778C35.4101 12.7568 35.4665 12.712 35.52 12.6644C35.5778 12.6131 35.6467 12.5451 35.7243 12.4637C35.8799 12.3005 36.0762 12.0774 36.2995 11.8113C36.7463 11.2788 37.305 10.5691 37.8683 9.81021L37.6589 9.65475C37.098 10.4103 36.5425 11.1159 36.0996 11.6437C35.8781 11.9078 35.6857 12.1261 35.5355 12.2837C35.4603 12.3626 35.397 12.4248 35.3468 12.4694C35.3217 12.4918 35.301 12.5086 35.2846 12.5206C35.2765 12.5266 35.2701 12.5308 35.2653 12.5337C35.2603 12.5368 35.2583 12.5376 35.2588 12.5373L35.3595 12.778ZM37.8683 9.81021C38.8781 8.44963 39.4794 7.69455 39.8756 7.35789C40.0764 7.18728 40.1937 7.15169 40.2645 7.16025C40.3303 7.1682 40.405 7.221 40.5028 7.37929L40.7247 7.24214C40.6196 7.07211 40.488 6.92453 40.2958 6.90131C40.1087 6.8787 39.9162 6.98116 39.7067 7.15912C39.2825 7.5196 38.6616 8.30372 37.6588 9.65476L37.8683 9.81021ZM46.4638 35.4773L45.4312 38.5296L45.6783 38.6132L46.7108 35.5608L46.4638 35.4773ZM45.4257 38.5901L46.1485 43.5784L46.4066 43.541L45.6838 38.5527L45.4257 38.5901ZM46.1485 43.5784C46.5462 46.3211 46.954 49.045 47.0551 49.6298L47.3121 49.5854C47.2118 49.0049 46.8045 46.2854 46.4066 43.541L46.1485 43.5784ZM47.0551 49.6298C47.0876 49.818 47.1063 49.9742 47.1058 50.1008C47.1053 50.2288 47.0851 50.3124 47.0527 50.3657C47.0241 50.4129 46.9787 50.4488 46.8926 50.4668C46.8011 50.4859 46.6678 50.4833 46.4771 50.4473C46.0962 50.3753 45.5318 50.1792 44.7117 49.8399C43.8942 49.5016 42.8315 49.0248 41.4576 48.3964L41.3492 48.6336C42.7229 49.262 43.7895 49.7406 44.612 50.0809C45.4321 50.4202 46.0186 50.6261 46.4287 50.7035C46.6336 50.7423 46.8058 50.7513 46.9459 50.7221C47.0916 50.6917 47.2041 50.6191 47.2758 50.5009C47.3437 50.3889 47.366 50.2501 47.3666 50.1018C47.3672 49.9522 47.3454 49.7782 47.3121 49.5854L47.0551 49.6298ZM41.4576 48.3964C38.9214 47.2365 37.7297 46.6587 36.5934 46.4815C35.4528 46.3037 34.3681 46.5292 32.0574 46.9328L32.1023 47.1897C34.4362 46.7821 35.4665 46.5698 36.5532 46.7393C37.644 46.9094 38.7918 47.4641 41.3492 48.6336L41.4576 48.3964ZM32.0574 46.9328C30.6259 47.1827 29.4538 47.1805 27.8622 46.9237L27.8206 47.1812C29.4378 47.4421 30.6393 47.4452 32.1023 47.1897L32.0574 46.9328ZM27.8622 46.9237C26.6363 46.7258 25.1931 46.494 24.655 46.4085L24.6141 46.6661C25.1519 46.7515 26.5948 46.9833 27.8206 47.1812L27.8622 46.9237ZM24.655 46.4085C24.4221 46.3715 24.2138 46.3525 23.9994 46.4084C23.7838 46.4646 23.5772 46.5922 23.3343 46.8183C22.8545 47.2649 22.1916 48.1368 20.9937 49.7509L21.2031 49.9063C22.4087 48.2819 23.0543 47.4352 23.512 47.0092C23.7378 46.7991 23.9071 46.702 24.0652 46.6608C24.2244 46.6192 24.3875 46.6301 24.6141 46.6661L24.655 46.4085ZM20.9937 49.7509C20.2918 50.6967 19.603 51.5556 19.0592 52.1771C18.787 52.4882 18.5528 52.7378 18.3725 52.9088C18.282 52.9946 18.2076 53.0581 18.1505 53.0993C18.1218 53.12 18.1002 53.133 18.0851 53.1405C18.0674 53.1491 18.0687 53.145 18.0826 53.145V53.4059C18.128 53.4059 18.1694 53.3896 18.1999 53.3747C18.233 53.3584 18.2677 53.3363 18.303 53.3109C18.3738 53.2599 18.4578 53.1874 18.5519 53.0981C18.7408 52.9191 18.981 52.6625 19.2555 52.3489C19.8049 51.7209 20.4982 50.8564 21.2031 49.9063L20.9937 49.7509ZM18.0826 53.145C17.9747 53.145 17.8828 53.1204 17.8224 53.087C17.7572 53.051 17.7553 53.0225 17.7553 53.0224H17.4944C17.4944 53.1616 17.5956 53.2596 17.6963 53.3153C17.8018 53.3736 17.9388 53.4059 18.0826 53.4059V53.145ZM17.7553 53.0224C17.7553 53.0394 17.7515 53.0509 17.7513 53.0517C17.7505 53.0544 17.7501 53.0549 17.7512 53.0524C17.7533 53.0475 17.7577 53.0384 17.7656 53.0241C17.7811 52.9959 17.8054 52.9555 17.8389 52.9026C17.9057 52.7973 18.005 52.6488 18.134 52.4614C18.3917 52.087 18.7649 51.5611 19.2261 50.9221C20.1483 49.6442 21.4206 47.9161 22.8203 46.0462L22.6115 45.8899C21.2112 47.7606 19.9379 49.4901 19.0146 50.7694C18.553 51.409 18.1785 51.9367 17.9192 52.3135C17.7896 52.5018 17.6881 52.6534 17.6186 52.7629C17.5841 52.8175 17.5564 52.8632 17.537 52.8986C17.5273 52.9161 17.5186 52.9332 17.5119 52.9487C17.5085 52.9565 17.5048 52.9657 17.5018 52.9757C17.4993 52.9838 17.4944 53.0011 17.4944 53.0224H17.7553ZM22.8203 46.0462L27.9113 39.2449L27.7025 39.0886L22.6115 45.8899L22.8203 46.0462ZM27.9307 39.1258L27.5245 37.8954L27.2768 37.9771L27.683 39.2076L27.9307 39.1258ZM27.5245 37.8954C27.4166 37.5684 27.3419 37.1706 27.3096 36.7937C27.2771 36.4145 27.2887 36.0696 27.3452 35.8446L27.0922 35.7811C27.0254 36.0471 27.0163 36.4254 27.0498 36.816C27.0834 37.2089 27.1613 37.6273 27.2768 37.9771L27.5245 37.8954ZM27.3452 35.8446C27.3666 35.7593 27.448 35.5891 27.5904 35.3414C27.7297 35.0991 27.9192 34.7961 28.145 34.4518C28.5966 33.7635 29.1901 32.9148 29.8095 32.0653C30.4288 31.2158 31.073 30.3667 31.6258 29.6775C32.1821 28.9839 32.6369 28.4636 32.8804 28.2615L32.7138 28.0608C32.4462 28.2829 31.9748 28.8255 31.4223 29.5143C30.8665 30.2074 30.2197 31.0598 29.5987 31.9116C28.9777 32.7634 28.3815 33.6158 27.9269 34.3088C27.6997 34.6551 27.5071 34.9629 27.3642 35.2114C27.2245 35.4545 27.1238 35.6552 27.0922 35.7811L27.3452 35.8446ZM32.8804 28.2615C33.0074 28.1561 33.1026 28.0919 33.1695 28.0593C33.203 28.0429 33.2235 28.0374 33.2332 28.036C33.2427 28.0347 33.231 28.0386 33.2135 28.0275C33.1946 28.0154 33.1908 28 33.1913 28.0019C33.1922 28.0055 33.1942 28.0197 33.1906 28.049C33.1834 28.1075 33.1581 28.1955 33.11 28.3133C32.918 28.7839 32.4167 29.601 31.6945 30.531L31.9005 30.6909C32.6275 29.7547 33.146 28.9154 33.3515 28.4119C33.4028 28.2862 33.4381 28.1733 33.4494 28.0809C33.4551 28.0348 33.4559 27.986 33.4447 27.9402C33.4331 27.8926 33.4065 27.8411 33.3535 27.8074C33.3019 27.7745 33.2448 27.7711 33.1973 27.7777C33.1501 27.7842 33.102 27.8019 33.0549 27.8249C32.9607 27.871 32.8469 27.9504 32.7138 28.0608L32.8804 28.2615ZM31.6945 30.531C31.2858 31.0572 30.9266 31.577 30.6768 31.9915C30.5521 32.1984 30.453 32.3818 30.3888 32.5281C30.3568 32.6011 30.3318 32.6683 30.3172 32.7267C30.304 32.779 30.2927 32.8476 30.3131 32.9094L30.5609 32.8281C30.5651 32.841 30.5589 32.835 30.5701 32.7902C30.5798 32.7516 30.5986 32.6992 30.6276 32.633C30.6855 32.5012 30.7782 32.3285 30.9002 32.1261C31.1436 31.7222 31.4967 31.2109 31.9005 30.6909L31.6945 30.531ZM30.313 32.9092C30.3411 32.9954 30.408 33.0643 30.4794 33.1175C30.5533 33.1726 30.6465 33.2215 30.7501 33.2634C30.9576 33.3473 31.2222 33.4091 31.4959 33.4311L31.5168 33.1711C31.2663 33.151 31.0281 33.0944 30.8479 33.0216C30.7577 32.9851 30.6859 32.9461 30.6352 32.9083C30.582 32.8687 30.5647 32.8399 30.5609 32.8282L30.313 32.9092ZM31.4959 33.4311C31.7066 33.4479 31.8947 33.4459 32.075 33.4041C32.2571 33.3619 32.4242 33.2807 32.5959 33.1487C32.932 32.8904 33.2953 32.429 33.8397 31.6651L33.6273 31.5137C33.0781 32.2844 32.7367 32.7116 32.437 32.9419C32.2909 33.0542 32.1573 33.1173 32.0161 33.15C31.8729 33.1832 31.7149 33.1869 31.5168 33.1711L31.4959 33.4311ZM33.8397 31.6651C34.4484 30.8106 34.8945 30.2781 35.182 30.0498C35.253 29.9934 35.3077 29.961 35.3475 29.9456C35.3878 29.9299 35.3973 29.9374 35.3918 29.9351C35.3842 29.9318 35.3932 29.9299 35.405 29.9637C35.4172 29.9985 35.4262 30.0554 35.4262 30.1411H35.6871C35.6871 30.0417 35.6771 29.9517 35.6513 29.8777C35.6251 29.8028 35.5772 29.7304 35.4937 29.695C35.4122 29.6604 35.3266 29.6739 35.2531 29.7024C35.1789 29.7312 35.1007 29.7813 35.0197 29.8456C34.6995 30.1 34.234 30.6621 33.6273 31.5137L33.8397 31.6651ZM35.4262 30.1411C35.4262 30.138 35.4253 30.1535 35.4077 30.1984C35.3919 30.2384 35.3675 30.2906 35.3343 30.3543C35.268 30.4813 35.1708 30.6461 35.0492 30.8378C34.8062 31.2206 34.4702 31.7038 34.0999 32.1942L34.308 32.3513C34.6817 31.8564 35.022 31.3674 35.2694 30.9775C35.393 30.7828 35.4945 30.6111 35.5655 30.4749C35.601 30.407 35.63 30.3458 35.6504 30.2937C35.669 30.2464 35.6871 30.1911 35.6871 30.1411H35.4262ZM34.0999 32.1942C33.7884 32.6066 33.5482 32.9315 33.37 33.1978C33.1924 33.4632 33.0716 33.6773 33.0039 33.8676C32.9347 34.062 32.9206 34.2323 32.955 34.4069C32.9884 34.5762 33.0663 34.7423 33.166 34.9285L33.3959 34.8055C33.2977 34.6218 33.2363 34.485 33.2109 34.3564C33.1866 34.233 33.1943 34.1105 33.2496 33.9551C33.3063 33.7956 33.4127 33.603 33.5867 33.3429C33.7603 33.0835 33.9964 32.7641 34.308 32.3513L34.0999 32.1942ZM33.166 34.9285C33.3191 35.2148 33.4666 35.4387 33.6271 35.5748C33.7092 35.6445 33.7989 35.6948 33.8983 35.7163C33.9987 35.738 34.0998 35.7283 34.2007 35.6918C34.3955 35.6213 34.5947 35.4489 34.814 35.1978C35.0362 34.9434 35.2924 34.5919 35.5981 34.1411L35.3822 33.9947C35.0777 34.4437 34.8288 34.7843 34.6175 35.0263C34.4033 35.2716 34.2408 35.3999 34.1119 35.4465C34.051 35.4686 33.9999 35.4714 33.9534 35.4614C33.9059 35.4511 33.854 35.4253 33.7958 35.3759C33.6756 35.274 33.5473 35.0883 33.3959 34.8055L33.166 34.9285ZM35.5981 34.1411C36.2204 33.2234 36.7684 32.5335 37.1862 32.122C37.397 31.9144 37.5653 31.7871 37.6866 31.7324C37.7471 31.7051 37.7832 31.7019 37.8007 31.7042C37.811 31.7055 37.8184 31.7083 37.8284 31.7245L38.0502 31.5873C38.0015 31.5084 37.9272 31.4578 37.8348 31.4456C37.7497 31.4344 37.662 31.4574 37.5794 31.4946C37.4145 31.569 37.2193 31.7233 37.0032 31.9361C36.5674 32.3654 36.0082 33.0716 35.3822 33.9947L35.5981 34.1411ZM37.8284 31.7245C37.8105 31.6956 37.8175 31.6743 37.8154 31.6898C37.8141 31.6997 37.8097 31.7186 37.7989 31.7487C37.7776 31.8082 37.7388 31.8918 37.6818 31.9987C37.5685 32.2114 37.3924 32.5004 37.1696 32.843C36.7247 33.5272 36.1002 34.4156 35.4376 35.3155C34.7751 36.2153 34.0758 37.125 33.4817 37.8519C33.1846 38.2154 32.9145 38.5322 32.689 38.7789C32.4608 39.0285 32.2857 39.1978 32.1768 39.2741L32.3265 39.4877C32.4617 39.393 32.6542 39.2036 32.8815 38.9549C33.1115 38.7033 33.3849 38.3824 33.6836 38.0169C34.2812 37.2858 34.9833 36.3725 35.6476 35.4702C36.3119 34.568 36.9396 33.6752 37.3883 32.9851C37.6124 32.6405 37.7934 32.3441 37.912 32.1213C37.9711 32.0105 38.0169 31.9139 38.0445 31.8366C38.0582 31.7984 38.0693 31.7598 38.074 31.7239C38.078 31.6935 38.0815 31.638 38.0502 31.5873L37.8284 31.7245ZM32.1768 39.2741C31.9901 39.405 31.6551 39.5339 31.2558 39.6311C30.8602 39.7274 30.4164 39.7889 30.0215 39.793L30.0243 40.0538C30.4416 40.0495 30.9053 39.9848 31.3175 39.8845C31.7262 39.7851 32.0995 39.6469 32.3265 39.4877L32.1768 39.2741ZM30.0216 39.793C29.2996 39.8003 28.8808 39.8115 28.4155 40.1583C28.1892 40.327 27.9552 40.5719 27.6649 40.9225C27.3741 41.2736 27.0212 41.7378 26.5582 42.3493L26.7661 42.5067C27.2302 41.8938 27.5794 41.4346 27.8658 41.0888C28.1526 40.7425 28.3707 40.517 28.5713 40.3675C28.9599 40.0779 29.2944 40.0612 30.0242 40.0538L30.0216 39.793ZM26.5582 42.3493C25.7333 43.4388 25.2665 44.088 25.0622 44.519C24.9592 44.7361 24.9134 44.9164 24.9356 45.0801C24.9582 45.2477 25.0486 45.374 25.1628 45.4881L25.3472 45.3037C25.2514 45.2079 25.2057 45.1316 25.194 45.0452C25.1818 44.9549 25.2036 44.8296 25.2978 44.6307C25.488 44.2297 25.9347 43.6049 26.7661 42.5067L26.5582 42.3493ZM25.1628 45.4881C25.28 45.6053 25.4754 45.6979 25.7103 45.7743C25.9498 45.8523 26.2482 45.9189 26.5882 45.9746C27.2685 46.086 28.1273 46.1556 29.0393 46.1806C30.8606 46.2304 32.915 46.1031 34.203 45.7663L34.137 45.5139C32.8843 45.8415 30.8588 45.9695 29.0465 45.9198C28.1417 45.8951 27.2953 45.8261 26.6303 45.7172C26.2976 45.6627 26.0133 45.5987 25.791 45.5263C25.5641 45.4525 25.4187 45.3752 25.3472 45.3037L25.1628 45.4881ZM34.203 45.7663L36.2401 45.2335L36.1741 44.9812L34.137 45.5139L34.203 45.7663ZM36.1543 45.2266L40.1877 47.0113L40.2932 46.7728L36.2599 44.9881L36.1543 45.2266ZM40.1877 47.0113C41.298 47.5028 42.4092 47.9751 43.3052 48.3402C44.1964 48.7033 44.8858 48.9651 45.1452 49.0302L45.2086 48.7772C44.9714 48.7177 44.3019 48.4647 43.4037 48.0986C42.5103 47.7346 41.4015 47.2633 40.2932 46.7728L40.1877 47.0113ZM45.1451 49.0302C45.3643 49.0852 45.5434 49.1296 45.6783 49.1423C45.8085 49.1546 45.9554 49.143 46.0413 49.0157C46.0797 48.9589 46.0959 48.8918 46.102 48.8245C46.1082 48.7567 46.1049 48.6784 46.0959 48.5909C46.078 48.4166 46.0347 48.1829 45.9783 47.8826L45.722 47.9307C45.7791 48.2352 45.8199 48.4565 45.8364 48.6176C45.8447 48.6978 45.8462 48.7572 45.8423 48.8009C45.8382 48.8453 45.8294 48.8635 45.8252 48.8698C45.8235 48.8722 45.8214 48.876 45.8074 48.8798C45.7892 48.8848 45.7571 48.8878 45.7027 48.8826C45.5922 48.8723 45.4357 48.8342 45.2086 48.7772L45.1451 49.0302ZM45.9783 47.8826C45.4301 44.9602 44.8017 40.2673 44.7772 38.9276L44.5164 38.9324C44.5414 40.2955 45.1734 45.0067 45.722 47.9307L45.9783 47.8826ZM44.7772 38.9276C44.7626 38.122 45.0432 36.8162 45.4214 35.9463L45.1822 35.8423C44.7915 36.7409 44.501 38.0837 44.5164 38.9324L44.7772 38.9276ZM45.4214 35.9463C48.139 29.6941 46.1867 21.5682 40.884 17.0392L40.7146 17.2375C45.9329 21.6945 47.8526 29.6987 45.1822 35.8423L45.4214 35.9463ZM40.884 17.0392C40.4489 16.6675 40.1073 16.3583 39.8538 16.1037C39.5982 15.847 39.4402 15.6535 39.364 15.513C39.326 15.4427 39.3144 15.3965 39.3138 15.3691C39.3133 15.3481 39.3185 15.3391 39.3285 15.3299C39.3435 15.3161 39.3772 15.2969 39.4447 15.2823C39.5108 15.2679 39.5988 15.26 39.711 15.26V14.9992C39.5888 14.9992 39.4805 15.0076 39.3894 15.0274C39.2997 15.0469 39.2151 15.0799 39.152 15.1379C39.0837 15.2006 39.0508 15.2833 39.053 15.3754C39.0551 15.4611 39.0872 15.5496 39.1347 15.6372C39.2297 15.8126 39.4105 16.0281 39.669 16.2878C39.9296 16.5495 40.2773 16.864 40.7146 17.2375L40.884 17.0392ZM39.1449 6.99723L39.3323 7.17867L39.3323 7.17865L39.1449 6.99723ZM36.6804 9.97978L36.8879 10.1378L36.8879 10.1378L36.6804 9.97978ZM35.1204 12.0279L35.0875 12.2867L35.2367 12.3056L35.3278 12.186L35.1204 12.0279ZM33.0941 11.7707L33.1269 11.5119L33.1269 11.5119L33.0941 11.7707ZM25.1467 12.1583L25.0743 11.9077L25.0743 11.9077L25.1467 12.1583ZM12.0001 29.2121L11.7393 29.2129L11.7393 29.2129L12.0001 29.2121ZM13.9726 37.6805L13.7384 37.7954L13.7385 37.7955L13.9726 37.6805ZM18.6443 40.7732L18.4562 40.954L18.4562 40.954L18.6443 40.7732ZM14.2657 27.0541L14.5228 27.0976L14.5228 27.0976L14.2657 27.0541ZM26.3491 13.9799L26.4077 14.234L26.4077 14.234L26.3491 13.9799ZM33.3213 13.9078L33.5435 13.7712L33.5431 13.7706L33.3213 13.9078ZM30.8369 17.8202L31.0474 17.9742L31.0474 17.9742L30.8369 17.8202ZM28.1794 21.4529V21.7137H28.3118L28.39 21.6069L28.1794 21.4529ZM24.4268 21.981L24.5764 22.1947L24.5764 22.1947L24.4268 21.981ZM20.6187 27.4529L20.3624 27.4047L20.3624 27.4048L20.6187 27.4529ZM26.3008 31.4171L26.1811 31.1854L26.181 31.1854L26.3008 31.4171ZM30.2507 26.5106L30.0069 26.4179L30.0069 26.4179L30.2507 26.5106ZM30.2266 24.1319L29.9754 24.2022L29.9754 24.2022L30.2266 24.1319ZM36.3655 14.0995L36.1581 13.9413L36.1581 13.9414L36.3655 14.0995ZM40.5305 6.46222L40.3639 6.6629L40.364 6.66293L40.5305 6.46222ZM38.9467 14.4976L39.131 14.6821L39.1311 14.682L38.9467 14.4976ZM40.8624 17.876L41.0459 17.6905L41.0459 17.6905L40.8624 17.876ZM45.258 24.7256L45.011 24.8093L45.011 24.8093L45.258 24.7256ZM45.8185 30.2558L45.5579 30.2441L45.5579 30.2441L45.8185 30.2558ZM44.7608 35.7217L44.9993 35.8273L44.9993 35.8273L44.7608 35.7217ZM43.8561 37.7646L43.6176 37.659L43.5874 37.7272L43.5978 37.801L43.8561 37.7646ZM44.5724 42.8478L44.8306 42.8114L44.8306 42.8114L44.5724 42.8478ZM41.1128 46.53L41.0061 46.768L41.0062 46.768L41.1128 46.53ZM32.6976 45.2321L32.6429 44.977L32.6429 44.977L32.6976 45.2321ZM25.8382 45.0048L25.7108 45.2324L25.7108 45.2324L25.8382 45.0048ZM27.0673 42.4585L26.8608 42.2992L26.8608 42.2992L27.0673 42.4585ZM30.4649 40.0318L30.4912 40.2913L30.4912 40.2913L30.4649 40.0318ZM32.7061 39.3798L32.8722 39.5809L32.8722 39.5808L32.7061 39.3798ZM38.3292 31.5798L38.073 31.6291L38.0731 31.6291L38.3292 31.5798ZM35.5863 32.821L35.3826 32.658L35.3826 32.658L35.5863 32.821ZM34.8168 31.9632L34.6128 31.8007L34.6127 31.8008L34.8168 31.9632ZM35.6456 29.2891L35.4789 29.4897L35.4791 29.4898L35.6456 29.2891ZM32.8525 31.5208L33.0608 31.6777L33.0608 31.6777L32.8525 31.5208ZM31.4492 32.4946L31.3964 32.75L31.3966 32.7501L31.4492 32.4946ZM32.3582 30.3748L32.149 30.219L32.149 30.219L32.3582 30.3748ZM33.6451 27.848L33.8886 27.7546L33.8886 27.7546L33.6451 27.848ZM28.7813 32.0457L28.5725 31.8893L28.5725 31.8893L28.7813 32.0457ZM26.5864 34.9767L26.3777 34.8204L26.3174 34.9008L26.3268 35.001L26.5864 34.9767ZM26.7814 37.0649L27.0411 37.0407L27.0411 37.0407L26.7814 37.0649ZM26.9764 39.1535L27.1851 39.31L27.2454 39.2295L27.2361 39.1293L26.9764 39.1535ZM22.3066 45.3824L22.5153 45.5388L22.5153 45.5388L22.3066 45.3824ZM17.1139 53.4373L17.2983 53.2529L17.1139 53.4373ZM21.3895 50.0994L21.6008 50.2523L21.6008 50.2523L21.3895 50.0994ZM23.7747 46.8032L23.8151 46.5455L23.6572 46.5208L23.5634 46.6503L23.7747 46.8032ZM25.1389 47.0171L25.0985 47.2748L25.0985 47.2748L25.1389 47.0171ZM34.0017 47.0901L33.946 46.8353L33.946 46.8353L34.0017 47.0901ZM36.284 46.5913L36.3899 46.3529L36.3118 46.3182L36.2283 46.3365L36.284 46.5913ZM41.4418 48.8826L41.5477 48.6443L41.5477 48.6443L41.4418 48.8826ZM47.0659 50.995L46.9725 50.7515L46.9723 50.7515L47.0659 50.995ZM46.8852 44.7547L47.1435 44.7181L47.1435 44.7181L46.8852 44.7547ZM47.0805 35.1218L46.8345 35.0351L46.8345 35.0352L47.0805 35.1218ZM40.881 15.2048L41.0344 14.9938L41.0344 14.9938L40.881 15.2048ZM28.7705 34.6425L28.955 34.827L28.955 34.8269L28.7705 34.6425ZM29.5348 38.6609L29.6206 38.4146L29.6206 38.4146L29.5348 38.6609ZM31.5496 34.3276L31.6694 34.0959L31.6694 34.0959L31.5496 34.3276ZM31.1049 35.3425L31.2349 35.1164L31.2349 35.1164L31.1049 35.3425ZM31.268 37.4617L31.4523 37.6462L31.4524 37.6461L31.268 37.4617ZM29.1487 37.1357L28.9027 37.2222L28.9223 37.2782L28.9643 37.3201L29.1487 37.1357ZM38.9575 6.8158C38.4489 7.3411 37.3322 8.69341 36.4729 9.82176L36.8879 10.1378C37.7443 9.01327 38.8459 7.68102 39.3323 7.17867L38.9575 6.8158ZM36.4729 9.82174L34.9129 11.8699L35.3278 12.186L36.8879 10.1378L36.4729 9.82174ZM35.1532 11.7692L33.1269 11.5119L33.0612 12.0294L35.0875 12.2867L35.1532 11.7692ZM33.1269 11.5119C30.1453 11.1336 27.2828 11.2703 25.0743 11.9077L25.219 12.4089C27.341 11.7964 30.1286 11.6573 33.0612 12.0294L33.1269 11.5119ZM25.0743 11.9077C17.2698 14.1607 11.7154 21.3572 11.7393 29.2129L12.2609 29.2113C12.2378 21.6001 17.627 14.6005 25.219 12.4089L25.0743 11.9077ZM11.7393 29.2129C11.7475 31.9116 12.5579 35.391 13.7384 37.7954L14.2067 37.5655C13.0613 35.2327 12.2689 31.8315 12.2609 29.2113L11.7393 29.2129ZM13.7385 37.7955C14.3773 39.0963 15.4714 40.6018 16.5348 41.7812C17.067 42.3715 17.5977 42.887 18.0666 43.2573C18.3009 43.4423 18.5249 43.5952 18.7302 43.7031C18.9301 43.8081 19.1372 43.8839 19.3306 43.8839V43.3623C19.2627 43.3623 19.1454 43.3319 18.9729 43.2413C18.8057 43.1534 18.6093 43.0211 18.3899 42.8479C17.9516 42.5018 17.4425 42.009 16.9222 41.4319C15.8804 40.2764 14.8182 38.8106 14.2067 37.5655L13.7385 37.7955ZM19.3306 43.8839C19.694 43.8839 20.0187 43.8283 20.238 43.657C20.3548 43.5659 20.4368 43.4455 20.4747 43.3005C20.5114 43.1601 20.5029 43.0125 20.4678 42.8669C20.3991 42.5815 20.2158 42.2525 19.9483 41.8858C19.6772 41.5143 19.3042 41.0835 18.8324 40.5925L18.4562 40.954C18.9195 41.436 19.2749 41.848 19.5268 42.1933C19.7823 42.5434 19.9164 42.8052 19.9606 42.989C19.9821 43.078 19.9789 43.1346 19.97 43.1685C19.9623 43.1979 19.9477 43.2219 19.917 43.2459C19.8414 43.3049 19.6678 43.3623 19.3306 43.3623V43.8839ZM18.8324 40.5925C15.3312 36.9488 13.7144 31.8745 14.5228 27.0976L14.0085 27.0106C13.1712 31.958 14.846 37.1967 18.4562 40.954L18.8324 40.5925ZM14.5228 27.0976C15.5744 20.8828 20.4563 15.6055 26.4077 14.234L26.2905 13.7257C20.1258 15.1464 15.0938 20.5962 14.0085 27.0106L14.5228 27.0976ZM26.4077 14.234C27.2651 14.0364 28.9239 13.9212 30.4131 13.9059C31.1545 13.8982 31.8434 13.9154 32.3587 13.9579C32.6174 13.9792 32.8248 14.0063 32.9706 14.0377C33.0442 14.0536 33.0933 14.0687 33.1225 14.0809C33.1638 14.0981 33.1301 14.0946 33.0995 14.045L33.5431 13.7706C33.4825 13.6726 33.382 13.6239 33.3234 13.5995C33.2527 13.57 33.169 13.5469 33.0806 13.5278C32.9023 13.4894 32.6691 13.46 32.4015 13.438C31.8642 13.3937 31.1577 13.3765 30.4077 13.3842C28.9143 13.3997 27.207 13.5145 26.2905 13.7257L26.4077 14.234ZM33.0992 14.0445C33.0733 14.0025 33.068 13.9645 33.0666 13.9474C33.0652 13.9291 33.067 13.9174 33.0672 13.9159C33.0676 13.9134 33.0662 13.9229 33.0567 13.949C33.0382 13.9995 33.0029 14.0768 32.9476 14.1821C32.8383 14.3907 32.6662 14.6806 32.4425 15.0329C31.996 15.736 31.3547 16.6707 30.6264 17.6662L31.0474 17.9742C31.7805 16.9721 32.4287 16.0277 32.8829 15.3126C33.1094 14.9557 33.2904 14.6518 33.4096 14.4244C33.4687 14.3118 33.5165 14.2106 33.5468 14.1276C33.5616 14.0869 33.5759 14.0408 33.5829 13.9946C33.5877 13.9634 33.6014 13.8653 33.5435 13.7712L33.0992 14.0445ZM30.6264 17.6662L27.9689 21.2989L28.39 21.6069L31.0474 17.9742L30.6264 17.6662ZM28.1794 21.192H26.6803V21.7137H28.1794V21.192ZM26.6803 21.192C26.2318 21.192 25.7558 21.2515 25.3347 21.3502C24.9198 21.4474 24.5323 21.5888 24.2772 21.7674L24.5764 22.1947C24.7511 22.0724 25.063 21.9497 25.4538 21.8581C25.8384 21.7679 26.2744 21.7137 26.6803 21.7137V21.192ZM24.2772 21.7674C23.9558 21.9924 23.5676 22.3837 23.1697 22.8465C22.7682 23.3134 22.3444 23.8679 21.9516 24.4324C21.5589 24.9967 21.1947 25.5746 20.9135 26.0889C20.6369 26.5949 20.4262 27.0648 20.3624 27.4047L20.8751 27.501C20.9224 27.2488 21.0966 26.8415 21.3712 26.3391C21.6414 25.8449 21.9951 25.2831 22.3797 24.7303C22.7643 24.1777 23.1774 23.6377 23.5653 23.1866C23.9567 22.7313 24.3104 22.381 24.5764 22.1947L24.2772 21.7674ZM20.3624 27.4048C19.733 30.7596 23.3469 33.2381 26.4206 31.6488L26.181 31.1854C23.4501 32.5975 20.3347 30.3818 20.8751 27.5009L20.3624 27.4048ZM26.4206 31.6488C26.7188 31.4946 27.0854 31.186 27.465 30.8097C27.8501 30.4281 28.2667 29.9584 28.6658 29.4627C29.4579 28.4788 30.2068 27.3604 30.4945 26.6033L30.0069 26.4179C29.7499 27.0941 29.0453 28.1593 28.2594 29.1355C27.8696 29.6198 27.466 30.0743 27.0978 30.4392C26.7241 30.8096 26.4044 31.0699 26.1811 31.1854L26.4206 31.6488ZM30.4945 26.6034C30.6435 26.2117 30.7198 25.8499 30.7156 25.4416C30.7116 25.0383 30.6291 24.6018 30.4778 24.0615L29.9754 24.2022C30.1214 24.7235 30.1906 25.1096 30.194 25.4469C30.1974 25.7792 30.137 26.076 30.0069 26.4179L30.4945 26.6034ZM30.4778 24.0616C30.4179 23.8476 30.3517 23.6755 30.3049 23.5422C30.2564 23.4041 30.2291 23.3083 30.2222 23.2126C30.2094 23.0333 30.2648 22.7919 30.5966 22.2497C31.2618 21.1625 32.8956 19.0795 36.5729 14.2577L36.1581 13.9414C32.4986 18.7398 30.8354 20.86 30.1516 21.9774C29.8089 22.5376 29.6768 22.8989 29.7019 23.2499C29.714 23.4193 29.7621 23.5706 29.8127 23.7149C29.865 23.864 29.9215 24.0097 29.9754 24.2022L30.4778 24.0616ZM36.5729 14.2577C37.8523 12.5804 39.016 10.9898 39.8607 9.77799C40.2828 9.17247 40.6268 8.65917 40.8661 8.27586C40.9855 8.08468 41.0811 7.92217 41.1477 7.7949C41.1808 7.73157 41.2091 7.67265 41.2297 7.62076C41.2465 7.57866 41.2723 7.50807 41.2723 7.43444H40.7506C40.7506 7.40023 40.7601 7.39002 40.7449 7.42813C40.7337 7.45645 40.7145 7.49757 40.6855 7.55297C40.6278 7.66318 40.5402 7.8129 40.4236 7.99961C40.1911 8.37207 39.8528 8.87715 39.4328 9.4797C38.5933 10.684 37.4341 12.2684 36.1581 13.9413L36.5729 14.2577ZM41.2723 7.43444C41.2723 7.22399 41.2022 6.99547 41.1039 6.79674C41.0049 6.59665 40.8642 6.40014 40.6971 6.2615L40.364 6.66293C40.4613 6.74371 40.561 6.87568 40.6364 7.02803C40.7124 7.18174 40.7506 7.32963 40.7506 7.43444H41.2723ZM40.6971 6.26153C40.5862 6.16945 40.4632 6.088 40.3212 6.04898C40.1708 6.00764 40.022 6.01994 39.8738 6.07719C39.733 6.13151 39.5945 6.2255 39.4513 6.34476C39.3067 6.46524 39.1446 6.62253 38.9575 6.81582L39.3323 7.17865C39.5152 6.98966 39.6621 6.84811 39.7852 6.74554C39.9098 6.64177 39.9976 6.58854 40.0616 6.56384C40.118 6.54206 40.1523 6.54354 40.183 6.55197C40.2221 6.56272 40.2781 6.59164 40.3639 6.6629L40.6971 6.26153ZM38.7623 14.3131C38.5809 14.4944 38.4751 14.7168 38.4745 14.9837C38.474 15.238 38.5691 15.5063 38.7306 15.7911C39.052 16.3577 39.6936 17.0868 40.679 18.0614L41.0459 17.6905C40.0588 16.7142 39.466 16.0304 39.1844 15.5337C39.0444 15.2869 38.9959 15.111 38.9962 14.9848C38.9964 14.8713 39.0359 14.7772 39.131 14.6821L38.7623 14.3131ZM40.679 18.0614C41.899 19.2681 42.7324 20.2259 43.3848 21.2425C44.0364 22.2579 44.5141 23.3423 45.011 24.8093L45.505 24.6419C45.0004 23.1521 44.5065 22.0245 43.8238 20.9607C43.1419 19.8981 42.2782 18.9095 41.0459 17.6905L40.679 18.0614ZM45.011 24.8093C45.3129 25.7005 45.4792 26.3307 45.5566 27.0949C45.6348 27.8656 45.6234 28.7808 45.5579 30.2441L46.079 30.2674C46.1445 28.8046 46.158 27.855 46.0756 27.0423C45.9926 26.2232 45.8131 25.5514 45.505 24.6419L45.011 24.8093ZM45.5579 30.2441C45.4949 31.6527 45.4173 32.5822 45.2657 33.3657C45.1152 34.144 44.89 34.7859 44.5223 35.6161L44.9993 35.8273C45.377 34.9745 45.6175 34.2937 45.7779 33.4648C45.9372 32.6413 46.0159 31.6793 46.079 30.2674L45.5579 30.2441ZM44.5223 35.6161L43.6176 37.659L44.0946 37.8702L44.9993 35.8273L44.5223 35.6161ZM43.5978 37.801L44.3141 42.8842L44.8306 42.8114L44.1143 37.7282L43.5978 37.801ZM44.3141 42.8842C44.5107 44.2801 44.6711 45.5661 44.7711 46.5131C44.8212 46.9871 44.8558 47.3735 44.8725 47.6454C44.8808 47.7821 44.8843 47.8851 44.8835 47.9541C44.8831 47.9894 44.8815 48.009 44.8805 48.017C44.8799 48.0214 44.8803 48.0156 44.8837 48.0042C44.8845 48.0014 44.897 47.954 44.9419 47.9092L45.3107 48.2781C45.3611 48.2277 45.3786 48.1702 45.3837 48.1531C45.3913 48.1274 45.3953 48.103 45.3978 48.0845C45.4027 48.0467 45.4046 48.0037 45.4051 47.9605C45.4062 47.8723 45.4018 47.7544 45.3932 47.6136C45.3758 47.3304 45.3403 46.9351 45.2899 46.4583C45.1891 45.5038 45.0279 44.2115 44.8306 42.8114L44.3141 42.8842ZM44.9419 47.9092C44.9907 47.8604 45.0436 47.8477 45.0602 47.8443C45.0809 47.84 45.0949 47.8405 45.0964 47.8405C45.1 47.8406 45.092 47.8405 45.0667 47.8354C45.0185 47.8256 44.9429 47.8051 44.8383 47.7719C44.6312 47.7062 44.3369 47.5993 43.9751 47.4583C43.2528 47.1769 42.2759 46.7654 41.2195 46.292L41.0062 46.768C42.068 47.244 43.0532 47.659 43.7857 47.9444C44.1513 48.0868 44.4576 48.1984 44.6805 48.2691C44.7908 48.3041 44.8875 48.3314 44.9634 48.3467C45.0002 48.3541 45.0423 48.3609 45.0831 48.362C45.1033 48.3625 45.1328 48.3619 45.1657 48.3552C45.1944 48.3492 45.2563 48.3325 45.3107 48.2781L44.9419 47.9092ZM41.2195 46.292C39.1364 45.3582 37.8342 44.8399 36.6284 44.654C35.4127 44.4665 34.3128 44.6191 32.6429 44.977L32.7523 45.4871C34.4122 45.1313 35.433 44.9974 36.5489 45.1695C37.6748 45.3432 38.9154 45.8307 41.0061 46.768L41.2195 46.292ZM32.6429 44.977C31.6672 45.1862 30.2123 45.2619 28.877 45.2177C28.2113 45.1956 27.5824 45.144 27.0647 45.0661C26.536 44.9866 26.1568 44.8842 25.9656 44.7772L25.7108 45.2324C25.992 45.3898 26.4551 45.5019 26.9871 45.582C27.53 45.6636 28.1799 45.7165 28.8597 45.7391C30.2153 45.784 31.7177 45.7089 32.7523 45.4871L32.6429 44.977ZM25.9656 44.7772C25.9278 44.7561 25.911 44.7407 25.9042 44.7329C25.8998 44.7278 25.8997 44.7264 25.8991 44.7234C25.8959 44.7066 25.8946 44.6375 25.9777 44.4654C26.1417 44.1256 26.5372 43.5728 27.2739 42.6178L26.8608 42.2992C26.1353 43.2398 25.7006 43.8394 25.5079 44.2386C25.4126 44.436 25.3512 44.633 25.3865 44.82C25.4259 45.029 25.5693 45.1532 25.7108 45.2324L25.9656 44.7772ZM27.2739 42.6178C28.1264 41.5127 28.5494 40.9858 28.9494 40.7C29.3247 40.4319 29.6851 40.373 30.4912 40.2913L30.4386 39.7723C29.6459 39.8527 29.1492 39.9162 28.6462 40.2755C28.168 40.6171 27.6916 41.2224 26.8608 42.2992L27.2739 42.6178ZM30.4912 40.2913C30.9627 40.2435 31.458 40.144 31.8788 40.0215C32.2866 39.9029 32.666 39.7512 32.8722 39.5809L32.54 39.1787C32.4238 39.2747 32.1376 39.4029 31.7331 39.5207C31.3415 39.6346 30.8774 39.7279 30.4386 39.7723L30.4912 40.2913ZM32.8722 39.5808C33.1778 39.3283 33.6924 38.7332 34.2761 38.0018C34.8667 37.2617 35.5461 36.3589 36.1866 35.4704C36.8269 34.5823 37.4305 33.7055 37.869 33.0179C38.0878 32.6747 38.2681 32.3745 38.3916 32.1418C38.453 32.0261 38.5034 31.9212 38.5375 31.8331C38.5544 31.7891 38.5695 31.7438 38.5793 31.6998C38.5879 31.6611 38.5984 31.5983 38.5853 31.5304L38.0731 31.6291C38.066 31.5923 38.0733 31.5721 38.07 31.5868C38.068 31.5961 38.0625 31.6149 38.0508 31.6451C38.0276 31.7054 37.988 31.7894 37.9308 31.8973C37.8169 32.112 37.6451 32.3986 37.4291 32.7374C36.9978 33.4138 36.4004 34.2818 35.7634 35.1654C35.1266 36.0487 34.4525 36.9445 33.8684 37.6764C33.2775 38.4169 32.7963 38.9669 32.5399 39.1787L32.8722 39.5808ZM38.5853 31.5305C38.5258 31.2213 38.4006 30.9469 38.1564 30.8044C37.9042 30.6571 37.6134 30.7003 37.3441 30.8222C37.0727 30.945 36.7737 31.1678 36.4525 31.4704C36.1288 31.7754 35.7709 32.1728 35.3826 32.658L35.7899 32.9839C36.1685 32.5108 36.5097 32.1332 36.8103 31.8501C37.1134 31.5645 37.3636 31.3859 37.5592 31.2974C37.7568 31.208 37.8507 31.2299 37.8934 31.2549C37.9442 31.2846 38.0243 31.3758 38.073 31.6291L38.5853 31.5305ZM35.3826 32.658C35.0168 33.1151 34.7085 33.4755 34.4525 33.744C34.1927 34.0164 34.0003 34.1796 33.8662 34.2577C33.799 34.2968 33.766 34.3028 33.7598 34.3033C33.7589 34.3034 33.7669 34.3027 33.7797 34.3069C33.7931 34.3114 33.8039 34.3188 33.8107 34.3253C33.8212 34.3354 33.8085 34.3299 33.7951 34.2736C33.7823 34.2199 33.7735 34.1403 33.7735 34.0286H33.2519C33.2519 34.1625 33.2619 34.2868 33.2877 34.3948C33.3129 34.5002 33.3588 34.6141 33.4486 34.7008C33.548 34.7966 33.6742 34.8335 33.8014 34.8233C33.9175 34.814 34.0287 34.7667 34.1287 34.7085C34.329 34.5918 34.563 34.384 34.83 34.104C35.1008 33.8201 35.4196 33.4467 35.7899 32.9839L35.3826 32.658ZM33.7735 34.0286C33.7735 34.0441 33.7707 34.0375 33.7854 33.9958C33.7982 33.9594 33.8191 33.9105 33.8495 33.8488C33.9102 33.7258 34.0008 33.5679 34.1163 33.3849C34.3469 33.0198 34.6672 32.5699 35.0209 32.1256L34.6127 31.8008C34.2491 32.2576 33.9174 32.7229 33.6752 33.1064C33.5544 33.2978 33.4534 33.4726 33.3817 33.618C33.3459 33.6906 33.3153 33.7599 33.2932 33.8229C33.273 33.8805 33.2519 33.9543 33.2519 34.0286H33.7735ZM35.0209 32.1257C35.3804 31.6741 35.6605 31.3114 35.8658 31.0131C36.0689 30.7181 36.2118 30.4679 36.2813 30.2436C36.3547 30.0066 36.3487 29.7892 36.2469 29.5823C36.1535 29.3925 35.9904 29.2362 35.8121 29.0883L35.4791 29.4898C35.65 29.6316 35.7375 29.7287 35.7788 29.8126C35.8117 29.8793 35.8244 29.9558 35.783 30.0892C35.7377 30.2354 35.6323 30.4323 35.4361 30.7174C35.2421 30.9992 34.972 31.3496 34.6128 31.8007L35.0209 32.1257ZM35.8122 29.0884C35.635 28.9412 35.424 28.8629 35.1792 28.8969C34.9508 28.9286 34.7244 29.0542 34.493 29.2391C34.0313 29.608 33.4451 30.3002 32.6441 31.3638L33.0608 31.6777C33.8658 30.6087 34.4156 29.9686 34.8186 29.6466C35.0196 29.486 35.1578 29.4265 35.2509 29.4136C35.3278 29.4029 35.3956 29.4205 35.4789 29.4897L35.8122 29.0884ZM32.6442 31.3638C32.396 31.6931 32.1554 31.9327 31.9448 32.0789C31.7266 32.2303 31.5802 32.2553 31.5018 32.2392L31.3966 32.7501C31.6824 32.8089 31.9791 32.6901 32.2422 32.5074C32.5129 32.3196 32.7918 32.0347 33.0608 31.6777L32.6442 31.3638ZM31.502 32.2392C31.3907 32.2162 31.4212 32.1968 31.4436 32.2423C31.4627 32.2812 31.4294 32.2746 31.4912 32.1306C31.6079 31.8582 31.9343 31.3812 32.5674 30.5305L32.149 30.219C31.5301 31.0506 31.1583 31.5832 31.0117 31.925C30.9418 32.0881 30.8855 32.2897 30.9755 32.4726C31.0688 32.6622 31.264 32.7227 31.3964 32.75L31.502 32.2392ZM32.5674 30.5305C33.045 29.8889 33.4083 29.3278 33.6371 28.8785C33.7513 28.6544 33.8362 28.45 33.8834 28.2722C33.9281 28.1035 33.9508 27.9167 33.8886 27.7546L33.4015 27.9414C33.4013 27.9408 33.4063 27.9542 33.4048 27.9902C33.4034 28.0256 33.3962 28.0744 33.3792 28.1383C33.345 28.267 33.2776 28.4349 33.1723 28.6417C32.9622 29.0543 32.6179 29.5891 32.149 30.219L32.5674 30.5305ZM33.8886 27.7546C33.7662 27.4355 33.5725 27.1181 33.2115 27.0679C33.0401 27.044 32.8686 27.0883 32.7034 27.1688C32.5382 27.2494 32.3626 27.3743 32.1736 27.5374C31.4273 28.1815 30.3121 29.5666 28.5725 31.8893L28.9901 32.202C30.741 29.8641 31.8202 28.5314 32.5144 27.9323C32.6855 27.7846 32.8229 27.691 32.932 27.6377C33.0413 27.5845 33.1055 27.5798 33.1396 27.5846C33.1897 27.5915 33.2864 27.6415 33.4015 27.9414L33.8886 27.7546ZM28.5725 31.8893L26.3777 34.8204L26.7952 35.133L28.9901 32.202L28.5725 31.8893ZM26.3268 35.001L26.5217 37.0892L27.0411 37.0407L26.8461 34.9525L26.3268 35.001ZM26.5217 37.0892L26.7167 39.1778L27.2361 39.1293L27.0411 37.0407L26.5217 37.0892ZM26.7677 38.9971L22.0979 45.2259L22.5153 45.5388L27.1851 39.31L26.7677 38.9971ZM22.0979 45.2259C19.2522 49.0217 17.8243 50.9248 17.1714 51.9375C17.0073 52.192 16.8876 52.3972 16.8057 52.5663C16.7249 52.7332 16.6731 52.8807 16.6593 53.0166C16.6443 53.1637 16.6748 53.288 16.7396 53.397C16.7958 53.4913 16.8762 53.5685 16.9295 53.6218L17.2983 53.2529C17.2301 53.1847 17.2036 53.1567 17.1879 53.1302C17.1808 53.1183 17.1745 53.1062 17.1782 53.0694C17.1831 53.0213 17.2056 52.9374 17.2753 52.7936C17.3438 52.6519 17.4507 52.467 17.6098 52.2202C18.2497 51.2276 19.661 49.3461 22.5153 45.5388L22.0979 45.2259ZM16.9295 53.6218C17.1716 53.8639 17.4625 53.9995 17.807 53.9719C18.1346 53.9457 18.4713 53.7744 18.825 53.4983C19.5314 52.9468 20.4201 51.8839 21.6008 50.2523L21.1782 49.9465C19.9948 51.5818 19.1448 52.5869 18.504 53.0871C18.184 53.3369 17.9449 53.4375 17.7654 53.4519C17.6028 53.4649 17.4553 53.4098 17.2983 53.2529L16.9295 53.6218ZM21.6008 50.2523L23.986 46.9561L23.5634 46.6503L21.1782 49.9465L21.6008 50.2523ZM23.7343 47.0609L25.0985 47.2748L25.1793 46.7594L23.8151 46.5455L23.7343 47.0609ZM25.0985 47.2748C28.514 47.8102 31.7892 47.8409 34.0574 47.3449L33.946 46.8353C31.7646 47.3123 28.5602 47.2894 25.1793 46.7594L25.0985 47.2748ZM34.0574 47.3449L36.3397 46.8461L36.2283 46.3365L33.946 46.8353L34.0574 47.3449ZM36.1781 46.8297L41.3359 49.121L41.5477 48.6443L36.3899 46.3529L36.1781 46.8297ZM41.3359 49.121C42.7578 49.7528 44.1046 50.3075 45.1298 50.6926C45.6419 50.8849 46.0773 51.0362 46.4032 51.1336C46.5655 51.1822 46.7061 51.2189 46.8179 51.2404C46.8735 51.251 46.9277 51.259 46.9771 51.2618C47.0179 51.2641 47.0893 51.2654 47.1594 51.2385L46.9723 50.7515C47.0104 50.7369 47.032 50.7424 47.0062 50.7409C46.9889 50.74 46.9597 50.7364 46.9161 50.728C46.8293 50.7114 46.7079 50.6803 46.5526 50.6338C46.2433 50.5414 45.8206 50.3948 45.3132 50.2042C44.2997 49.8236 42.9626 49.273 41.5477 48.6443L41.3359 49.121ZM47.1592 51.2386C47.3563 51.163 47.536 51.042 47.643 50.7862C47.7377 50.5597 47.7658 50.2479 47.7533 49.8168C47.7281 48.9464 47.5282 47.4266 47.1435 44.7181L46.627 44.7914C47.0137 47.5143 47.2078 48.9982 47.2319 49.8319C47.2441 50.2528 47.2106 50.4681 47.1617 50.5849C47.1252 50.6723 47.0791 50.7106 46.9725 50.7515L47.1592 51.2386ZM47.1435 44.7181C46.7227 41.7562 46.5209 40.0933 46.5469 38.8108C46.5726 37.5444 46.8207 36.6451 47.3266 35.2084L46.8345 35.0352C46.3222 36.4901 46.0527 37.4511 46.0253 38.8002C45.9983 40.1333 46.2079 41.8411 46.627 44.7914L47.1435 44.7181ZM47.3265 35.2084C49.8352 28.0857 47.143 19.436 41.0344 14.9938L40.7276 15.4157C46.6497 19.7223 49.2666 28.13 46.8345 35.0351L47.3265 35.2084ZM41.0344 14.9938C40.3772 14.516 39.9492 14.2241 39.6349 14.1092C39.4669 14.0478 39.303 14.0254 39.1399 14.0711C38.9821 14.1153 38.8619 14.2135 38.7622 14.3132L39.1311 14.682C39.2083 14.6049 39.2513 14.5816 39.2806 14.5734C39.3045 14.5667 39.3515 14.561 39.4558 14.5992C39.6861 14.6834 40.0485 14.922 40.7277 15.4157L41.0344 14.9938ZM28.5861 34.4581C27.1222 35.9216 27.5301 38.2384 29.4489 38.9072L29.6206 38.4146C28.1102 37.8881 27.7285 36.0532 28.955 34.827L28.5861 34.4581ZM29.4489 38.9072C31.0153 39.4531 32.3138 38.6292 32.8426 37.4918C33.1065 36.9242 33.1854 36.268 33.0081 35.6525C32.8293 35.0318 32.3952 34.4712 31.6694 34.0959L31.4298 34.5593C32.0351 34.8722 32.3698 35.3212 32.5069 35.7968C32.6453 36.2776 32.587 36.8044 32.3696 37.2719C31.9359 38.2047 30.8959 38.8591 29.6206 38.4146L29.4489 38.9072ZM31.6694 34.0959C31.0133 33.7567 30.4891 33.5696 29.9895 33.6262C29.4816 33.6837 29.0588 33.9853 28.5861 34.4581L28.955 34.8269C29.4079 34.3738 29.7236 34.1813 30.0482 34.1445C30.3813 34.1068 30.7838 34.2252 31.4299 34.5593L31.6694 34.0959ZM30.975 35.5687C31.4136 35.8208 31.6942 36.6664 31.0835 37.2773L31.4524 37.6461C32.3232 36.775 31.9496 35.5272 31.2349 35.1164L30.975 35.5687ZM31.0836 37.2773C30.773 37.5877 30.5236 37.6499 30.2902 37.6011C30.0255 37.5456 29.7182 37.3363 29.3332 36.9513L28.9643 37.3201C29.3608 37.7166 29.7601 38.023 30.1833 38.1116C30.6376 38.2068 31.0571 38.0413 31.4523 37.6462L31.0836 37.2773ZM29.3948 37.0492C29.1392 36.3217 29.3353 35.8356 29.6457 35.5909C29.9679 35.3369 30.4818 35.2852 30.975 35.5687L31.2349 35.1164C30.5824 34.7413 29.8342 34.7781 29.3228 35.1812C28.7995 35.5938 28.5904 36.3335 28.9027 37.2222L29.3948 37.0492Z" fill="#F9F7EB" mask="url(#path-2-outside-1_430_3250)"/>
</svg>
