<svg width="64" height="64" viewBox="0 0 64 64" fill="none" xmlns="http://www.w3.org/2000/svg">
<mask id="path-1-outside-1_430_3234" maskUnits="userSpaceOnUse" x="8.74713" y="3.26971" width="47" height="58" fill="black">
<rect fill="white" x="8.74713" y="3.26971" width="47" height="58"/>
<path fill-rule="evenodd" clip-rule="evenodd" d="M40.7653 9.952C40.2885 10.4445 39.2253 11.7311 38.4031 12.8108L36.9078 14.7739L34.9656 14.5273C32.1313 14.1676 29.4235 14.2998 27.3481 14.8989C19.9694 17.0289 14.7247 23.8323 14.7472 31.2448C14.755 33.7939 15.5231 37.0914 16.6378 39.3617C17.8363 41.802 20.7716 45.0576 21.7735 45.0576C23.1166 45.0576 22.9081 44.1914 21.1156 42.3261C17.7075 38.7792 16.13 33.8367 16.9188 29.1764C17.9428 23.1239 22.6941 17.9829 28.5006 16.6448C30.201 16.2529 34.9535 16.2039 35.1835 16.5758C35.2744 16.7236 34.2028 18.4111 32.8022 20.3258L30.255 23.8076H28.8181C27.9991 23.8076 27.07 24.0254 26.6581 24.3139C25.5322 25.1023 23.2213 28.4236 23.0081 29.5586C22.4475 32.547 25.6725 34.7967 28.4544 33.3583C29.4541 32.8414 31.7181 30.0292 32.2403 28.6554C32.5078 27.9523 32.5022 27.3929 32.2172 26.3754C31.781 24.817 31.0691 25.9804 38.1013 16.7595C40.5506 13.5483 42.5544 10.6733 42.5544 10.3711C42.5544 10.0689 42.3469 9.6495 42.0935 9.43919C41.7163 9.12607 41.4747 9.21919 40.7653 9.952ZM40.5753 17.1411C40.0453 17.6708 40.521 18.5092 42.4116 20.3792C44.7622 22.7042 45.6647 24.1104 46.6247 26.9445C47.2094 28.6704 47.2875 29.4404 47.1619 32.2451C47.041 34.9486 46.8625 35.8711 46.1481 37.4842L45.281 39.4423L45.9675 44.3145C46.345 46.9945 46.5841 49.257 46.4985 49.3426C46.4128 49.4283 44.6819 48.7539 42.6516 47.8439C38.651 46.0504 37.7772 45.9158 34.5856 46.5998C32.6588 47.0129 28.9166 46.8889 28.011 46.382C27.5978 46.1508 27.7875 45.7583 29.1891 43.9414C30.8025 41.8501 30.9131 41.7708 32.4456 41.6154C33.3181 41.527 34.2847 41.2458 34.5938 40.9904C35.671 40.1001 40.0753 33.9908 39.9835 33.5142C39.776 32.4361 38.8244 32.8667 37.3544 34.7039C35.9435 36.4673 35.3669 36.8029 35.3669 35.8614C35.3669 35.6361 35.9294 34.7454 36.6169 33.8817C37.9947 32.1514 38.0806 31.8739 37.4113 31.3186C36.9116 30.9036 36.2735 31.4136 34.7341 33.4576C34.2385 34.1154 33.7381 34.4629 33.3891 34.3911C32.9219 34.2945 33.0603 33.9717 34.2603 32.3592C35.1675 31.1404 35.6169 30.2583 35.4938 29.9373C35.0385 28.7508 34.1775 29.4936 30.8319 33.9608L28.7281 36.7701L28.915 38.7717L29.1019 40.7736L24.626 46.7439C19.1625 54.0314 19.1831 53.9989 19.6488 54.4645C20.4138 55.2295 21.481 54.3964 23.7469 51.2651L26.0331 48.1058L27.3406 48.3108C30.5978 48.8214 33.7031 48.847 35.8356 48.3808L38.0231 47.9026L42.9669 50.0989C45.686 51.307 48.1119 52.2179 48.3575 52.1236C48.9397 51.9004 48.9238 51.3483 48.1844 46.1423C47.3794 40.4754 47.3956 39.6808 48.3716 36.9092C50.7394 30.1864 48.195 22.0117 42.4294 17.8189C41.1485 16.8876 40.9144 16.802 40.5753 17.1411ZM30.8216 36.4498C29.5322 37.7389 29.9106 39.7286 31.5541 40.3014C34.2778 41.2508 36.0369 37.4673 33.4853 36.1479C32.2372 35.5026 31.7088 35.5623 30.8216 36.4498ZM33.0591 37.1208C33.6118 37.4384 33.9253 38.4417 33.2153 39.152C32.5388 39.8283 31.9331 39.5886 31.1841 38.8395C30.6397 37.2904 31.9609 36.4896 33.0591 37.1208Z"/>
</mask>
<path fill-rule="evenodd" clip-rule="evenodd" d="M40.7653 9.952C40.2885 10.4445 39.2253 11.7311 38.4031 12.8108L36.9078 14.7739L34.9656 14.5273C32.1313 14.1676 29.4235 14.2998 27.3481 14.8989C19.9694 17.0289 14.7247 23.8323 14.7472 31.2448C14.755 33.7939 15.5231 37.0914 16.6378 39.3617C17.8363 41.802 20.7716 45.0576 21.7735 45.0576C23.1166 45.0576 22.9081 44.1914 21.1156 42.3261C17.7075 38.7792 16.13 33.8367 16.9188 29.1764C17.9428 23.1239 22.6941 17.9829 28.5006 16.6448C30.201 16.2529 34.9535 16.2039 35.1835 16.5758C35.2744 16.7236 34.2028 18.4111 32.8022 20.3258L30.255 23.8076H28.8181C27.9991 23.8076 27.07 24.0254 26.6581 24.3139C25.5322 25.1023 23.2213 28.4236 23.0081 29.5586C22.4475 32.547 25.6725 34.7967 28.4544 33.3583C29.4541 32.8414 31.7181 30.0292 32.2403 28.6554C32.5078 27.9523 32.5022 27.3929 32.2172 26.3754C31.781 24.817 31.0691 25.9804 38.1013 16.7595C40.5506 13.5483 42.5544 10.6733 42.5544 10.3711C42.5544 10.0689 42.3469 9.6495 42.0935 9.43919C41.7163 9.12607 41.4747 9.21919 40.7653 9.952ZM40.5753 17.1411C40.0453 17.6708 40.521 18.5092 42.4116 20.3792C44.7622 22.7042 45.6647 24.1104 46.6247 26.9445C47.2094 28.6704 47.2875 29.4404 47.1619 32.2451C47.041 34.9486 46.8625 35.8711 46.1481 37.4842L45.281 39.4423L45.9675 44.3145C46.345 46.9945 46.5841 49.257 46.4985 49.3426C46.4128 49.4283 44.6819 48.7539 42.6516 47.8439C38.651 46.0504 37.7772 45.9158 34.5856 46.5998C32.6588 47.0129 28.9166 46.8889 28.011 46.382C27.5978 46.1508 27.7875 45.7583 29.1891 43.9414C30.8025 41.8501 30.9131 41.7708 32.4456 41.6154C33.3181 41.527 34.2847 41.2458 34.5938 40.9904C35.671 40.1001 40.0753 33.9908 39.9835 33.5142C39.776 32.4361 38.8244 32.8667 37.3544 34.7039C35.9435 36.4673 35.3669 36.8029 35.3669 35.8614C35.3669 35.6361 35.9294 34.7454 36.6169 33.8817C37.9947 32.1514 38.0806 31.8739 37.4113 31.3186C36.9116 30.9036 36.2735 31.4136 34.7341 33.4576C34.2385 34.1154 33.7381 34.4629 33.3891 34.3911C32.9219 34.2945 33.0603 33.9717 34.2603 32.3592C35.1675 31.1404 35.6169 30.2583 35.4938 29.9373C35.0385 28.7508 34.1775 29.4936 30.8319 33.9608L28.7281 36.7701L28.915 38.7717L29.1019 40.7736L24.626 46.7439C19.1625 54.0314 19.1831 53.9989 19.6488 54.4645C20.4138 55.2295 21.481 54.3964 23.7469 51.2651L26.0331 48.1058L27.3406 48.3108C30.5978 48.8214 33.7031 48.847 35.8356 48.3808L38.0231 47.9026L42.9669 50.0989C45.686 51.307 48.1119 52.2179 48.3575 52.1236C48.9397 51.9004 48.9238 51.3483 48.1844 46.1423C47.3794 40.4754 47.3956 39.6808 48.3716 36.9092C50.7394 30.1864 48.195 22.0117 42.4294 17.8189C41.1485 16.8876 40.9144 16.802 40.5753 17.1411ZM30.8216 36.4498C29.5322 37.7389 29.9106 39.7286 31.5541 40.3014C34.2778 41.2508 36.0369 37.4673 33.4853 36.1479C32.2372 35.5026 31.7088 35.5623 30.8216 36.4498ZM33.0591 37.1208C33.6118 37.4384 33.9253 38.4417 33.2153 39.152C32.5388 39.8283 31.9331 39.5886 31.1841 38.8395C30.6397 37.2904 31.9609 36.4896 33.0591 37.1208Z" fill="#619E69"/>
<path d="M42.1732 10.2525L44.6988 8.69203L44.6984 8.69145L42.1732 10.2525ZM31.7338 24.65L29.3074 22.9394L29.307 22.94L31.7338 24.65ZM31.6557 26.0534L28.9542 27.2844L28.9542 27.2844L31.6557 26.0534ZM30.611 30.7993L33.0115 32.5461L33.0116 32.546L30.611 30.7993ZM26.6385 33.6831L26.6436 30.7143H26.6431L26.6385 33.6831ZM23.5826 31.3603L26.4019 30.4302L26.4018 30.4299L23.5826 31.3603ZM23.8538 28.9143L21.1826 27.6189L21.1825 27.6191L23.8538 28.9143ZM25.8723 26.0281L23.6449 24.0654L23.6448 24.0655L25.8723 26.0281ZM28.891 24.4893L28.8478 27.4578L28.8481 27.4578L28.891 24.4893ZM30.5329 24.5131L30.49 27.4815L32.0515 27.5041L32.9547 26.2301L30.5329 24.5131ZM20.8288 42.6934L18.7131 44.776L18.7133 44.7762L20.8288 42.6934ZM22.0676 44.6928L19.9684 42.5936L22.0676 44.6928ZM20.4757 43.8647L18.4016 45.9887L18.4017 45.9888L20.4757 43.8647ZM27.6866 15.4431L26.8654 12.5902L26.8652 12.5902L27.6866 15.4431ZM35.8966 15.2381L36.9524 12.4634L36.9518 12.4632L35.8966 15.2381ZM37.0888 15.3775L38.2329 18.1169L38.2349 18.1161L37.0888 15.3775ZM39.4413 12.5737L41.8251 14.3432L41.8252 14.3431L39.4413 12.5737ZM46.9091 40.2156L44.0969 39.2643L43.8691 39.9377L43.9711 40.6413L46.9091 40.2156ZM47.602 44.9968L44.6639 45.4226L44.6639 45.4228L47.602 44.9968ZM48.4704 50.7937L51.3959 50.2887L51.3957 50.2879L48.4704 50.7937ZM42.9301 49.7465L44.1649 47.0468L44.1648 47.0467L42.9301 49.7465ZM33.9935 48.3531L34.5041 51.2776L34.5043 51.2776L33.9935 48.3531ZM29.931 48.3447L29.4579 51.2755L29.4581 51.2755L29.931 48.3447ZM26.8573 47.8509L26.3913 50.7829L26.3917 50.7829L26.8573 47.8509ZM23.4679 51.0056L21.084 49.2363L21.0838 49.2365L23.4679 51.0056ZM25.0182 47.3053L27.3949 49.0843L27.3949 49.0843L25.0182 47.3053ZM29.8979 40.7862L32.2746 42.5652L33.2024 41.3257L32.717 39.8555L29.8979 40.7862ZM29.5085 39.6068L26.6893 40.5371L26.6894 40.5376L29.5085 39.6068ZM29.3341 37.5715L32.2136 38.2943L32.2136 38.2942L29.3341 37.5715ZM34.681 30.2375L32.7853 27.9528L32.785 27.9531L34.681 30.2375ZM33.7229 32.5856L36.0677 34.4065L36.0677 34.4064L33.7229 32.5856ZM32.4188 34.7497L35.2408 33.8278L35.2394 33.8236L32.4188 34.7497ZM33.4438 35.164L33.2064 38.1233L33.2067 38.1233L33.4438 35.164ZM35.5785 33.5234L37.9963 35.2462L37.9964 35.2459L35.5785 33.5234ZM36.0295 34.1784L33.6603 32.3894L33.6602 32.3895L36.0295 34.1784ZM35.1448 36.665L32.5271 38.0655L32.5272 38.0656L35.1448 36.665ZM37.2623 35.899L34.8053 34.2327L34.8051 34.2329L37.2623 35.899ZM39.6098 33.5872L42.135 32.0262L42.1348 32.0258L39.6098 33.5872ZM34.1582 40.9915L32.4549 38.56L32.4536 38.561L34.1582 40.9915ZM32.022 41.5115L32.052 44.4801L32.0529 44.4801L32.022 41.5115ZM28.8007 43.9122L26.4339 42.1201L26.4338 42.1202L28.8007 43.9122ZM27.452 46.7568L25.3527 48.8561L25.3532 48.8565L27.452 46.7568ZM35.997 46.9909L36.7481 49.8631L36.7481 49.8631L35.997 46.9909ZM37.9495 46.4803L39.1507 43.7654L38.202 43.3456L37.1983 43.6081L37.9495 46.4803ZM41.8154 48.1909L43.017 45.4762L43.0167 45.4761L41.8154 48.1909ZM46.547 50.119L47.2697 47.2396L47.2692 47.2395L46.547 50.119ZM47.1923 49.1634L44.2744 49.7108L44.2744 49.7108L47.1923 49.1634ZM46.0388 40.5593L43.0706 40.6132L43.0706 40.6138L46.0388 40.5593ZM46.6666 37.6497L49.3892 38.8333L49.3893 38.8331L46.6666 37.6497ZM42.351 19.6722L40.4228 21.9294L40.4229 21.9296L42.351 19.6722ZM39.6476 11.8129C39.1323 10.9789 39.2034 10.1805 39.2217 9.99131C39.2496 9.70314 39.3151 9.48977 39.3419 9.40686C39.3749 9.30457 39.4061 9.23034 39.4212 9.19552C39.438 9.15684 39.4504 9.13179 39.4543 9.12395C39.4597 9.11331 39.4274 9.17583 39.324 9.34272C39.1295 9.65646 38.8108 10.1352 38.3768 10.7589C37.5171 11.9948 36.2892 13.6796 34.9036 15.5083L39.636 19.0941C41.0553 17.2209 42.3332 15.4689 43.251 14.1496C43.7058 13.4958 44.0938 12.9173 44.3703 12.4715C44.5023 12.2585 44.6466 12.0156 44.7629 11.7836C44.8145 11.6804 44.9121 11.479 44.9917 11.2327C45.0294 11.1161 45.1014 10.8745 45.1315 10.5639C45.152 10.3522 45.2208 9.53698 44.6988 8.69203L39.6476 11.8129ZM34.9036 15.5083C32.1268 19.1729 29.5858 22.5446 29.3074 22.9394L34.1603 26.3605C34.1586 26.3629 34.1687 26.3486 34.1993 26.3069C34.2269 26.2692 34.2637 26.2193 34.3102 26.1567C34.403 26.0315 34.5279 25.864 34.6823 25.6577C34.9907 25.2456 35.4101 24.6875 35.911 24.0226C36.9124 22.6933 38.2348 20.9434 39.636 19.0941L34.9036 15.5083ZM29.307 22.94C28.9979 23.3787 28.5536 24.121 28.4969 25.1374C28.4441 26.0858 28.758 26.8539 28.9542 27.2844L34.3572 24.8225C34.2724 24.6363 34.4543 24.9456 34.4252 25.4678C34.3924 26.058 34.1276 26.4069 34.1606 26.36L29.307 22.94ZM28.9542 27.2844C29.0393 27.4712 29.0524 27.554 29.054 27.5659C29.0549 27.572 29.0545 27.5715 29.0546 27.5688C29.0547 27.5664 29.0547 27.5748 29.0495 27.5983C29.0201 27.7322 28.8776 28.1358 28.2104 29.0527L33.0116 32.546C33.8235 31.43 34.5512 30.224 34.8482 28.8748C35.1787 27.3735 34.9098 26.035 34.3572 24.8224L28.9542 27.2844ZM28.2105 29.0526C27.5898 29.9056 27.1277 30.3566 26.8221 30.5784C26.5512 30.7751 26.5153 30.7141 26.6436 30.7143L26.6334 36.6518C29.4527 36.6567 31.4929 34.633 33.0115 32.5461L28.2105 29.0526ZM26.6431 30.7143C26.7853 30.7146 26.8385 30.7444 26.7979 30.7284C26.7625 30.7145 26.6918 30.6791 26.6066 30.6143C26.522 30.55 26.4556 30.4815 26.4135 30.4267C26.369 30.3689 26.3801 30.3643 26.4019 30.4302L20.7633 32.2904C21.1964 33.603 22.0977 34.6451 23.0136 35.3413C23.9158 36.0271 25.1938 36.6496 26.6339 36.6518L26.6431 30.7143ZM26.4018 30.4299C26.3713 30.3376 26.3532 30.2771 26.3422 30.2372C26.3315 30.1982 26.3313 30.1919 26.3343 30.2088C26.3377 30.2278 26.3443 30.2714 26.347 30.333C26.3497 30.3962 26.3477 30.4632 26.3403 30.5297C26.3255 30.6637 26.2964 30.7271 26.3167 30.6722C26.3273 30.6436 26.3472 30.5936 26.3827 30.5136C26.4182 30.4337 26.4642 30.3353 26.5251 30.2096L21.1825 27.6191C20.912 28.1771 20.5401 28.9632 20.4389 29.8757C20.3267 30.8882 20.576 31.7229 20.7634 32.2906L26.4018 30.4299ZM26.525 30.2098C26.7239 29.7998 27.453 28.7247 28.0997 27.9907L23.6448 24.0655C22.7772 25.0502 21.69 26.5726 21.1826 27.6189L26.525 30.2098ZM28.0997 27.9908C28.4479 27.5956 28.631 27.3938 28.7608 27.2665C28.8783 27.1513 28.818 27.2339 28.6337 27.3279C28.5373 27.3771 28.4396 27.413 28.3515 27.4365C28.2696 27.4582 28.2207 27.4625 28.2282 27.4617C28.2399 27.4606 28.2877 27.4568 28.3993 27.4553C28.5116 27.4538 28.6509 27.4549 28.8478 27.4578L28.9342 21.5209C28.3236 21.512 27.1045 21.443 25.9371 22.0381C24.9259 22.5536 24.1587 23.4823 23.6449 24.0654L28.0997 27.9908ZM28.8481 27.4578L30.49 27.4815L30.5758 21.5447L28.934 21.5209L28.8481 27.4578ZM32.9547 26.2301L34.3982 24.1942L29.5545 20.7601L28.1111 22.7961L32.9547 26.2301ZM34.3625 13.065C23.0083 11.849 13.4273 20.4019 13.4273 31.8093H19.3648C19.3648 23.9568 25.86 18.1259 33.7302 18.9687L34.3625 13.065ZM13.4273 31.8093C13.4273 36.7845 15.2396 41.2471 18.7131 44.776L22.9446 40.6109C20.5762 38.2047 19.3648 35.243 19.3648 31.8093H13.4273ZM18.7133 44.7762C19.0024 45.0699 19.2056 45.2867 19.3466 45.4479C19.498 45.6211 19.5205 45.6658 19.4921 45.6201C19.4888 45.6147 19.2436 45.2433 19.2037 44.6303C19.1811 44.2843 19.2261 43.8877 19.3848 43.4862C19.541 43.091 19.7654 42.7965 19.9684 42.5936L24.1668 46.792C24.791 46.1678 25.1953 45.2688 25.1286 44.2444C25.0753 43.4256 24.7337 42.8065 24.5394 42.4929C24.1481 41.8614 23.535 41.2105 22.9444 40.6106L18.7133 44.7762ZM19.9684 42.5936C20.2737 42.2882 20.8247 41.9138 21.594 41.8519C22.2731 41.7973 22.7468 42.0208 22.888 42.0942C23.0368 42.1716 23.0805 42.2221 22.9806 42.139C22.895 42.0677 22.7587 41.9445 22.5497 41.7405L18.4017 45.9888C18.8409 46.4177 19.4589 47.0033 20.1482 47.3618C20.5348 47.5629 21.2129 47.8392 22.0701 47.7703C23.0177 47.694 23.7206 47.2382 24.1668 46.792L19.9684 42.5936ZM22.5498 41.7406C14.7443 34.1187 17.9677 21.3308 28.5081 18.2959L26.8652 12.5902C11.9781 16.8766 7.31712 35.165 18.4016 45.9887L22.5498 41.7406ZM28.5079 18.296C29.111 18.1224 30.5295 17.9537 32.1249 17.9138C32.8795 17.895 33.5835 17.9074 34.1423 17.9469C34.8056 17.9939 34.9677 18.061 34.8415 18.013L36.9518 12.4632C36.187 12.1724 35.2496 12.0729 34.5613 12.0242C33.7685 11.9681 32.8689 11.9559 31.9766 11.9782C30.2783 12.0206 28.2304 12.1973 26.8654 12.5902L28.5079 18.296ZM34.8408 18.0128C35.2983 18.1868 35.782 18.3005 36.2321 18.3531C36.5181 18.3865 37.3703 18.4771 38.2329 18.1169L35.9448 12.638C36.1646 12.5462 36.3487 12.5042 36.4608 12.4837C36.5788 12.4622 36.6717 12.4548 36.7299 12.452C36.8424 12.4466 36.909 12.4543 36.9207 12.4556C36.9386 12.4577 36.9344 12.4565 36.9524 12.4634L34.8408 18.0128ZM38.2349 18.1161C38.7693 17.8924 39.1389 17.5461 39.1799 17.5097C39.3176 17.3873 39.4438 17.2599 39.545 17.1537C39.7527 16.9359 39.984 16.6712 40.2165 16.3941C40.6878 15.8324 41.2584 15.1066 41.8251 14.3432L37.0576 10.8042C36.5467 11.4924 36.0494 12.1231 35.668 12.5778C35.4741 12.8089 35.3328 12.9673 35.2474 13.0568C35.2021 13.1044 35.2018 13.1017 35.2359 13.0713C35.2529 13.0563 35.3055 13.0101 35.3858 12.9513C35.44 12.9116 35.6412 12.7651 35.9428 12.6388L38.2349 18.1161ZM41.8252 14.3431C42.3026 13.6999 42.6578 13.2345 42.9303 12.8995C43.2257 12.5363 43.329 12.4462 43.3071 12.4648C43.2907 12.4787 43.1462 12.6028 42.889 12.7213C42.6142 12.8479 42.1227 13.007 41.4974 12.9315C40.8504 12.8533 40.3702 12.5619 40.0739 12.304C39.8112 12.0753 39.6777 11.8615 39.648 11.8135L44.6984 8.69145C44.5185 8.40035 43.7723 7.22562 42.2095 7.03683C40.7622 6.86198 39.7576 7.68928 39.4625 7.94008C38.7502 8.54524 37.9414 9.61347 37.0575 10.8044L41.8252 14.3431ZM45.0866 36.3387L44.0969 39.2643L49.7213 41.1669L50.711 38.2413L45.0866 36.3387ZM43.9711 40.6413L44.6639 45.4226L50.54 44.5711L49.8472 39.7899L43.9711 40.6413ZM44.6639 45.4228C45.0423 48.0328 45.4399 50.6912 45.5451 51.2996L51.3957 50.2879C51.3078 49.7794 50.9241 47.2203 50.54 44.5709L44.6639 45.4228ZM45.5449 51.2987C45.5676 51.4302 45.5515 51.3855 45.552 51.2554C45.5524 51.1576 45.5565 50.6346 45.913 50.0463C46.3548 49.3175 47.0432 48.9519 47.6104 48.8335C47.8503 48.7834 48.0387 48.7821 48.142 48.7863C48.2477 48.7905 48.3122 48.8026 48.3213 48.8043C48.3301 48.8059 48.2484 48.7898 48.0319 48.7151C47.8256 48.644 47.5512 48.5389 47.1884 48.3887C46.4586 48.0868 45.4833 47.6498 44.1649 47.0468L41.6953 52.4463C43.0104 53.0478 44.076 53.5266 44.9182 53.8751C45.7042 54.2003 46.5078 54.5041 47.2187 54.6385C47.57 54.7049 48.1597 54.7843 48.8237 54.6457C49.6129 54.4809 50.4527 54.0114 50.9906 53.1241C51.4432 52.3773 51.4881 51.6412 51.4895 51.2786C51.491 50.8837 51.4362 50.5225 51.3959 50.2887L45.5449 51.2987ZM44.1648 47.0467C41.9636 46.0401 40.3438 45.2349 38.7578 44.9876C37.078 44.7257 35.444 45.0861 33.4828 45.4286L34.5043 51.2776C36.995 50.8426 37.3881 50.7833 37.843 50.8542C38.3919 50.9398 39.0143 51.2202 41.6954 52.4463L44.1648 47.0467ZM33.4829 45.4286C32.4539 45.6082 31.6505 45.615 30.4039 45.4138L29.4581 51.2755C31.2871 51.5706 32.7588 51.5823 34.5041 51.2776L33.4829 45.4286ZM30.4042 45.4139C29.229 45.2241 27.8426 45.0014 27.3228 44.9189L26.3917 50.7829C26.9032 50.8641 28.283 51.0858 29.4579 51.2755L30.4042 45.4139ZM27.3232 44.9189C27.0308 44.8725 26.3377 44.7652 25.5311 44.9755C24.6971 45.1929 24.0929 45.6482 23.6735 46.0386C22.9728 46.6908 22.1486 47.8019 21.084 49.2363L25.8518 52.7749C26.431 51.9945 26.8504 51.4351 27.1758 51.0228C27.5164 50.5912 27.6694 50.4308 27.7188 50.3848C27.7486 50.357 27.5047 50.5969 27.0289 50.721C26.5804 50.8379 26.2433 50.7593 26.3913 50.7829L27.3232 44.9189ZM21.0838 49.2365C20.4452 50.0972 19.833 50.8584 19.3732 51.384C19.1372 51.6537 18.9789 51.8181 18.8986 51.8942C18.8519 51.9385 18.8854 51.9014 18.9791 51.8339C19.0241 51.8014 19.1464 51.7155 19.3277 51.6267C19.4215 51.5806 19.5659 51.5166 19.7513 51.4611C19.9301 51.4075 20.217 51.3406 20.5773 51.3406V57.2781C21.2666 57.2781 21.7727 57.0406 21.9417 56.9578C22.1692 56.8462 22.3454 56.7266 22.4518 56.6499C22.668 56.494 22.8534 56.3266 22.9836 56.2032C23.2572 55.9437 23.5537 55.6229 23.8416 55.2939C24.4296 54.6218 25.1422 53.7312 25.852 52.7747L21.0838 49.2365ZM20.5773 51.3406C20.8658 51.3406 21.2683 51.3994 21.7032 51.6397C22.0274 51.8188 23.1073 52.5502 23.1073 54.0668H17.1698C17.1698 55.717 18.3484 56.5696 18.8316 56.8366C19.4256 57.1648 20.0475 57.2781 20.5773 57.2781V51.3406ZM23.1073 54.0668C23.1073 54.5 23.0097 54.8262 22.9799 54.924C22.9372 55.0642 22.8929 55.1709 22.869 55.226C22.8207 55.3374 22.7778 55.4159 22.7662 55.4369C22.7384 55.4877 22.7246 55.5076 22.7454 55.4747C22.7805 55.4193 22.8518 55.3118 22.9691 55.1414C23.1983 54.8083 23.5417 54.3242 23.9793 53.7178C24.851 52.5099 26.0603 50.8673 27.3949 49.0843L22.6415 45.5263C21.2924 47.3286 20.0618 49 19.1646 50.2432C18.7178 50.8624 18.3444 51.3881 18.078 51.7751C17.9476 51.9647 17.8263 52.1448 17.7308 52.2954C17.6864 52.3655 17.6228 52.4679 17.5614 52.5797C17.5332 52.6312 17.4775 52.7348 17.4208 52.8658C17.3927 52.9307 17.3452 53.0458 17.3003 53.1929C17.2684 53.2977 17.1698 53.6295 17.1698 54.0668H23.1073ZM27.3949 49.0843L32.2746 42.5652L27.5212 39.0072L22.6415 45.5263L27.3949 49.0843ZM32.717 39.8555L32.3276 38.6761L26.6894 40.5376L27.0788 41.717L32.717 39.8555ZM32.3278 38.6766C32.3206 38.6549 32.3053 38.6014 32.2893 38.5186C32.2737 38.438 32.2617 38.3512 32.2547 38.269C32.2474 38.1846 32.2474 38.128 32.2482 38.105C32.2486 38.0948 32.2487 38.1034 32.2457 38.1285C32.2428 38.1515 32.2348 38.2099 32.2136 38.2943L26.4547 36.8488C26.2785 37.551 26.2961 38.2774 26.3388 38.7758C26.3861 39.3276 26.4963 39.9523 26.6893 40.5371L32.3278 38.6766ZM32.2136 38.2942C32.1229 38.6556 31.9905 38.8245 32.1558 38.5369C32.2502 38.3727 32.3983 38.1341 32.5998 37.8268C32.9992 37.2181 33.5394 36.4448 34.1153 35.6548C34.6903 34.8661 35.2808 34.0884 35.7767 33.4701C36.3517 32.7532 36.6068 32.4972 36.577 32.5219L32.785 27.9531C32.2654 28.3843 31.6326 29.1472 31.1449 29.7552C30.5782 30.4618 29.9313 31.315 29.3175 32.157C28.7045 32.9977 28.1044 33.8549 27.6352 34.5701C27.4025 34.9248 27.1843 35.2715 27.0082 35.5779C26.9031 35.7607 26.5962 36.2852 26.4547 36.8489L32.2136 38.2942ZM36.5768 32.5221C36.6328 32.4756 36.5218 32.5797 36.2871 32.6945C36.1716 32.751 35.8895 32.8787 35.4905 32.9342C35.0846 32.9906 34.3241 32.9987 33.5538 32.5088C32.7512 31.9982 32.4167 31.2541 32.2957 30.7572C32.1847 30.3008 32.2167 29.9364 32.2357 29.7825C32.2578 29.6032 32.2935 29.4746 32.3105 29.4179C32.3296 29.3543 32.345 29.3162 32.348 29.3089C32.3529 29.2968 32.3384 29.3331 32.2891 29.4242C32.2424 29.5104 32.1764 29.6237 32.0888 29.7624C31.9131 30.0406 31.6737 30.3841 31.3781 30.7647L36.0677 34.4064C36.8174 33.4409 37.5017 32.3944 37.8454 31.5522C37.9295 31.3461 38.0723 30.966 38.1287 30.5081C38.1566 30.2819 38.1875 29.8572 38.0649 29.3533C37.9324 28.809 37.5759 28.0303 36.7406 27.4989C35.9376 26.9882 35.1336 26.9892 34.6731 27.0532C34.2195 27.1163 33.8717 27.2663 33.6789 27.3605C33.2898 27.5508 32.9785 27.7925 32.7853 27.9528L36.5768 32.5221ZM31.3781 30.7647C30.9332 31.3377 30.5218 31.9287 30.213 32.441C30.064 32.6883 29.8999 32.9813 29.7688 33.2801C29.7058 33.4234 29.614 33.6497 29.5458 33.9214C29.5126 34.0535 29.3109 34.8007 29.5982 35.6758L35.2394 33.8236C35.3948 34.2966 35.3901 34.6934 35.3777 34.891C35.3641 35.1085 35.3276 35.2753 35.3047 35.3666C35.2599 35.5452 35.2098 35.6568 35.2054 35.6668C35.1913 35.6989 35.2111 35.6506 35.2985 35.5057C35.4624 35.2336 35.7338 34.8363 36.0677 34.4065L31.3781 30.7647ZM29.5968 35.6715C29.8891 36.5661 30.4936 37.0697 30.7604 37.2684C31.0849 37.5102 31.4081 37.6653 31.653 37.7643C32.1501 37.9653 32.6907 38.0819 33.2064 38.1233L33.6812 32.2048C33.6945 32.2059 33.7531 32.209 33.8787 32.2598C33.9378 32.2837 34.1029 32.3544 34.3079 32.5072C34.4553 32.617 34.9792 33.027 35.2408 33.8278L29.5968 35.6715ZM33.2067 38.1233C33.5452 38.1504 34.0541 38.1669 34.6314 38.033C35.2511 37.8893 35.7764 37.6145 36.221 37.2729C36.9399 36.7204 37.5264 35.9056 37.9963 35.2462L33.1608 31.8006C32.908 32.1554 32.7423 32.3754 32.624 32.5187C32.5001 32.6686 32.5024 32.6422 32.6031 32.5649C32.6626 32.5191 32.7562 32.4555 32.8828 32.3936C33.0124 32.3302 33.1505 32.2814 33.2898 32.2491C33.5572 32.187 33.7343 32.209 33.681 32.2048L33.2067 38.1233ZM37.9964 35.2459C38.6022 34.3957 38.8183 34.2088 38.7358 34.2744C38.695 34.3068 38.492 34.4679 38.1545 34.5989C37.8313 34.7243 37.0112 34.9605 36.0569 34.5555C35.0567 34.131 34.6413 33.3187 34.4961 32.9032C34.3581 32.5082 34.3573 32.2027 34.3573 32.1353H40.2948C40.2948 31.8903 40.2757 31.444 40.1013 30.9448C39.9197 30.4251 39.4497 29.5453 38.3767 29.0899C37.3496 28.654 36.4385 28.8959 36.0061 29.0637C35.5593 29.2371 35.2289 29.4772 35.0425 29.6253C34.3775 30.1536 33.7199 31.0158 33.1606 31.8009L37.9964 35.2459ZM34.3573 32.1353C34.3573 31.9467 34.3758 31.7917 34.3929 31.6848C34.4105 31.5748 34.4318 31.4842 34.4492 31.4184C34.4829 31.2909 34.5181 31.1969 34.5364 31.1502C34.5726 31.0582 34.5993 31.0094 34.5918 31.024C34.5802 31.0461 34.5339 31.129 34.4385 31.2793C34.2543 31.5696 33.9778 31.969 33.6603 32.3894L38.3986 35.9674C38.7943 35.4435 39.166 34.9109 39.4518 34.4607C39.5914 34.2406 39.7355 34.001 39.8557 33.7708C39.9139 33.6592 39.9918 33.5018 40.0627 33.3214C40.0911 33.2491 40.2948 32.7623 40.2948 32.1353H34.3573ZM33.6602 32.3895C33.364 32.7819 33.0882 33.1526 32.8668 33.4834C32.6579 33.7955 32.3848 34.2344 32.2 34.7538C31.9823 35.3655 31.8993 36.0489 32.0423 36.7741C32.1621 37.3813 32.4162 37.8582 32.5271 38.0655L37.7624 35.2644C37.7327 35.209 37.7416 35.2214 37.7617 35.2691C37.7841 35.3223 37.8326 35.4475 37.8677 35.6254C37.9048 35.814 37.9198 36.0251 37.9002 36.246C37.8811 36.4609 37.8342 36.6311 37.7939 36.7442C37.7743 36.7993 37.7564 36.8405 37.7445 36.8663C37.7326 36.892 37.725 36.9058 37.7249 36.9059C37.7248 36.906 37.7302 36.8964 37.7432 36.8752C37.7563 36.8541 37.7751 36.8248 37.8012 36.7858C37.917 36.6128 38.0977 36.3659 38.3987 35.9673L33.6602 32.3895ZM32.5272 38.0656C32.6937 38.3768 33.044 39.009 33.6369 39.512C33.9762 39.7998 34.4746 40.1157 35.1355 40.2586C35.8199 40.4065 36.4618 40.3221 36.9938 40.1296C37.9 39.8018 38.4906 39.1567 38.7562 38.8526C39.0881 38.4725 39.4129 38.0172 39.7194 37.5652L34.8051 34.2329C34.5268 34.6434 34.3675 34.8514 34.2839 34.9472C34.2459 34.9907 34.2694 34.9574 34.3491 34.892C34.4229 34.8314 34.6335 34.6694 34.9738 34.5463C35.3506 34.41 35.8467 34.3377 36.3902 34.4552C36.9104 34.5676 37.2731 34.8105 37.4779 34.9842C37.8018 35.259 37.8877 35.4986 37.7623 35.2643L32.5272 38.0656ZM39.7193 37.5653C40.2759 36.7447 40.6789 36.2614 40.8835 36.0599C41.0275 35.9181 40.8955 36.0911 40.536 36.2531C40.3539 36.3352 39.8252 36.5478 39.105 36.4528C38.22 36.336 37.4978 35.8164 37.0848 35.1485L42.1348 32.0258C41.6654 31.2668 40.865 30.696 39.8816 30.5663C39.0629 30.4583 38.4157 30.6961 38.0964 30.84C37.4626 31.1256 36.9822 31.5686 36.717 31.8297C36.1033 32.4342 35.4453 33.289 34.8053 34.2327L39.7193 37.5653ZM37.0845 35.1481C36.5317 34.2538 36.6522 33.3962 36.6717 33.2479C36.7079 32.9736 36.7762 32.7782 36.7978 32.7178C36.8468 32.581 36.8851 32.5187 36.8531 32.5789C36.8029 32.6731 36.687 32.8687 36.488 33.1747C36.1026 33.7675 35.539 34.5707 34.9219 35.4088C34.307 36.2439 33.6667 37.0762 33.1353 37.7263C32.8681 38.0533 32.6458 38.3128 32.4786 38.4957C32.2506 38.7451 32.2722 38.688 32.4549 38.56L35.8615 43.4231C36.2782 43.1312 36.6521 42.7302 36.8608 42.502C37.1301 42.2073 37.4287 41.8556 37.7326 41.4838C38.3434 40.7365 39.0463 39.8214 39.7032 38.9292C40.3579 38.04 40.9946 37.1359 41.4657 36.4114C41.695 36.0588 41.9214 35.6933 42.0935 35.3702C42.1727 35.2216 42.2921 34.9866 42.388 34.7187C42.4331 34.5928 42.5163 34.3423 42.5583 34.024C42.5836 33.8318 42.7008 32.9415 42.135 32.0262L37.0845 35.1481ZM32.4536 38.561C32.5492 38.4939 32.6213 38.4559 32.6521 38.4404C32.6858 38.4235 32.7018 38.4178 32.6953 38.4203C32.6797 38.4263 32.6247 38.4455 32.5313 38.4682C32.4412 38.4901 32.3392 38.5095 32.2365 38.5232C32.1325 38.537 32.0481 38.5424 31.991 38.5429L32.0529 44.4801C32.6984 44.4734 33.3596 44.3774 33.9352 44.2374C34.4305 44.1168 35.2044 43.8839 35.8629 43.4221L32.4536 38.561ZM31.992 38.5429C31.3847 38.5491 30.0648 38.5004 28.7818 39.4566C28.2857 39.8264 27.8874 40.2739 27.5716 40.6553C27.245 41.0497 26.8657 41.5498 26.4339 42.1201L31.1676 45.7042C31.6243 45.101 31.9181 44.7159 32.1446 44.4423C32.3819 44.1558 32.417 44.1525 32.3301 44.2173C32.2682 44.2634 32.1695 44.3264 32.0388 44.383C31.9081 44.4395 31.7952 44.4681 31.7227 44.4815C31.6611 44.4929 31.6425 44.4907 31.7074 44.4874C31.7771 44.4839 31.8732 44.4819 32.052 44.4801L31.992 38.5429ZM26.4338 42.1202C25.7147 43.07 25.0482 43.9585 24.6976 44.698C24.5043 45.1056 24.1983 45.8778 24.3276 46.8349C24.469 47.8812 25.0436 48.5469 25.3527 48.8561L29.5512 44.6576C29.6591 44.7655 30.1032 45.2371 30.2117 46.04C30.3081 46.7536 30.0668 47.233 30.0626 47.2418C30.048 47.2725 30.0889 47.1841 30.2997 46.8814C30.4959 46.5998 30.7731 46.2252 31.1676 45.7041L26.4338 42.1202ZM25.3532 48.8565C25.9635 49.4666 26.6961 49.7221 27.0082 49.8237C27.4252 49.9594 27.8654 50.0516 28.2701 50.1179C29.089 50.252 30.0481 50.3255 31.0013 50.3516C32.8445 50.4021 35.1278 50.2868 36.7481 49.8631L35.2458 44.1188C34.4308 44.3319 32.8034 44.4613 31.1639 44.4164C30.3758 44.3948 29.7005 44.3356 29.2299 44.2585C28.9898 44.2192 28.8715 44.1861 28.8458 44.1777C28.7154 44.1353 29.1213 44.228 29.5507 44.6572L25.3532 48.8565ZM36.7481 49.8631L38.7006 49.3524L37.1983 43.6081L35.2458 44.1188L36.7481 49.8631ZM36.7482 49.1951L40.6141 50.9058L43.0167 45.4761L39.1507 43.7654L36.7482 49.1951ZM40.6138 50.9056C41.7009 51.3868 42.792 51.8507 43.6799 52.2124C44.4571 52.5292 45.3351 52.8758 45.8247 52.9986L47.2692 47.2395C47.3398 47.2572 47.271 47.2415 46.9517 47.1213C46.6857 47.0212 46.3352 46.8829 45.9205 46.7139C45.0931 46.3768 44.0564 45.9363 43.017 45.4762L40.6138 50.9056ZM45.8242 52.9985C45.9475 53.0294 46.3653 53.1418 46.7614 53.1791C47.0522 53.2064 48.7043 53.3399 49.7321 51.8181C50.1414 51.2121 50.2372 50.6152 50.2658 50.3002C50.2955 49.9725 50.2734 49.6911 50.2567 49.5285C50.2246 49.2167 50.1555 48.858 50.1101 48.616L44.2744 49.7108C44.3023 49.8595 44.3215 49.963 44.3357 50.0462C44.3506 50.1331 44.352 50.1525 44.3503 50.1356C44.3501 50.1337 44.3326 49.9843 44.3526 49.7635C44.3715 49.5555 44.4433 49.0404 44.8117 48.4949C45.2382 47.8635 45.8447 47.5059 46.3983 47.3539C46.8579 47.2277 47.2188 47.2584 47.317 47.2676C47.4779 47.2827 47.5741 47.316 47.2697 47.2396L45.8242 52.9985ZM50.1101 48.616C49.5877 45.8314 49.0259 41.5336 49.0071 40.5049L43.0706 40.6138C43.0992 42.1757 43.7456 46.8917 44.2744 49.7108L50.1101 48.616ZM49.0071 40.5055C49.0016 40.2023 49.1627 39.3543 49.3892 38.8333L43.944 36.4661C43.4337 37.6401 43.0473 39.3308 43.0706 40.6132L49.0071 40.5055ZM49.3893 38.8331C52.5086 31.6567 50.2811 22.5411 44.2791 17.4147L40.4229 21.9296C44.5053 25.4164 45.989 31.7613 43.944 36.4662L49.3893 38.8331ZM44.2793 17.4149C43.8864 17.0793 43.6247 16.8395 43.4601 16.6741C43.2472 16.4603 43.3431 16.5149 43.4757 16.7595C43.5421 16.8821 43.7554 17.2975 43.7701 17.9078C43.7883 18.663 43.4913 19.4575 42.8657 20.0325C42.356 20.5011 41.8327 20.6338 41.6567 20.672C41.4471 20.7176 41.3096 20.7156 41.3079 20.7156V14.7781C41.0816 14.7781 40.7559 14.7917 40.3957 14.87C40.069 14.941 39.4324 15.1236 38.8477 15.6611C38.1471 16.305 37.8135 17.1873 37.8343 18.051C37.8517 18.7697 38.1068 19.3142 38.2553 19.5882C38.5519 20.1356 38.9725 20.5822 39.2524 20.8633C39.5805 21.1928 39.9795 21.5508 40.4228 21.9294L44.2793 17.4149ZM40.7653 9.952L45.0309 14.0822L45.0314 14.0817L40.7653 9.952ZM38.4031 12.8108L43.1265 16.4085L43.1269 16.4079L38.4031 12.8108ZM36.9078 14.7739L36.1601 20.6641L39.5566 21.0953L41.6312 18.3717L36.9078 14.7739ZM34.9656 14.5273L35.7134 8.63709L35.7131 8.63705L34.9656 14.5273ZM27.3481 14.8989L25.7014 9.19429L25.7014 9.1943L27.3481 14.8989ZM14.7472 31.2448L8.80973 31.2628L8.80973 31.263L14.7472 31.2448ZM16.6378 39.3617L11.3081 41.9785L11.3083 41.979L16.6378 39.3617ZM21.1156 42.3261L16.8343 46.4399L16.8345 46.4401L21.1156 42.3261ZM16.9188 29.1764L22.773 30.1672L22.7731 30.1669L16.9188 29.1764ZM28.5006 16.6448L29.834 22.4307L29.8341 22.4306L28.5006 16.6448ZM35.1835 16.5758L40.2406 13.4645L40.2332 13.4526L35.1835 16.5758ZM32.8022 20.3258L37.5943 23.8314L37.5944 23.8313L32.8022 20.3258ZM30.255 23.8076V29.7451H33.2681L35.0471 27.3133L30.255 23.8076ZM26.6581 24.3139L30.0639 29.1775L30.0641 29.1774L26.6581 24.3139ZM23.0081 29.5586L17.1726 28.4628L17.1724 28.4638L23.0081 29.5586ZM28.4544 33.3583L25.7274 28.084L25.7273 28.0841L28.4544 33.3583ZM32.2403 28.6554L26.6909 26.5442L26.6903 26.5458L32.2403 28.6554ZM32.2172 26.3754L26.4995 27.976L26.4998 27.9769L32.2172 26.3754ZM38.1013 16.7595L33.3803 13.1586L33.38 13.1589L38.1013 16.7595ZM42.0935 9.43919L38.3009 14.0076L38.3018 14.0083L42.0935 9.43919ZM40.5753 17.1411L44.7725 21.3407L44.7738 21.3395L40.5753 17.1411ZM42.4116 20.3792L46.587 16.1578L46.5869 16.1578L42.4116 20.3792ZM46.6247 26.9445L41.0011 28.8494L41.0011 28.8496L46.6247 26.9445ZM47.1619 32.2451L41.2303 31.9795L41.2303 31.9798L47.1619 32.2451ZM46.1481 37.4842L51.5771 39.8885L51.5771 39.8884L46.1481 37.4842ZM45.281 39.4423L39.852 37.038L39.1647 38.59L39.4015 40.2708L45.281 39.4423ZM45.9675 44.3145L51.847 43.4863L51.8469 43.486L45.9675 44.3145ZM42.6516 47.8439L40.2227 53.2619L40.2231 53.262L42.6516 47.8439ZM34.5856 46.5998L33.3413 40.7942L33.3409 40.7943L34.5856 46.5998ZM28.011 46.382L25.1108 51.563L25.1111 51.5632L28.011 46.382ZM29.1891 43.9414L24.4881 40.3145L24.4878 40.3148L29.1891 43.9414ZM32.4456 41.6154L33.0443 47.5227L33.0444 47.5227L32.4456 41.6154ZM34.5938 40.9904L38.3753 45.568L38.3764 45.5671L34.5938 40.9904ZM39.9835 33.5142L34.153 34.6364L34.1533 34.6382L39.9835 33.5142ZM37.3544 34.7039L32.7183 30.9944L32.7182 30.9945L37.3544 34.7039ZM36.6169 33.8817L31.9721 30.1831L31.9713 30.1841L36.6169 33.8817ZM37.4113 31.3186L33.6178 35.8862L33.6203 35.8883L37.4113 31.3186ZM34.7341 33.4576L39.4762 37.0306L39.477 37.0295L34.7341 33.4576ZM33.3891 34.3911L32.1873 40.2057L32.1916 40.2066L33.3891 34.3911ZM34.2603 32.3592L29.4975 28.8139L29.4971 28.8144L34.2603 32.3592ZM35.4938 29.9373L41.0373 27.8106L41.0372 27.8102L35.4938 29.9373ZM30.8319 33.9608L26.0795 30.4015L26.0792 30.4018L30.8319 33.9608ZM28.7281 36.7701L23.9755 33.2112L22.6036 35.0432L22.8164 37.3221L28.7281 36.7701ZM28.915 38.7717L34.8268 38.2198L34.8268 38.2197L28.915 38.7717ZM29.1019 40.7736L33.8526 44.3352L35.2266 42.5024L35.0137 40.2217L29.1019 40.7736ZM24.626 46.7439L29.3766 50.3055L29.3766 50.3055L24.626 46.7439ZM19.6488 54.4645L23.8472 50.2661L19.6488 54.4645ZM23.7469 51.2651L28.557 54.746L28.5571 54.746L23.7469 51.2651ZM26.0331 48.1058L26.9528 42.2399L23.3569 41.6761L21.223 44.6249L26.0331 48.1058ZM27.3406 48.3108L26.4209 54.1766L26.4211 54.1766L27.3406 48.3108ZM35.8356 48.3808L34.5678 42.5802L34.5674 42.5803L35.8356 48.3808ZM38.0231 47.9026L40.4337 42.4765L38.6558 41.6867L36.7553 42.1021L38.0231 47.9026ZM42.9669 50.0989L45.3778 44.6729L45.3774 44.6727L42.9669 50.0989ZM48.3575 52.1236L46.2327 46.5793L46.228 46.5811L48.3575 52.1236ZM48.1844 46.1423L54.0629 45.3074L54.0629 45.3073L48.1844 46.1423ZM48.3716 36.9092L42.7713 34.9367L42.7711 34.9371L48.3716 36.9092ZM42.4294 17.8189L45.9215 13.0169L45.9208 13.0164L42.4294 17.8189ZM30.8216 36.4498L35.0195 40.6488L35.0208 40.6475L30.8216 36.4498ZM31.5541 40.3014L33.5083 34.6947L33.5083 34.6947L31.5541 40.3014ZM33.4853 36.1479L36.2125 30.8738L36.2123 30.8737L33.4853 36.1479ZM33.0591 37.1208L36.0178 31.973L33.0591 37.1208ZM33.2153 39.152L37.4128 43.3514L37.4147 43.3495L33.2153 39.152ZM31.1841 38.8395L25.5824 40.808L26.0303 42.0826L26.9856 43.038L31.1841 38.8395ZM36.4998 5.82177C35.77 6.57547 34.5347 8.09034 33.6794 9.21357L43.1269 16.4079C43.4855 15.9371 43.9074 15.4073 44.2908 14.9433C44.4815 14.7125 44.6527 14.5101 44.7933 14.3482C44.8633 14.2676 44.9207 14.2029 44.9653 14.1536C45.0121 14.1018 45.0326 14.0805 45.0309 14.0822L36.4998 5.82177ZM33.6798 9.21298L32.1845 11.1761L41.6312 18.3717L43.1265 16.4085L33.6798 9.21298ZM37.6556 8.88365L35.7134 8.63709L34.2179 20.4175L36.1601 20.6641L37.6556 8.88365ZM35.7131 8.63705C32.322 8.20672 28.7609 8.31115 25.7014 9.19429L28.9948 20.6035C30.086 20.2885 31.9405 20.1285 34.2182 20.4176L35.7131 8.63705ZM25.7014 9.1943C15.9036 12.0226 8.77878 21.0673 8.80973 31.2628L20.6847 31.2268C20.6706 26.5974 24.0352 22.0351 28.9949 20.6035L25.7014 9.1943ZM8.80973 31.263C8.82028 34.706 9.79309 38.8929 11.3081 41.9785L21.9676 36.7449C21.2532 35.2899 20.6897 32.8818 20.6847 31.2266L8.80973 31.263ZM11.3083 41.979C12.2191 43.8335 13.6154 45.7097 14.8696 47.1007C15.5098 47.8108 16.2542 48.5523 17.0372 49.1706C17.4236 49.4758 17.94 49.8472 18.5524 50.169C19.042 50.4263 20.2196 50.9951 21.7735 50.9951V39.1201C22.4882 39.1201 23.042 39.26 23.3638 39.3624C23.6992 39.4691 23.9422 39.5865 24.0761 39.6569C24.3316 39.7912 24.445 39.8892 24.3966 39.851C24.31 39.7826 24.0577 39.5577 23.6891 39.1488C23.3399 38.7615 22.9746 38.3072 22.6498 37.8487C22.3162 37.3779 22.0896 36.9934 21.9673 36.7444L11.3083 41.979ZM21.7735 50.9951C22.4073 50.9951 24.3664 50.9607 26.1436 49.5729C27.1943 48.7525 28.0064 47.5865 28.3723 46.1882C28.7115 44.8918 28.5749 43.7574 28.3929 43.0015C28.0603 41.6199 27.3479 40.5719 26.9601 40.0403C26.4914 39.3978 25.9425 38.7799 25.3968 38.212L16.8345 46.4401C17.185 46.8049 17.3344 46.9947 17.3669 47.0393C17.4804 47.1948 17.0722 46.7131 16.8479 45.7812C16.72 45.2502 16.5886 44.3114 16.8841 43.1822C17.2062 41.9509 17.9258 40.9234 18.8351 40.2133C19.6563 39.5721 20.4486 39.3276 20.8789 39.2291C21.324 39.1272 21.6516 39.1201 21.7735 39.1201V50.9951ZM25.397 38.2122C23.2298 35.9568 22.3129 32.8859 22.773 30.1672L11.0645 28.1856C9.94716 34.7875 12.1852 41.6016 16.8343 46.4399L25.397 38.2122ZM22.7731 30.1669C23.4129 26.3854 26.456 23.2091 29.834 22.4307L27.1673 10.859C18.9322 12.7567 12.4728 19.8623 11.0645 28.1859L22.7731 30.1669ZM29.8341 22.4306C29.8225 22.4333 30.0876 22.3832 30.6934 22.3358C31.2329 22.2935 31.8585 22.2672 32.4547 22.2611C33.071 22.2547 33.5403 22.2711 33.7937 22.292C33.9452 22.3045 33.8621 22.3061 33.6485 22.26C33.5567 22.2402 33.2272 22.1677 32.8024 21.9904C32.585 21.8997 32.216 21.7297 31.7965 21.4427C31.4035 21.1738 30.7086 20.6284 30.1337 19.6989L40.2332 13.4526C39.1797 11.7493 37.6207 11.1336 37.376 11.0315C36.8555 10.8143 36.3986 10.7051 36.1515 10.6518C35.6273 10.5387 35.1219 10.4862 34.769 10.4571C34.0134 10.3948 33.1452 10.3783 32.3321 10.3867C30.8545 10.402 28.6891 10.5082 27.1672 10.859L29.8341 22.4306ZM30.1264 19.687C29.4735 18.6257 29.3135 17.6211 29.2694 17.0597C29.2231 16.471 29.2759 15.9985 29.3175 15.7259C29.3989 15.1921 29.5372 14.802 29.5861 14.6678C29.6503 14.4917 29.7074 14.3654 29.7334 14.3095C29.7628 14.2464 29.7833 14.2069 29.7884 14.1972C29.7911 14.1922 29.7228 14.3172 29.5398 14.6053C29.1958 15.1472 28.6558 15.9374 28.01 16.8202L37.5944 23.8313C38.3493 22.7994 39.0454 21.7885 39.5645 20.971C39.8131 20.5794 40.0832 20.1352 40.305 19.7124C40.4028 19.5258 40.5853 19.1675 40.7433 18.7337C40.8155 18.5355 40.9689 18.0922 41.0567 17.5165C41.092 17.2848 41.4297 15.3975 40.2405 13.4645L30.1264 19.687ZM28.0101 16.8201L25.4629 20.3019L35.0471 27.3133L37.5943 23.8314L28.0101 16.8201ZM30.255 17.8701H28.8181V29.7451H30.255V17.8701ZM28.8181 17.8701C27.923 17.8701 27.0312 17.9841 26.2304 18.1718C25.5701 18.3266 24.3734 18.6652 23.2522 19.4504L30.0641 29.1774C29.6433 29.472 29.3059 29.6084 29.1943 29.6515C29.0515 29.7067 28.963 29.7281 28.9404 29.7334C28.912 29.7401 28.8942 29.7451 28.8181 29.7451V17.8701ZM23.2524 19.4503C22.3406 20.0888 21.5923 20.9101 21.1407 21.4353C20.6074 22.0556 20.0832 22.7452 19.6173 23.4148C19.1532 24.0816 18.6893 24.8113 18.3002 25.523C18.0133 26.0478 17.4134 27.1803 17.1726 28.4628L28.8437 30.6543C28.7945 30.9162 28.7361 31.1046 28.7056 31.1961C28.6726 31.2953 28.6472 31.3558 28.6408 31.3706C28.6304 31.395 28.65 31.347 28.7198 31.2193C28.8592 30.9643 29.0833 30.6017 29.3644 30.1977C29.6436 29.7966 29.9216 29.4371 30.1448 29.1775C30.2557 29.0486 30.3248 28.9772 30.3496 28.9528C30.3942 28.909 30.293 29.017 30.0639 29.1775L23.2524 19.4503ZM17.1724 28.4638C15.5997 36.8475 24.4973 42.0886 31.1815 38.6324L25.7273 28.0841C26.4135 27.7293 27.2634 27.8222 27.875 28.2489C28.5071 28.6898 29.037 29.6238 28.8438 30.6533L17.1724 28.4638ZM31.1814 38.6325C32.2823 38.0633 33.1459 37.2399 33.574 36.8157C34.1267 36.2678 34.6681 35.6519 35.1514 35.0515C35.9779 34.0249 37.1791 32.3732 37.7904 30.7651L26.6903 26.5458C26.749 26.3912 26.7853 26.334 26.7523 26.3947C26.7262 26.4428 26.673 26.5344 26.5865 26.6679C26.4113 26.9382 26.1712 27.2698 25.9014 27.6048C25.6285 27.9439 25.3838 28.2137 25.2146 28.3815C25.1303 28.4649 25.1043 28.4838 25.1353 28.4585C25.1353 28.4585 25.3458 28.2813 25.7274 28.084L31.1814 38.6325ZM37.7898 30.7667C38.1393 29.8479 38.3855 28.7936 38.3731 27.5732C38.3619 26.4667 38.1379 25.4995 37.9347 24.774L26.4998 27.9769C26.5815 28.2689 26.5028 28.0902 26.4988 27.6934C26.4965 27.4747 26.5167 27.241 26.5621 27.0082C26.606 26.7835 26.6614 26.6217 26.6909 26.5442L37.7898 30.7667ZM37.9349 24.7749C37.8659 24.5285 37.7979 24.3226 37.745 24.1698C37.7197 24.0966 37.6966 24.0323 37.6824 23.9926C37.6647 23.9434 37.662 23.9357 37.6591 23.9275C37.6361 23.862 37.8349 24.3753 37.886 25.0879C38.0077 26.7878 37.2249 27.8639 37.4231 27.54C37.5691 27.3015 37.9453 26.7646 38.8919 25.5113C39.7975 24.3122 41.0402 22.6971 42.8225 20.3601L33.38 13.1589C30.066 17.5044 28.1514 19.9407 27.294 21.3418C26.8457 22.0745 25.8831 23.7282 26.0413 25.9365C26.1106 26.9033 26.3816 27.6533 26.4536 27.8586C26.5644 28.1743 26.5132 28.0249 26.4995 27.976L37.9349 24.7749ZM42.8222 20.3604C44.0852 18.7046 45.2507 17.113 46.1173 15.8696C46.5445 15.2567 46.9364 14.6752 47.2396 14.1895C47.3845 13.9575 47.5626 13.6623 47.7239 13.3543C47.8009 13.2071 47.9272 12.9567 48.0492 12.6498C48.0824 12.5661 48.4919 11.6174 48.4919 10.3711H36.6169C36.6169 9.64626 36.7533 9.09411 36.8141 8.86733C36.8881 8.59181 36.9672 8.3812 37.0134 8.26488C37.1048 8.03485 37.1857 7.88031 37.2032 7.84697C37.2452 7.76659 37.2477 7.77064 37.1665 7.90083C37.0174 8.13957 36.7553 8.53413 36.3754 9.07917C35.6278 10.1516 34.5667 11.6031 33.3803 13.1586L42.8222 20.3604ZM48.4919 10.3711C48.4919 9.01756 48.0779 7.91933 47.7409 7.238C47.3886 6.52588 46.8054 5.63374 45.8851 4.87004L38.3018 14.0083C37.6349 13.4549 37.2822 12.8777 37.097 12.5033C36.9271 12.1598 36.6169 11.4224 36.6169 10.3711H48.4919ZM45.886 4.87075C45.5063 4.55554 44.6579 3.90471 43.4003 3.55903C41.9512 3.16068 40.5596 3.3227 39.4157 3.76425C38.4444 4.13921 37.7585 4.67371 37.4185 4.95696C37.0454 5.26775 36.7241 5.59005 36.4992 5.82233L45.0314 14.0817C45.1613 13.9476 45.1361 13.9834 45.0197 14.0804C44.9363 14.1499 44.4673 14.5433 43.6922 14.8425C42.7446 15.2083 41.5284 15.3599 40.2528 15.0093C39.1688 14.7113 38.492 14.1663 38.3009 14.0076L45.886 4.87075ZM36.3781 12.9414C35.264 14.0549 34.4395 15.6674 34.4353 17.5945C34.4317 19.2358 35.0315 20.4999 35.421 21.1865C36.1618 22.4929 37.3101 23.6846 38.2362 24.6006L46.5869 16.1578C46.172 15.7474 45.9075 15.4648 45.7459 15.2777C45.5637 15.0667 45.6228 15.1033 45.7505 15.3285C45.8509 15.5056 46.3131 16.3439 46.3103 17.6206C46.3068 19.183 45.6217 20.4921 44.7725 21.3407L36.3781 12.9414ZM38.2362 24.6006C39.2708 25.6239 39.74 26.2062 40.0426 26.6777C40.3285 27.1232 40.6094 27.6932 41.0011 28.8494L52.2483 25.0396C51.68 23.3618 51.0297 21.8116 50.0367 20.2642C49.0604 18.7429 47.903 17.4595 46.587 16.1578L38.2362 24.6006ZM41.0011 28.8496C41.223 29.5046 41.2389 29.6552 41.2524 29.789C41.2809 30.0698 41.2934 30.5723 41.2303 31.9795L53.0934 32.5108C53.156 31.1132 53.1923 29.8284 53.0669 28.5915C52.9266 27.2077 52.6111 26.1104 52.2483 25.0394L41.0011 28.8496ZM41.2303 31.9798C41.1715 33.2941 41.109 33.8312 41.0482 34.1456C41.0106 34.3396 40.9622 34.5312 40.7192 35.08L51.5771 39.8884C52.0485 38.8241 52.4464 37.7479 52.7069 36.4014C52.9441 35.1755 53.0313 33.8996 53.0935 32.5105L41.2303 31.9798ZM40.7192 35.0799L39.852 37.038L50.7099 41.8466L51.5771 39.8885L40.7192 35.0799ZM39.4015 40.2708L40.0881 45.143L51.8469 43.486L51.1604 38.6138L39.4015 40.2708ZM40.0881 45.1427C40.27 46.4347 40.4148 47.5996 40.502 48.4251C40.5468 48.849 40.5699 49.1232 40.5783 49.2602C40.5835 49.3461 40.5769 49.2819 40.5787 49.1393C40.5793 49.0872 40.5818 48.8501 40.6231 48.5335C40.6427 48.3836 40.6915 48.0484 40.8151 47.6334C40.8785 47.4204 40.9892 47.0921 41.1765 46.712C41.3522 46.3556 41.6938 45.7504 42.3 45.1442L50.6969 53.5411C51.7837 52.4543 52.1265 51.2565 52.196 51.0231C52.3237 50.5944 52.376 50.2413 52.3984 50.0695C52.4454 49.709 52.4512 49.4119 52.4528 49.2845C52.4563 48.9913 52.4422 48.7154 52.4311 48.5353C52.407 48.1402 52.3628 47.6652 52.3113 47.1778C52.206 46.1807 52.0425 44.8743 51.847 43.4863L40.0881 45.1427ZM42.3 45.1442C43.4725 43.9717 44.7747 43.639 45.2851 43.5336C45.889 43.4089 46.3772 43.4083 46.6155 43.4144C47.1024 43.4268 47.4668 43.4998 47.568 43.5203C47.7176 43.5505 47.8245 43.5793 47.8659 43.5908C47.9147 43.6042 47.9424 43.6131 47.9431 43.6133C47.9456 43.6141 47.9351 43.6108 47.9096 43.602C47.8847 43.5934 47.8505 43.5814 47.8064 43.5653C47.7171 43.5329 47.6016 43.4895 47.4597 43.4342C46.8784 43.2077 46.0322 42.8525 45.08 42.4257L40.2231 53.262C41.3013 53.7453 42.3356 54.1822 43.1488 54.4991C43.5398 54.6514 43.9648 54.8094 44.3504 54.9318C44.5181 54.985 44.8407 55.0842 45.2157 55.16C45.3764 55.1925 45.7887 55.2721 46.3114 55.2855C46.5676 55.292 47.0706 55.2904 47.6862 55.1633C48.2083 55.0555 49.5191 54.7189 50.6969 53.5411L42.3 45.1442ZM45.0804 42.4259C43.1674 41.5683 41.2472 40.7373 39.2202 40.4247C36.9666 40.0771 35.0496 40.428 33.3413 40.7942L35.83 52.4055C36.5702 52.2468 36.9477 52.1871 37.1833 52.1651C37.3573 52.1488 37.3961 52.1587 37.4102 52.1609C37.6181 52.193 38.1351 52.326 40.2227 53.2619L45.0804 42.4259ZM33.3409 40.7943C33.2534 40.813 32.9788 40.8565 32.5136 40.8847C32.075 40.9113 31.5842 40.9173 31.112 40.9017C30.6279 40.8856 30.254 40.8498 30.0325 40.8165C29.9211 40.7998 29.918 40.7939 29.9958 40.8145C30.0147 40.8196 30.3999 40.9148 30.9108 41.2008L25.1111 51.5632C26.3623 52.2635 27.7202 52.4773 28.2662 52.5594C29.0613 52.679 29.9131 52.7435 30.7187 52.7702C32.2386 52.8205 34.1971 52.7556 35.8304 52.4054L33.3409 40.7943ZM30.9111 41.201C31.5764 41.5734 33.2177 42.7205 33.6584 45.059C34.0051 46.8982 33.3196 48.2278 33.2665 48.3378C33.1343 48.6115 33.0479 48.7057 33.2099 48.4758C33.3415 48.2889 33.5521 48.0065 33.8903 47.568L24.4878 40.3148C23.9135 41.0593 23.07 42.1445 22.5726 43.1748C22.3485 43.639 21.6054 45.2236 21.9889 47.2582C22.4664 49.7921 24.239 51.075 25.1108 51.563L30.9111 41.201ZM33.8901 47.5683C34.0908 47.3081 34.2492 47.1039 34.3844 46.9332C34.5203 46.7615 34.6083 46.6548 34.6662 46.5874C34.7248 46.5192 34.7215 46.5278 34.6713 46.5768C34.6171 46.6296 34.4914 46.7464 34.299 46.8839C34.0968 47.0283 33.858 47.1692 33.589 47.2894C33.3248 47.4074 33.0971 47.476 32.9396 47.5149C32.7951 47.5506 32.7119 47.5603 32.7446 47.5558C32.7823 47.5506 32.8593 47.5414 33.0443 47.5227L31.847 35.7082C31.2336 35.7704 29.2712 35.8818 27.3964 37.221C26.0858 38.1573 25.0459 39.5914 24.4881 40.3145L33.8901 47.5683ZM33.0444 47.5227C33.8523 47.4408 34.6667 47.277 35.3898 47.0666C35.8163 46.9425 37.1959 46.5423 38.3753 45.568L30.8123 36.4129C31.1302 36.1502 31.4031 35.9872 31.5489 35.9057C31.7083 35.8165 31.8323 35.7601 31.9007 35.7306C32.0327 35.6737 32.0969 35.6573 32.0722 35.6644C32.0166 35.6806 31.9115 35.7017 31.8469 35.7082L33.0444 47.5227ZM38.3764 45.5671C39.2059 44.8815 40.0635 43.8194 40.5441 43.2173C41.1812 42.419 41.8892 41.4768 42.5434 40.5694C43.1932 39.668 43.839 38.7328 44.3379 37.9505C44.5782 37.5737 44.8445 37.1387 45.0675 36.7184C45.1717 36.5219 45.3385 36.1949 45.4887 35.806C45.5625 35.6148 45.6824 35.2815 45.7757 34.8612C45.8419 34.5627 46.0463 33.5971 45.8136 32.3902L34.1533 34.6382C34.0282 33.9892 34.0382 33.4501 34.0623 33.1149C34.0875 32.764 34.1403 32.4795 34.1826 32.2889C34.2645 31.9197 34.3647 31.6479 34.4111 31.5279C34.465 31.3883 34.5112 31.2883 34.5335 31.2413C34.558 31.1898 34.5743 31.1589 34.5773 31.1531C34.5819 31.1445 34.5649 31.1767 34.5158 31.2589C34.4692 31.3369 34.4061 31.439 34.3252 31.5659C33.9904 32.091 33.4851 32.8281 32.9106 33.625C32.3406 34.4157 31.7513 35.1976 31.2625 35.8101C31.0165 36.1183 30.8223 36.3505 30.6857 36.5053C30.4893 36.728 30.5616 36.62 30.8111 36.4138L38.3764 45.5671ZM45.8139 32.392C45.6396 31.486 45.0272 29.2266 42.6856 27.8594C40.159 26.3842 37.7339 27.136 36.6945 27.6064C35.6079 28.0981 34.7893 28.7942 34.2844 29.2699C33.7212 29.8006 33.1966 30.3965 32.7183 30.9944L41.9905 38.4134C42.2472 38.0926 42.3928 37.9458 42.4279 37.9128C42.5213 37.8247 42.2292 38.1361 41.5902 38.4252C40.9984 38.693 38.9419 39.4245 36.6981 38.1144C34.6392 36.9123 34.2236 35.0033 34.153 34.6364L45.8139 32.392ZM32.7182 30.9945C32.4171 31.3709 32.2367 31.5743 32.1518 31.6634C31.9814 31.8421 32.2495 31.512 32.8437 31.1661C33.1376 30.9949 33.9583 30.5507 35.15 30.4553C36.5957 30.3396 38.281 30.7792 39.6007 32.0519C40.7045 33.1164 41.0542 34.2925 41.1693 34.774C41.2988 35.3161 41.3044 35.7254 41.3044 35.8614H29.4294C29.4294 36.2327 29.453 36.8375 29.6196 37.5346C29.7717 38.171 30.1775 39.4617 31.3574 40.5996C32.7531 41.9456 34.5346 42.4175 36.0974 42.2925C37.4063 42.1877 38.3652 41.6925 38.8194 41.4279C39.7341 40.8953 40.4109 40.2096 40.7455 39.8588C41.1654 39.4184 41.5863 38.9186 41.9906 38.4133L32.7182 30.9945ZM41.3044 35.8614C41.3044 36.4253 41.2216 36.8675 41.1669 37.1113C41.1074 37.3761 41.0403 37.5839 40.9943 37.7151C40.9046 37.9703 40.8199 38.1454 40.7904 38.2052C40.7277 38.3323 40.7012 38.3655 40.7544 38.2811C40.8491 38.1312 41.0322 37.8686 41.2625 37.5793L31.9713 30.1841C31.5141 30.7585 31.0722 31.3731 30.7137 31.9408C30.5404 32.2152 30.3303 32.5672 30.1407 32.9517C30.0477 33.1402 29.9137 33.4286 29.7905 33.779C29.7104 34.0073 29.4294 34.8104 29.4294 35.8614H41.3044ZM41.2617 37.5803C41.6098 37.1431 41.9879 36.6598 42.3074 36.1957C42.5772 35.8037 43.1224 34.9844 43.4532 33.9171C43.8737 32.5601 43.941 30.816 43.0905 29.088C42.4331 27.7523 41.4538 26.9575 41.2023 26.7489L33.6203 35.8883C33.6056 35.8761 33.4524 35.7503 33.2575 35.5386C33.0571 35.3208 32.7253 34.9195 32.4361 34.332C32.1275 33.7049 31.9227 32.9775 31.8863 32.193C31.8512 31.4394 31.9801 30.8224 32.1104 30.4019C32.3311 29.6897 32.6384 29.2989 32.5254 29.463C32.4622 29.5548 32.3129 29.7551 31.9721 30.1831L41.2617 37.5803ZM41.2048 26.7509C40.0111 25.7595 38.2473 25.0226 36.1825 25.3091C34.4883 25.5442 33.3101 26.3847 32.7562 26.8274C31.6732 27.6927 30.7151 28.9244 29.9911 29.8857L39.477 37.0295C39.8246 36.568 40.0634 36.2708 40.2241 36.0849C40.4081 35.8718 40.3742 35.9405 40.169 36.1045C40.0294 36.216 39.2006 36.8791 37.8148 37.0714C37.052 37.1773 36.2262 37.124 35.4115 36.8642C34.6208 36.612 34.0252 36.2246 33.6178 35.8862L41.2048 26.7509ZM29.9919 29.8847C30.0027 29.8705 30.0473 29.8124 30.1331 29.7253C30.2143 29.6429 30.374 29.4918 30.6208 29.3204C30.8553 29.1577 31.281 28.8981 31.8893 28.706C32.5056 28.5114 33.4571 28.343 34.5865 28.5756L32.1916 40.2066C34.7269 40.7286 36.6499 39.591 37.3924 39.0755C38.3056 38.4416 38.9908 37.6748 39.4762 37.0306L29.9919 29.8847ZM34.5909 28.5765C34.7145 28.602 37.2044 29.0317 38.4869 31.6382C39.6955 34.0945 38.6864 36.2138 38.6565 36.2835C38.4875 36.6776 38.3373 36.8671 38.4742 36.6642C38.5687 36.5242 38.7349 36.2918 39.0236 35.9039L29.4971 28.8144C29.0596 29.4023 28.2079 30.5185 27.7425 31.6037C27.5864 31.9678 26.5553 34.2867 27.8319 36.881C29.1823 39.6256 31.8301 40.1318 32.1873 40.2057L34.5909 28.5765ZM39.0232 35.9045C39.5752 35.1628 40.1309 34.3374 40.5542 33.5063C40.7597 33.1028 41.0317 32.51 41.2193 31.8031C41.3514 31.3055 41.7527 29.6754 41.0373 27.8106L29.9502 32.0641C29.5943 31.1363 29.5614 30.329 29.5805 29.8475C29.6003 29.3513 29.6848 28.9711 29.7418 28.7564C29.8021 28.5291 29.8647 28.365 29.9002 28.2781C29.9376 28.1865 29.9654 28.1311 29.9726 28.1169C29.9752 28.1117 29.8526 28.3368 29.4975 28.8139L39.0232 35.9045ZM41.0372 27.8102C40.8401 27.2965 39.5972 24.0762 35.8623 23.5564C34.2013 23.3252 32.8664 23.7998 32.0986 24.1741C31.3299 24.549 30.7431 25.0097 30.3674 25.3339C29.0843 26.4412 27.6219 28.342 26.0795 30.4015L35.5843 37.52C36.4055 36.4235 37.0229 35.6248 37.4947 35.0507C38.0092 34.4248 38.1817 34.2758 38.126 34.3239C38.0955 34.3502 37.8087 34.6014 37.303 34.8479C36.7981 35.0941 35.6892 35.5218 34.2252 35.318C32.625 35.0953 31.4861 34.2474 30.8235 33.487C30.2516 32.8307 30.0131 32.2278 29.9504 32.0645L41.0372 27.8102ZM26.0792 30.4018L23.9755 33.2112L33.4808 40.3291L35.5846 37.5197L26.0792 30.4018ZM22.8164 37.3221L23.0032 39.3237L34.8268 38.2197L34.6399 36.2182L22.8164 37.3221ZM23.0032 39.3236L23.1901 41.3254L35.0137 40.2217L34.8268 38.2198L23.0032 39.3236ZM24.3512 37.212L19.8753 43.1823L29.3766 50.3055L33.8526 44.3352L24.3512 37.212ZM19.8753 43.1823C17.2419 46.6949 15.6912 48.7546 14.9237 49.9451C14.7124 50.2729 14.4577 50.6897 14.2341 51.1516C14.0346 51.5638 13.6655 52.3976 13.5548 53.485C13.4179 54.8285 13.7102 56.171 14.4023 57.3341C14.6883 57.8148 14.982 58.1612 15.1536 58.352C15.2422 58.4505 15.3181 58.5291 15.364 58.576C15.4054 58.6182 15.4484 58.661 15.4503 58.663L23.8472 50.2661C23.6191 50.0379 24.1819 50.5467 24.6074 51.2619C25.2306 52.3092 25.4875 53.5208 25.3687 54.6881C25.2759 55.5992 24.9781 56.2111 24.9227 56.3255C24.8433 56.4895 24.8058 56.5324 24.9043 56.3797C25.3758 55.6482 26.5466 54.0804 29.3766 50.3055L19.8753 43.1823ZM15.4503 58.663C16.6112 59.8238 18.4532 60.8314 20.7669 60.6462C22.6955 60.4919 24.0821 59.5577 24.7887 59.0061C26.1812 57.919 27.4545 56.2696 28.557 54.746L18.9368 47.7843C18.4168 48.5028 18.0259 49.0051 17.7348 49.3475C17.4185 49.7194 17.3477 49.75 17.4812 49.6457C17.5422 49.5982 18.377 48.9246 19.8194 48.8091C20.6125 48.7456 21.4434 48.8658 22.2268 49.1908C22.9795 49.5031 23.511 49.9299 23.8472 50.2661L15.4503 58.663ZM28.5571 54.746L30.8433 51.5866L21.223 44.6249L18.9367 47.7843L28.5571 54.746ZM25.1134 53.9716L26.4209 54.1766L28.2603 42.4449L26.9528 42.2399L25.1134 53.9716ZM26.4211 54.1766C30.0712 54.7488 33.9831 54.8636 37.1039 54.1812L34.5674 42.5803C33.4232 42.8305 31.1245 42.8939 28.2602 42.4449L26.4211 54.1766ZM37.1035 54.1813L39.291 53.7032L36.7553 42.1021L34.5678 42.5802L37.1035 54.1813ZM35.6126 53.3288L40.5563 55.525L45.3774 44.6727L40.4337 42.4765L35.6126 53.3288ZM40.556 55.5249C41.9951 56.1643 43.3916 56.741 44.5022 57.1581C45.0443 57.3617 45.6001 57.5582 46.0935 57.7057C46.3254 57.775 46.6689 57.8717 47.0493 57.9446C47.2326 57.9797 47.5578 58.0357 47.9553 58.0579C48.158 58.0692 49.2411 58.1448 50.4871 57.666L46.228 46.5811C46.9242 46.3136 47.5151 46.2396 47.8264 46.2132C48.1693 46.1841 48.4465 46.1918 48.6174 46.2014C48.9511 46.22 49.1963 46.2649 49.2845 46.2818C49.4745 46.3183 49.5671 46.3498 49.4944 46.3281C49.3789 46.2936 49.1123 46.2046 48.6773 46.0412C47.8337 45.7244 46.6577 45.2416 45.3778 44.6729L40.556 55.5249ZM50.4824 57.6678C51.6582 57.2172 53.2869 56.1993 54.1574 54.1188C54.7489 52.7052 54.7167 51.3539 54.7016 50.8298C54.6658 49.5952 54.4094 47.7468 54.0629 45.3074L42.3059 46.9772C42.4909 48.2798 42.6231 49.239 42.7117 49.9631C42.8047 50.7224 42.8282 51.0569 42.8315 51.1732C42.8329 51.2219 42.8257 51.0972 42.8501 50.8706C42.8734 50.6536 42.9447 50.1518 43.2027 49.5351C43.49 48.8485 43.9622 48.1325 44.6607 47.5275C45.3123 46.9633 45.9362 46.6929 46.2327 46.5793L50.4824 57.6678ZM54.0629 45.3073C53.6418 42.3427 53.5327 41.2379 53.5464 40.5604C53.5528 40.2481 53.5571 40.0595 53.972 38.8813L42.7711 34.9371C42.2101 36.5305 41.7184 38.1249 41.6739 40.3196C41.6367 42.1491 41.922 44.2751 42.3059 46.9774L54.0629 45.3073ZM53.9719 38.8817C57.2119 29.6824 53.8096 18.7532 45.9215 13.0169L38.9373 22.6209C42.5804 25.2702 44.2669 30.6904 42.7713 34.9367L53.9719 38.8817ZM45.9208 13.0164C45.53 12.7323 44.4047 11.872 43.188 11.4271C42.3325 11.1144 40.9008 10.7866 39.2268 11.2554C37.6734 11.6904 36.7182 12.6013 36.3769 12.9426L44.7738 21.3395C44.602 21.5113 43.8032 22.3057 42.4291 22.6905C40.9343 23.1091 39.7048 22.7974 39.1103 22.5801C38.608 22.3964 38.3232 22.194 38.4298 22.2628C38.4879 22.3002 38.6289 22.3967 38.938 22.6214L45.9208 13.0164ZM26.6236 32.2509C22.6318 36.2417 23.3072 43.7148 29.5999 45.9081L33.5083 34.6947C34.7122 35.1143 35.6678 36.2036 35.921 37.5348C36.1658 38.8224 35.7013 39.9672 35.0195 40.6488L26.6236 32.2509ZM29.5998 45.9081C34.2755 47.5378 38.3381 44.8992 39.8819 41.5788C40.6425 39.943 40.9421 37.904 40.3486 35.8436C39.7219 33.6682 38.2224 31.9131 36.2125 30.8738L30.7582 41.4221C30.024 41.0425 29.2615 40.2551 28.9375 39.1305C28.6467 38.1209 28.8147 37.2158 29.114 36.5721C29.4145 35.9258 29.9661 35.2799 30.8121 34.8772C31.7498 34.4309 32.7502 34.4304 33.5083 34.6947L29.5998 45.9081ZM36.2123 30.8737C35.4741 30.4921 33.6448 29.5644 31.3499 29.8243C28.8648 30.1058 27.2907 31.5836 26.6224 32.2521L35.0208 40.6475C35.2396 40.4286 34.3733 41.4328 32.6863 41.6239C31.8932 41.7137 31.28 41.5803 30.9698 41.4877C30.6997 41.4071 30.5936 41.337 30.7584 41.4222L36.2123 30.8737ZM30.1003 42.2686C28.5825 41.3962 27.9166 40.0182 27.7431 38.8975C27.5322 37.5351 27.9432 36.0277 29.016 34.9545L37.4147 43.3495C41.0849 39.6777 39.7132 34.0969 36.0178 31.973L30.1003 42.2686ZM29.0179 34.9526C29.2686 34.7019 29.8006 34.2443 30.6461 33.9295C31.5641 33.5877 32.5437 33.5303 33.4439 33.7188C34.2614 33.89 34.8112 34.22 35.0574 34.3871C35.305 34.5552 35.4204 34.6789 35.3825 34.6411L26.9856 43.038C27.4909 43.5432 28.8765 44.8949 31.0099 45.3417C33.8545 45.9374 36.1104 44.6532 37.4128 43.3514L29.0179 34.9526ZM36.7858 36.871C37.1581 37.9305 37.2054 40.23 35.1813 41.8255C33.4275 43.208 31.3657 42.9958 30.1003 42.2686L36.0178 31.973C33.6543 30.6145 30.3828 30.4872 27.8299 32.4996C25.0068 34.725 24.6657 38.1993 25.5824 40.808L36.7858 36.871Z" fill="#F8F6EE" mask="url(#path-1-outside-1_430_3234)"/>
</svg>
