<svg width="1086" height="1080" viewBox="0 0 1086 1080" fill="none" xmlns="http://www.w3.org/2000/svg">
<g clip-path="url(#clip0_368_2301)">
<path d="M715.985 286.133H537.865C533.966 286.144 530.115 285.267 526.606 283.566C523.097 281.865 520.022 279.387 517.615 276.319C515.165 273.222 513.453 269.606 512.61 265.748C511.768 261.89 511.817 257.89 512.754 254.054C529.17 185.293 529.17 113.633 512.753 44.873C511.817 41.0366 511.768 37.0371 512.611 33.1791C513.453 29.321 515.165 25.706 517.615 22.609C520.022 19.5408 523.097 17.062 526.606 15.3614C530.115 13.6608 533.966 12.783 537.865 12.795H715.985C722.135 12.8127 728.079 15.0128 732.758 19.0033C737.437 22.9939 740.548 28.5159 741.536 34.5857C753.259 110.723 753.259 188.205 741.536 264.342C740.548 270.412 737.437 275.934 732.758 279.924C728.079 283.915 722.135 286.115 715.985 286.133Z" fill="white"/>
<path d="M537.865 26.1973C535.992 26.191 534.142 26.612 532.457 27.4281C530.771 28.2442 529.294 29.4339 528.138 30.9069C526.947 32.4161 526.116 34.1769 525.708 36.0556C525.3 37.9342 525.326 39.8812 525.784 41.7482C542.692 112.563 542.692 186.364 525.785 257.179C525.327 259.046 525.301 260.993 525.708 262.871C526.116 264.749 526.947 266.51 528.137 268.019C529.293 269.492 530.771 270.683 532.457 271.499C534.142 272.316 535.992 272.737 537.865 272.73H715.984C718.937 272.731 721.795 271.684 724.049 269.775C726.302 267.866 727.805 265.219 728.289 262.306C739.803 187.518 739.803 111.409 728.289 36.622C727.805 33.7086 726.302 31.0617 724.049 29.1527C721.795 27.2436 718.937 26.1963 715.984 26.1973L537.865 26.1973Z" fill="#CDE4C5"/>
<path d="M677.114 90.6414H583.644C580.091 90.6375 576.685 89.2242 574.172 86.7118C571.66 84.1993 570.247 80.7928 570.243 77.2396V72.0023C570.247 68.4492 571.66 65.0426 574.172 62.5302C576.685 60.0177 580.091 58.6045 583.644 58.6006H677.114C680.667 58.6045 684.074 60.0177 686.586 62.5302C689.099 65.0426 690.512 68.4492 690.516 72.0023V77.2397C690.512 80.7928 689.099 84.1994 686.586 86.7118C684.074 89.2243 680.667 90.6375 677.114 90.6414Z" fill="white"/>
<path d="M677.114 156.817H583.644C580.091 156.813 576.685 155.4 574.172 152.887C571.66 150.375 570.247 146.969 570.243 143.415V138.178C570.247 134.625 571.66 131.218 574.172 128.706C576.685 126.193 580.091 124.78 583.644 124.776H677.114C680.667 124.78 684.074 126.193 686.586 128.706C689.099 131.218 690.512 134.625 690.516 138.178V143.415C690.512 146.969 689.099 150.375 686.586 152.887C684.074 155.4 680.667 156.813 677.114 156.817Z" fill="white"/>
<path d="M677.114 222.992H583.644C580.091 222.988 576.685 221.575 574.172 219.062C571.66 216.55 570.247 213.143 570.243 209.59V204.353C570.247 200.8 571.66 197.393 574.172 194.881C576.685 192.368 580.091 190.955 583.644 190.951H677.114C680.667 190.955 684.074 192.368 686.586 194.881C689.099 197.393 690.512 200.8 690.516 204.353V209.59C690.512 213.143 689.099 216.55 686.586 219.062C684.074 221.575 680.667 222.988 677.114 222.992Z" fill="white"/>
<path d="M1051.04 455.894H872.922C869.023 455.906 865.172 455.028 861.663 453.328C858.154 451.627 855.079 449.148 852.672 446.08C850.221 442.983 848.51 439.368 847.667 435.51C846.825 431.651 846.874 427.652 847.81 423.815C864.227 355.055 864.226 283.395 847.809 214.635C846.873 210.798 846.825 206.799 847.667 202.941C848.51 199.083 850.221 195.468 852.671 192.371C855.078 189.302 858.153 186.824 861.662 185.123C865.172 183.422 869.023 182.545 872.922 182.557H1051.04C1057.19 182.574 1063.14 184.774 1067.81 188.765C1072.49 192.756 1075.6 198.278 1076.59 204.347C1088.32 280.484 1088.32 357.967 1076.59 434.104C1075.6 440.173 1072.49 445.695 1067.81 449.686C1063.14 453.677 1057.19 455.877 1051.04 455.894Z" fill="white"/>
<path d="M872.923 195.959C871.05 195.953 869.201 196.374 867.515 197.19C865.83 198.006 864.352 199.196 863.196 200.669C862.005 202.178 861.174 203.939 860.766 205.817C860.358 207.696 860.384 209.643 860.842 211.51C877.75 282.325 877.75 356.126 860.843 426.941C860.385 428.808 860.359 430.754 860.766 432.633C861.174 434.511 862.005 436.271 863.195 437.78C864.351 439.254 865.83 440.445 867.515 441.261C869.2 442.077 871.05 442.498 872.923 442.492H1051.04C1054 442.493 1056.85 441.446 1059.11 439.537C1061.36 437.628 1062.86 434.981 1063.35 432.067C1074.86 357.28 1074.86 281.171 1063.35 206.384C1062.86 203.47 1061.36 200.823 1059.11 198.914C1056.85 197.005 1054 195.958 1051.04 195.959L872.923 195.959Z" fill="#CDE4C5"/>
<path d="M695.881 649.11H517.762C513.693 649.123 509.676 648.207 506.015 646.432C502.354 644.658 499.146 642.072 496.634 638.871C494.079 635.642 492.294 631.872 491.415 627.849C490.537 623.825 490.587 619.654 491.564 615.654C507.939 547.065 507.939 475.584 491.563 406.995C490.587 402.994 490.536 398.824 491.415 394.801C492.294 390.777 494.079 387.008 496.634 383.779C499.145 380.578 502.353 377.991 506.014 376.217C509.675 374.443 513.693 373.527 517.762 373.539H695.881C702.297 373.558 708.498 375.854 713.379 380.018C718.261 384.182 721.506 389.944 722.536 396.277C734.276 472.526 734.276 550.123 722.536 626.373C721.506 632.706 718.261 638.467 713.379 642.631C708.498 646.795 702.297 649.091 695.881 649.11Z" fill="#CDE4C5"/>
<path d="M1012.17 293.909H918.703C915.149 293.905 911.743 292.492 909.23 289.979C906.718 287.467 905.305 284.06 905.301 280.507V275.27C905.305 271.717 906.718 268.31 909.23 265.798C911.743 263.285 915.149 261.872 918.703 261.868H1012.17C1015.73 261.872 1019.13 263.285 1021.64 265.798C1024.16 268.31 1025.57 271.717 1025.57 275.27V280.507C1025.57 284.06 1024.16 287.467 1021.64 289.979C1019.13 292.492 1015.73 293.905 1012.17 293.909Z" fill="white"/>
<path d="M1012.17 360.085H918.703C915.149 360.081 911.743 358.668 909.23 356.155C906.718 353.643 905.305 350.236 905.301 346.683V341.446C905.305 337.892 906.718 334.486 909.23 331.973C911.743 329.461 915.149 328.048 918.703 328.044H1012.17C1015.73 328.048 1019.13 329.461 1021.64 331.973C1024.16 334.486 1025.57 337.893 1025.57 341.446V346.683C1025.57 350.236 1024.16 353.643 1021.64 356.155C1019.13 358.668 1015.73 360.081 1012.17 360.085Z" fill="white"/>
<path d="M607.319 561.779C635.693 561.779 658.695 538.778 658.695 510.404C658.695 482.03 635.693 459.028 607.319 459.028C578.945 459.028 555.944 482.03 555.944 510.404C555.944 538.778 578.945 561.779 607.319 561.779Z" fill="white"/>
<path d="M631.89 503.703H614.02V485.833C614.02 484.056 613.315 482.351 612.058 481.095C610.801 479.838 609.097 479.132 607.319 479.132C605.542 479.132 603.838 479.838 602.581 481.095C601.324 482.351 600.618 484.056 600.618 485.833V503.703H582.749C580.971 503.703 579.267 504.409 578.01 505.665C576.753 506.922 576.047 508.627 576.047 510.404C576.047 512.181 576.753 513.885 578.01 515.142C579.267 516.399 580.971 517.105 582.749 517.105H600.618V534.975C600.618 536.752 601.324 538.456 602.581 539.713C603.838 540.97 605.542 541.676 607.319 541.676C609.097 541.676 610.801 540.97 612.058 539.713C613.315 538.456 614.02 536.752 614.02 534.975V517.105H631.89C633.667 517.105 635.372 516.399 636.629 515.142C637.885 513.885 638.591 512.181 638.591 510.404C638.591 508.627 637.885 506.922 636.629 505.665C635.372 504.409 633.667 503.703 631.89 503.703Z" fill="#2F2E41"/>
<path d="M672.097 37.9731H578.281C575.616 37.9701 573.061 36.9101 571.177 35.0257C569.293 33.1413 568.232 30.5864 568.229 27.9214V10.0517C568.232 7.38675 569.293 4.8318 571.177 2.94739C573.061 1.06298 575.616 0.00300336 578.281 0H672.097C674.762 0.00300336 677.317 1.06298 679.201 2.94739C681.086 4.8318 682.146 7.38675 682.149 10.0517V27.9214C682.146 30.5864 681.086 33.1413 679.201 35.0257C677.317 36.9101 674.762 37.9701 672.097 37.9731Z" fill="#CAC5C4"/>
<path d="M1011.62 209.969H917.806C915.141 209.966 912.586 208.906 910.701 207.022C908.817 205.137 907.757 202.582 907.754 199.917V182.048C907.757 179.383 908.817 176.828 910.701 174.944C912.586 173.059 915.141 171.999 917.806 171.996H1011.62C1014.29 171.999 1016.84 173.059 1018.73 174.944C1020.61 176.828 1021.67 179.383 1021.67 182.048V199.917C1021.67 202.582 1020.61 205.137 1018.73 207.022C1016.84 208.906 1014.29 209.966 1011.62 209.969Z" fill="#CAC5C4"/>
<path d="M198.07 1052.21H225.456L234.018 946.587H198.066L198.07 1052.21Z" fill="#FFB8B8"/>
<path d="M191.085 1043.27L245.016 1043.27H245.018C249.531 1043.27 254.001 1044.16 258.17 1045.89C262.34 1047.61 266.129 1050.15 269.321 1053.34C272.512 1056.53 275.044 1060.32 276.771 1064.49C278.498 1068.66 279.387 1073.13 279.387 1077.64V1078.76L191.087 1078.76L191.085 1043.27Z" fill="#2F2E41"/>
<path d="M50.6456 1052.21H78.0309L91.0601 946.587H50.6411L50.6456 1052.21Z" fill="#FFB8B8"/>
<path d="M43.6606 1043.27L97.5909 1043.27H97.5932C102.107 1043.27 106.576 1044.16 110.746 1045.89C114.915 1047.61 118.704 1050.15 121.896 1053.34C125.087 1056.53 127.619 1060.32 129.346 1064.49C131.073 1068.66 131.962 1073.13 131.962 1077.64V1078.76L43.6623 1078.76L43.6606 1043.27Z" fill="#2F2E41"/>
<path d="M55.5038 1018.85C52.7103 1018.85 50.0192 1017.79 47.965 1015.9C46.8623 1014.9 45.9742 1013.68 45.354 1012.32C44.7339 1010.96 44.3944 1009.49 44.3559 1008L33.3735 614.391L189.312 653.374L237.425 797.711C243.629 816.279 246.315 835.842 245.344 855.395L239.37 995.307C239.234 998.174 237.999 1000.88 235.921 1002.86C233.844 1004.84 231.083 1005.94 228.214 1005.94H202.059C199.36 1005.93 196.755 1004.94 194.722 1003.17C192.689 1001.39 191.365 998.94 190.992 996.266L172.298 841.824C170.665 829.775 166.45 818.221 159.942 807.951L123.154 749.705C122.908 749.316 122.547 749.012 122.122 748.836C121.697 748.659 121.228 748.618 120.779 748.718C120.33 748.819 119.922 749.055 119.613 749.396C119.303 749.736 119.106 750.164 119.049 750.621L90.1791 1007.7C89.8691 1010.3 88.6493 1012.72 86.7342 1014.51C84.8191 1016.31 82.3316 1017.37 79.7097 1017.52L56.1396 1018.83C55.9275 1018.84 55.7159 1018.85 55.5038 1018.85Z" fill="#2F2E41"/>
<path d="M163.361 359.554C193.661 359.554 218.224 334.991 218.224 304.691C218.224 274.392 193.661 249.829 163.361 249.829C133.062 249.829 108.499 274.392 108.499 304.691C108.499 334.991 133.062 359.554 163.361 359.554Z" fill="#FFB8B8"/>
<path d="M188.564 669.382C187.62 669.38 186.68 669.261 185.766 669.026L31.0473 629.356C28.2812 628.648 25.8915 626.907 24.3697 624.49C22.8479 622.074 22.3096 619.167 22.8655 616.366L58.3975 424.957C60.6112 413.893 65.4772 403.531 72.5776 394.762C79.6779 385.993 88.8006 379.078 99.1622 374.61C109.258 370.142 120.299 368.228 131.31 369.036C142.321 369.844 152.964 373.351 162.299 379.246C164.466 380.597 166.647 382.071 168.783 383.626C177.38 389.968 184.391 398.216 189.266 407.722C194.141 417.228 196.748 427.735 196.881 438.417L199.706 658.055C199.725 659.532 199.451 660.999 198.9 662.369C198.349 663.74 197.532 664.988 196.496 666.041C195.46 667.094 194.226 667.932 192.865 668.505C191.503 669.079 190.041 669.377 188.564 669.382Z" fill="#F1C21B"/>
<path d="M46.9675 671.633C45.1218 668.917 43.8942 665.829 43.3709 662.587C42.8477 659.346 43.0417 656.029 43.9391 652.87C44.8365 649.711 46.4156 646.787 48.5652 644.305C50.7147 641.823 53.3824 639.842 56.3804 638.502L49.4987 558.978L85.9664 578.742L86.9103 651.23C88.8275 656.415 88.7759 662.124 86.7653 667.274C84.7547 672.424 80.9248 676.658 76.0014 679.173C71.0779 681.688 65.4029 682.309 60.0518 680.92C54.7007 679.53 50.0451 676.226 46.9675 671.633Z" fill="#FFB8B8"/>
<path d="M59.9954 627.984C58.9664 627.983 57.9416 627.853 56.9447 627.598C54.8007 627.051 52.8442 625.935 51.2825 624.367C49.7207 622.8 48.6116 620.84 48.0726 618.693L30.1511 547.474C23.888 522.6 26.8736 496.298 38.5526 473.461L76.0987 400.012C78.4721 391.218 84.2068 383.71 92.066 379.105C99.9252 374.501 109.279 373.17 118.111 375.4C122.512 376.511 126.65 378.486 130.283 381.208C133.916 383.931 136.972 387.348 139.275 391.261C141.625 395.229 143.161 399.626 143.796 404.195C144.43 408.763 144.149 413.412 142.969 417.871L89.5222 537.388L90.157 608.946C90.1735 611.471 89.4144 613.939 87.9825 616.018C86.5505 618.098 84.5148 619.687 82.1503 620.572L64.2643 627.214C62.8985 627.723 61.4528 627.983 59.9954 627.984Z" fill="#F1C21B"/>
<path d="M315.835 642.382C312.573 642.009 309.432 640.925 306.633 639.207C303.835 637.489 301.447 635.178 299.639 632.437C297.83 629.696 296.644 626.592 296.165 623.344C295.686 620.095 295.924 616.781 296.864 613.635L232.102 566.974L270.871 552.228L326.427 598.798C331.608 600.728 335.901 604.491 338.493 609.374C341.085 614.258 341.795 619.922 340.49 625.294C339.184 630.667 335.953 635.373 331.409 638.523C326.865 641.672 321.324 643.045 315.835 642.382Z" fill="#FFB8B8"/>
<path d="M281.932 608.308C280.023 608.306 278.14 607.861 276.431 607.009L210.762 574.134C187.825 562.654 169.837 543.234 160.145 519.486L128.968 443.114C123.852 435.578 121.902 426.333 123.539 417.373C125.176 408.412 130.269 400.454 137.719 395.214C141.442 392.596 145.648 390.746 150.093 389.771C154.538 388.795 159.132 388.714 163.609 389.533C168.138 390.347 172.46 392.052 176.325 394.549C180.191 397.046 183.522 400.285 186.126 404.079L241.846 522.554L296.496 568.753C298.42 570.387 299.797 572.573 300.438 575.014C301.08 577.456 300.957 580.036 300.085 582.405L293.451 600.293C292.585 602.639 291.021 604.663 288.969 606.092C286.906 607.535 284.449 608.308 281.932 608.308Z" fill="#F1C21B"/>
<path d="M151.842 360.394C154.757 361.67 160.726 338.443 158.052 333.797C154.075 326.889 154.311 326.938 151.671 322.367C149.031 317.797 148.44 311.54 151.859 307.519C155.277 303.497 163.188 304.03 164.748 309.073C163.745 299.495 173.218 291.796 182.602 289.632C191.986 287.469 201.885 288.812 211.32 286.887C222.271 284.652 233.665 275.473 229.295 263.431C228.546 261.426 227.423 259.582 225.987 257.994C220.939 252.319 213.878 249.895 206.974 247.552C192.611 242.677 177.855 237.74 162.697 238.279C150.207 238.932 138.179 243.211 128.084 250.594C117.989 257.977 110.265 268.142 105.857 279.846C104.812 282.774 104.003 285.781 103.437 288.838C98.2342 316.813 114.48 344.408 140.866 355.061L151.842 360.394Z" fill="#2F2E41"/>
<path opacity="0.2" d="M87.063 610.57L88.3072 537.016L127.27 458.678L95.9978 539.091L87.063 610.57Z" fill="#F1C21B"/>
<path d="M440.385 795.162L275.899 726.82C272.293 725.335 269.074 723.047 266.486 720.13C263.898 717.213 262.009 713.744 260.964 709.988C259.889 706.188 259.695 702.192 260.398 698.306C261.1 694.42 262.68 690.745 265.017 687.561C306.559 630.362 334.053 564.187 345.275 494.39C345.883 490.488 347.372 486.776 349.631 483.537C351.889 480.297 354.857 477.616 358.308 475.696C361.707 473.786 365.498 472.677 369.391 472.453C373.284 472.228 377.177 472.896 380.774 474.403L545.261 542.744C550.933 545.12 555.578 549.432 558.368 554.913C561.158 560.393 561.912 566.686 560.496 572.671C542.109 647.478 512.38 719.031 472.342 784.842C469.1 790.069 464.109 793.974 458.257 795.864C452.404 797.754 446.071 797.505 440.385 795.162Z" fill="white"/>
<path d="M375.632 486.78C373.905 486.055 372.036 485.734 370.166 485.841C368.297 485.948 366.476 486.48 364.843 487.397C363.164 488.334 361.721 489.641 360.624 491.219C359.526 492.798 358.803 494.606 358.51 496.505C346.953 568.388 318.637 636.54 275.853 695.449C274.714 696.997 273.943 698.784 273.598 700.675C273.254 702.566 273.346 704.511 273.866 706.361C274.369 708.165 275.277 709.832 276.52 711.232C277.763 712.633 279.31 713.731 281.041 714.444L445.528 782.786C448.255 783.92 451.296 784.049 454.11 783.151C456.923 782.252 459.326 780.385 460.891 777.88C500.219 713.235 529.421 642.951 547.482 569.469C548.153 566.593 547.781 563.572 546.433 560.945C545.084 558.317 542.847 556.254 540.119 555.121L375.632 486.78Z" fill="#00A55B"/>
<path d="M463.214 638.912L376.898 603.049C373.618 601.682 371.015 599.07 369.659 595.786C368.303 592.502 368.305 588.814 369.664 585.531L371.674 580.695C373.041 577.415 375.653 574.811 378.937 573.455C382.221 572.099 385.909 572.101 389.192 573.461L475.508 609.324C478.788 610.69 481.391 613.302 482.747 616.587C484.103 619.871 484.101 623.559 482.742 626.842L480.732 631.678C479.365 634.958 476.753 637.561 473.469 638.917C470.185 640.274 466.497 640.272 463.214 638.912Z" fill="white"/>
<path d="M437.824 700.023L351.508 664.16C348.228 662.794 345.625 660.182 344.269 656.897C342.912 653.613 342.914 649.925 344.274 646.642L346.284 641.806C347.65 638.526 350.263 635.923 353.547 634.567C356.831 633.21 360.519 633.212 363.802 634.572L450.118 670.435C453.398 671.802 456.001 674.414 457.357 677.698C458.713 680.982 458.711 684.67 457.352 687.953L455.342 692.789C453.975 696.069 451.363 698.673 448.079 700.029C444.795 701.385 441.107 701.383 437.824 700.023Z" fill="white"/>
<path d="M497.801 553.027C496.509 553.026 495.229 552.775 494.032 552.289L407.056 517.124C404.587 516.122 402.615 514.182 401.575 511.729C400.534 509.276 400.509 506.51 401.504 504.038L408.203 487.471C409.202 484.999 411.143 483.026 413.597 481.985C416.051 480.945 418.818 480.921 421.289 481.92L508.266 517.085C510.735 518.087 512.706 520.027 513.747 522.48C514.788 524.933 514.813 527.699 513.817 530.171L507.119 546.738C506.366 548.594 505.078 550.183 503.419 551.303C501.759 552.423 499.803 553.023 497.801 553.027Z" fill="#CAC5C4"/>
<path d="M315.125 1080H2.40559C1.81317 1080 1.24505 1079.76 0.826146 1079.35C0.407244 1078.93 0.171875 1078.36 0.171875 1077.77C0.171875 1077.17 0.407244 1076.61 0.826146 1076.19C1.24505 1075.77 1.81317 1075.53 2.40559 1075.53H315.125C315.718 1075.53 316.286 1075.77 316.705 1076.19C317.124 1076.61 317.359 1077.17 317.359 1077.77C317.359 1078.36 317.124 1078.93 316.705 1079.35C316.286 1079.76 315.718 1080 315.125 1080Z" fill="#CCCCCC"/>
</g>
<defs>
<clipPath id="clip0_368_2301">
<rect width="1085.21" height="1080" fill="white" transform="translate(0.171875)"/>
</clipPath>
</defs>
</svg>
