<svg width="1126" height="1080" viewBox="0 0 1126 1080" fill="none" xmlns="http://www.w3.org/2000/svg">
<g clip-path="url(#clip0_368_2190)">
<path d="M947.705 255.978H941.794V93.8405C941.794 68.9524 931.908 45.0837 914.309 27.4852C896.711 9.88674 872.842 1.2241e-08 847.954 1.2241e-08H504.435C492.112 -0.000199025 479.909 2.42686 468.524 7.1426C457.139 11.8583 446.794 18.7704 438.08 27.4842C429.366 36.1979 422.453 46.5427 417.737 57.9279C413.021 69.3131 410.593 81.5157 410.593 93.839V983.34C410.593 1008.23 420.48 1032.1 438.079 1049.7C455.677 1067.29 479.546 1077.18 504.434 1077.18H847.949C872.837 1077.18 896.706 1067.29 914.305 1049.7C931.903 1032.1 941.79 1008.23 941.79 983.34V371.391H947.701L947.705 255.978Z" fill="#3F3D56"/>
<path d="M922.546 87.5551V989.623C922.543 1008.49 915.047 1026.59 901.705 1039.93C888.364 1053.28 870.269 1060.78 851.399 1060.78H500.833C481.956 1060.79 463.85 1053.29 450.499 1039.95C437.148 1026.6 429.645 1008.5 429.639 989.623V87.5551C429.645 68.6786 437.148 50.5773 450.498 37.2325C463.849 23.8876 481.953 16.3921 500.83 16.3945H543.355C541.267 21.5295 540.473 27.0987 541.041 32.6128C541.609 38.1268 543.524 43.4168 546.615 48.0178C549.707 52.6188 553.881 56.39 558.772 58.9998C563.662 61.6096 569.119 62.9781 574.662 62.9851H774.526C780.069 62.9781 785.526 61.6096 790.416 58.9998C795.307 56.39 799.481 52.6188 802.573 48.0178C805.665 43.4168 807.579 38.1268 808.147 32.6128C808.716 27.0987 807.921 21.5295 805.833 16.3945H851.385C870.255 16.3977 888.351 23.8942 901.695 37.2357C915.039 50.5772 922.539 68.6718 922.546 87.5414V87.5551Z" fill="white"/>
<path d="M676.028 449.679C756.859 449.679 822.385 384.153 822.385 303.322C822.385 222.491 756.859 156.965 676.028 156.965C595.197 156.965 529.671 222.491 529.671 303.322C529.671 384.153 595.197 449.679 676.028 449.679Z" fill="#00A55B"/>
<path d="M835.648 607.157H524.13C522.6 607.155 521.134 606.547 520.052 605.465C518.971 604.384 518.363 602.918 518.361 601.388V524.115C518.363 522.586 518.971 521.12 520.053 520.038C521.134 518.957 522.6 518.349 524.13 518.347H835.648C837.178 518.349 838.644 518.957 839.725 520.038C840.807 521.12 841.415 522.586 841.417 524.115V601.39C841.415 602.919 840.807 604.385 839.725 605.467C838.644 606.548 837.178 607.156 835.648 607.158V607.157ZM524.13 520.653C523.212 520.654 522.332 521.019 521.683 521.668C521.034 522.317 520.669 523.197 520.668 524.115V601.39C520.669 602.308 521.034 603.188 521.683 603.837C522.332 604.486 523.212 604.851 524.13 604.851H835.648C836.566 604.851 837.446 604.486 838.095 603.837C838.744 603.188 839.109 602.308 839.11 601.39V524.115C839.109 523.197 838.744 522.317 838.095 521.668C837.446 521.019 836.566 520.654 835.648 520.653H524.13Z" fill="#E6E6E6"/>
<path d="M620.469 546.176C619.398 546.176 618.371 546.601 617.614 547.359C616.856 548.116 616.431 549.143 616.431 550.214C616.431 551.285 616.856 552.312 617.614 553.07C618.371 553.827 619.398 554.253 620.469 554.253H810.841C811.911 554.294 812.954 553.908 813.74 553.18C814.526 552.452 814.991 551.441 815.032 550.371C815.073 549.301 814.687 548.258 813.959 547.472C813.231 546.686 812.22 546.221 811.15 546.18C811.091 546.178 811.032 546.177 810.972 546.177L620.469 546.176Z" fill="#E6E6E6"/>
<path d="M620.469 570.401C619.398 570.401 618.371 570.827 617.614 571.584C616.856 572.342 616.431 573.369 616.431 574.44C616.431 575.511 616.856 576.538 617.614 577.295C618.371 578.053 619.398 578.478 620.469 578.478H810.841C811.911 578.519 812.954 578.133 813.74 577.405C814.526 576.677 814.991 575.667 815.032 574.597C815.073 573.526 814.687 572.483 813.959 571.697C813.231 570.911 812.22 570.447 811.15 570.406C811.091 570.404 811.032 570.403 810.972 570.403L620.469 570.401Z" fill="#E6E6E6"/>
<path d="M835.648 735.956H524.13C522.6 735.954 521.134 735.346 520.052 734.264C518.971 733.183 518.363 731.716 518.361 730.187V652.914C518.363 651.385 518.971 649.919 520.053 648.837C521.134 647.756 522.6 647.148 524.13 647.146H835.648C837.178 647.148 838.644 647.756 839.725 648.837C840.807 649.919 841.415 651.385 841.417 652.914V730.189C841.415 731.718 840.806 733.183 839.725 734.264C838.643 735.345 837.177 735.954 835.648 735.956ZM524.13 649.452C523.212 649.453 522.332 649.818 521.683 650.467C521.034 651.116 520.669 651.996 520.668 652.914V730.189C520.669 731.106 521.034 731.987 521.683 732.636C522.332 733.285 523.212 733.65 524.13 733.65H835.648C836.566 733.65 837.446 733.285 838.095 732.636C838.744 731.987 839.109 731.106 839.11 730.189V652.914C839.109 651.996 838.744 651.116 838.095 650.467C837.446 649.818 836.566 649.453 835.648 649.452H524.13Z" fill="#E6E6E6"/>
<path d="M620.469 675.393C619.398 675.393 618.371 675.818 617.614 676.575C616.856 677.333 616.431 678.36 616.431 679.431C616.431 680.502 616.856 681.529 617.614 682.287C618.371 683.044 619.398 683.469 620.469 683.469H810.841C811.896 683.463 812.908 683.044 813.659 682.302C814.409 681.559 814.839 680.552 814.856 679.496C814.874 678.441 814.477 677.42 813.751 676.653C813.025 675.887 812.028 675.435 810.973 675.394H620.469V675.393Z" fill="#E6E6E6"/>
<path d="M620.469 699.624C619.398 699.624 618.371 700.05 617.614 700.807C616.856 701.564 616.431 702.591 616.431 703.662C616.431 704.733 616.856 705.761 617.614 706.518C618.371 707.275 619.398 707.701 620.469 707.701H810.841C811.896 707.695 812.908 707.276 813.659 706.533C814.409 705.79 814.839 704.783 814.856 703.728C814.874 702.672 814.477 701.651 813.751 700.885C813.025 700.118 812.028 699.666 810.973 699.626H620.469V699.624Z" fill="#E6E6E6"/>
<path d="M835.648 865.175H524.13C522.6 865.174 521.134 864.565 520.052 863.484C518.971 862.403 518.363 860.936 518.361 859.407V782.134C518.363 780.604 518.971 779.138 520.053 778.057C521.134 776.976 522.6 776.367 524.13 776.365H835.648C837.178 776.367 838.644 776.976 839.725 778.057C840.807 779.138 841.415 780.604 841.417 782.134V859.408C841.415 860.938 840.807 862.404 839.725 863.485C838.644 864.567 837.178 865.175 835.648 865.177V865.175ZM524.13 778.672C523.212 778.673 522.332 779.038 521.683 779.687C521.034 780.336 520.669 781.216 520.668 782.134V859.408C520.669 860.326 521.034 861.206 521.683 861.855C522.332 862.504 523.212 862.869 524.13 862.87H835.648C836.566 862.869 837.446 862.504 838.095 861.855C838.744 861.206 839.109 860.326 839.11 859.408V782.134C839.109 781.216 838.744 780.336 838.095 779.687C837.446 779.038 836.566 778.673 835.648 778.672H524.13Z" fill="#E6E6E6"/>
<path d="M620.469 804.617C619.398 804.617 618.371 805.043 617.614 805.8C616.856 806.557 616.431 807.585 616.431 808.656C616.431 809.727 616.856 810.754 617.614 811.511C618.371 812.269 619.398 812.694 620.469 812.694H810.841C811.371 812.714 811.9 812.63 812.397 812.446C812.894 812.262 813.351 811.982 813.74 811.621C814.129 811.261 814.443 810.827 814.665 810.345C814.887 809.863 815.011 809.343 815.032 808.812C815.052 808.282 814.968 807.754 814.783 807.256C814.599 806.759 814.319 806.302 813.959 805.913C813.598 805.524 813.165 805.21 812.683 804.988C812.201 804.766 811.68 804.642 811.15 804.622C811.091 804.619 811.032 804.618 810.972 804.619L620.469 804.617Z" fill="#E6E6E6"/>
<path d="M620.469 828.848C619.398 828.848 618.371 829.273 617.614 830.031C616.856 830.788 616.431 831.815 616.431 832.886C616.431 833.957 616.856 834.984 617.614 835.742C618.371 836.499 619.398 836.925 620.469 836.925H810.841C811.371 836.945 811.9 836.861 812.397 836.676C812.894 836.492 813.351 836.212 813.74 835.852C814.129 835.491 814.443 835.058 814.665 834.576C814.887 834.094 815.011 833.573 815.032 833.043C815.052 832.513 814.968 831.984 814.783 831.487C814.599 830.989 814.319 830.533 813.959 830.144C813.598 829.754 813.165 829.44 812.683 829.219C812.201 828.997 811.68 828.872 811.15 828.852C811.091 828.85 811.032 828.849 810.972 828.849H620.469L620.469 828.848Z" fill="#E6E6E6"/>
<path d="M1123.01 1080H3.65164C2.02839 1080 0.714355 1079.29 0.714355 1078.42C0.714355 1077.54 2.02991 1076.83 3.65164 1076.83H1123.01C1124.63 1076.83 1125.95 1077.54 1125.95 1078.42C1125.95 1079.29 1124.63 1080 1123.01 1080Z" fill="#E6E6E6"/>
<path d="M1075.6 1018.22C1070.82 1019.9 1065.69 1020.32 1060.69 1019.44C1055.7 1018.56 1051.02 1016.41 1047.1 1013.19C1037.12 1004.82 1033.99 991.011 1031.44 978.228L1023.91 940.421L1039.68 951.28C1051.02 959.089 1062.62 967.149 1070.47 978.46C1078.32 989.771 1081.75 1005.21 1075.44 1017.45" fill="#E6E6E6"/>
<path d="M1073.17 1066.62C1075.15 1052.16 1077.2 1037.51 1075.8 1022.9C1074.57 1009.91 1070.61 997.236 1062.54 986.84C1058.26 981.333 1053.06 976.614 1047.15 972.896C1045.62 971.925 1044.2 974.363 1045.73 975.33C1055.94 981.784 1063.84 991.314 1068.28 1002.55C1073.2 1015.04 1073.98 1028.65 1073.13 1041.92C1072.62 1049.94 1071.54 1057.91 1070.45 1065.87C1070.36 1066.23 1070.41 1066.61 1070.6 1066.93C1070.78 1067.25 1071.08 1067.49 1071.43 1067.61C1071.79 1067.7 1072.18 1067.65 1072.5 1067.47C1072.83 1067.28 1073.06 1066.98 1073.17 1066.62H1073.17Z" fill="#F2F2F2"/>
<path d="M1058.88 1043.42C1056.83 1046.53 1054.01 1049.07 1050.69 1050.78C1047.38 1052.49 1043.68 1053.32 1039.95 1053.19C1030.37 1052.73 1022.37 1046.04 1015.18 1039.7L993.911 1020.91L1007.99 1020.24C1018.11 1019.75 1028.5 1019.3 1038.15 1022.42C1047.8 1025.55 1056.69 1033.06 1058.45 1043.04" fill="#E6E6E6"/>
<path d="M1078.78 1074.93C1069.23 1058.02 1058.14 1039.23 1038.33 1033.23C1032.83 1031.56 1027.05 1030.97 1021.32 1031.47C1019.51 1031.62 1019.97 1034.41 1021.78 1034.25C1031.38 1033.46 1040.97 1035.99 1048.92 1041.44C1056.58 1046.65 1062.54 1053.89 1067.58 1061.57C1070.67 1066.27 1073.44 1071.18 1076.21 1076.08C1077.09 1077.65 1079.67 1076.52 1078.78 1074.93Z" fill="#F2F2F2"/>
<path d="M562.993 586.507C576.375 586.507 587.222 575.659 587.222 562.278C587.222 548.896 576.375 538.049 562.993 538.049C549.612 538.049 538.765 548.896 538.765 562.278C538.765 575.659 549.612 586.507 562.993 586.507Z" fill="#00A55B"/>
<path d="M551.394 557.752C551.115 557.752 550.89 559.56 550.89 561.79C550.89 564.019 551.115 565.829 551.394 565.829H575.218C575.497 565.865 575.728 564.087 575.732 561.858C575.887 560.47 575.717 559.065 575.235 557.753H551.394V557.752Z" fill="#E6E6E6"/>
<path d="M562.993 715.779C576.375 715.779 587.222 704.932 587.222 691.55C587.222 678.169 576.375 667.321 562.993 667.321C549.612 667.321 538.765 678.169 538.765 691.55C538.765 704.932 549.612 715.779 562.993 715.779Z" fill="#00A55B"/>
<path d="M551.394 687.024C551.115 687.024 550.89 688.833 550.89 691.062C550.89 693.292 551.115 695.101 551.394 695.101H575.218C575.497 695.138 575.728 693.36 575.732 691.13C575.887 689.742 575.717 688.337 575.235 687.026L551.394 687.024Z" fill="#E6E6E6"/>
<path d="M562.993 845C576.375 845 587.222 834.152 587.222 820.771C587.222 807.39 576.375 796.542 562.993 796.542C549.612 796.542 538.765 807.39 538.765 820.771C538.765 834.152 549.612 845 562.993 845Z" fill="#00A55B"/>
<path d="M551.394 816.245C551.115 816.245 550.89 818.053 550.89 820.283C550.89 822.512 551.115 824.322 551.394 824.322H575.218C575.497 824.358 575.728 822.58 575.732 820.351C575.887 818.963 575.717 817.558 575.235 816.247L551.394 816.245Z" fill="#E6E6E6"/>
<path d="M644.412 263.133L635.839 271.707L707.644 343.512L716.217 334.938L644.412 263.133Z" fill="white"/>
<path d="M716.217 271.707L707.643 263.133L635.839 334.938L644.412 343.511L716.217 271.707Z" fill="white"/>
<path d="M137.515 691.334C139.615 690.59 141.527 689.396 143.115 687.833C144.704 686.271 145.931 684.379 146.71 682.292C147.488 680.204 147.799 677.971 147.622 675.75C147.444 673.529 146.781 671.374 145.68 669.437L181.397 628.721L153.516 624.875L123.874 664.129C120.742 666.194 118.476 669.336 117.506 672.96C116.536 676.583 116.929 680.437 118.61 683.79C120.292 687.144 123.145 689.764 126.629 691.154C130.113 692.544 133.986 692.608 137.515 691.334Z" fill="#9F616A"/>
<path d="M180.588 1052.18L155.679 1052.17L143.828 956.093L180.593 956.094L180.588 1052.18Z" fill="#9F616A"/>
<path d="M186.941 1076.32L106.621 1076.32V1075.3C106.621 1067.01 109.915 1059.06 115.778 1053.2C121.641 1047.34 129.592 1044.04 137.884 1044.04H137.886L186.943 1044.04L186.941 1076.32Z" fill="#2F2E41"/>
<path d="M310.984 1031.33L287.195 1038.72L247.385 950.469L282.497 939.568L310.984 1031.33Z" fill="#9F616A"/>
<path d="M324.213 1052.51L247.504 1076.32L247.203 1075.35C244.744 1067.43 245.532 1058.86 249.393 1051.53C253.253 1044.19 259.87 1038.68 267.789 1036.22L267.791 1036.22L314.642 1021.68L324.213 1052.51Z" fill="#2F2E41"/>
<path d="M161.513 609.198L124.62 651.45L153.502 654.049L161.513 609.198Z" fill="#E6E6E6"/>
<path d="M147.097 663.66C147.097 663.66 134.283 670.066 132.681 698.9C131.079 727.733 137.487 803.024 137.487 803.024C137.487 803.024 131.08 836.662 137.487 867.096C143.893 897.53 131.08 1008.05 139.089 1008.05C147.097 1008.05 188.744 1012.86 190.346 1008.05C191.948 1003.24 193.55 931.163 193.55 931.163C193.55 931.163 206.365 894.321 193.55 871.902C193.55 871.902 238.293 950.03 267.233 1009.66C273.566 1022.71 321.694 1008.05 313.685 993.637C305.677 979.221 286.455 913.547 286.455 913.547C286.455 913.547 272.039 865.492 246.411 844.669L259.226 742.153C259.226 742.153 286.457 673.275 270.441 663.664C254.425 654.054 147.097 663.66 147.097 663.66Z" fill="#2F2E41"/>
<path d="M195.15 402.563C218.151 402.563 236.797 383.917 236.797 360.916C236.797 337.915 218.151 319.27 195.15 319.27C172.15 319.27 153.504 337.915 153.504 360.916C153.504 383.917 172.15 402.563 195.15 402.563Z" fill="#A0616A"/>
<path d="M241.603 405.767L189.829 436.201C189.829 436.201 170.005 447.365 162.599 466.634C154.706 487.171 159.294 516.087 162.599 522.698C169.006 535.512 159.912 567.548 159.912 567.548L151.903 641.231C151.903 641.231 123.072 668.461 145.497 671.665C167.922 674.869 207.967 670.063 231.994 671.665C256.021 673.267 283.251 676.471 275.243 660.449C267.234 644.427 257.623 633.218 267.234 601.188C274.755 576.119 274.429 482.388 273.932 442.804C273.863 437.368 272.405 432.04 269.696 427.327C266.988 422.614 263.118 418.672 258.456 415.876L241.603 405.767Z" fill="#F1C21B"/>
<path opacity="0.1" d="M218.384 456.226L223.188 553.935L176.619 648.243L168.721 645.237L216.776 557.138L218.384 456.226Z" fill="black"/>
<path opacity="0.1" d="M271.237 574.757V563.541L216.782 653.245L271.237 574.757Z" fill="black"/>
<path d="M165.593 322.336L158.713 319.584C158.713 319.584 173.112 303.735 193.138 305.113L187.504 298.911C187.504 298.911 201.274 293.398 213.793 307.868C220.374 315.475 227.987 324.417 232.738 334.489H240.112L237.035 341.265L247.805 348.042L236.75 346.829C237.797 352.679 237.439 358.694 235.704 364.379L236.008 369.735C236.008 369.735 223.187 349.897 223.187 347.144V354.036C223.187 354.036 216.301 347.834 216.301 343.699L212.546 348.523L210.668 340.945L187.509 348.523L191.261 342.318L176.863 344.386L182.497 336.808C182.497 336.808 166.223 345.765 165.597 353.346C164.971 360.927 156.835 370.573 156.835 370.573L153.08 363.681C153.08 363.681 147.448 332.673 165.593 322.336Z" fill="#2F2E41"/>
<path d="M192.537 695.866C194.472 694.762 196.142 693.247 197.428 691.427C198.714 689.608 199.585 687.529 199.981 685.336C200.377 683.143 200.287 680.89 199.717 678.736C199.148 676.582 198.114 674.579 196.686 672.868L224.608 626.459L196.488 627.623L174.284 671.515C171.568 674.103 169.896 677.597 169.585 681.335C169.274 685.074 170.344 688.796 172.594 691.798C174.844 694.8 178.117 696.872 181.793 697.622C185.468 698.371 189.291 697.747 192.537 695.866Z" fill="#9F616A"/>
<path d="M256.021 426.594L268.034 424.191C268.034 424.191 304.075 450.621 292.862 503.48C281.649 556.34 231.994 636.43 231.994 636.43C231.994 636.43 220.778 650.847 217.577 654.049C214.376 657.252 207.967 654.049 211.171 658.856C214.375 663.662 206.365 666.864 206.365 666.864C206.365 666.864 171.125 666.864 174.329 654.049C177.533 641.235 231.994 549.925 231.994 549.925L223.985 465.03C223.985 465.03 217.576 423.39 256.021 426.594Z" fill="#F1C21B"/>
</g>
<defs>
<clipPath id="clip0_368_2190">
<rect width="1125.23" height="1080" fill="white" transform="translate(0.714355)"/>
</clipPath>
</defs>
</svg>
