<svg width="2102" height="2975" viewBox="0 0 2102 2975" fill="none" xmlns="http://www.w3.org/2000/svg">
<path opacity="0.5" d="M835.109 2089.16C857.866 2084.55 881.172 2083.29 904.293 2085.4C906.434 2085.38 908.482 2084.53 909.996 2083.01C911.509 2081.5 912.367 2079.45 912.383 2077.31C912.34 2075.18 911.473 2073.15 909.966 2071.64C908.458 2070.13 906.425 2069.26 904.293 2069.22C879.718 2067.09 854.963 2068.55 830.808 2073.55C828.741 2074.13 826.986 2075.5 825.928 2077.36C824.87 2079.23 824.596 2081.44 825.166 2083.5C825.736 2085.57 827.103 2087.33 828.968 2088.39C830.832 2089.45 833.041 2089.72 835.109 2089.16Z" fill="#CCCCCC"/>
<path d="M279.723 1948.43C235.234 1889.25 209.52 1823.08 208.678 1747.64C207.244 1743.57 207.482 1739.1 209.339 1735.21C211.196 1731.32 214.52 1728.33 218.583 1726.88L370.224 1673.23C374.289 1671.8 378.757 1672.03 382.648 1673.89C386.538 1675.75 389.533 1679.07 390.976 1683.13L462.021 1883.92C463.454 1887.99 463.217 1892.46 461.36 1896.35C459.503 1900.24 456.179 1903.23 452.116 1904.68L300.475 1958.33C296.409 1959.76 291.941 1959.53 288.051 1957.67C284.16 1955.81 281.165 1952.49 279.723 1948.43Z" fill="#E5E0DF"/>
<path opacity="0.2" d="M313.958 1944.85C309.893 1946.28 305.425 1946.04 301.534 1944.19C297.644 1942.33 294.649 1939.01 293.206 1934.94C248.717 1875.77 223.004 1809.59 222.161 1734.15C221.233 1731.48 221.028 1728.61 221.567 1725.83L218.583 1726.88C214.52 1728.33 211.196 1731.32 209.339 1735.21C207.482 1739.1 207.244 1743.57 208.677 1747.64C209.52 1823.08 235.234 1889.25 279.723 1948.43C281.165 1952.49 284.16 1955.81 288.051 1957.67C291.941 1959.53 296.409 1959.76 300.475 1958.33L452.116 1904.68C454.806 1903.71 457.194 1902.06 459.038 1899.88C460.882 1897.69 462.116 1895.06 462.615 1892.25L313.958 1944.85Z" fill="black"/>
<path d="M385.001 1794.56L283.483 1830.8C281.868 1831.37 280.09 1831.28 278.539 1830.55C276.989 1829.82 275.795 1828.5 275.218 1826.88C274.641 1825.26 274.73 1823.49 275.465 1821.94C276.199 1820.39 277.519 1819.19 279.135 1818.62L380.653 1782.38C382.267 1781.81 384.042 1781.9 385.588 1782.63C387.135 1783.37 388.327 1784.69 388.902 1786.3C389.478 1787.91 389.391 1789.69 388.659 1791.24C387.928 1792.79 386.613 1793.98 385.001 1794.56Z" fill="white"/>
<path d="M293.894 1789.42L271.56 1797.39C270.76 1797.68 269.912 1797.81 269.063 1797.77C268.214 1797.73 267.381 1797.53 266.611 1797.17C265.842 1796.81 265.151 1796.3 264.578 1795.67C264.006 1795.04 263.563 1794.3 263.274 1793.51C262.986 1792.71 262.858 1791.86 262.898 1791.01C262.938 1790.16 263.145 1789.33 263.507 1788.56C263.869 1787.79 264.379 1787.1 265.008 1786.53C265.637 1785.95 266.373 1785.51 267.173 1785.22L267.211 1785.21L289.545 1777.24C291.159 1776.67 292.934 1776.76 294.479 1777.5C296.025 1778.23 297.216 1779.55 297.792 1781.16C298.367 1782.77 298.28 1784.55 297.549 1786.1C296.819 1787.65 295.504 1788.84 293.894 1789.42Z" fill="white"/>
<path d="M404.118 1848.12L302.6 1884.35C300.986 1884.92 299.212 1884.83 297.666 1884.1C296.12 1883.36 294.929 1882.04 294.353 1880.43C293.778 1878.82 293.865 1877.04 294.596 1875.49C295.327 1873.95 296.641 1872.75 298.252 1872.17L399.77 1835.93C401.383 1835.35 403.16 1835.44 404.71 1836.17C406.261 1836.9 407.458 1838.22 408.04 1839.83C408.621 1841.44 408.538 1843.22 407.81 1844.77C407.082 1846.32 405.768 1847.52 404.157 1848.1L404.118 1848.12Z" fill="white"/>
<path d="M394.56 1821.34L293.042 1857.58C291.427 1858.15 289.649 1858.07 288.098 1857.33C286.547 1856.6 285.35 1855.28 284.772 1853.67C284.193 1852.05 284.28 1850.28 285.012 1848.72C285.745 1847.17 287.064 1845.98 288.679 1845.4L288.693 1845.39L390.211 1809.16C391.825 1808.58 393.6 1808.68 395.147 1809.41C396.693 1810.15 397.885 1811.47 398.461 1813.08C399.036 1814.69 398.949 1816.47 398.218 1818.02C397.486 1819.56 396.171 1820.76 394.56 1821.34Z" fill="white"/>
<path d="M290.366 1728.96C305.259 1728.96 317.333 1716.89 317.333 1701.99C317.333 1687.1 305.259 1675.03 290.366 1675.03C275.473 1675.03 263.399 1687.1 263.399 1701.99C263.399 1716.89 275.473 1728.96 290.366 1728.96Z" fill="#CCCCCC"/>
<path d="M1277.35 537.242C1277.78 576.722 1290.35 658.917 1281.34 697.587L1279.89 694.351C1272.4 700.286 1264.45 705.607 1256.1 710.261C1250.08 695.623 1241.08 682.398 1229.67 671.429C1231.18 689.577 1229.03 707.842 1223.36 725.147C1189.66 737.282 1130.49 699.043 1093.82 698.234C1034.81 696.886 977.319 682.216 920.958 666.683C900.949 661.182 878.944 654.009 869.883 637.397C860.822 620.786 877.038 602.855 875.977 584.111C868.42 450.594 932.015 428.214 992.528 392.538C1005.84 384.687 1012.38 367.783 1027.42 361.203C1048.3 352.088 1073.16 356.457 1095.87 361.041C1090.23 359.183 1085.16 355.905 1081.15 351.522C1077.15 347.139 1074.34 341.799 1073 336.016C1072.05 330.347 1072.69 324.527 1074.84 319.198C1076.99 313.868 1080.57 309.236 1085.19 305.813C1097.7 296.159 1116.36 294.972 1132.32 299.071C1147.75 303.894 1162.34 311.061 1175.58 320.321C1184.57 325.253 1192.61 331.756 1199.31 339.522C1202.47 343.196 1204.43 347.747 1204.93 352.566C1205.43 357.385 1204.45 362.242 1202.11 366.488C1199.24 370.128 1195.57 373.071 1191.4 375.097C1187.22 377.124 1182.65 378.181 1178.01 378.192C1170.86 378.4 1163.71 377.656 1156.76 375.981C1188.63 383.844 1217.36 401.226 1239.11 425.815C1266.13 457.259 1276.87 497.763 1277.35 537.242Z" fill="#2F2E41"/>
<path d="M334.594 917.716C340.078 929.356 349.888 938.396 361.936 942.914C373.984 947.431 387.32 947.069 399.105 941.905C401.484 940.817 403.769 939.535 405.936 938.07L544.81 1040.1L621.377 987.851L416.025 868.647C409.257 860.13 399.859 854.093 389.299 851.479C378.739 848.864 367.611 849.819 357.65 854.194C352.006 856.738 346.919 860.369 342.679 864.879C338.438 869.389 335.127 874.69 332.935 880.48C330.744 886.269 329.714 892.434 329.904 898.622C330.095 904.809 331.502 910.899 334.046 916.543C334.223 916.936 334.406 917.327 334.594 917.716Z" fill="#FFB6B6"/>
<path d="M1765.94 825.119C1753.17 826.71 1741.52 833.22 1733.48 843.265C1725.44 853.31 1721.64 866.097 1722.88 878.904C1723.17 881.503 1723.68 884.073 1724.4 886.589L1584.23 986.832L1610.07 1075.85L1787.24 917.773C1797.44 913.99 1806.1 906.937 1811.87 897.714C1817.64 888.491 1820.19 877.618 1819.13 866.791C1818.47 860.635 1816.6 854.671 1813.64 849.238C1810.67 843.805 1806.66 839.009 1801.84 835.125C1797.02 831.241 1791.48 828.344 1785.54 826.601C1779.6 824.857 1773.38 824.3 1767.22 824.962C1766.79 825.009 1766.36 825.061 1765.94 825.119Z" fill="#FFB6B6"/>
<path d="M749.489 2879.53L704.347 2879.15L684.37 2700.98L750.989 2701.54L749.489 2879.53Z" fill="#FFB6B6"/>
<path d="M604.902 2951.31C604.862 2956.66 606.946 2961.81 610.697 2965.62C614.448 2969.44 619.56 2971.61 624.911 2971.66L714.657 2972.41L730.368 2940.57L736.139 2972.58L770.002 2972.88L761.451 2858.72L749.669 2857.93L701.615 2854.62L686.111 2853.58L685.839 2885.88L613.746 2934.78C611.045 2936.62 608.83 2939.08 607.289 2941.96C605.749 2944.83 604.93 2948.04 604.902 2951.31Z" fill="#2F2E41"/>
<path d="M1344.51 2679.56L1307.65 2705.62L1187.34 2572.71L1241.73 2534.23L1344.51 2679.56Z" fill="#FFB6B6"/>
<path d="M1269.11 2822.29C1272.2 2826.65 1276.9 2829.61 1282.18 2830.52C1287.45 2831.42 1292.87 2830.2 1297.24 2827.12L1370.51 2775.29L1364.65 2740.26L1388.04 2762.87L1415.7 2743.33L1342.06 2655.68L1332.04 2661.92L1291.1 2687.31L1277.92 2695.53L1296.57 2721.9L1266.63 2803.71C1265.51 2806.78 1265.15 2810.07 1265.58 2813.3C1266.01 2816.54 1267.22 2819.62 1269.11 2822.29Z" fill="#2F2E41"/>
<path d="M783.343 1435.03L914.461 1130.55H1216.47L1129.36 1448.32L783.343 1435.03Z" fill="#FFB6B6"/>
<path d="M506.112 2880.89C503.605 2881.01 501.124 2880.35 499.003 2879.01C496.883 2877.67 495.226 2875.7 494.258 2873.39C493.29 2871.07 493.057 2868.52 493.591 2866.06C494.125 2863.61 495.399 2861.38 497.242 2859.68L498.081 2856.35C497.97 2856.08 497.859 2855.81 497.747 2855.55C495.222 2849.58 490.99 2844.49 485.583 2840.93C480.176 2837.36 473.836 2835.47 467.358 2835.49C460.88 2835.52 454.554 2837.45 449.174 2841.06C443.793 2844.67 439.599 2849.79 437.118 2855.77C427.202 2879.65 414.577 2903.58 411.469 2928.83C410.099 2939.99 410.677 2951.31 413.176 2962.27C389.885 2911.47 377.791 2856.25 377.713 2800.36C377.709 2786.33 378.488 2772.32 380.047 2758.38C381.336 2746.96 383.125 2735.61 385.412 2724.35C397.896 2663.23 424.697 2605.95 463.617 2557.21C482.454 2546.93 497.688 2531.13 507.265 2511.92C510.735 2505.02 513.187 2497.65 514.546 2490.05C512.421 2490.33 506.534 2457.96 508.136 2455.98C505.175 2451.48 499.875 2449.25 496.641 2444.87C480.556 2423.06 458.395 2426.87 446.826 2456.5C422.113 2468.97 421.874 2489.66 437.037 2509.55C446.685 2522.21 448.011 2539.34 456.476 2552.89C455.605 2554 454.699 2555.08 453.828 2556.2C437.908 2576.67 424.033 2598.65 412.402 2621.83C415.23 2595.86 411.854 2569.6 402.551 2545.19C393.122 2522.44 375.45 2503.29 359.887 2483.63C355.771 2478.34 350.181 2474.4 343.824 2472.29C337.468 2470.19 330.629 2470.01 324.173 2471.79C317.717 2473.57 311.934 2477.23 307.555 2482.29C303.175 2487.36 300.396 2493.61 299.568 2500.25C299.536 2500.54 299.505 2500.83 299.474 2501.12C301.786 2502.43 304.049 2503.81 306.263 2505.28C309.044 2507.13 311.199 2509.79 312.446 2512.89C313.692 2516 313.972 2519.41 313.248 2522.67C312.525 2525.94 310.832 2528.91 308.391 2531.2C305.95 2533.48 302.875 2534.98 299.569 2535.49L299.231 2535.54C300.054 2543.87 301.51 2552.13 303.585 2560.24C283.62 2637.45 326.723 2665.57 388.269 2666.83C389.627 2667.53 390.951 2668.23 392.31 2668.89C380.623 2702.01 373.293 2736.5 370.503 2771.51C368.923 2792.17 369.017 2812.92 370.782 2833.55L370.677 2832.82C366.218 2809.87 353.975 2789.17 336.016 2774.2C309.343 2752.28 271.658 2744.22 242.882 2726.6C239.824 2724.64 236.268 2723.59 232.634 2723.58C228.999 2723.57 225.438 2724.6 222.371 2726.55C219.303 2728.5 216.856 2731.29 215.32 2734.58C213.783 2737.87 213.22 2741.54 213.697 2745.14L213.815 2745.91C218.105 2747.66 222.281 2749.67 226.321 2751.94C228.632 2753.24 230.895 2754.62 233.109 2756.09C235.89 2757.95 238.045 2760.6 239.292 2763.71C240.538 2766.81 240.818 2770.22 240.095 2773.48C239.371 2776.75 237.678 2779.72 235.237 2782.01C232.796 2784.3 229.721 2785.79 226.415 2786.3L226.077 2786.35C225.833 2786.39 225.623 2786.42 225.38 2786.46C232.71 2803.96 242.997 2820.07 255.791 2834.08C268.275 2901.48 321.892 2907.87 379.246 2888.25H379.281C385.574 2915.59 394.691 2942.21 406.487 2967.67H503.677C504.025 2966.59 504.339 2965.47 504.652 2964.39C495.656 2964.96 486.625 2964.42 477.759 2962.79C484.97 2953.94 492.181 2945.03 499.392 2936.18C499.553 2936.01 499.704 2935.84 499.845 2935.66C503.503 2931.13 507.195 2926.63 510.853 2922.11L510.855 2922.1C511.05 2908.22 509.454 2894.37 506.112 2880.89Z" fill="#24A148"/>
<path d="M1557.8 2880.89C1560.3 2881.01 1562.78 2880.35 1564.9 2879.01C1567.03 2877.67 1568.68 2875.7 1569.65 2873.39C1570.62 2871.07 1570.85 2868.52 1570.32 2866.06C1569.78 2863.61 1568.51 2861.38 1566.67 2859.68L1565.83 2856.35C1565.94 2856.08 1566.05 2855.81 1566.16 2855.55C1568.69 2849.58 1572.92 2844.49 1578.32 2840.93C1583.73 2837.36 1590.07 2835.47 1596.55 2835.49C1603.03 2835.52 1609.35 2837.45 1614.73 2841.06C1620.11 2844.67 1624.31 2849.79 1626.79 2855.77C1636.71 2879.65 1649.33 2903.58 1652.44 2928.83C1653.81 2939.99 1653.23 2951.31 1650.73 2962.27C1674.02 2911.47 1686.12 2856.25 1686.19 2800.36C1686.2 2786.33 1685.42 2772.32 1683.86 2758.38C1682.57 2746.96 1680.78 2735.61 1678.5 2724.35C1666.01 2663.23 1639.21 2605.95 1600.29 2557.21C1581.45 2546.93 1566.22 2531.13 1556.64 2511.92C1553.17 2505.02 1550.72 2497.65 1549.36 2490.05C1551.49 2490.33 1557.37 2457.96 1555.77 2455.98C1558.73 2451.48 1564.03 2449.25 1567.27 2444.87C1583.35 2423.06 1605.51 2426.87 1617.08 2456.5C1641.8 2468.97 1642.03 2489.66 1626.87 2509.55C1617.22 2522.21 1615.9 2539.34 1607.43 2552.89C1608.3 2554 1609.21 2555.08 1610.08 2556.2C1626 2576.67 1639.87 2598.65 1651.51 2621.83C1648.68 2595.86 1652.05 2569.6 1661.36 2545.19C1670.78 2522.45 1688.46 2503.29 1704.02 2483.63C1708.14 2478.34 1713.73 2474.4 1720.08 2472.29C1726.44 2470.19 1733.28 2470.01 1739.73 2471.79C1746.19 2473.57 1751.97 2477.23 1756.35 2482.29C1760.73 2487.36 1763.51 2493.61 1764.34 2500.26C1764.37 2500.55 1764.4 2500.83 1764.43 2501.12C1762.12 2502.43 1759.86 2503.81 1757.64 2505.28C1754.86 2507.14 1752.71 2509.79 1751.46 2512.89C1750.22 2516 1749.94 2519.41 1750.66 2522.67C1751.38 2525.94 1753.08 2528.91 1755.52 2531.2C1757.96 2533.48 1761.03 2534.98 1764.34 2535.49L1764.68 2535.54C1763.85 2543.87 1762.4 2552.13 1760.32 2560.24C1780.29 2637.45 1737.18 2665.57 1675.64 2666.83C1674.28 2667.53 1672.96 2668.23 1671.6 2668.89C1683.28 2702.01 1690.61 2736.51 1693.4 2771.51C1694.98 2792.17 1694.89 2812.92 1693.13 2833.55L1693.23 2832.82C1697.69 2809.87 1709.93 2789.16 1727.89 2774.2C1754.56 2752.28 1792.25 2744.22 1821.03 2726.6C1824.08 2724.64 1827.64 2723.59 1831.27 2723.58C1834.91 2723.57 1838.47 2724.6 1841.54 2726.55C1844.6 2728.5 1847.05 2731.29 1848.59 2734.58C1850.12 2737.87 1850.69 2741.54 1850.21 2745.14L1850.09 2745.91C1845.8 2747.66 1841.63 2749.67 1837.59 2751.94C1835.28 2753.24 1833.01 2754.62 1830.8 2756.09C1828.02 2757.95 1825.86 2760.6 1824.62 2763.71C1823.37 2766.81 1823.09 2770.22 1823.81 2773.48C1824.54 2776.75 1826.23 2779.72 1828.67 2782.01C1831.11 2784.29 1834.19 2785.79 1837.49 2786.3L1837.83 2786.35C1838.07 2786.39 1838.28 2786.42 1838.53 2786.46C1831.2 2803.96 1820.91 2820.07 1808.12 2834.08C1795.63 2901.48 1742.01 2907.87 1684.66 2888.25H1684.63C1678.33 2915.59 1669.22 2942.21 1657.42 2967.67H1560.23C1559.88 2966.59 1559.57 2965.47 1559.25 2964.39C1568.25 2964.96 1577.28 2964.42 1586.15 2962.79C1578.94 2953.94 1571.73 2945.03 1564.52 2936.18C1564.35 2936.01 1564.2 2935.84 1564.06 2935.66C1560.4 2931.13 1556.71 2926.63 1553.05 2922.11L1553.05 2922.1C1552.86 2908.22 1554.45 2894.37 1557.8 2880.89Z" fill="#24A148"/>
<path d="M783.346 1412.17L653.167 1683.73L662.458 2765.95H773.958C773.958 2765.95 795.638 2736.71 795.638 2716.23C795.638 2695.74 758.762 2692.77 783.346 2667.62C807.93 2642.48 816.125 2634.28 816.125 2609.7V2216.39L904.04 1835.12L894.749 2254.05L1210.66 2631.09L1284.26 2557.5C1284.26 2557.5 1305.78 2548.01 1284.26 2527.64C1262.74 2507.26 1249.31 2543.25 1247.83 2486.33C1246.35 2429.41 1258.64 2441.71 1246.35 2429.41C1234.05 2417.12 1062 2211.73 1062 2211.73C1062 2211.73 1217.66 1548.48 1139.81 1421.47L783.346 1412.17Z" fill="#2F2E41"/>
<path d="M1148.01 1441.95C1148.01 1441.95 812.027 1323.13 836.611 1257.57C861.195 1192.01 902.491 1204.63 853.162 1183.98C803.833 1163.33 771.15 1159.24 801.832 1130.55C832.514 1101.87 877.584 1073.19 877.584 1044.51C877.584 1015.83 914.461 790.475 914.461 790.475H973.494L1033.28 688.041H1117.75L1160.3 782.28H1250.15L1254.54 925.687C1254.54 925.687 1260.35 1202.73 1232.86 1213.76C1205.37 1224.79 1180.79 1224.79 1205.37 1249.38C1229.96 1273.96 1243.96 1286.67 1232.86 1309C1221.76 1331.32 1148.01 1441.95 1148.01 1441.95Z" fill="#F1C21B"/>
<path d="M1197.18 823.254L1250.15 782.28C1250.15 782.28 1340.58 782.28 1352.88 831.448C1365.17 880.616 1439.15 1000.86 1439.15 1000.86C1439.15 1000.86 1512.67 958.466 1541.36 958.466C1570.04 958.466 1590.52 978.953 1590.52 954.369C1590.52 929.785 1574.13 925.687 1598.72 925.687C1623.3 925.687 1688.86 901.103 1688.86 901.103L1758.79 971.032C1758.79 971.032 1750.32 1036.32 1721.64 1032.22C1692.96 1028.12 1676.57 1007.63 1676.57 1032.22C1676.57 1056.8 1692.96 1093.68 1656.08 1097.78C1619.2 1101.87 1373.36 1163.33 1373.36 1163.33L1205.37 917.492L1197.18 823.254Z" fill="#F1C21B"/>
<path d="M984.115 823.254L931.14 782.28C931.14 782.28 840.708 782.28 828.416 831.448C816.124 880.616 738.015 1000.86 738.015 1000.86C738.015 1000.86 668.62 958.466 639.938 958.466C611.257 958.466 590.77 978.953 590.77 954.369C590.77 929.785 607.16 925.687 582.576 925.687C557.991 925.687 492.434 901.103 492.434 901.103L422.505 971.032C422.505 971.032 430.974 1036.32 459.655 1032.22C488.337 1028.12 504.726 1007.63 504.726 1032.22C504.726 1056.8 488.337 1093.68 525.213 1097.78C562.089 1101.87 807.929 1163.33 807.929 1163.33L975.921 917.492L984.115 823.254Z" fill="#F1C21B"/>
<path d="M1065.69 665.788C1137.91 665.788 1196.45 607.246 1196.45 535.031C1196.45 462.815 1137.91 404.273 1065.69 404.273C993.479 404.273 934.937 462.815 934.937 535.031C934.937 607.246 993.479 665.788 1065.69 665.788Z" fill="#FFB6B6"/>
<path d="M1208.37 515.291C1193 533.899 1170.13 532.928 1149.8 529.961C1143.38 529.044 1136.96 528.02 1130.55 526.833C1129.41 523.22 1128.12 519.606 1126.66 516.1C1120.64 501.462 1111.64 488.237 1100.23 477.268C1101.44 491.609 1100.33 506.049 1096.94 520.038C1085.03 517.287 1073.16 514.213 1061.35 510.815C1050.9 509.116 1041.5 503.467 1035.1 495.035C1028.69 486.603 1025.77 476.034 1026.94 465.511C1009.95 478.455 991.45 489.673 972.034 489.889C961.09 489.604 950.524 485.822 941.886 479.096C933.248 472.37 926.991 463.053 924.033 452.513C918.748 436.332 919.557 417.671 921.714 400.197C924.303 379.432 930.128 356.618 944.15 348.259C955.423 341.463 968.421 346.317 980.016 351.818C1005.56 364.079 1029.78 378.935 1052.29 396.152L1052.56 401.815C1058.38 373.931 1077.64 352.412 1098.62 350.254C1112.75 348.852 1126.55 355.378 1139.88 361.958C1157.29 369.639 1173.48 379.833 1187.93 392.215C1204.26 407.067 1215.6 426.601 1220.4 448.144C1225.41 471.497 1221.64 499.219 1208.37 515.291Z" fill="#2F2E41"/>
<path d="M1078.93 333.826C1080.27 333.939 1076.98 333.183 1078.05 333.633C1077.53 333.393 1077.02 333.111 1076.54 332.789C1076.46 332.737 1075.4 331.878 1076.09 332.476C1074.49 331.23 1073.29 329.549 1072.62 327.634C1071.14 322.981 1070.45 318.11 1070.58 313.227C1070.85 306.81 1069.75 300.409 1067.37 294.444C1066.66 292.829 1065.58 291.403 1064.22 290.282C1062.86 289.161 1061.26 288.377 1059.54 287.994C1057.82 287.61 1056.03 287.637 1054.32 288.074C1052.61 288.51 1051.03 289.343 1049.71 290.505C1045.29 294.833 1044.94 302.144 1044.63 307.959C1044.29 313.996 1044.93 320.048 1046.52 325.881C1049.26 335.473 1054.73 344.061 1062.26 350.599C1070.96 358.218 1081.88 362.829 1093.41 363.75C1094.99 363.714 1096.53 363.219 1097.84 362.324C1099.15 361.429 1100.17 360.173 1100.77 358.709C1101.38 357.246 1101.55 355.637 1101.26 354.08C1100.96 352.523 1100.23 351.084 1099.13 349.939L1084.65 336.196C1083.14 334.679 1081.08 333.826 1078.93 333.826C1076.79 333.826 1074.73 334.679 1073.21 336.196C1071.7 337.713 1070.84 339.771 1070.84 341.916C1070.84 344.062 1071.7 346.12 1073.21 347.637L1087.69 361.38L1093.41 347.569C1091.02 347.354 1088.66 346.873 1086.38 346.133C1083.91 345.446 1081.54 344.41 1079.36 343.056C1077.22 341.884 1075.22 340.483 1073.38 338.877C1072.21 337.845 1071.09 336.754 1070.02 335.608C1069.64 335.192 1069.26 334.768 1068.89 334.337C1068.91 334.369 1067.36 332.423 1068.03 333.313C1066.36 331.024 1064.9 328.584 1063.68 326.024C1063.25 325.118 1062.89 324.178 1062.62 323.214C1062.11 321.627 1061.69 320.012 1061.36 318.377C1060.75 314.941 1060.56 311.441 1060.81 307.959C1060.88 306.483 1061.03 305.011 1061.25 303.549C1061.45 302.779 1061.61 301.995 1061.7 301.204C1061.73 299.24 1061.43 302.253 1060.41 302.71L1056.33 303.815C1055.66 303.761 1055.02 303.557 1054.44 303.22C1053.87 302.883 1053.37 302.421 1053 301.867C1052.83 301.192 1052.88 301.312 1053.14 302.227C1053.45 303.3 1053.69 304.393 1053.86 305.496C1054.17 308.063 1054.35 310.643 1054.4 313.228C1054.45 318.703 1055.09 324.157 1056.3 329.498C1057.43 334.864 1060.23 339.736 1064.29 343.419C1068.36 347.102 1073.48 349.407 1078.93 350.007C1081.07 349.99 1083.12 349.132 1084.64 347.618C1086.15 346.105 1087.01 344.057 1087.02 341.917C1086.98 339.784 1086.12 337.751 1084.61 336.243C1083.1 334.735 1081.07 333.869 1078.93 333.826Z" fill="#2F2E41"/>
<path d="M1746.72 858.966C1702.23 799.791 1676.52 733.619 1675.67 658.176C1674.24 654.11 1674.48 649.642 1676.33 645.752C1678.19 641.861 1681.52 638.866 1685.58 637.424L1837.22 583.769C1841.29 582.336 1845.75 582.573 1849.64 584.43C1853.53 586.287 1856.53 589.612 1857.97 593.674L1929.02 794.464C1930.45 798.53 1930.21 802.998 1928.36 806.888C1926.5 810.779 1923.17 813.774 1919.11 815.216L1767.47 868.871C1763.4 870.305 1758.94 870.067 1755.05 868.21C1751.16 866.353 1748.16 863.029 1746.72 858.966Z" fill="#24A148"/>
<path opacity="0.2" d="M1780.95 855.388C1776.89 856.821 1772.42 856.583 1768.53 854.726C1764.64 852.87 1761.64 849.545 1760.2 845.483C1715.71 786.308 1690 720.135 1689.16 644.693C1688.23 642.019 1688.02 639.147 1688.56 636.368L1685.58 637.424C1681.52 638.866 1678.19 641.861 1676.34 645.752C1674.48 649.642 1674.24 654.11 1675.67 658.176C1676.52 733.618 1702.23 799.791 1746.72 858.966C1748.16 863.029 1751.16 866.353 1755.05 868.21C1758.94 870.067 1763.41 870.305 1767.47 868.871L1919.11 815.217C1921.8 814.255 1924.19 812.598 1926.03 810.416C1927.88 808.233 1929.11 805.602 1929.61 802.789L1780.95 855.388Z" fill="black"/>
<path d="M1852 705.1L1750.48 741.337C1748.86 741.914 1747.09 741.825 1745.54 741.09C1743.99 740.356 1742.79 739.036 1742.21 737.42C1741.64 735.805 1741.73 734.026 1742.46 732.476C1743.19 730.926 1744.51 729.732 1746.13 729.155L1847.65 692.918C1848.45 692.633 1849.3 692.507 1850.14 692.55C1850.99 692.592 1851.82 692.801 1852.59 693.165C1853.36 693.528 1854.05 694.04 1854.62 694.669C1855.19 695.299 1855.63 696.035 1855.91 696.835C1856.2 697.635 1856.32 698.483 1856.28 699.331C1856.24 700.18 1856.03 701.011 1855.67 701.779C1855.3 702.546 1854.79 703.235 1854.16 703.805C1853.53 704.374 1852.8 704.815 1852 705.1Z" fill="white"/>
<path d="M1760.89 699.961L1738.56 707.933C1737.76 708.22 1736.91 708.346 1736.06 708.304C1735.21 708.263 1734.38 708.055 1733.61 707.692C1732.84 707.33 1732.15 706.819 1731.58 706.19C1731.01 705.561 1730.57 704.826 1730.29 704.026C1730 703.227 1729.87 702.378 1729.91 701.53C1729.96 700.682 1730.16 699.85 1730.53 699.082C1730.89 698.314 1731.4 697.625 1732.03 697.054C1732.66 696.484 1733.39 696.043 1734.19 695.756L1734.21 695.751L1756.54 687.779C1758.16 687.204 1759.93 687.294 1761.48 688.029C1763.03 688.764 1764.22 690.084 1764.8 691.698C1765.38 693.312 1765.29 695.089 1764.55 696.639C1763.82 698.188 1762.5 699.383 1760.89 699.961Z" fill="white"/>
<path d="M1871.11 758.656L1769.6 794.893C1767.98 795.472 1766.2 795.385 1764.65 794.652C1763.1 793.92 1761.9 792.601 1761.33 790.986C1760.75 789.371 1760.83 787.593 1761.57 786.042C1762.3 784.491 1763.62 783.295 1765.23 782.716L1765.25 782.711L1866.76 746.474C1868.38 745.9 1870.16 745.99 1871.71 746.724C1873.25 747.459 1874.45 748.779 1875.02 750.393C1875.6 752.008 1875.51 753.785 1874.78 755.334C1874.05 756.883 1872.73 758.078 1871.11 758.656Z" fill="white"/>
<path d="M1861.56 731.878L1760.04 768.115C1759.24 768.402 1758.39 768.528 1757.54 768.486C1756.69 768.445 1755.86 768.237 1755.09 767.875C1754.33 767.512 1753.64 767.001 1753.07 766.372C1752.5 765.743 1752.05 765.008 1751.77 764.208C1751.48 763.409 1751.36 762.56 1751.4 761.712C1751.44 760.864 1751.65 760.032 1752.01 759.264C1752.37 758.496 1752.88 757.807 1753.51 757.236C1754.14 756.666 1754.88 756.225 1755.67 755.938L1755.69 755.933L1857.21 719.696C1858.01 719.41 1858.85 719.283 1859.7 719.325C1860.55 719.366 1861.38 719.574 1862.15 719.937C1862.92 720.3 1863.61 720.81 1864.18 721.439C1864.75 722.068 1865.19 722.804 1865.48 723.603C1865.76 724.403 1865.89 725.251 1865.85 726.099C1865.81 726.947 1865.6 727.779 1865.24 728.547C1864.87 729.315 1864.36 730.004 1863.73 730.575C1863.11 731.146 1862.37 731.587 1861.57 731.873L1861.56 731.878Z" fill="white"/>
<path d="M1757.36 639.501C1772.25 639.501 1784.33 627.427 1784.33 612.534C1784.33 597.641 1772.25 585.567 1757.36 585.567C1742.47 585.567 1730.39 597.641 1730.39 612.534C1730.39 627.427 1742.47 639.501 1757.36 639.501Z" fill="#3F3D56"/>
<path d="M425.749 171.612C452.909 102.741 495.854 46.2096 559.71 6.02613C562.425 2.67772 566.357 0.543122 570.644 0.0905113C574.932 -0.362099 579.223 0.904288 582.578 3.61189L707.632 104.782C710.98 107.497 713.115 111.429 713.568 115.717C714.02 120.004 712.754 124.295 710.046 127.65L576.086 293.236C573.371 296.584 569.438 298.719 565.151 299.172C560.864 299.624 556.572 298.358 553.218 295.65L428.164 194.48C424.815 191.765 422.681 187.832 422.228 183.545C421.775 179.258 423.042 174.967 425.749 171.612Z" fill="#24A148"/>
<path opacity="0.2" d="M446.709 198.918C443.36 196.203 441.226 192.27 440.773 187.983C440.32 183.696 441.587 179.405 444.294 176.05C471.454 107.178 514.399 50.6471 578.255 10.4637C580.049 8.27416 582.389 6.5973 585.039 5.6027L582.578 3.6117C579.223 0.904152 574.932 -0.362319 570.645 0.0902483C566.358 0.542816 562.425 2.67747 559.71 6.02578C495.854 46.2093 452.909 102.74 425.749 171.612C423.042 174.967 421.775 179.258 422.228 183.545C422.681 187.832 424.815 191.765 428.164 194.48L553.218 295.65C555.445 297.439 558.106 298.608 560.931 299.038C563.755 299.468 566.643 299.143 569.302 298.097L446.709 198.918Z" fill="black"/>
<path d="M611.956 180.847L527.968 113.283C526.636 112.206 525.785 110.646 525.603 108.943C525.421 107.24 525.921 105.534 526.994 104.2C528.068 102.866 529.627 102.012 531.329 101.825C533.031 101.638 534.738 102.134 536.075 103.205L620.065 170.768C621.396 171.845 622.246 173.406 622.428 175.108C622.61 176.811 622.11 178.516 621.037 179.85C619.963 181.185 618.405 182.039 616.703 182.225C615.001 182.412 613.293 181.917 611.956 180.847Z" fill="white"/>
<path d="M568.676 100.511L550.198 85.6467C548.869 84.5693 548.02 83.0088 547.839 81.3071C547.658 79.6054 548.158 77.9012 549.231 76.5678C550.303 75.2343 551.861 74.3803 553.562 74.193C555.263 74.0056 556.969 74.5001 558.306 75.568L576.784 90.4321C578.114 91.5092 578.963 93.0699 579.145 94.772C579.327 96.4741 578.827 98.1788 577.754 99.5126C576.681 100.846 575.123 101.7 573.421 101.888C571.72 102.075 570.013 101.58 568.676 100.511Z" fill="white"/>
<path d="M576.314 225.155L492.325 157.592C490.993 156.515 490.142 154.954 489.96 153.252C489.777 151.549 490.278 149.843 491.351 148.509C492.425 147.174 493.984 146.32 495.686 146.133C497.388 145.947 499.095 146.443 500.432 147.513L584.421 215.077C585.751 216.154 586.6 217.715 586.781 219.416C586.962 221.118 586.462 222.822 585.389 224.156C584.316 225.489 582.759 226.343 581.058 226.531C579.357 226.718 577.651 226.223 576.314 225.155Z" fill="white"/>
<path d="M594.135 203.001L510.146 135.438C509.483 134.907 508.93 134.251 508.521 133.507C508.111 132.763 507.852 131.946 507.758 131.102C507.568 129.397 508.064 127.687 509.135 126.347C510.207 125.008 511.767 124.149 513.472 123.96C515.176 123.77 516.887 124.266 518.226 125.337L518.253 125.359L602.242 192.923C603.582 193.994 604.441 195.554 604.63 197.259C604.82 198.964 604.324 200.674 603.252 202.013C602.181 203.353 600.621 204.212 598.916 204.401C597.212 204.59 595.501 204.095 594.162 203.023L594.135 203.001Z" fill="white"/>
<path d="M641.341 78.7364C656.235 78.7364 668.308 66.6629 668.308 51.7696C668.308 36.8762 656.235 24.8027 641.341 24.8027C626.448 24.8027 614.375 36.8762 614.375 51.7696C614.375 66.6629 626.448 78.7364 641.341 78.7364Z" fill="#3F3D56"/>
<path d="M116.423 977.821C50.6178 890.293 12.5836 792.414 11.3372 680.824C9.21709 674.811 9.56892 668.202 12.3155 662.447C15.0622 656.693 19.9793 652.263 25.9881 650.129L250.287 570.766C256.3 568.646 262.909 568.997 268.664 571.744C274.418 574.491 278.848 579.408 280.982 585.417L386.068 882.413C388.188 888.427 387.836 895.036 385.089 900.791C382.343 906.545 377.426 910.975 371.417 913.109L147.118 992.472C141.105 994.592 134.496 994.24 128.741 991.494C122.987 988.747 118.557 983.83 116.423 977.821Z" fill="#24A148"/>
<path opacity="0.2" d="M167.062 972.528C161.048 974.648 154.439 974.296 148.685 971.55C142.93 968.803 138.5 963.886 136.367 957.877C70.5616 870.349 32.5276 772.47 31.2807 660.88C29.9083 656.925 29.6049 652.677 30.4014 648.567L25.9876 650.129C19.9788 652.262 15.0618 656.692 12.3152 662.447C9.56852 668.201 9.21659 674.81 11.3365 680.824C12.583 792.414 50.6169 890.292 116.422 977.821C118.556 983.83 122.986 988.747 128.741 991.493C134.495 994.24 141.104 994.592 147.118 992.472L371.417 913.109C375.396 911.686 378.928 909.236 381.655 906.008C384.383 902.78 386.208 898.888 386.947 894.727L167.062 972.528Z" fill="black"/>
<path d="M272.144 750.232L121.985 803.831C120.801 804.257 119.544 804.446 118.287 804.386C117.03 804.326 115.796 804.019 114.658 803.482C113.52 802.944 112.499 802.188 111.654 801.255C110.809 800.322 110.156 799.232 109.732 798.047C109.309 796.861 109.124 795.604 109.188 794.347C109.252 793.09 109.563 791.858 110.103 790.721C110.644 789.585 111.404 788.566 112.339 787.723C113.274 786.881 114.366 786.231 115.553 785.812L265.712 732.212C266.895 731.79 268.15 731.605 269.405 731.667C270.66 731.73 271.89 732.039 273.025 732.577C274.16 733.115 275.178 733.871 276.021 734.803C276.864 735.734 277.515 736.823 277.938 738.006C278.36 739.189 278.545 740.444 278.483 741.699C278.42 742.953 278.111 744.183 277.573 745.319C277.035 746.454 276.279 747.472 275.347 748.315C274.416 749.158 273.327 749.809 272.144 750.232Z" fill="white"/>
<path d="M137.384 742.63L104.349 754.422C101.961 755.266 99.3365 755.13 97.0498 754.042C94.7631 752.954 93.0008 751.004 92.1495 748.619C91.2982 746.234 91.4273 743.609 92.5083 741.319C93.5894 739.029 95.5343 737.261 97.9167 736.403L130.952 724.611C133.339 723.767 135.964 723.904 138.25 724.991C140.537 726.079 142.299 728.029 143.151 730.414C144.002 732.799 143.873 735.424 142.792 737.714C141.711 740.004 139.766 741.772 137.384 742.63Z" fill="white"/>
<path d="M300.42 829.448L150.261 883.048C147.872 883.901 145.241 883.769 142.948 882.683C140.656 881.596 138.888 879.643 138.036 877.254C137.183 874.864 137.314 872.234 138.4 869.941C139.487 867.649 141.44 865.881 143.829 865.028L293.988 811.429C295.172 811.007 296.426 810.822 297.681 810.884C298.936 810.947 300.166 811.256 301.301 811.794C302.436 812.332 303.455 813.088 304.297 814.02C305.14 814.951 305.792 816.04 306.214 817.223C306.636 818.406 306.821 819.661 306.759 820.915C306.696 822.17 306.387 823.4 305.849 824.535C305.311 825.671 304.555 826.689 303.623 827.532C302.692 828.375 301.604 829.026 300.42 829.448Z" fill="white"/>
<path d="M286.283 789.84L136.124 843.439C134.94 843.862 133.686 844.047 132.431 843.984C131.176 843.922 129.946 843.613 128.811 843.075C127.676 842.537 126.657 841.78 125.814 840.849C124.971 839.917 124.32 838.829 123.898 837.646C123.476 836.463 123.29 835.208 123.353 833.953C123.416 832.698 123.725 831.468 124.263 830.333C124.801 829.198 125.557 828.18 126.488 827.337C127.42 826.494 128.508 825.842 129.692 825.42L279.851 771.821C281.034 771.399 282.289 771.213 283.543 771.276C284.798 771.339 286.028 771.648 287.163 772.186C288.299 772.724 289.317 773.48 290.16 774.411C291.003 775.343 291.654 776.431 292.076 777.615C292.499 778.798 292.684 780.052 292.621 781.307C292.559 782.562 292.249 783.792 291.711 784.927C291.173 786.062 290.417 787.081 289.486 787.924C288.554 788.767 287.466 789.418 286.283 789.84Z" fill="white"/>
<path d="M132.165 653.201C154.194 653.201 172.053 635.343 172.053 613.313C172.053 591.284 154.194 573.426 132.165 573.426C110.136 573.426 92.2773 591.284 92.2773 613.313C92.2773 635.343 110.136 653.201 132.165 653.201Z" fill="#3F3D56"/>
<path d="M1596.58 2420.47C1522.54 2420.09 1454.3 2400.53 1393.72 2355.56C1389.61 2354.24 1386.2 2351.35 1384.22 2347.52C1382.25 2343.69 1381.88 2339.23 1383.19 2335.12L1432.2 2181.92C1433.52 2177.81 1436.41 2174.4 1440.25 2172.42C1444.08 2170.45 1448.54 2170.08 1452.64 2171.39L1655.5 2236.29C1659.61 2237.61 1663.02 2240.5 1665 2244.33C1666.97 2248.16 1667.34 2252.62 1666.03 2256.73L1617.02 2409.93C1615.7 2414.04 1612.81 2417.45 1608.97 2419.43C1605.14 2421.4 1600.68 2421.77 1596.58 2420.47Z" fill="#E5E0DF"/>
<path opacity="0.2" d="M1614.44 2391.04C1613.12 2395.15 1610.23 2398.56 1606.39 2400.53C1602.56 2402.51 1598.1 2402.88 1594 2401.57C1519.96 2401.2 1451.72 2381.64 1391.14 2336.67C1388.45 2335.79 1386.04 2334.22 1384.15 2332.11L1383.19 2335.12C1381.88 2339.23 1382.25 2343.69 1384.22 2347.52C1386.2 2351.35 1389.61 2354.24 1393.72 2355.56C1454.3 2400.53 1522.54 2420.09 1596.58 2420.47C1600.68 2421.77 1605.14 2421.4 1608.97 2419.43C1612.81 2417.45 1615.7 2414.04 1617.02 2409.93L1666.03 2256.73C1666.9 2254.01 1667.02 2251.1 1666.4 2248.31C1665.78 2245.53 1664.43 2242.95 1662.49 2240.85L1614.44 2391.04Z" fill="black"/>
<path d="M1537.75 2243.55L1505.19 2346.31C1504.94 2347.12 1504.53 2347.87 1503.98 2348.53C1503.44 2349.18 1502.77 2349.72 1502.02 2350.12C1501.27 2350.51 1500.44 2350.75 1499.6 2350.83C1498.75 2350.91 1497.9 2350.82 1497.08 2350.56C1496.27 2350.31 1495.52 2349.9 1494.87 2349.35C1494.21 2348.81 1493.68 2348.14 1493.28 2347.39C1492.89 2346.63 1492.65 2345.81 1492.57 2344.96C1492.5 2344.12 1492.59 2343.26 1492.84 2342.45L1492.86 2342.4L1525.42 2239.65C1525.95 2238.02 1527.09 2236.66 1528.61 2235.88C1530.13 2235.1 1531.9 2234.95 1533.53 2235.46C1535.16 2235.98 1536.52 2237.12 1537.31 2238.64C1538.1 2240.15 1538.26 2241.92 1537.75 2243.55Z" fill="white"/>
<path d="M1478.54 2312.99L1471.38 2335.59C1471.13 2336.4 1470.71 2337.16 1470.17 2337.81C1469.63 2338.46 1468.96 2339 1468.21 2339.39C1467.45 2339.79 1466.63 2340.03 1465.79 2340.11C1464.94 2340.18 1464.09 2340.09 1463.28 2339.84C1462.47 2339.59 1461.71 2339.17 1461.06 2338.63C1460.41 2338.09 1459.87 2337.42 1459.48 2336.67C1459.08 2335.91 1458.84 2335.09 1458.76 2334.25C1458.69 2333.4 1458.78 2332.55 1459.03 2331.74L1459.05 2331.69L1466.21 2309.08C1466.46 2308.27 1466.88 2307.52 1467.42 2306.86C1467.96 2306.21 1468.63 2305.67 1469.38 2305.28C1470.14 2304.89 1470.96 2304.64 1471.8 2304.57C1472.65 2304.49 1473.5 2304.58 1474.31 2304.84C1475.12 2305.09 1475.88 2305.5 1476.53 2306.04C1477.18 2306.59 1477.72 2307.26 1478.11 2308.01C1478.51 2308.76 1478.75 2309.58 1478.83 2310.43C1478.9 2311.27 1478.81 2312.13 1478.56 2312.94L1478.54 2312.99Z" fill="white"/>
<path d="M1591.96 2260.73L1559.4 2363.49C1559.15 2364.3 1558.73 2365.05 1558.19 2365.7C1557.65 2366.35 1556.98 2366.89 1556.23 2367.29C1555.47 2367.68 1554.65 2367.92 1553.81 2368C1552.96 2368.08 1552.11 2367.98 1551.3 2367.73C1550.49 2367.48 1549.73 2367.07 1549.08 2366.52C1548.43 2365.98 1547.89 2365.31 1547.5 2364.56C1547.1 2363.81 1546.86 2362.99 1546.78 2362.14C1546.71 2361.29 1546.8 2360.44 1547.05 2359.63L1547.07 2359.58L1579.63 2256.82C1579.88 2256.01 1580.29 2255.26 1580.84 2254.6C1581.38 2253.95 1582.05 2253.41 1582.8 2253.01C1583.55 2252.62 1584.38 2252.38 1585.22 2252.3C1586.07 2252.22 1586.92 2252.31 1587.74 2252.57C1588.55 2252.82 1589.3 2253.23 1589.95 2253.78C1590.61 2254.32 1591.15 2254.99 1591.54 2255.74C1591.93 2256.5 1592.17 2257.32 1592.25 2258.17C1592.32 2259.02 1592.23 2259.87 1591.98 2260.68L1591.96 2260.73Z" fill="white"/>
<path d="M1564.86 2252.14L1532.29 2354.9C1532.04 2355.71 1531.63 2356.46 1531.09 2357.12C1530.54 2357.77 1529.88 2358.31 1529.12 2358.71C1528.37 2359.1 1527.55 2359.34 1526.7 2359.42C1525.85 2359.5 1525 2359.41 1524.19 2359.15C1523.38 2358.9 1522.62 2358.49 1521.97 2357.94C1521.32 2357.4 1520.78 2356.73 1520.39 2355.98C1519.99 2355.22 1519.75 2354.4 1519.68 2353.55C1519.6 2352.71 1519.69 2351.85 1519.95 2351.04L1519.96 2350.99L1552.53 2248.23C1552.78 2247.42 1553.19 2246.67 1553.73 2246.02C1554.28 2245.37 1554.95 2244.83 1555.7 2244.43C1556.45 2244.04 1557.27 2243.8 1558.12 2243.72C1558.96 2243.65 1559.82 2243.74 1560.63 2243.99C1561.44 2244.24 1562.19 2244.65 1562.84 2245.2C1563.5 2245.74 1564.03 2246.41 1564.43 2247.16C1564.82 2247.91 1565.06 2248.74 1565.14 2249.58C1565.22 2250.43 1565.13 2251.28 1564.87 2252.09L1564.86 2252.14Z" fill="white"/>
<path d="M1406.79 2289.87C1421.69 2289.87 1433.76 2277.8 1433.76 2262.91C1433.76 2248.01 1421.69 2235.94 1406.79 2235.94C1391.9 2235.94 1379.83 2248.01 1379.83 2262.91C1379.83 2277.8 1391.9 2289.87 1406.79 2289.87Z" fill="#CCCCCC"/>
<path d="M2000.44 1209.98C2003.07 1199.58 1993.09 1188.08 1978.14 1184.29C1963.2 1180.51 1948.94 1185.87 1946.31 1196.26C1943.67 1206.66 1953.65 1218.16 1968.6 1221.95C1983.55 1225.74 1997.8 1220.38 2000.44 1209.98Z" fill="white"/>
<path d="M1817.91 1208.8C1820.54 1198.41 1810.56 1186.91 1795.61 1183.12C1780.67 1179.33 1766.41 1184.69 1763.78 1195.09C1761.14 1205.48 1771.12 1216.98 1786.07 1220.77C1801.02 1224.56 1815.27 1219.2 1817.91 1208.8Z" fill="#3F3D56"/>
<path d="M2034.69 1361.42C2037.33 1351.02 2027.35 1339.52 2012.4 1335.73C1997.45 1331.94 1983.2 1337.3 1980.56 1347.7C1977.93 1358.1 1987.91 1369.6 2002.86 1373.39C2017.8 1377.17 2032.06 1371.82 2034.69 1361.42Z" fill="#FF6584"/>
<path d="M2077.24 1418.52C2078.32 1408.84 2073.74 1400.38 2067 1399.62C2060.26 1398.87 2053.92 1406.11 2052.84 1415.8C2051.76 1425.48 2056.34 1433.94 2063.08 1434.69C2069.82 1435.45 2076.16 1428.21 2077.24 1418.52Z" fill="#E6E6E6"/>
<path d="M2092.25 1532.9C2093.33 1523.22 2088.75 1514.76 2082.01 1514C2075.27 1513.25 2068.93 1520.49 2067.85 1530.18C2066.77 1539.86 2071.35 1548.32 2078.09 1549.08C2084.83 1549.83 2091.17 1542.59 2092.25 1532.9Z" fill="#3F3D56"/>
<path d="M1905.64 1314.93C1906.72 1305.24 1902.14 1296.78 1895.4 1296.03C1888.66 1295.27 1882.32 1302.51 1881.24 1312.2C1880.16 1321.88 1884.74 1330.35 1891.48 1331.1C1898.22 1331.85 1904.56 1324.61 1905.64 1314.93Z" fill="#E6E6E6"/>
<path d="M1997.5 1280.42C1998.58 1270.73 1993.99 1262.27 1987.26 1261.52C1980.52 1260.76 1974.18 1268 1973.1 1277.69C1972.02 1287.37 1976.6 1295.84 1983.34 1296.59C1990.08 1297.34 1996.41 1290.1 1997.5 1280.42Z" fill="#FF6584"/>
<path d="M1884.33 1187.18C1885.41 1177.5 1880.83 1169.04 1874.09 1168.28C1867.35 1167.53 1861.02 1174.77 1859.93 1184.46C1858.85 1194.14 1863.44 1202.6 1870.17 1203.36C1876.91 1204.11 1883.25 1196.87 1884.33 1187.18Z" fill="#3F3D56"/>
<path d="M296.134 1145.26C298.769 1134.86 288.788 1123.36 273.841 1119.57C258.895 1115.79 244.642 1121.15 242.007 1131.54C239.371 1141.94 249.352 1153.44 264.299 1157.23C279.246 1161.02 293.499 1155.66 296.134 1145.26Z" fill="white"/>
<path d="M113.602 1144.08C116.237 1133.69 106.257 1122.19 91.3098 1118.4C76.3628 1114.61 62.1098 1119.97 59.4748 1130.37C56.8397 1140.76 66.8205 1152.26 81.7674 1156.05C96.7143 1159.84 110.967 1154.48 113.602 1144.08Z" fill="#3F3D56"/>
<path d="M330.387 1296.7C333.022 1286.3 323.042 1274.8 308.095 1271.01C293.148 1267.22 278.895 1272.58 276.26 1282.98C273.625 1293.38 283.605 1304.88 298.552 1308.67C313.499 1312.45 327.752 1307.1 330.387 1296.7Z" fill="#FF6584"/>
<path d="M372.937 1353.8C374.019 1344.12 369.435 1335.65 362.698 1334.9C355.96 1334.15 349.621 1341.39 348.539 1351.07C347.457 1360.76 352.041 1369.22 358.779 1369.97C365.516 1370.73 371.855 1363.49 372.937 1353.8Z" fill="#E6E6E6"/>
<path d="M387.946 1468.18C389.028 1458.5 384.444 1450.04 377.707 1449.28C370.969 1448.53 364.63 1455.77 363.548 1465.46C362.466 1475.14 367.05 1483.6 373.788 1484.36C380.525 1485.11 386.864 1477.87 387.946 1468.18Z" fill="#3F3D56"/>
<path d="M201.334 1250.2C202.416 1240.52 197.832 1232.06 191.095 1231.31C184.358 1230.55 178.019 1237.79 176.936 1247.48C175.854 1257.16 180.439 1265.62 187.176 1266.38C193.913 1267.13 200.252 1259.89 201.334 1250.2Z" fill="#E6E6E6"/>
<path d="M293.192 1215.7C294.275 1206.01 289.69 1197.55 282.953 1196.8C276.216 1196.04 269.877 1203.28 268.795 1212.97C267.712 1222.65 272.297 1231.12 279.034 1231.87C285.771 1232.62 292.11 1225.38 293.192 1215.7Z" fill="#FF6584"/>
<path d="M180.027 1122.46C181.109 1112.78 176.525 1104.32 169.787 1103.56C163.05 1102.81 156.711 1110.05 155.629 1119.74C154.547 1129.42 159.131 1137.88 165.869 1138.64C172.606 1139.39 178.945 1132.15 180.027 1122.46Z" fill="#3F3D56"/>
<path d="M1460.87 1662.58C1416.38 1603.4 1390.67 1537.23 1389.83 1461.79C1388.39 1457.72 1388.63 1453.25 1390.49 1449.36C1392.34 1445.47 1395.67 1442.48 1399.73 1441.04L1551.37 1387.38C1555.44 1385.95 1559.91 1386.19 1563.8 1388.04C1567.69 1389.9 1570.68 1393.22 1572.12 1397.29L1643.17 1598.08C1644.6 1602.14 1644.36 1606.61 1642.51 1610.5C1640.65 1614.39 1637.33 1617.39 1633.26 1618.83L1481.62 1672.48C1477.56 1673.92 1473.09 1673.68 1469.2 1671.82C1465.31 1669.96 1462.31 1666.64 1460.87 1662.58Z" fill="#E5E0DF"/>
<path opacity="0.2" d="M1495.11 1659C1491.04 1660.43 1486.57 1660.19 1482.68 1658.34C1478.79 1656.48 1475.8 1653.16 1474.35 1649.09C1429.87 1589.92 1404.15 1523.75 1403.31 1448.3C1402.38 1445.63 1402.18 1442.76 1402.71 1439.98L1399.73 1441.04C1395.67 1442.48 1392.34 1445.47 1390.49 1449.36C1388.63 1453.25 1388.39 1457.72 1389.83 1461.79C1390.67 1537.23 1416.38 1603.4 1460.87 1662.58C1462.31 1666.64 1465.31 1669.96 1469.2 1671.82C1473.09 1673.68 1477.56 1673.92 1481.62 1672.48L1633.26 1618.83C1635.95 1617.87 1638.34 1616.21 1640.19 1614.03C1642.03 1611.84 1643.26 1609.21 1643.76 1606.4L1495.11 1659Z" fill="black"/>
<path d="M1566.15 1508.71L1464.63 1544.95C1463.01 1545.53 1461.24 1545.44 1459.69 1544.7C1458.14 1543.97 1456.94 1542.65 1456.37 1541.03C1455.79 1539.42 1455.88 1537.64 1456.61 1536.09C1457.35 1534.54 1458.67 1533.34 1460.28 1532.77L1561.8 1496.53C1562.6 1496.24 1563.45 1496.12 1564.3 1496.16C1565.14 1496.2 1565.98 1496.41 1566.74 1496.78C1567.51 1497.14 1568.2 1497.65 1568.77 1498.28C1569.34 1498.91 1569.78 1499.65 1570.07 1500.45C1570.35 1501.25 1570.48 1502.09 1570.43 1502.94C1570.39 1503.79 1570.18 1504.62 1569.82 1505.39C1569.46 1506.16 1568.94 1506.85 1568.31 1507.42C1567.68 1507.99 1566.95 1508.43 1566.15 1508.71Z" fill="white"/>
<path d="M1475.04 1503.57L1452.71 1511.54C1451.91 1511.83 1451.06 1511.96 1450.21 1511.92C1449.36 1511.87 1448.53 1511.67 1447.76 1511.3C1446.99 1510.94 1446.31 1510.43 1445.73 1509.8C1445.16 1509.17 1444.72 1508.44 1444.44 1507.64C1444.15 1506.84 1444.02 1505.99 1444.07 1505.14C1444.11 1504.29 1444.31 1503.46 1444.68 1502.69C1445.04 1501.93 1445.55 1501.24 1446.18 1500.67C1446.81 1500.1 1447.54 1499.65 1448.34 1499.37L1448.36 1499.36L1470.69 1491.39C1472.31 1490.82 1474.08 1490.91 1475.63 1491.64C1477.18 1492.38 1478.37 1493.7 1478.95 1495.31C1479.53 1496.92 1479.44 1498.7 1478.71 1500.25C1477.97 1501.8 1476.65 1502.99 1475.04 1503.57Z" fill="white"/>
<path d="M1585.27 1562.27L1483.75 1598.5C1482.95 1598.79 1482.1 1598.92 1481.25 1598.88C1480.4 1598.83 1479.57 1598.63 1478.8 1598.26C1478.04 1597.9 1477.35 1597.39 1476.78 1596.76C1476.21 1596.13 1475.76 1595.4 1475.48 1594.6C1475.19 1593.8 1475.06 1592.95 1475.11 1592.1C1475.15 1591.25 1475.36 1590.42 1475.72 1589.65C1476.08 1588.89 1476.59 1588.2 1477.22 1587.63C1477.85 1587.06 1478.58 1586.61 1479.38 1586.33L1479.4 1586.32L1580.92 1550.09C1582.53 1549.51 1584.31 1549.6 1585.86 1550.34C1587.41 1551.07 1588.6 1552.39 1589.18 1554C1589.75 1555.62 1589.66 1557.4 1588.93 1558.95C1588.2 1560.49 1586.88 1561.69 1585.27 1562.27Z" fill="white"/>
<path d="M1575.71 1535.49L1474.19 1571.73C1473.39 1572.01 1472.54 1572.14 1471.69 1572.1C1470.85 1572.06 1470.01 1571.85 1469.25 1571.49C1468.48 1571.12 1467.79 1570.61 1467.22 1569.98C1466.65 1569.35 1466.21 1568.62 1465.92 1567.82C1465.63 1567.02 1465.51 1566.17 1465.55 1565.32C1465.59 1564.48 1465.8 1563.64 1466.16 1562.88C1466.52 1562.11 1467.03 1561.42 1467.66 1560.85C1468.29 1560.28 1469.03 1559.84 1469.83 1559.55L1469.84 1559.54L1571.36 1523.31C1572.97 1522.73 1574.75 1522.82 1576.3 1523.55C1577.85 1524.28 1579.05 1525.6 1579.63 1527.21C1580.21 1528.83 1580.12 1530.61 1579.39 1532.16C1578.66 1533.71 1577.34 1534.91 1575.72 1535.48L1575.71 1535.49Z" fill="white"/>
<path d="M1471.51 1443.11C1486.41 1443.11 1498.48 1431.04 1498.48 1416.15C1498.48 1401.25 1486.41 1389.18 1471.51 1389.18C1456.62 1389.18 1444.55 1401.25 1444.55 1416.15C1444.55 1431.04 1456.62 1443.11 1471.51 1443.11Z" fill="#CCCCCC"/>
</svg>
