<svg width="1628" height="1080" viewBox="0 0 1628 1080" fill="none" xmlns="http://www.w3.org/2000/svg">
<g clip-path="url(#clip0_368_2264)">
<path d="M824.669 303.546C810.167 279.56 792.982 253.951 766.07 246.119C734.904 237.049 702.888 255.067 675.731 272.846C594.518 326.019 516.307 383.644 441.458 445.456L441.54 446.387C499.813 442.369 558.085 438.35 616.358 434.332C658.46 431.428 702.009 428.124 739.215 408.207C753.334 400.649 767.097 390.554 783.095 389.85C802.972 388.977 820.304 402.859 833.924 417.362C914.491 503.155 937.806 634.354 1028.19 709.73C971.198 569.167 903.143 433.346 824.669 303.546Z" fill="#E5E0DF"/>
<path d="M1319.91 1031.23C1311 1019.98 1307.36 1017.34 1298.57 1005.99C1227.01 913.439 1159.75 817.763 1096.79 718.961C1054.03 651.858 1013.38 583.467 974.858 513.787C956.517 480.66 938.68 447.273 921.345 413.627C907.894 387.538 894.742 361.293 881.891 334.892C878.216 327.352 874.645 319.776 871.092 312.184C862.719 294.329 854.502 276.388 845.679 258.775C835.625 238.702 823.387 217.657 804.925 204.171C796.523 197.782 786.476 193.915 775.958 193.025C760.929 192.054 747.061 198.26 734.026 205.038C638.65 254.771 549.359 317.124 468.597 388.075C387.627 459.186 315.254 539.523 252.952 627.451C251.046 630.172 246.539 627.572 248.463 624.833C256.038 614.12 263.764 603.523 271.639 593.041C369.568 462.798 489.644 350.797 626.377 262.156C649.381 247.248 672.818 233.039 696.687 219.529C708.717 212.717 720.8 205.991 733.09 199.681C745.138 193.493 757.93 187.928 771.694 187.72C818.533 186.992 842.784 240.037 859.443 275.729C864.678 286.962 869.976 298.16 875.339 309.323C895.603 351.707 916.647 393.703 938.472 435.312C951.941 461.002 965.705 486.542 979.763 511.932C1023.52 590.996 1070.02 668.459 1119.27 744.321C1184.52 844.811 1249.25 933.582 1323.58 1027.55C1325.63 1030.15 1321.97 1033.86 1319.91 1031.23Z" fill="#E4E4E4"/>
<path d="M463.968 361.882C461.247 358.849 458.542 355.815 455.803 352.782C434.204 328.894 411.028 305.284 381.368 291.59C367.226 284.854 351.788 281.276 336.124 281.102C319.934 281.155 304.107 285.401 289.148 291.347C282.075 294.173 275.158 297.38 268.346 300.795C260.562 304.712 252.918 308.89 245.308 313.102C231.024 321.007 216.925 329.258 203.012 337.856C175.328 354.966 148.511 373.381 122.561 393.102C109.109 403.33 95.9341 413.892 83.0371 424.79C71.0416 434.914 59.2888 445.309 47.7785 455.975C45.3171 458.246 41.642 454.571 44.1034 452.3C47.1369 449.475 50.2052 446.667 53.2735 443.893C61.9409 436.058 70.747 428.373 79.6921 420.838C96.0035 407.074 112.737 393.842 129.893 381.141C156.572 361.38 184.169 342.959 212.684 325.878C226.933 317.349 241.379 309.179 256.021 301.367C260.441 299.009 264.914 296.704 269.438 294.52C279.704 289.341 290.37 284.999 301.334 281.536C316.864 276.512 333.296 274.898 349.507 276.803C365.16 279.08 380.24 284.297 393.954 292.179C423.076 308.457 445.662 333.627 467.643 358.19C469.862 360.686 466.204 364.379 463.968 361.882Z" fill="#E4E4E4"/>
<path d="M1060.67 609.417L1130.45 583.894L1165.1 571.221C1176.39 567.094 1187.64 562.395 1199.31 559.44C1209.45 556.544 1220.21 556.681 1230.27 559.834C1239.24 563.155 1247.45 568.246 1254.42 574.804C1261.53 581.357 1268.15 588.427 1274.23 595.957C1281.77 605.023 1289.2 614.183 1296.67 623.313C1327.48 660.994 1358.09 698.839 1388.5 736.847C1418.9 774.855 1449.11 813.024 1479.11 851.354C1509.18 889.778 1539.05 928.363 1568.71 967.109C1572.35 971.855 1575.98 976.604 1579.6 981.355C1581.61 983.98 1586.13 981.392 1584.09 978.73C1554.21 939.595 1524.13 900.62 1493.83 861.806C1463.46 822.898 1432.88 784.155 1402.09 745.578C1371.3 707.001 1340.3 668.592 1309.1 630.35C1301.32 620.822 1293.53 611.306 1285.73 601.799C1279.15 593.78 1272.65 585.675 1265.43 578.211C1252.19 564.511 1235.64 552.404 1215.83 552.076C1204.18 551.882 1192.91 555.579 1182.08 559.493C1170.42 563.714 1158.78 568.013 1147.13 572.275L1076.86 597.977L1059.29 604.403C1056.17 605.543 1057.52 610.571 1060.67 609.417Z" fill="#E4E4E4"/>
<path d="M372.185 321.647C336.722 303.421 291.307 306.991 258.719 329.762C320.878 340.486 382.356 354.834 442.84 372.735C417.724 358.016 398.076 334.955 372.185 321.647Z" fill="#E5E0DF"/>
<path d="M258.37 329.698L251.543 335.247C253.852 333.305 256.253 331.484 258.719 329.761C258.603 329.741 258.487 329.718 258.37 329.698Z" fill="#E5E0DF"/>
<path d="M1251.79 609.673C1244.92 601.311 1237.5 592.556 1227.22 589.159L1217.63 589.538C1290.65 718.572 1389.27 831.322 1507.44 920.867C1422.23 817.136 1337.01 713.404 1251.79 609.673Z" fill="#E5E0DF"/>
<path d="M655.269 540.693C659.708 556.822 669.709 570.86 683.503 580.325C688.835 583.956 695.145 587.439 696.969 593.627C697.929 597.572 697.337 601.734 695.317 605.256C693.3 608.732 690.846 611.936 688.016 614.789L687.757 615.757C674.524 607.915 661.934 597.995 654.624 584.46C647.314 570.925 646.293 553.186 655.269 540.693Z" fill="#E5E0DF"/>
<path d="M1095.86 924.552C1100.29 940.68 1110.3 954.719 1124.09 964.183C1129.42 967.814 1135.73 971.297 1137.56 977.485C1138.52 981.43 1137.92 985.593 1135.9 989.114C1133.89 992.59 1131.43 995.794 1128.6 998.647L1128.34 999.615C1115.11 991.773 1102.52 981.853 1095.21 968.318C1087.9 954.783 1086.88 937.044 1095.86 924.552Z" fill="#E5E0DF"/>
<path d="M216.574 898.078C221.013 914.207 231.014 928.245 244.807 937.709C250.14 941.34 256.449 944.823 258.274 951.011C259.233 954.956 258.642 959.119 256.622 962.64C254.605 966.117 252.151 969.321 249.32 972.173L249.062 973.142C235.828 965.299 223.239 955.379 215.928 941.844C208.618 928.31 207.598 910.571 216.574 898.078Z" fill="#E5E0DF"/>
<path d="M1228.41 192.875C1281.67 192.875 1324.85 149.698 1324.85 96.4374C1324.85 43.1765 1281.67 0 1228.41 0C1175.15 0 1131.97 43.1765 1131.97 96.4374C1131.97 149.698 1175.15 192.875 1228.41 192.875Z" fill="#F1C21B"/>
<path d="M1402.44 22.4458C1355.7 16.1283 1302.34 41.3904 1290.23 86.9709C1287.18 78.8667 1281.63 71.9428 1274.38 67.1994C1267.14 62.4561 1258.57 60.139 1249.92 60.5828C1241.27 61.0266 1232.99 64.2083 1226.27 69.6684C1219.54 75.1285 1214.73 82.5842 1212.53 90.9583L1217.88 94.7906C1318.03 116.45 1421.71 115.981 1521.67 93.4171C1489.16 59.2501 1449.18 28.7631 1402.44 22.4458Z" fill="#F0F0F0"/>
<path d="M1202 151.029C1155.26 144.711 1101.91 169.973 1089.79 215.554C1086.74 207.45 1081.19 200.526 1073.94 195.782C1066.7 191.039 1058.13 188.722 1049.48 189.166C1040.83 189.61 1032.55 192.791 1025.83 198.251C1019.11 203.712 1014.29 211.167 1012.09 219.541L1017.44 223.374C1117.6 245.033 1221.27 244.564 1321.23 222C1288.72 187.833 1248.74 157.346 1202 151.029Z" fill="#F0F0F0"/>
<path d="M1609.93 175.343C1609.73 175.343 1609.54 175.313 1609.36 175.254C1109.38 17.1381 668.724 37.8145 387.097 83.0029C348.771 89.1503 310.342 96.2505 272.878 104.108C263.314 106.111 253.391 108.259 243.386 110.495C231.438 113.156 219.648 115.897 208.343 118.637C203.461 119.793 198.673 120.958 193.982 122.133C186.875 123.887 179.664 125.715 171.934 127.724C163.297 129.951 154.521 132.287 145.844 134.667C145.813 134.679 145.78 134.688 145.747 134.695L145.748 134.697C135.948 137.373 126.2 140.126 116.773 142.876C111.671 144.349 106.744 145.802 102.025 147.237C101.498 147.383 101.031 147.523 100.557 147.668L99.5434 147.976C98.9562 148.155 98.3764 148.33 97.7965 148.497L97.7596 148.508L97.7605 148.51L96.226 148.986C94.396 149.54 92.6103 150.081 90.8542 150.62C44.4415 164.928 18.9269 175.106 18.6748 175.206C18.4443 175.299 18.1979 175.345 17.9496 175.342C17.7013 175.339 17.456 175.287 17.2277 175.19C16.9993 175.092 16.7925 174.95 16.6189 174.773C16.4453 174.595 16.3084 174.385 16.2161 174.154C16.1237 173.924 16.0776 173.678 16.0804 173.429C16.0833 173.181 16.135 172.936 16.2327 172.707C16.3303 172.479 16.472 172.272 16.6496 172.099C16.8272 171.925 17.0372 171.788 17.2677 171.696C17.5216 171.596 43.1609 161.366 89.7425 147.005C91.5051 146.464 93.2954 145.923 95.131 145.367L96.5565 144.924C96.6054 144.905 96.6544 144.89 96.7042 144.876C97.2813 144.711 97.8574 144.536 98.4428 144.359L99.4585 144.05C99.9644 143.897 100.463 143.745 100.974 143.605C105.66 142.18 110.604 140.723 115.719 139.243C125.149 136.492 134.907 133.739 144.714 131.059C144.745 131.048 144.776 131.041 144.807 131.032C153.513 128.644 162.322 126.297 170.987 124.062C178.729 122.051 185.954 120.22 193.072 118.462C197.784 117.289 202.58 116.121 207.461 114.959C218.779 112.215 230.593 109.47 242.562 106.804C252.583 104.566 262.522 102.413 272.103 100.407C309.625 92.5371 348.114 85.4258 386.498 79.2692C668.528 34.0161 1109.82 13.3063 1610.49 171.649C1610.93 171.785 1611.29 172.071 1611.53 172.454C1611.77 172.838 1611.86 173.294 1611.79 173.74C1611.73 174.186 1611.5 174.593 1611.16 174.887C1610.81 175.181 1610.38 175.343 1609.93 175.343Z" fill="#CCCCCC"/>
<path d="M498.018 793.887C497.363 791.972 496.261 790.242 494.803 788.838C494.265 788.339 493.683 787.89 493.064 787.496C488.128 784.205 480.754 783.468 476.064 787.496C475.592 787.905 475.155 788.354 474.759 788.838C473.36 790.559 471.923 792.242 470.448 793.887C468.028 796.648 465.551 799.314 462.96 801.905C462.223 802.623 461.485 803.361 460.729 804.079C460.294 804.514 459.859 804.93 459.424 805.346C457.76 806.934 456.058 808.466 454.337 809.979C453.43 810.792 452.522 811.586 451.596 812.361C450.215 813.515 448.835 814.668 447.436 815.784C447.303 815.879 447.171 815.973 447.038 816.087C447.001 816.105 446.982 816.143 446.944 816.162C446.925 816.162 446.906 816.162 446.887 816.2C446.836 816.22 446.791 816.253 446.755 816.295C446.339 816.578 446.055 816.767 445.847 816.937C445.923 816.9 445.998 816.843 446.074 816.805C445.734 817.07 445.374 817.335 445.034 817.599C441.725 820.039 438.34 822.383 434.88 824.577C426.318 830.056 417.326 834.831 407.991 838.853C407.367 839.099 406.724 839.364 406.081 839.61C381.64 849.623 355.127 853.53 328.837 850.993C326.151 850.785 323.466 850.501 320.781 850.142C317.68 849.688 314.598 849.14 311.535 848.516C299.872 846.189 288.462 842.744 277.46 838.229C263.698 831.927 250.609 824.249 238.393 815.311C236.502 813.969 234.593 812.626 232.683 811.321C234.857 805.989 236.994 800.657 239.074 795.286C240.114 792.696 241.116 790.105 242.1 787.496C249.834 767.395 257.095 747.105 264.053 726.74C271.088 706.11 277.725 685.36 283.965 664.491C284.608 662.373 285.232 660.255 285.837 658.137C289.108 647.113 292.247 636.064 295.254 624.989C295.537 623.912 295.84 622.853 296.105 621.775C296.974 618.598 297.825 615.421 298.657 612.244C300.548 605.078 296.275 596.512 288.749 594.791C285.125 593.862 281.283 594.376 278.03 596.224C274.778 598.073 272.37 601.111 271.314 604.7C270.501 607.763 269.688 610.807 268.856 613.871C264.866 628.677 260.669 643.432 256.263 658.137C255.62 660.255 254.977 662.373 254.334 664.491C244.615 696.523 233.943 728.234 222.32 759.623C220.921 763.424 219.503 767.212 218.066 770.988C217.366 772.841 216.667 774.694 215.948 776.547C214.568 780.197 213.15 783.846 211.731 787.496C210.918 789.632 210.086 791.769 209.254 793.887C208.706 795.23 208.176 796.572 207.647 797.896C202.256 795.96 196.67 794.616 190.988 793.887L190.08 793.774C185.675 793.244 181.22 793.282 176.825 793.887C170.246 794.655 163.917 796.858 158.284 800.341C152.651 803.824 147.851 808.502 144.225 814.044C135.205 828.245 135.319 848.554 147.969 860.618C160.998 873.041 180.72 872.947 196.056 865.175C204.182 860.778 211.035 854.356 215.948 846.531C217.83 843.694 219.56 840.759 221.129 837.738C221.526 838.002 221.923 838.267 222.32 838.551C223.833 839.61 225.346 840.688 226.84 841.746C235.544 848.052 244.716 853.685 254.277 858.595C274.835 868.815 296.965 875.507 319.741 878.393C320.252 878.449 320.743 878.525 321.254 878.582C323.769 878.903 326.303 879.149 328.837 879.357C365.184 882.096 401.576 874.658 433.934 857.876C436.676 856.458 439.393 854.97 442.084 853.413C446.263 850.993 450.348 848.421 454.337 845.699C456.512 844.224 458.63 842.73 460.729 841.16C469.901 834.405 478.45 826.842 486.275 818.564C489.244 815.444 492.087 812.223 494.803 808.901C497.372 806.184 498.853 802.617 498.963 798.879C498.949 797.172 498.628 795.481 498.018 793.887ZM184.899 838.929C185.296 838.645 185.693 838.343 186.071 838.04C185.958 838.324 185.41 838.645 184.899 838.929ZM190.969 832.821C190.534 833.313 190.137 833.805 189.702 834.296C188.379 835.777 186.957 837.167 185.447 838.456C185.239 838.645 185.013 838.834 184.786 839.005C184.783 839.004 184.781 839.005 184.778 839.006C184.776 839.007 184.774 839.008 184.772 839.01C184.77 839.012 184.769 839.014 184.768 839.016C184.767 839.019 184.767 839.021 184.767 839.023C184.494 839.146 184.228 839.285 183.972 839.44C183.159 839.931 182.327 840.385 181.476 840.801C179.81 841.414 178.096 841.889 176.352 842.219C175.012 842.317 173.666 842.33 172.324 842.257H172.287C171.36 842.051 170.445 841.799 169.545 841.501C169.091 841.274 168.656 841.009 168.221 840.744C168.051 840.593 167.9 840.442 167.805 840.347C167.62 840.179 167.45 839.995 167.295 839.799C167.295 839.796 167.294 839.794 167.293 839.791C167.292 839.789 167.291 839.787 167.289 839.785C167.287 839.784 167.285 839.782 167.283 839.781C167.281 839.78 167.278 839.78 167.276 839.78C167.068 839.402 166.841 839.023 166.633 838.645C166.622 838.635 166.615 838.622 166.614 838.608C166.463 838.135 166.33 837.643 166.217 837.151C166.176 836.288 166.182 835.423 166.236 834.561C166.489 833.353 166.831 832.165 167.257 831.006C167.64 830.184 168.075 829.388 168.562 828.623C168.599 828.548 168.788 828.245 168.996 827.905C169.015 827.886 169.015 827.886 169.015 827.867C169.299 827.546 169.583 827.205 169.885 826.903C170.396 826.335 170.944 825.844 171.493 825.333C172.559 824.635 173.664 823.998 174.802 823.423C176.607 822.782 178.459 822.283 180.342 821.93C183.119 821.709 185.909 821.734 188.681 822.005C191.307 822.461 193.897 823.099 196.434 823.915C194.896 826.899 193.146 829.768 191.196 832.5C191.12 832.613 191.045 832.727 190.969 832.821ZM169.942 826.6C169.775 826.867 169.579 827.115 169.356 827.337C169.506 827.059 169.704 826.809 169.942 826.6Z" fill="#565151"/>
<path d="M441.176 600.767C441.006 606.704 440.836 612.642 440.666 618.579C440.307 631.759 439.935 644.945 439.55 658.138C439.153 672.982 438.737 687.819 438.302 702.65C438.094 710.309 437.88 717.967 437.659 725.625C437.073 746.255 436.493 766.879 435.92 787.496C435.863 789.633 435.787 791.751 435.731 793.887C435.447 804.117 435.163 814.347 434.88 824.577C434.558 835.677 434.243 846.777 433.934 857.877C433.707 866.197 433.474 874.523 433.235 882.856C431.533 943.233 429.831 1003.61 428.129 1063.99C428.057 1067.73 426.54 1071.29 423.896 1073.94C421.251 1076.58 417.686 1078.1 413.947 1078.17C410.195 1078.14 406.605 1076.64 403.952 1073.98C401.299 1071.33 399.795 1067.74 399.765 1063.99C400.711 1030.03 401.669 996.066 402.639 962.105C403.49 931.396 404.354 900.687 405.23 869.978C405.514 859.862 405.797 849.739 406.081 839.61C406.516 824.369 406.944 809.128 407.367 793.887C407.423 791.751 407.499 789.633 407.556 787.496C407.594 785.624 407.65 783.771 407.707 781.899C408.539 752.306 409.371 722.707 410.203 693.101C410.543 681.453 410.871 669.798 411.186 658.138C411.564 644.845 411.943 631.558 412.321 618.277C412.491 612.434 412.642 606.61 412.813 600.767C412.884 597.028 414.402 593.463 417.046 590.818C419.69 588.174 423.256 586.657 426.994 586.585C430.746 586.615 434.336 588.119 436.989 590.772C439.642 593.425 441.146 597.015 441.176 600.767Z" fill="#565151"/>
<path d="M1219.16 604.703C1204.29 661.014 1186.51 716.518 1165.91 770.993C1160.22 786.019 1154.4 801.015 1148.19 815.831L1149.62 812.443C1146.84 819.5 1143.3 826.229 1139.05 832.509C1138.76 832.914 1138.46 833.315 1138.16 833.712C1139.63 831.834 1139.91 831.462 1139 832.599C1138.52 833.167 1138.05 833.737 1137.55 834.292C1136.23 835.774 1134.81 837.165 1133.3 838.458C1132.92 838.783 1132.53 839.101 1132.14 839.412L1133.91 838.033C1133.71 838.519 1132.26 839.163 1131.81 839.438C1130.36 840.317 1128.84 841.087 1127.27 841.742L1130.65 840.312C1128.08 841.349 1125.4 842.086 1122.65 842.507L1126.42 842.001C1123.73 842.373 1121 842.402 1118.3 842.088L1122.07 842.594C1119.86 842.29 1117.69 841.707 1115.63 840.86L1119.02 842.29C1117.91 841.81 1116.85 841.243 1115.84 840.595C1115.33 840.261 1113.75 839.066 1115.81 840.642C1117.96 842.279 1116.09 840.782 1115.65 840.347C1115.28 839.985 1114.95 839.591 1114.59 839.222C1112.92 837.512 1116.47 842.165 1115.34 840.165C1114.73 839.162 1114.18 838.129 1113.68 837.07L1115.11 840.458C1114.46 838.845 1114 837.163 1113.73 835.444L1114.24 839.214C1113.97 837.077 1113.97 834.914 1114.23 832.776L1113.73 836.546C1114.07 834.159 1114.7 831.823 1115.61 829.587L1114.18 832.975C1114.81 831.471 1115.55 830.018 1116.4 828.629C1116.8 827.91 1117.26 827.232 1117.78 826.603C1117.87 826.633 1115.38 829.463 1116.71 828.034C1117.05 827.66 1117.37 827.267 1117.72 826.896C1118.28 826.302 1118.88 825.76 1119.47 825.198C1121.45 823.317 1116.71 827.024 1118.99 825.536C1120.64 824.45 1122.38 823.502 1124.19 822.702L1120.8 824.131C1123.83 822.888 1127 822.036 1130.25 821.598L1126.48 822.104C1130.54 821.637 1134.64 821.685 1138.69 822.249L1134.92 821.742C1140.05 822.52 1145.06 823.93 1149.85 825.94L1146.46 824.51C1156.65 828.886 1165.67 835.382 1174.69 841.752C1183.39 848.054 1192.56 853.684 1202.12 858.593C1222.67 868.815 1244.81 875.51 1267.58 878.398C1300.25 882.4 1333.4 878.134 1363.99 865.991C1394.58 853.849 1421.63 834.219 1442.66 808.903C1445.22 806.182 1446.7 802.613 1446.81 798.875C1446.78 795.119 1445.29 791.522 1442.66 788.847C1437.45 784.07 1427.62 782.722 1422.6 788.847C1417.84 794.661 1412.72 800.172 1407.27 805.349C1404.73 807.762 1402.12 810.1 1399.44 812.364C1397.91 813.657 1396.36 814.925 1394.78 816.167C1394.04 816.755 1391.72 818.319 1395.28 815.793C1394.47 816.372 1393.68 817.004 1392.88 817.599C1380.97 826.378 1368.07 833.718 1354.43 839.467L1357.82 838.037C1343.19 844.174 1327.83 848.383 1312.11 850.56L1315.88 850.053C1299.72 852.18 1283.34 852.155 1267.19 849.981L1270.96 850.488C1254.8 848.269 1239 843.966 1223.95 837.686L1227.34 839.116C1212.82 832.69 1199.04 824.707 1186.24 815.307C1179.58 810.374 1172.55 805.953 1165.23 802.081C1156.69 797.721 1147.44 794.911 1137.92 793.783C1120.08 791.683 1101.89 798.634 1092.08 814.054C1083.05 828.245 1083.16 848.552 1095.81 860.619C1108.83 873.047 1128.56 872.942 1143.91 865.168C1158.69 857.681 1167.57 842.126 1173.81 827.459C1187.86 794.453 1200.3 760.683 1211.89 726.743C1223.36 693.163 1233.76 659.244 1243.09 624.985C1244.25 620.742 1245.39 616.495 1246.51 612.243C1248.4 605.079 1244.12 596.511 1236.6 594.798C1232.98 593.864 1229.13 594.376 1225.88 596.224C1222.62 598.072 1220.21 601.112 1219.16 604.703Z" fill="#565151"/>
<path d="M1360.66 600.766L1355.56 781.904L1350.48 962.098L1347.61 1063.99C1347.64 1067.74 1349.14 1071.33 1351.8 1073.98C1354.45 1076.63 1358.04 1078.14 1361.79 1078.17C1365.53 1078.1 1369.09 1076.58 1371.74 1073.94C1374.38 1071.29 1375.9 1067.73 1375.97 1063.99L1381.08 882.85L1386.15 702.656L1389.02 600.766C1388.99 597.015 1387.49 593.426 1384.84 590.773C1382.18 588.12 1378.59 586.616 1374.84 586.584C1371.1 586.656 1367.54 588.174 1364.89 590.818C1362.25 593.462 1360.73 597.027 1360.66 600.766Z" fill="#565151"/>
<path opacity="0.2" d="M869.779 1013.41H874.183V812.897H976.914V808.505H874.183V723.897H953.518C952.355 722.417 951.158 720.957 949.927 719.515H874.183V663.633C872.726 663.012 871.258 662.413 869.779 661.849V719.515H783.454V647.915C781.975 647.983 780.518 648.084 779.05 648.209V719.515H710.183V666.095C708.703 666.75 707.247 667.438 705.802 668.161V719.515H647.909V723.897H705.802V808.505H647.909V812.897H705.802V1013.41H710.183V812.897C719.227 812.896 728.183 814.676 736.539 818.136C744.896 821.596 752.488 826.669 758.884 833.064C765.279 839.46 770.352 847.052 773.812 855.409C777.272 863.765 779.052 872.721 779.05 881.765V1013.41H783.454V812.897H869.779V1013.41ZM710.183 808.505V723.897H779.05V808.505H710.183ZM783.454 808.505V723.897H785.182C796.292 723.897 807.293 726.086 817.558 730.339C827.822 734.591 837.148 740.824 845.003 748.68C852.859 756.537 859.09 765.864 863.341 776.129C867.592 786.393 869.78 797.395 869.779 808.505H783.454Z" fill="black"/>
<path d="M842.885 953.293C837.341 978.024 824.061 1000.34 804.972 1017.02C803.573 1018.23 802.174 1019.4 800.718 1020.55C797.182 1020.87 793.671 1021.2 790.185 1021.54C787.292 1021.8 784.437 1022.08 781.6 1022.35L781.09 1022.41L780.731 1019.31L779.293 1006.75C773.718 997.648 770.263 987.408 769.183 976.79C768.102 966.171 769.425 955.446 773.053 945.408C778.045 931.944 787.084 920.05 795.971 908.251C808.244 891.951 820.175 875.84 820.61 855.967C826.649 863.694 831.669 872.166 835.549 881.173C831.888 882.896 828.599 885.318 825.867 888.302C825.092 889.152 824.316 890.344 824.846 891.365C825.3 892.235 826.434 892.443 827.418 892.556C829.781 892.802 832.164 893.048 834.527 893.294C836.418 893.502 838.309 893.691 840.2 893.899C842.488 901.407 844.039 909.121 844.833 916.93C846.107 929.078 845.45 941.351 842.885 953.293Z" fill="#565151"/>
<path d="M905.664 903.731C894.507 911.844 887.984 923.511 882.916 936.369C877.722 938.031 873.05 941.016 869.358 945.029C868.583 945.88 867.808 947.071 868.337 948.093C868.791 948.963 869.925 949.171 870.909 949.284C873.272 949.53 875.655 949.776 878.019 950.021C872.951 965.224 868.299 980.957 859.336 993.796C853.375 1002.27 845.605 1009.32 836.588 1014.43C834.13 1015.83 831.592 1017.08 828.987 1018.19C819.381 1018.93 809.958 1019.71 800.717 1020.55C797.181 1020.87 793.671 1021.2 790.185 1021.54C787.292 1021.8 784.437 1022.08 781.6 1022.35C781.581 1021.31 781.581 1020.27 781.6 1019.23C782.198 991.525 792.39 964.886 810.437 943.857C811.288 942.874 812.158 941.909 813.046 940.945C822.189 931.179 832.941 923.056 844.833 916.93C863.571 907.187 884.573 902.63 905.664 903.731Z" fill="#00A55B"/>
<path d="M793.457 1011.84L791.282 1018.27L790.185 1021.54C787.292 1021.8 784.437 1022.08 781.6 1022.35L781.09 1022.41C777.951 1022.73 774.831 1023.05 771.711 1023.37C770.898 1022.43 770.085 1021.46 769.29 1020.48C749.553 996.577 740.079 965.835 742.938 934.97C745.798 904.105 760.758 875.627 784.55 855.759C782.054 868.825 784.966 881.343 789.75 893.766C789.24 893.974 788.748 894.182 788.275 894.409C784.615 896.133 781.326 898.554 778.594 901.538C777.819 902.389 777.043 903.58 777.573 904.602C778.027 905.471 779.161 905.679 780.145 905.793C782.508 906.038 784.891 906.284 787.254 906.53C789.145 906.738 791.036 906.927 792.927 907.135C793.816 907.23 794.705 907.324 795.593 907.419C795.726 907.702 795.839 907.967 795.972 908.251C801.361 919.937 807.166 931.679 810.437 943.857C811.257 946.912 811.901 950.012 812.366 953.141C813.822 963.717 812.878 974.484 809.605 984.645C806.331 994.806 800.812 1004.1 793.457 1011.84Z" fill="#00A55B"/>
<path d="M983.794 737.577C967.515 705.824 942.295 679.108 912.634 659.475C882.877 639.869 848.732 627.929 813.242 624.72C808.59 624.297 803.926 624.049 799.251 623.977C793.727 623.894 710.631 647.863 682.794 667.434C654.973 686.768 632.087 712.371 615.982 742.177C599.905 772.147 591.998 805.819 593.053 839.812C594.431 874.01 603.963 907.383 620.855 937.149C637.516 966.819 661.173 991.97 689.768 1010.41C718.771 1028.92 747.905 1077.99 782.149 1079.72C816.65 1081.47 855.997 1035.18 887.464 1021.13C918.931 1006.96 946.135 984.785 966.364 956.825C986.022 929.424 998.739 897.664 1003.42 864.268C1008.29 830.074 1006.02 794.809 994.346 762.127C991.349 753.73 987.825 745.53 983.794 737.577C980.429 730.949 970.565 728.508 964.39 732.489C961.209 734.448 958.905 737.558 957.958 741.171C957.01 744.785 957.492 748.625 959.302 751.893C961.279 755.785 963.116 759.742 964.815 763.763L963.385 760.375C969.815 775.834 974.186 792.07 976.388 808.666L975.882 804.896C978.224 822.902 978.182 841.138 975.757 859.133L976.263 855.362C973.812 873.356 969.009 890.949 961.978 907.692L963.408 904.305C959.791 912.847 955.575 921.124 950.792 929.073C948.368 933.089 945.796 937.01 943.076 940.837C941.882 942.517 940.65 944.167 939.41 945.813C937.791 947.96 941.616 943.008 939.943 945.114C939.659 945.473 939.375 945.833 939.089 946.191C938.23 947.264 937.359 948.328 936.476 949.382C930.58 956.416 924.147 962.98 917.233 969.016C915.511 970.52 913.76 971.989 911.98 973.424C911.094 974.14 910.218 974.886 909.294 975.551C909.329 975.526 912.281 973.283 910.533 974.585C909.984 974.994 909.44 975.41 908.889 975.818C905.221 978.535 901.455 981.114 897.592 983.555C888.698 989.158 879.368 994.036 869.69 998.14L873.078 996.711C856.385 1003.74 838.84 1008.54 820.895 1010.99L824.665 1010.48C806.728 1012.91 788.55 1012.94 770.605 1010.58L774.375 1011.09C758.066 1008.9 742.113 1004.58 726.922 998.257L730.309 999.686C721.51 995.971 713.027 991.55 704.941 986.467C700.939 983.946 697.041 981.268 693.248 978.435C692.707 978.031 692.17 977.621 691.631 977.215C689.9 975.908 692.875 978.178 692.898 978.194C691.892 977.472 690.923 976.699 689.996 975.878C688.164 974.386 686.36 972.86 684.585 971.299C677.483 965.044 670.852 958.276 664.743 951.048C663.214 949.24 661.718 947.406 660.254 945.544C659.62 944.738 658.464 943.104 661.019 946.544C660.683 946.092 660.334 945.648 659.995 945.198C659.179 944.117 658.375 943.028 657.582 941.93C654.805 938.088 652.166 934.151 649.663 930.12C644.009 920.995 639.074 911.443 634.904 901.551L636.334 904.939C629.509 888.702 624.843 871.641 622.453 854.192L622.96 857.962C620.804 841.878 620.773 825.579 622.868 809.487L622.362 813.257C624.51 797.673 628.703 782.44 634.832 767.952L633.402 771.339C637.258 762.27 641.807 753.51 647.008 745.138C649.611 740.949 652.371 736.861 655.285 732.876C655.948 731.971 656.617 731.071 657.294 730.176C657.907 729.367 659.592 727.352 656.717 730.911C656.999 730.562 657.27 730.203 657.548 729.851C659.148 727.824 660.786 725.83 662.464 723.866C668.813 716.434 675.691 709.469 683.043 703.027C684.901 701.398 686.789 699.804 688.706 698.244C689.577 697.536 690.453 696.834 691.336 696.14C691.689 695.863 692.047 695.59 692.398 695.311C688.621 698.316 691.348 696.129 692.206 695.486C696.157 692.526 700.213 689.714 704.375 687.05C713.626 681.134 723.359 676.005 733.47 671.719L730.082 673.149C744.755 666.987 809.767 652.444 821.591 654.032L817.821 653.525C835.2 655.951 852.187 660.645 868.346 667.485L864.959 666.055C873.148 669.532 881.106 673.53 888.785 678.023C892.621 680.272 896.383 682.644 900.069 685.138C901.813 686.318 903.539 687.525 905.246 688.759C906.1 689.376 906.948 689.999 907.792 690.629C908.261 690.979 908.726 691.333 909.194 691.684C911.159 693.157 906.487 689.551 908.547 691.18C915.441 696.596 921.989 702.44 928.152 708.677C931.178 711.759 934.101 714.939 936.92 718.217C938.365 719.899 939.781 721.605 941.168 723.337C941.857 724.197 944.203 727.31 941.327 723.497C942.03 724.429 942.741 725.354 943.434 726.293C949.41 734.381 954.717 742.943 959.302 751.893C962.693 758.507 972.514 760.973 978.706 756.981C981.888 755.023 984.193 751.913 985.141 748.299C986.088 744.685 985.606 740.844 983.794 737.577Z" fill="#565151"/>
<path d="M818.545 969.017C817.081 969.084 815.632 968.7 814.394 967.916C813.156 967.132 812.188 965.986 811.623 964.634C811.058 963.282 810.922 961.789 811.233 960.357C811.545 958.925 812.289 957.624 813.365 956.629C813.545 955.913 813.675 955.398 813.855 954.682C813.79 954.526 813.726 954.37 813.66 954.214C807.08 938.524 765.092 982.263 763.277 997.009C762.477 1003.53 762.814 1010.14 764.273 1016.54C750.673 986.87 743.61 954.624 743.565 921.986C743.562 913.797 744.017 905.613 744.928 897.474C745.68 890.801 746.725 884.176 748.06 877.599C755.35 841.911 771.002 808.461 793.729 779.996C806.727 780.721 818.118 778.741 819.218 753.551C819.414 749.07 822.738 745.19 823.47 740.776C822.229 740.938 820.968 741.04 819.727 741.121C819.34 741.142 818.934 741.162 818.547 741.182L818.401 741.189C817.038 741.25 815.685 740.916 814.507 740.226C813.329 739.537 812.375 738.521 811.761 737.302C811.146 736.083 810.897 734.713 811.043 733.355C811.19 731.998 811.725 730.712 812.585 729.652C813.121 728.993 813.657 728.334 814.194 727.675C815.007 726.658 815.842 725.661 816.655 724.644C816.749 724.547 816.837 724.445 816.92 724.339C817.856 723.179 818.791 722.04 819.727 720.88C818.019 718.229 815.721 716.009 813.014 714.391C803.636 708.899 790.698 712.703 783.924 721.186C777.13 729.668 775.848 741.569 778.208 752.167C780.528 761.186 784.367 769.743 789.559 777.473C789.05 778.124 788.521 778.755 788.013 779.406C778.716 791.36 770.614 804.197 763.821 817.731C765.743 802.72 742.243 748.508 733.155 737.026C722.238 723.233 699.853 729.252 697.93 746.737C697.912 746.906 697.893 747.075 697.876 747.244C699.225 748.006 700.547 748.814 701.84 749.669C703.464 750.755 704.722 752.305 705.45 754.118C706.178 755.93 706.342 757.92 705.919 759.828C705.497 761.735 704.508 763.47 703.082 764.805C701.657 766.141 699.861 767.015 697.931 767.312L697.733 767.343C679.664 793.142 737.589 860.291 752.088 845.214C745.264 864.554 740.983 884.699 739.354 905.143C738.432 917.204 738.486 929.32 739.517 941.373L739.456 940.945C736.234 914.695 680.967 875.666 664.828 878.917C655.53 880.789 646.373 880.364 647.785 889.742C647.807 889.892 647.83 890.041 647.854 890.191C650.358 891.211 652.797 892.387 655.156 893.71C656.506 894.472 657.828 895.28 659.12 896.135C660.745 897.22 662.003 898.771 662.731 900.583C663.459 902.396 663.622 904.386 663.2 906.293C662.777 908.2 661.789 909.936 660.363 911.271C658.938 912.607 657.142 913.481 655.212 913.778L655.014 913.809C654.871 913.829 654.749 913.849 654.607 913.87C646.382 942.17 707.378 987.843 744.46 973.31H744.48C748.155 989.279 753.479 1004.82 760.368 1019.69H817.123C817.327 1019.06 817.51 1018.41 817.693 1017.78C812.439 1018.11 807.165 1017.79 801.988 1016.84C806.199 1011.68 810.41 1006.47 814.621 1001.3C814.715 1001.21 814.803 1001.1 814.885 1001C817.021 998.352 819.178 995.728 821.314 993.083L821.315 993.08C821.429 984.974 820.498 976.887 818.547 969.018L818.545 969.017ZM753.553 841.166L753.583 841.125L753.553 841.206V841.166ZM740.981 954.493L740.493 953.395C740.513 952.602 740.513 951.808 740.493 950.995C740.493 950.771 740.452 950.547 740.452 950.323C740.635 951.727 740.798 953.131 741.001 954.534L740.981 954.493Z" fill="#565151"/>
<path d="M180.833 850.918C192.321 850.918 201.634 841.605 201.634 830.118C201.634 818.63 192.321 809.317 180.833 809.317C169.346 809.317 160.033 818.63 160.033 830.118C160.033 841.605 169.346 850.918 180.833 850.918Z" fill="#565151"/>
<path d="M430.436 1077.83C441.924 1077.83 451.236 1068.52 451.236 1057.03C451.236 1045.54 441.924 1036.23 430.436 1036.23C418.948 1036.23 409.636 1045.54 409.636 1057.03C409.636 1068.52 418.948 1077.83 430.436 1077.83Z" fill="#565151"/>
<path d="M1377.79 1077.83C1389.28 1077.83 1398.59 1068.52 1398.59 1057.03C1398.59 1045.54 1389.28 1036.23 1377.79 1036.23C1366.3 1036.23 1356.99 1045.54 1356.99 1057.03C1356.99 1068.52 1366.3 1077.83 1377.79 1077.83Z" fill="#565151"/>
<path d="M1428.85 813.099C1440.33 813.099 1449.65 803.787 1449.65 792.299C1449.65 780.812 1440.33 771.499 1428.85 771.499C1417.36 771.499 1408.05 780.812 1408.05 792.299C1408.05 803.787 1417.36 813.099 1428.85 813.099Z" fill="#565151"/>
<path d="M1368.34 620.224C1379.82 620.224 1389.14 610.912 1389.14 599.424C1389.14 587.937 1379.82 578.624 1368.34 578.624C1356.85 578.624 1347.54 587.937 1347.54 599.424C1347.54 610.912 1356.85 620.224 1368.34 620.224Z" fill="#565151"/>
<path d="M500.4 792.299C500.388 797.613 498.333 802.717 494.661 806.558C490.99 810.398 485.982 812.68 480.675 812.931C475.368 813.182 470.167 811.384 466.149 807.907C462.132 804.43 459.604 799.542 459.09 794.254C458.576 788.966 460.114 783.682 463.387 779.497C466.66 775.312 471.417 772.545 476.673 771.769C481.929 770.993 487.283 772.268 491.625 775.329C495.968 778.39 498.967 783.004 500.003 788.215C500.27 789.56 500.403 790.928 500.4 792.299Z" fill="#565151"/>
<path d="M916.405 680.734C927.892 680.734 937.205 671.422 937.205 659.934C937.205 648.446 927.892 639.134 916.405 639.134C904.917 639.134 895.604 648.446 895.604 659.934C895.604 671.422 904.917 680.734 916.405 680.734Z" fill="#565151"/>
<path d="M710.293 659.934C710.281 665.247 708.226 670.352 704.555 674.193C700.883 678.033 695.875 680.315 690.568 680.566C685.261 680.817 680.06 679.018 676.043 675.542C672.025 672.065 669.497 667.177 668.983 661.889C668.469 656.601 670.007 651.317 673.28 647.132C676.553 642.946 681.31 640.18 686.566 639.404C691.822 638.628 697.176 639.902 701.518 642.964C705.861 646.025 708.861 650.638 709.896 655.85C710.163 657.195 710.296 658.563 710.293 659.934Z" fill="#565151"/>
<path d="M441.782 599.424C441.769 604.738 439.714 609.842 436.043 613.683C432.371 617.523 427.364 619.805 422.056 620.056C416.749 620.308 411.549 618.509 407.531 615.032C403.513 611.556 400.985 606.667 400.471 601.379C399.957 596.091 401.496 590.807 404.769 586.622C408.042 582.437 412.798 579.67 418.055 578.894C423.311 578.118 428.664 579.393 433.007 582.454C437.349 585.515 440.349 590.129 441.384 595.34C441.651 596.685 441.784 598.053 441.782 599.424Z" fill="#565151"/>
<path d="M1133.86 858.481C1145.35 858.481 1154.66 849.169 1154.66 837.681C1154.66 826.193 1145.35 816.881 1133.86 816.881C1122.37 816.881 1113.06 826.193 1113.06 837.681C1113.06 849.169 1122.37 858.481 1133.86 858.481Z" fill="#565151"/>
<path d="M806.731 669.389C823.44 669.389 836.986 655.843 836.986 639.134C836.986 622.424 823.44 608.879 806.731 608.879C790.022 608.879 776.476 622.424 776.476 639.134C776.476 655.843 790.022 669.389 806.731 669.389Z" fill="#565151"/>
<path d="M1624.92 1079.42L2.97633 1080C2.68066 1080 2.38788 1079.94 2.11472 1079.83C1.84155 1079.72 1.59337 1079.55 1.3843 1079.34C1.17522 1079.13 1.00936 1078.88 0.896213 1078.61C0.783065 1078.34 0.724854 1078.04 0.724854 1077.75C0.724854 1077.45 0.783065 1077.16 0.896213 1076.89C1.00936 1076.61 1.17522 1076.37 1.3843 1076.16C1.59337 1075.95 1.84155 1075.78 2.11472 1075.67C2.38788 1075.56 2.68066 1075.5 2.97633 1075.5L1624.92 1074.92C1625.52 1074.92 1626.09 1075.16 1626.51 1075.58C1626.93 1076 1627.17 1076.57 1627.17 1077.17C1627.17 1077.76 1626.93 1078.34 1626.51 1078.76C1626.09 1079.18 1625.52 1079.42 1624.92 1079.42Z" fill="#CACACA"/>
</g>
<defs>
<clipPath id="clip0_368_2264">
<rect width="1626.45" height="1080" fill="white" transform="translate(0.724854)"/>
</clipPath>
</defs>
</svg>
