<svg width="961" height="1080" viewBox="0 0 961 1080" fill="none" xmlns="http://www.w3.org/2000/svg">
<g clip-path="url(#clip0_368_2156)">
<path d="M544.635 832.158C774.429 832.158 960.714 645.873 960.714 416.079C960.714 186.285 774.429 0 544.635 0C314.841 0 128.556 186.285 128.556 416.079C128.556 645.873 314.841 832.158 544.635 832.158Z" fill="#CDE4C5"/>
<path d="M816.536 186.07H54.337C52.7026 186.035 51.4059 184.682 51.4409 183.047C51.4748 181.462 52.7518 180.185 54.337 180.151H816.536C818.171 180.186 819.468 181.54 819.433 183.174C819.399 184.759 818.122 186.036 816.536 186.07Z" fill="#CACACA"/>
<path d="M556.78 285.805H346.079C330.253 285.805 317.423 298.634 317.423 314.46V314.46C317.423 330.287 330.253 343.116 346.079 343.116H556.78C572.607 343.116 585.436 330.287 585.436 314.46C585.436 298.634 572.607 285.805 556.78 285.805Z" fill="white"/>
<path d="M209.964 400.428H692.895C708.721 400.428 721.551 413.257 721.551 429.083C721.551 444.91 708.721 457.739 692.895 457.739H209.964C194.138 457.739 181.308 444.91 181.308 429.083C181.308 413.257 194.138 400.428 209.964 400.428Z" fill="white"/>
<path d="M209.964 515.051H692.895C708.721 515.051 721.551 527.88 721.551 543.706C721.551 559.533 708.721 572.362 692.895 572.362H209.964C194.138 572.362 181.308 559.533 181.308 543.706C181.308 527.88 194.138 515.051 209.964 515.051Z" fill="white"/>
<path d="M150.117 1077.48L148.981 1077.37C110.419 1073.39 75.5587 1052.65 53.662 1020.66C47.6643 1011.75 42.8128 1002.11 39.2221 991.986L38.877 991.02L39.8987 990.938C52.0977 989.956 64.6297 987.886 70.1969 986.901L34.2982 974.738L34.0763 973.673C31.9479 963.673 36.1175 953.385 44.6068 947.689C53.1191 941.719 64.4071 941.528 73.1165 947.207C77.025 949.703 81.1131 952.176 85.0663 954.568C98.6515 962.785 112.699 971.282 123.231 982.909C139.202 1000.89 146.203 1025.12 142.283 1048.85L150.117 1077.48Z" fill="#F2F2F2"/>
<path d="M280.608 1059.63L298.299 1059.63L306.718 991.379L280.603 991.381L280.608 1059.63Z" fill="#A0616A"/>
<path d="M279.984 1078.08L334.393 1078.08V1077.39C334.392 1065.7 324.911 1056.22 313.215 1056.22L303.275 1048.68L284.733 1056.22L279.983 1056.22L279.984 1078.08Z" fill="#2F2E41"/>
<path d="M138.815 1010.62L152.967 1021.24L200.657 971.7L179.768 956.03L138.815 1010.62Z" fill="#A0616A"/>
<path d="M127.239 1025.01L170.762 1057.66L171.175 1057.11C178.193 1047.76 176.299 1034.48 166.944 1027.46L163.518 1015.47L144.16 1010.37L140.361 1007.52L127.239 1025.01Z" fill="#2F2E41"/>
<path d="M197.629 739.364C197.629 739.364 198.605 766.007 199.837 787.373C200.039 790.877 191.83 794.684 192.043 798.496C192.184 801.025 193.727 803.484 193.87 806.121C194.021 808.904 191.891 811.367 192.043 814.245C192.191 817.058 194.621 820.282 194.768 823.161C196.346 854.136 202.065 891.218 196.338 901.584C193.516 906.693 157.539 977.469 157.539 977.469C157.539 977.469 177.584 1007.54 183.311 997.513C190.875 984.276 249.173 922.345 249.173 910.518C249.173 898.706 262.66 810.179 262.66 810.179L272.065 862.568L276.377 872.948L275.022 879.042L277.808 887.266L277.959 895.405L280.672 910.518C280.672 910.518 272.511 1028.27 277.107 1031.55C281.717 1034.84 304.039 1040.75 306.673 1034.84C309.293 1028.93 326.348 911.95 326.348 911.95C326.348 911.95 329.097 858.344 332.075 808.518C332.247 805.626 334.28 802.132 334.438 799.283C334.624 795.976 333.335 791.68 333.507 788.473C333.693 784.794 335.325 782.202 335.483 778.68C336.7 751.462 329.868 718.317 327.692 715.053C321.12 705.202 315.207 697.327 315.207 697.327C315.207 697.327 226.691 668.244 203.038 697.796L197.629 739.364Z" fill="#2F2E41"/>
<path d="M285.912 465.392L250.822 458.374L234.447 480.597C203.892 510.641 203.431 537.157 208.886 579.66V639.313L204.938 679.302C204.938 679.302 190.963 708.534 205.377 715.34C219.791 722.146 314.472 721.566 323.512 718.849C332.552 716.132 324.717 712.797 322.343 700.135C317.884 676.351 320.866 687.823 321.173 680.251C325.573 571.622 315.325 527.025 314.284 515.303L296.439 482.937L285.912 465.392Z" fill="#F1C21B"/>
<path d="M470.856 552.977C467.199 559.907 458.617 562.559 451.688 558.902C450.949 558.512 450.246 558.058 449.587 557.544L373.807 605.661L374.026 579.463L447.64 536.744C452.883 530.865 461.9 530.35 467.779 535.594C472.698 539.981 473.97 547.168 470.856 552.977Z" fill="#A0616A"/>
<path d="M258.206 495.731L249.579 494.816C241.607 493.99 233.786 497.404 228.972 503.811C227.129 506.241 225.805 509.025 225.082 511.988L225.077 512.012C222.913 520.932 226.307 530.28 233.69 535.733L263.488 557.702C284.399 585.958 323.699 604.704 369.798 619.933L441.453 575.432L416.109 544.736L366.96 571.076L293.903 514.523L293.861 514.489L266.056 496.575L258.206 495.731Z" fill="#F1C21B"/>
<path d="M274.055 448.161C296.654 448.161 314.975 429.841 314.975 407.242C314.975 384.643 296.654 366.322 274.055 366.322C251.456 366.322 233.136 384.643 233.136 407.242C233.136 429.841 251.456 448.161 274.055 448.161Z" fill="#A0616A"/>
<path d="M275 448.17C274.67 448.181 274.34 448.188 274.009 448.197C273.868 448.564 273.716 448.927 273.54 449.284L275 448.17Z" fill="#2F2E41"/>
<path d="M286.23 408.377C286.295 408.78 286.393 409.177 286.524 409.564C286.47 409.159 286.371 408.761 286.23 408.377Z" fill="#2F2E41"/>
<path d="M315.497 368.073C313.813 373.303 312.309 366.669 306.769 367.862C300.103 369.298 292.347 368.805 286.889 364.719C278.756 358.752 268.216 357.146 258.675 360.419C249.335 363.723 233.688 366.053 231.255 375.656C230.409 378.994 230.073 382.617 228.022 385.384C226.23 387.803 223.4 389.182 221.034 391.043C213.045 397.329 219.151 415.189 222.932 424.625C226.714 434.062 235.388 440.936 244.924 444.457C254.152 447.864 264.166 448.465 274.009 448.198C275.722 443.757 274.982 438.629 273.569 434.026C272.04 429.043 269.776 424.233 269.137 419.06C268.498 413.887 269.901 408.01 274.238 405.12C278.225 402.463 284.714 404.082 286.23 408.377C285.345 403.007 290.786 397.81 296.395 396.896C302.418 395.915 308.44 398.089 314.445 399.171C320.45 400.254 318.319 374.972 315.497 368.073Z" fill="#2F2E41"/>
<path d="M544.35 474.931C548.165 428.841 513.893 388.384 467.802 384.57C421.711 380.755 381.255 415.027 377.44 461.117C373.626 507.208 407.897 547.665 453.988 551.479C500.079 555.294 540.535 521.022 544.35 474.931Z" fill="#DA1E28"/>
<path d="M482.892 433.133L460.895 455.129L438.898 433.133C435.337 429.572 429.564 429.572 426.003 433.133C422.443 436.693 422.443 442.467 426.003 446.027L448 468.024L426.003 490.021C422.446 493.585 422.451 499.359 426.015 502.916C429.575 506.469 435.339 506.469 438.898 502.916L460.895 480.919L482.892 502.916C486.456 506.473 492.229 506.468 495.787 502.904C499.34 499.345 499.34 493.581 495.787 490.021L473.79 468.024L495.787 446.027C499.348 442.467 499.348 436.693 495.787 433.133C492.226 429.572 486.453 429.572 482.892 433.133Z" fill="white"/>
<path d="M427.896 397.64C430.365 405.076 426.337 413.105 418.901 415.574C418.108 415.837 417.294 416.03 416.467 416.15L398.726 504.144L379.973 485.85L400.11 403.154C399.497 395.301 405.368 388.438 413.222 387.826C419.793 387.314 425.86 391.371 427.896 397.64Z" fill="#A0616A"/>
<path d="M239.369 511.457L232.736 517.05C226.621 522.23 223.67 530.237 224.961 538.147C225.438 541.16 226.53 544.042 228.168 546.615L228.182 546.635C233.12 554.372 242.216 558.395 251.262 556.843L287.744 550.549C322.61 555.021 363.345 539.64 406.25 516.918L423.744 434.402L384.048 431.44L369.029 485.142L277.642 498.708L277.589 498.715L245.412 506.377L239.369 511.457Z" fill="#F1C21B"/>
<path d="M447.1 1079.5L1.94416 1080C0.866962 1080 -0.00347871 1079.12 1.04532e-05 1078.04C0.00346686 1076.97 0.87186 1076.1 1.94416 1076.1L447.1 1075.6C448.177 1075.6 449.047 1076.48 449.044 1077.55C449.04 1078.62 448.172 1079.49 447.1 1079.5Z" fill="#CACACA"/>
<path d="M93.0065 148.582C100.657 148.582 106.859 142.242 106.859 134.42C106.859 126.599 100.657 120.259 93.0065 120.259C85.3558 120.259 79.1537 126.599 79.1537 134.42C79.1537 142.242 85.3558 148.582 93.0065 148.582Z" fill="#00A55B"/>
<path d="M140.862 148.582C148.512 148.582 154.715 142.242 154.715 134.42C154.715 126.599 148.512 120.259 140.862 120.259C133.211 120.259 127.009 126.599 127.009 134.42C127.009 142.242 133.211 148.582 140.862 148.582Z" fill="#00A55B"/>
<path d="M188.717 148.582C196.368 148.582 202.57 142.242 202.57 134.42C202.57 126.599 196.368 120.259 188.717 120.259C181.066 120.259 174.864 126.599 174.864 134.42C174.864 142.242 181.066 148.582 188.717 148.582Z" fill="#00A55B"/>
<path d="M243.285 145.613C242.859 145.613 242.434 145.449 242.114 145.121L232.767 135.566C232.143 134.929 232.143 133.911 232.767 133.275L242.114 123.72C242.748 123.074 243.786 123.064 244.43 123.695C245.077 124.328 245.088 125.365 244.456 126.011L236.229 134.42L244.456 142.83C245.088 143.476 245.077 144.514 244.43 145.146C244.112 145.458 243.698 145.613 243.285 145.613Z" fill="#00A55B"/>
<path d="M258.991 145.614C258.578 145.614 258.164 145.458 257.846 145.146C257.199 144.514 257.188 143.477 257.82 142.83L266.046 134.42L257.82 126.011C257.188 125.365 257.199 124.328 257.846 123.695C258.491 123.062 259.53 123.074 260.162 123.721L269.509 133.275C270.132 133.912 270.132 134.929 269.509 135.566L260.162 145.121C259.842 145.449 259.417 145.614 258.991 145.614Z" fill="#00A55B"/>
<path d="M747.982 121.898H730.602C728.62 121.898 727.015 123.504 727.015 125.486V142.883C727.015 144.865 728.62 146.47 730.602 146.47H747.982C749.964 146.47 751.586 144.865 751.586 142.883V125.486C751.586 123.504 749.964 121.898 747.982 121.898Z" fill="#00A55B"/>
<path d="M705.392 121.898H688.011C686.029 121.898 684.424 123.504 684.424 125.486V142.883C684.424 144.865 686.029 146.47 688.011 146.47H705.392C707.374 146.47 708.995 144.865 708.995 142.883V125.486C708.995 123.504 707.374 121.898 705.392 121.898Z" fill="#00A55B"/>
<path d="M788.116 122.718H770.736C768.753 122.718 767.148 124.323 767.148 126.305V143.702C767.148 145.684 768.753 147.289 770.736 147.289H788.116C790.098 147.289 791.72 145.684 791.72 143.702V126.305C791.72 124.323 790.098 122.718 788.116 122.718Z" fill="#00A55B"/>
<path d="M526.147 129.335H387.219C384.795 129.335 382.846 131.301 382.846 133.709C382.846 136.117 384.795 138.082 387.219 138.082H526.147C528.555 138.082 530.521 136.117 530.521 133.709C530.521 131.301 528.555 129.335 526.147 129.335Z" fill="#00A55B"/>
</g>
<defs>
<clipPath id="clip0_368_2156">
<rect width="960.714" height="1080" fill="white"/>
</clipPath>
</defs>
</svg>
