<svg width="567" height="508" viewBox="0 0 567 508" fill="none" xmlns="http://www.w3.org/2000/svg">
<g clip-path="url(#clip0_438_2642)">
<path d="M290.483 1.35663L272.084 6.1014L45.4025 64.5581L27.0033 69.3029C18.0725 71.6167 10.4243 77.3785 5.73644 85.3243C1.04861 93.2702 -0.29594 102.751 1.99776 111.687L81.7807 421.067C84.0945 429.998 89.8563 437.646 97.8021 442.334C105.748 447.022 115.229 448.366 124.165 446.073L124.212 446.061L387.597 378.139L387.645 378.127C396.576 375.813 404.224 370.051 408.912 362.105C413.599 354.159 414.944 344.678 412.65 335.742L332.867 26.3623C330.554 17.4315 324.792 9.78325 316.846 5.09539C308.9 0.407527 299.419 -0.937057 290.483 1.35663Z" fill="#F7F3F2"/>
<path d="M292.985 11.0563L271.193 16.6762L51.2973 73.3828L29.5051 79.0026C23.1453 80.6503 17.6987 84.7534 14.3604 90.4118C11.0221 96.0702 10.0646 102.822 11.698 109.185L91.4809 418.565C93.1286 424.925 97.2318 430.372 102.89 433.71C108.549 437.048 115.3 438.006 121.664 436.372L121.711 436.36L385.096 368.439L385.144 368.426C391.504 366.778 396.95 362.675 400.288 357.017C403.627 351.359 404.584 344.607 402.951 338.244L323.168 28.8634C321.52 22.5037 317.417 17.0572 311.759 13.7189C306.1 10.3805 299.349 9.42299 292.985 11.0563Z" fill="white"/>
<path d="M276.53 111.242L143.29 145.602C141.802 145.986 140.222 145.763 138.898 144.982C137.575 144.201 136.615 142.926 136.232 141.438C135.848 139.95 136.071 138.37 136.852 137.046C137.633 135.723 138.908 134.763 140.396 134.38L273.636 100.02C275.123 99.6375 276.702 99.8615 278.025 100.643C279.347 101.424 280.305 102.698 280.689 104.185C281.073 105.672 280.85 107.251 280.07 108.574C279.29 109.898 278.017 110.857 276.53 111.242Z" fill="#F7F3F2"/>
<path d="M304.559 124.21L148.173 164.539C146.685 164.923 145.105 164.7 143.782 163.919C142.458 163.138 141.499 161.863 141.115 160.375C140.731 158.887 140.955 157.307 141.736 155.984C142.516 154.66 143.791 153.701 145.279 153.317L301.665 112.988C303.153 112.605 304.733 112.828 306.057 113.609C307.38 114.389 308.34 115.664 308.723 117.152C309.107 118.641 308.884 120.22 308.103 121.544C307.322 122.867 306.047 123.827 304.559 124.21Z" fill="#F7F3F2"/>
<path d="M298.416 196.11L165.176 230.47C164.439 230.66 163.672 230.703 162.918 230.596C162.165 230.49 161.44 230.236 160.784 229.85C160.129 229.463 159.556 228.951 159.099 228.343C158.641 227.735 158.308 227.043 158.118 226.306C157.928 225.569 157.885 224.802 157.991 224.048C158.097 223.295 158.351 222.57 158.738 221.914C159.125 221.259 159.637 220.686 160.245 220.228C160.853 219.771 161.545 219.438 162.282 219.248L295.522 184.888C296.259 184.698 297.026 184.655 297.779 184.761C298.533 184.867 299.258 185.121 299.913 185.508C300.569 185.895 301.142 186.407 301.599 187.015C302.057 187.623 302.39 188.315 302.58 189.052C302.77 189.789 302.813 190.556 302.707 191.309C302.6 192.063 302.346 192.788 301.96 193.443C301.573 194.099 301.061 194.671 300.453 195.129C299.845 195.587 299.153 195.92 298.416 196.11Z" fill="#F7F3F2"/>
<path d="M326.445 209.078L170.06 249.407C169.323 249.597 168.556 249.64 167.802 249.534C167.049 249.427 166.323 249.173 165.668 248.787C165.013 248.4 164.44 247.888 163.982 247.28C163.525 246.672 163.191 245.98 163.001 245.243C162.811 244.506 162.768 243.739 162.875 242.985C162.981 242.232 163.235 241.507 163.622 240.851C164.008 240.196 164.52 239.623 165.128 239.166C165.736 238.708 166.429 238.375 167.166 238.185L323.551 197.856C325.04 197.472 326.619 197.695 327.943 198.476C329.267 199.257 330.226 200.532 330.61 202.02C330.993 203.508 330.77 205.088 329.989 206.412C329.208 207.735 327.934 208.694 326.445 209.078Z" fill="#F7F3F2"/>
<path d="M320.301 280.977L187.061 315.337C185.574 315.72 183.995 315.496 182.672 314.715C181.349 313.934 180.391 312.66 180.007 311.172C179.623 309.685 179.846 308.106 180.626 306.782C181.406 305.459 182.68 304.5 184.167 304.115L317.407 269.755C318.896 269.371 320.475 269.594 321.799 270.375C323.122 271.156 324.082 272.431 324.465 273.919C324.849 275.407 324.626 276.987 323.845 278.311C323.064 279.634 321.79 280.594 320.301 280.977Z" fill="#F7F3F2"/>
<path d="M348.331 293.946L191.945 334.275C191.208 334.466 190.441 334.509 189.687 334.403C188.933 334.297 188.207 334.044 187.551 333.657C186.895 333.271 186.322 332.759 185.864 332.15C185.406 331.542 185.072 330.849 184.882 330.112C184.692 329.375 184.649 328.607 184.756 327.853C184.862 327.099 185.116 326.374 185.504 325.718C185.891 325.063 186.403 324.49 187.012 324.032C187.621 323.575 188.314 323.242 189.051 323.053L345.437 282.724C346.925 282.34 348.505 282.563 349.829 283.344C351.152 284.125 352.111 285.4 352.495 286.888C352.879 288.376 352.656 289.956 351.875 291.279C351.094 292.603 349.819 293.562 348.331 293.946Z" fill="#F7F3F2"/>
<path d="M474.248 79.7803H202.148C192.922 79.7907 184.077 83.4601 177.554 89.9836C171.03 96.5071 167.361 105.352 167.351 114.578V434.079C167.361 443.305 171.03 452.15 177.554 458.673C184.077 465.197 192.922 468.866 202.148 468.877H474.248C483.473 468.866 492.318 465.197 498.842 458.673C505.365 452.15 509.035 443.305 509.045 434.079V114.578C509.035 105.352 505.365 96.5071 498.842 89.9836C492.318 83.4601 483.473 79.7907 474.248 79.7803Z" fill="#E5E0DF"/>
<path d="M474.248 89.7979H202.148C195.578 89.8052 189.279 92.4183 184.634 97.0638C179.988 101.709 177.375 108.008 177.368 114.578V434.08C177.375 440.649 179.988 446.948 184.634 451.593C189.279 456.239 195.578 458.852 202.148 458.859H474.248C480.818 458.852 487.116 456.239 491.762 451.593C496.407 446.948 499.02 440.649 499.028 434.08V114.578C499.02 108.008 496.407 101.709 491.762 97.0639C487.116 92.4184 480.818 89.8053 474.248 89.7979Z" fill="white"/>
<path d="M502.834 507.75C537.916 507.75 566.355 479.311 566.355 444.229C566.355 409.147 537.916 380.708 502.834 380.708C467.753 380.708 439.313 409.147 439.313 444.229C439.313 479.311 467.753 507.75 502.834 507.75Z" fill="#00A55B"/>
<path d="M519.42 439.705H507.358V427.643C507.358 426.443 506.881 425.293 506.033 424.444C505.185 423.596 504.034 423.119 502.834 423.119C501.635 423.119 500.484 423.596 499.636 424.444C498.787 425.293 498.311 426.443 498.311 427.643V439.705H486.248C485.049 439.705 483.898 440.182 483.05 441.03C482.201 441.879 481.725 443.029 481.725 444.229C481.725 445.429 482.201 446.579 483.05 447.427C483.898 448.276 485.049 448.752 486.248 448.752H498.311V460.815C498.311 462.015 498.787 463.165 499.636 464.013C500.484 464.862 501.635 465.338 502.834 465.338C504.034 465.338 505.185 464.862 506.033 464.013C506.881 463.165 507.358 462.015 507.358 460.815V448.752H519.42C520.62 448.752 521.771 448.276 522.619 447.427C523.467 446.579 523.944 445.429 523.944 444.229C523.944 443.029 523.467 441.879 522.619 441.03C521.771 440.182 520.62 439.705 519.42 439.705Z" fill="white"/>
<path d="M433.297 265.363H295.698C294.936 265.364 294.182 265.215 293.478 264.924C292.774 264.633 292.135 264.207 291.596 263.668C291.057 263.13 290.63 262.491 290.338 261.788C290.047 261.084 289.896 260.33 289.896 259.569C289.896 258.807 290.047 258.053 290.338 257.35C290.63 256.646 291.057 256.007 291.596 255.469C292.135 254.931 292.774 254.504 293.478 254.213C294.182 253.922 294.936 253.773 295.698 253.774H433.297C434.833 253.776 436.305 254.387 437.39 255.473C438.475 256.56 439.085 258.033 439.085 259.569C439.085 261.104 438.475 262.577 437.39 263.664C436.305 264.75 434.833 265.362 433.297 265.363Z" fill="#E5E0DF"/>
<path d="M457.2 284.92H295.698C294.936 284.921 294.182 284.772 293.478 284.481C292.774 284.19 292.135 283.763 291.596 283.225C291.057 282.687 290.63 282.048 290.338 281.344C290.047 280.641 289.896 279.887 289.896 279.125C289.896 278.364 290.047 277.61 290.338 276.906C290.63 276.203 291.057 275.564 291.596 275.026C292.135 274.488 292.774 274.061 293.478 273.77C294.182 273.479 294.936 273.33 295.698 273.331H457.2C458.737 273.331 460.211 273.941 461.297 275.028C462.384 276.115 462.994 277.589 462.994 279.125C462.994 280.662 462.384 282.136 461.297 283.223C460.211 284.31 458.737 284.92 457.2 284.92Z" fill="#E5E0DF"/>
<path d="M433.297 353.008H295.698C294.936 353.008 294.182 352.859 293.478 352.568C292.774 352.278 292.135 351.851 291.596 351.313C291.057 350.774 290.63 350.135 290.338 349.432C290.047 348.728 289.896 347.974 289.896 347.213C289.896 346.451 290.047 345.697 290.338 344.994C290.63 344.29 291.057 343.651 291.596 343.113C292.135 342.575 292.774 342.148 293.478 341.857C294.182 341.567 294.936 341.417 295.698 341.418H433.297C434.834 341.418 436.308 342.029 437.394 343.115C438.481 344.202 439.091 345.676 439.091 347.213C439.091 348.75 438.481 350.224 437.394 351.31C436.308 352.397 434.834 353.008 433.297 353.008Z" fill="#E5E0DF"/>
<path d="M457.2 372.565H295.698C294.936 372.566 294.182 372.416 293.478 372.125C292.774 371.835 292.135 371.408 291.596 370.87C291.057 370.332 290.63 369.693 290.338 368.989C290.047 368.286 289.896 367.532 289.896 366.77C289.896 366.009 290.047 365.254 290.338 364.551C290.63 363.848 291.057 363.208 291.596 362.67C292.135 362.132 292.774 361.705 293.478 361.415C294.182 361.124 294.936 360.974 295.698 360.975H457.2C457.961 360.974 458.716 361.124 459.419 361.415C460.123 361.705 460.763 362.132 461.301 362.67C461.84 363.208 462.268 363.848 462.559 364.551C462.851 365.254 463.001 366.009 463.001 366.77C463.001 367.532 462.851 368.286 462.559 368.989C462.268 369.693 461.84 370.332 461.301 370.87C460.763 371.408 460.123 371.835 459.419 372.125C458.716 372.416 457.961 372.566 457.2 372.565Z" fill="#E5E0DF"/>
<path d="M433.45 167.798H332.003C330.467 167.798 328.993 167.187 327.906 166.101C326.819 165.014 326.209 163.54 326.209 162.003C326.209 160.466 326.819 158.992 327.906 157.906C328.993 156.819 330.467 156.208 332.003 156.208H433.45C434.987 156.208 436.46 156.819 437.547 157.906C438.634 158.992 439.244 160.466 439.244 162.003C439.244 163.54 438.634 165.014 437.547 166.101C436.46 167.187 434.987 167.798 433.45 167.798Z" fill="#E5E0DF"/>
<path d="M457.353 187.355H332.003C331.242 187.355 330.489 187.205 329.786 186.914C329.083 186.622 328.444 186.196 327.906 185.657C327.368 185.119 326.941 184.481 326.65 183.778C326.359 183.075 326.209 182.321 326.209 181.56C326.209 180.799 326.359 180.046 326.65 179.343C326.941 178.639 327.368 178.001 327.906 177.463C328.444 176.925 329.083 176.498 329.786 176.206C330.489 175.915 331.242 175.765 332.003 175.765H457.353C458.89 175.765 460.363 176.376 461.45 177.463C462.537 178.549 463.147 180.023 463.147 181.56C463.147 183.097 462.537 184.571 461.45 185.657C460.363 186.744 458.89 187.355 457.353 187.355Z" fill="#E5E0DF"/>
<rect x="212.944" y="133" width="99" height="78" rx="9" fill="#87C38F"/>
<rect x="212.944" y="133" width="96" height="78" rx="9" fill="#87C38F"/>
<rect x="212.944" y="245" width="55" height="49" rx="9" fill="#E5E0DF"/>
<rect x="105.54" y="319.953" width="55" height="49" rx="9" transform="rotate(-15 105.54 319.953)" fill="#E5E0DF"/>
<rect x="82.9438" y="232.235" width="55" height="49" rx="9" transform="rotate(-15 82.9438 232.235)" fill="#E5E0DF"/>
<rect x="58.9438" y="146.235" width="55" height="49" rx="9" transform="rotate(-15 58.9438 146.235)" fill="#E5E0DF"/>
<rect x="212.944" y="330" width="55" height="49" rx="9" fill="#E5E0DF"/>
</g>
<defs>
<clipPath id="clip0_438_2642">
<rect width="565.464" height="507.5" fill="white" transform="translate(0.891602 0.25)"/>
</clipPath>
</defs>
</svg>
