<svg width="1078" height="1080" viewBox="0 0 1078 1080" fill="none" xmlns="http://www.w3.org/2000/svg">
<g clip-path="url(#clip0_368_2234)">
<path d="M104.497 909.806L95.0134 872.404C78.1991 865.278 60.9962 859.106 43.4868 853.917L42.2898 871.3L37.4353 852.149C15.7204 845.942 0.94751 843.211 0.94751 843.211C0.94751 843.211 20.8972 919.091 62.7541 977.101L111.521 985.668L73.6354 991.131C78.9006 997.466 84.5588 1003.46 90.5768 1009.09C151.46 1065.6 219.273 1091.53 242.04 1067C264.808 1042.47 233.909 976.776 173.026 920.269C154.151 902.749 130.442 888.691 106.707 877.623L104.497 909.806Z" fill="#00A55B"/>
<path d="M194.684 869.18L205.899 832.262C195.19 817.47 183.655 803.294 171.349 789.802L161.339 804.063L167.081 785.16C151.698 768.628 140.464 758.654 140.464 758.654C140.464 758.654 118.324 833.924 124.165 905.219L161.484 937.76L126.222 922.852C127.455 930.998 129.2 939.059 131.446 946.986C154.354 1026.83 199.002 1084.08 231.17 1074.85C263.339 1065.62 270.847 993.414 247.94 913.566C240.839 888.812 227.808 864.521 213.211 842.78L194.684 869.18Z" fill="#00A55B"/>
<path d="M752.317 255.853H746.402V93.7971C746.402 81.4795 743.975 69.2825 739.262 57.9025C734.548 46.5225 727.639 36.1824 718.929 27.4725C710.219 18.7627 699.879 11.8536 688.499 7.13987C677.119 2.42613 664.922 0 652.604 0H309.256C284.38 0 260.522 9.88216 242.932 27.4725C225.341 45.0629 215.459 68.9205 215.459 93.7971V982.862C215.459 995.18 217.885 1007.38 222.599 1018.76C227.313 1030.14 234.222 1040.48 242.932 1049.19C251.642 1057.9 261.982 1064.81 273.362 1069.52C284.742 1074.23 296.939 1076.66 309.256 1076.66H652.604C677.481 1076.66 701.338 1066.78 718.928 1049.19C736.518 1031.6 746.4 1007.74 746.4 982.862V371.207H752.316L752.317 255.853Z" fill="#565151"/>
<path d="M656.389 24.3936H611.574C613.636 29.4469 614.422 34.9296 613.865 40.3586C613.308 45.7877 611.424 50.9964 608.38 55.5259C605.336 60.0553 601.224 63.7666 596.407 66.3326C591.591 68.8986 586.217 70.2406 580.759 70.2404H384.059C378.602 70.2401 373.228 68.8978 368.412 66.3316C363.596 63.7654 359.485 60.0541 356.44 55.5247C353.396 50.9952 351.513 45.7867 350.956 40.3579C350.399 34.9291 351.186 29.4467 353.247 24.3936H311.387C292.81 24.3936 274.993 31.7735 261.857 44.9098C248.72 58.0461 241.34 75.8628 241.34 94.4403V982.214C241.34 1000.79 248.72 1018.61 261.857 1031.74C274.993 1044.88 292.81 1052.26 311.387 1052.26H656.389C674.967 1052.26 692.783 1044.88 705.92 1031.74C719.056 1018.61 726.436 1000.79 726.436 982.214V94.4389C726.435 75.8616 719.055 58.0453 705.919 44.9093C692.783 31.7733 674.966 24.3936 656.389 24.3936Z" fill="white"/>
<path d="M439.926 378.037C439.925 371.832 441.558 365.736 444.662 360.362C447.765 354.989 452.23 350.527 457.606 347.428C452.233 344.324 446.137 342.69 439.932 342.689C433.727 342.689 427.632 344.322 422.258 347.424C416.884 350.526 412.421 354.988 409.319 360.361C406.216 365.735 404.583 371.83 404.583 378.035C404.583 384.24 406.216 390.336 409.319 395.709C412.421 401.083 416.884 405.545 422.258 408.647C427.632 411.749 433.727 413.382 439.932 413.381C446.137 413.38 452.233 411.746 457.606 408.643C452.23 405.544 447.766 401.083 444.662 395.711C441.558 390.338 439.925 384.242 439.926 378.037Z" fill="#CCCCCC"/>
<path d="M484.36 378.037C484.359 371.832 485.992 365.736 489.096 360.362C492.2 354.988 496.664 350.527 502.04 347.428C496.667 344.324 490.572 342.69 484.367 342.689C478.162 342.689 472.066 344.322 466.692 347.424C461.318 350.526 456.856 354.988 453.753 360.361C450.651 365.735 449.017 371.83 449.017 378.035C449.017 384.24 450.651 390.336 453.753 395.709C456.856 401.083 461.318 405.545 466.692 408.647C472.066 411.749 478.162 413.382 484.367 413.381C490.572 413.38 496.667 411.746 502.04 408.643C496.665 405.544 492.201 401.083 489.097 395.711C485.993 390.338 484.359 384.242 484.36 378.037Z" fill="#CCCCCC"/>
<path d="M527.786 413.382C547.307 413.382 563.131 397.557 563.131 378.036C563.131 358.515 547.307 342.69 527.786 342.69C508.265 342.69 492.44 358.515 492.44 378.036C492.44 397.557 508.265 413.382 527.786 413.382Z" fill="#00A55B"/>
<path d="M586.857 488.435H380.854C378.893 488.433 377.013 487.653 375.626 486.266C374.239 484.879 373.459 482.999 373.457 481.038V275.035C373.459 273.074 374.239 271.194 375.626 269.807C377.013 268.42 378.893 267.64 380.854 267.638H586.857C588.818 267.64 590.698 268.42 592.085 269.807C593.472 271.194 594.252 273.074 594.254 275.035V481.038C594.252 482.999 593.472 484.879 592.085 486.266C590.698 487.653 588.818 488.433 586.857 488.435ZM380.854 270.598C379.677 270.6 378.549 271.067 377.717 271.9C376.885 272.732 376.417 273.86 376.416 275.036V481.039C376.417 482.216 376.885 483.344 377.717 484.176C378.549 485.008 379.677 485.476 380.854 485.477H586.857C588.034 485.476 589.162 485.008 589.994 484.176C590.826 483.344 591.294 482.216 591.295 481.039V275.036C591.294 273.86 590.826 272.732 589.994 271.9C589.162 271.067 588.034 270.6 586.857 270.598H380.854Z" fill="#CCCCCC"/>
<path d="M632.854 646.346H316.908V649.305H632.854V646.346Z" fill="#CCCCCC"/>
<path d="M326.886 627.871C332.397 627.871 336.864 623.403 336.864 617.893C336.864 612.382 332.397 607.915 326.886 607.915C321.375 607.915 316.908 612.382 316.908 617.893C316.908 623.403 321.375 627.871 326.886 627.871Z" fill="#00A55B"/>
<path d="M632.854 746.118H316.908V749.077H632.854V746.118Z" fill="#CCCCCC"/>
<path d="M326.886 727.644C332.397 727.644 336.864 723.177 336.864 717.666C336.864 712.156 332.397 707.688 326.886 707.688C321.375 707.688 316.908 712.156 316.908 717.666C316.908 723.177 321.375 727.644 326.886 727.644Z" fill="#00A55B"/>
<path d="M627.072 859.733H527.225C525.5 859.731 523.847 859.045 522.627 857.826C521.407 856.606 520.721 854.953 520.719 853.228V818.232C520.721 816.507 521.407 814.854 522.627 813.634C523.847 812.414 525.5 811.728 527.225 811.727H627.072C628.797 811.728 630.451 812.414 631.67 813.634C632.89 814.854 633.576 816.507 633.578 818.232V853.228C633.576 854.953 632.89 856.606 631.67 857.826C630.451 859.045 628.797 859.731 627.072 859.733Z" fill="#00A55B"/>
<path d="M359.433 627.871C364.943 627.871 369.411 623.403 369.411 617.893C369.411 612.382 364.943 607.915 359.433 607.915C353.922 607.915 349.455 612.382 349.455 617.893C349.455 623.403 353.922 627.871 359.433 627.871Z" fill="#00A55B"/>
<path d="M391.98 627.871C397.49 627.871 401.958 623.403 401.958 617.893C401.958 612.382 397.49 607.915 391.98 607.915C386.469 607.915 382.002 612.382 382.002 617.893C382.002 623.403 386.469 627.871 391.98 627.871Z" fill="#00A55B"/>
<path d="M359.433 727.644C364.943 727.644 369.411 723.177 369.411 717.666C369.411 712.156 364.943 707.688 359.433 707.688C353.922 707.688 349.455 712.156 349.455 717.666C349.455 723.177 353.922 727.644 359.433 727.644Z" fill="#00A55B"/>
<path d="M391.98 727.644C397.49 727.644 401.958 723.177 401.958 717.666C401.958 712.156 397.49 707.688 391.98 707.688C386.469 707.688 382.002 712.156 382.002 717.666C382.002 723.177 386.469 727.644 391.98 727.644Z" fill="#00A55B"/>
<path d="M1073.7 1080H35.7583C33.5364 1080 31.7366 1079.21 31.7366 1078.24C31.7366 1077.27 33.5364 1076.48 35.7583 1076.48H1073.7C1075.92 1076.48 1077.73 1077.27 1077.73 1078.24C1077.73 1079.21 1075.92 1080 1073.7 1080Z" fill="#3F3D56"/>
<path d="M817.263 707.582C817.972 707.907 818.654 708.287 819.303 708.721L884.143 681.047L886.457 663.966L912.365 663.808L910.835 702.982L825.253 725.614C825.073 726.209 824.857 726.793 824.606 727.361C823.369 730.001 821.379 732.217 818.887 733.73C816.394 735.243 813.51 735.986 810.597 735.865C807.684 735.745 804.871 734.766 802.512 733.052C800.153 731.338 798.353 728.966 797.339 726.232C796.324 723.499 796.139 720.526 796.808 717.688C797.477 714.85 798.97 712.273 801.098 710.281C803.227 708.288 805.897 706.969 808.773 706.489C811.649 706.009 814.603 706.389 817.263 707.582Z" fill="#FFB8B8"/>
<path d="M921.787 1062.57H904.064L895.633 994.21L921.79 994.211L921.787 1062.57Z" fill="#FFB8B8"/>
<path d="M891.404 1057.51H925.585V1079.03H869.883C869.883 1073.32 872.151 1067.85 876.187 1063.81C880.223 1059.77 885.697 1057.51 891.404 1057.51Z" fill="#2F2E41"/>
<path d="M990.715 1057.56L973.077 1059.3L957.983 992.097L984.015 989.532L990.715 1057.56Z" fill="#FFB8B8"/>
<path d="M959.983 1055.5L993.999 1052.15L996.108 1073.57L940.675 1079.03C940.398 1076.22 940.678 1073.38 941.498 1070.67C942.318 1067.97 943.663 1065.45 945.456 1063.27C947.249 1061.08 949.455 1059.27 951.947 1057.94C954.44 1056.61 957.17 1055.78 959.983 1055.5Z" fill="#2F2E41"/>
<path d="M926.721 591.459C946.33 591.459 962.227 575.562 962.227 555.953C962.227 536.343 946.33 520.446 926.721 520.446C907.111 520.446 891.214 536.343 891.214 555.953C891.214 575.562 907.111 591.459 926.721 591.459Z" fill="#FFB8B8"/>
<path d="M900.103 1048.75C898.58 1048.75 897.105 1048.22 895.937 1047.24C894.769 1046.26 893.985 1044.9 893.721 1043.4C884.547 992.479 854.562 825.971 853.845 821.359C853.829 821.253 853.821 821.146 853.822 821.038V808.624C853.821 808.171 853.962 807.73 854.226 807.363L858.187 801.815C858.375 801.548 858.622 801.328 858.909 801.171C859.195 801.014 859.514 800.925 859.84 800.911C882.424 799.852 956.386 796.749 959.959 801.213C963.548 805.7 962.28 819.294 961.989 821.973L962.003 822.253L995.232 1034.75C995.492 1036.45 995.074 1038.18 994.069 1039.57C993.064 1040.96 991.552 1041.89 989.861 1042.18L969.107 1045.6C967.561 1045.84 965.978 1045.53 964.645 1044.71C963.312 1043.89 962.317 1042.62 961.842 1041.12C955.423 1020.61 933.899 951.614 926.44 924.915C926.393 924.746 926.287 924.6 926.14 924.504C925.993 924.407 925.817 924.368 925.643 924.392C925.469 924.417 925.311 924.504 925.196 924.637C925.082 924.77 925.02 924.94 925.022 925.116C925.395 950.567 926.296 1015.5 926.606 1037.93L926.64 1040.34C926.654 1041.98 926.054 1043.56 924.958 1044.77C923.863 1045.99 922.352 1046.75 920.724 1046.9L900.711 1048.72C900.507 1048.74 900.304 1048.75 900.103 1048.75Z" fill="#2F2E41"/>
<path d="M904.187 605.42C897.99 609.104 894.282 615.873 892.155 622.761C888.216 635.513 885.844 648.698 885.094 662.023L882.845 701.923L855.009 807.7C879.135 828.113 893.052 823.474 925.528 806.777C958.004 790.079 961.715 812.344 961.715 812.344L968.21 722.341L977.488 623.991C975.406 621.483 973.048 619.217 970.46 617.234C961.884 610.565 951.906 605.93 941.278 603.677C930.65 601.425 919.649 601.614 909.104 604.23L904.187 605.42Z" fill="#F1C21B"/>
<path d="M895.145 728.945C895.894 729.227 896.62 729.567 897.315 729.963L961.426 697.874L962.49 680.489L988.936 678.666L990.354 718.295L904.677 746.628C903.977 749.629 902.381 752.345 900.1 754.416C897.819 756.487 894.961 757.815 891.907 758.223C888.853 758.63 885.747 758.098 883.003 756.698C880.259 755.297 878.006 753.094 876.544 750.382C875.082 747.67 874.48 744.577 874.819 741.515C875.158 738.452 876.421 735.566 878.44 733.239C880.459 730.911 883.139 729.254 886.123 728.487C889.107 727.72 892.254 727.88 895.145 728.945Z" fill="#FFB8B8"/>
<path d="M977.024 624.442C992.798 630.009 995.577 690.325 995.577 690.325C977.02 680.118 954.75 696.82 954.75 696.82C954.75 696.82 950.111 681.046 944.544 660.633C942.863 654.891 942.662 648.817 943.959 642.977C945.257 637.136 948.012 631.719 951.966 627.23C951.966 627.23 961.25 618.871 977.024 624.442Z" fill="#F1C21B"/>
<path d="M958.558 565.343C954.134 561.803 948.098 568.237 948.098 568.237L944.559 536.384C944.559 536.384 922.439 539.034 908.283 535.5C894.126 531.966 891.914 548.33 891.914 548.33C891.185 541.72 891.037 535.059 891.472 528.422C892.356 520.459 903.859 512.496 924.209 507.187C944.559 501.878 955.176 524.883 955.176 524.883C969.334 531.961 962.981 568.882 958.558 565.343Z" fill="#2F2E41"/>
</g>
<defs>
<clipPath id="clip0_368_2234">
<rect width="1076.78" height="1080" fill="white" transform="translate(0.947266)"/>
</clipPath>
</defs>
</svg>
