<svg width="764" height="1080" viewBox="0 0 764 1080" fill="none" xmlns="http://www.w3.org/2000/svg">
<g clip-path="url(#clip0_414_2598)">
<path d="M0.384776 1077.67C0.383859 1077.98 0.44306 1078.28 0.558975 1078.56C0.67489 1078.84 0.845259 1079.1 1.06036 1079.31C1.27546 1079.53 1.53102 1079.7 1.81255 1079.82C2.09408 1079.94 2.39607 1080 2.70118 1080H761.107C761.725 1080 762.317 1079.75 762.754 1079.32C763.191 1078.88 763.437 1078.29 763.437 1077.67C763.437 1077.05 763.191 1076.46 762.754 1076.02C762.317 1075.59 761.725 1075.34 761.107 1075.34H2.71504C2.40992 1075.34 2.10758 1075.4 1.82534 1075.51C1.5431 1075.63 1.28648 1075.8 1.0701 1076.02C0.853713 1076.23 0.681825 1076.49 0.564234 1076.77C0.446643 1077.05 0.38567 1077.35 0.384776 1077.66V1077.67Z" fill="#CCCCCC"/>
<path opacity="0.5" d="M303.46 758.522C311.722 756.85 320.184 756.391 328.579 757.159C329.356 757.153 330.099 756.841 330.649 756.292C331.199 755.742 331.51 754.999 331.516 754.221C331.5 753.447 331.186 752.709 330.638 752.162C330.091 751.614 329.353 751.3 328.579 751.284C319.656 750.511 310.668 751.041 301.898 752.857C301.148 753.065 300.51 753.562 300.126 754.24C299.742 754.917 299.642 755.719 299.849 756.47C300.056 757.22 300.553 757.858 301.23 758.243C301.907 758.628 302.709 758.728 303.46 758.522Z" fill="#CCCCCC"/>
<path d="M101.812 707.427C85.6594 685.942 76.3233 661.916 76.0174 634.525C75.497 633.048 75.5834 631.426 76.2576 630.014C76.9318 628.601 78.1387 627.514 79.6137 626.99L134.671 607.509C136.147 606.989 137.769 607.075 139.182 607.749C140.594 608.423 141.682 609.63 142.206 611.105L168 684.007C168.521 685.484 168.434 687.106 167.76 688.518C167.086 689.931 165.879 691.018 164.404 691.542L109.347 711.023C107.871 711.543 106.248 711.457 104.836 710.783C103.423 710.109 102.336 708.902 101.812 707.427Z" fill="#E5E0DF"/>
<path opacity="0.2" d="M114.242 706.127C112.766 706.648 111.144 706.561 109.731 705.887C108.319 705.213 107.231 704.006 106.708 702.531C90.5548 681.046 81.2188 657.02 80.9128 629.629C80.576 628.658 80.5016 627.615 80.6971 626.606L79.6137 626.99C78.1387 627.514 76.9318 628.601 76.2576 630.013C75.5834 631.426 75.497 633.048 76.0173 634.524C76.3233 661.916 85.6593 685.941 101.812 707.426C102.336 708.901 103.423 710.108 104.836 710.783C106.248 711.457 107.871 711.543 109.347 711.023L164.404 691.542C165.381 691.193 166.248 690.591 166.917 689.799C167.587 689.007 168.035 688.051 168.216 687.03L114.242 706.127Z" fill="black"/>
<path d="M140.036 651.562L103.178 664.718C102.591 664.928 101.945 664.895 101.383 664.629C100.82 664.362 100.386 663.883 100.177 663.296C99.9673 662.71 99.9995 662.064 100.266 661.501C100.533 660.938 101.012 660.505 101.599 660.295L138.457 647.139C139.044 646.931 139.688 646.964 140.25 647.231C140.811 647.498 141.244 647.977 141.453 648.563C141.662 649.148 141.63 649.793 141.364 650.355C141.099 650.917 140.621 651.351 140.036 651.562Z" fill="white"/>
<path d="M106.958 649.696L98.8486 652.59C98.5584 652.695 98.2503 652.742 97.942 652.728C97.6337 652.714 97.3312 652.639 97.0518 652.508C96.7724 652.377 96.5216 652.192 96.3137 651.964C96.1059 651.736 95.945 651.469 95.8403 651.179C95.7357 650.888 95.6893 650.58 95.7038 650.272C95.7183 649.964 95.7934 649.661 95.9249 649.382C96.0563 649.103 96.2415 648.852 96.4699 648.645C96.6983 648.437 96.9653 648.277 97.2558 648.172L97.2698 648.167L105.379 645.273C105.965 645.066 106.609 645.099 107.17 645.366C107.731 645.633 108.164 646.112 108.373 646.697C108.582 647.283 108.55 647.927 108.285 648.489C108.019 649.051 107.542 649.485 106.958 649.696Z" fill="white"/>
<path d="M146.977 671.006L110.119 684.163C109.533 684.37 108.888 684.337 108.327 684.07C107.766 683.803 107.333 683.324 107.124 682.739C106.916 682.153 106.947 681.509 107.212 680.947C107.478 680.385 107.955 679.951 108.54 679.74L145.399 666.583C145.984 666.373 146.629 666.404 147.192 666.669C147.755 666.934 148.19 667.412 148.401 667.997C148.612 668.583 148.582 669.228 148.318 669.791C148.054 670.354 147.576 670.79 146.991 671.002L146.977 671.006Z" fill="white"/>
<path d="M143.507 661.284L106.648 674.441C106.062 674.651 105.416 674.62 104.853 674.354C104.29 674.088 103.856 673.609 103.645 673.022C103.435 672.436 103.467 671.79 103.733 671.227C103.999 670.664 104.478 670.23 105.064 670.02L105.069 670.018L141.928 656.861C142.514 656.654 143.158 656.687 143.72 656.954C144.281 657.221 144.714 657.7 144.923 658.285C145.132 658.871 145.1 659.515 144.835 660.078C144.569 660.64 144.092 661.074 143.507 661.284Z" fill="white"/>
<path d="M105.676 627.744C111.084 627.744 115.467 623.361 115.467 617.953C115.467 612.546 111.084 608.162 105.676 608.162C100.269 608.162 95.8853 612.546 95.8853 617.953C95.8853 623.361 100.269 627.744 105.676 627.744Z" fill="#CCCCCC"/>
<path d="M464.027 195.059C464.184 209.393 468.746 239.236 465.476 253.277L464.948 252.102C462.229 254.257 459.341 256.188 456.312 257.878C454.127 252.564 450.859 247.762 446.717 243.779C447.262 250.368 446.483 257 444.426 263.283C432.187 267.689 410.706 253.805 397.39 253.512C375.967 253.022 355.093 247.696 334.629 242.056C327.365 240.059 319.375 237.454 316.085 231.423C312.795 225.392 318.683 218.882 318.298 212.076C315.554 163.6 338.644 155.474 360.615 142.521C365.45 139.67 367.821 133.533 373.284 131.144C380.863 127.834 389.89 129.42 398.134 131.085C396.086 130.41 394.247 129.22 392.793 127.629C391.339 126.038 390.319 124.099 389.831 121.999C389.487 119.941 389.719 117.828 390.499 115.893C391.28 113.958 392.581 112.276 394.257 111.033C398.8 107.528 405.575 107.097 411.371 108.585C416.971 110.336 422.268 112.939 427.076 116.301C430.341 118.091 433.259 120.452 435.692 123.272C436.838 124.606 437.55 126.258 437.732 128.008C437.914 129.758 437.558 131.521 436.71 133.063C435.665 134.384 434.335 135.453 432.82 136.188C431.304 136.924 429.642 137.308 427.957 137.312C425.361 137.388 422.767 137.118 420.242 136.509C431.815 139.364 442.245 145.675 450.144 154.603C459.954 166.019 463.851 180.725 464.027 195.059Z" fill="#2F2E41"/>
<path d="M121.735 333.2C123.726 337.426 127.288 340.709 131.662 342.349C136.036 343.989 140.878 343.858 145.157 341.983C146.021 341.588 146.851 341.122 147.637 340.59L198.059 377.636L225.859 358.665L151.3 315.385C148.843 312.292 145.431 310.1 141.597 309.151C137.763 308.202 133.722 308.549 130.106 310.137C128.057 311.061 126.21 312.379 124.67 314.016C123.13 315.654 121.928 317.579 121.133 319.681C120.337 321.783 119.963 324.021 120.032 326.268C120.101 328.514 120.612 330.725 121.536 332.774C121.6 332.917 121.667 333.059 121.735 333.2Z" fill="#FFB6B6"/>
<path d="M641.421 299.581C636.785 300.158 632.557 302.522 629.638 306.169C626.718 309.816 625.337 314.459 625.788 319.109C625.894 320.053 626.079 320.986 626.339 321.899L575.447 358.295L584.829 390.616L649.155 333.221C652.858 331.848 656.003 329.287 658.098 325.938C660.193 322.59 661.12 318.642 660.735 314.711C660.495 312.476 659.817 310.31 658.74 308.338C657.662 306.365 656.207 304.624 654.457 303.214C652.707 301.804 650.696 300.752 648.539 300.119C646.383 299.486 644.122 299.284 641.887 299.524C641.732 299.541 641.576 299.56 641.421 299.581Z" fill="#FFB6B6"/>
<path d="M272.373 1045.49L255.983 1045.35L248.729 980.661L272.917 980.865L272.373 1045.49Z" fill="#FFB6B6"/>
<path d="M219.877 1071.55C219.863 1073.49 220.619 1075.36 221.981 1076.75C223.343 1078.13 225.199 1078.92 227.142 1078.94L259.726 1079.21L265.431 1067.65L267.526 1079.27L279.821 1079.38L276.716 1037.93L272.439 1037.65L254.991 1036.44L249.362 1036.07L249.263 1047.8L223.088 1065.55C222.107 1066.21 221.303 1067.11 220.744 1068.15C220.185 1069.2 219.887 1070.36 219.877 1071.55Z" fill="#2F2E41"/>
<path d="M488.41 972.883L475.029 982.345L431.346 934.087L451.094 920.119L488.41 972.883Z" fill="#FFB6B6"/>
<path d="M461.034 1024.7C462.157 1026.29 463.864 1027.36 465.779 1027.69C467.693 1028.02 469.661 1027.58 471.248 1026.46L497.851 1007.64L495.725 994.923L504.216 1003.13L514.259 996.037L487.52 964.212L483.883 966.48L469.02 975.698L464.232 978.681L471.004 988.257L460.135 1017.96C459.728 1019.07 459.597 1020.27 459.754 1021.44C459.91 1022.62 460.35 1023.74 461.034 1024.7Z" fill="#2F2E41"/>
<path d="M284.665 521.027L332.27 410.477H441.922L410.295 525.85L284.665 521.027Z" fill="#FFB6B6"/>
<path d="M184.009 1045.98C183.099 1046.02 182.198 1045.79 181.428 1045.3C180.658 1044.81 180.057 1044.1 179.705 1043.26C179.354 1042.42 179.269 1041.49 179.463 1040.6C179.657 1039.71 180.119 1038.9 180.788 1038.28L181.093 1037.07C181.053 1036.97 181.013 1036.88 180.972 1036.78C180.055 1034.61 178.518 1032.77 176.555 1031.47C174.592 1030.18 172.29 1029.49 169.938 1029.5C167.586 1029.51 165.289 1030.21 163.336 1031.52C161.383 1032.83 159.86 1034.69 158.959 1036.86C155.359 1045.53 150.775 1054.22 149.646 1063.39C149.149 1067.44 149.359 1071.55 150.266 1075.53C141.81 1057.08 137.419 1037.03 137.39 1016.74C137.389 1011.65 137.672 1006.56 138.238 1001.5C138.706 997.353 139.355 993.234 140.186 989.145C144.718 966.956 154.449 946.159 168.58 928.461C175.419 924.729 180.95 918.991 184.428 912.019C185.687 909.512 186.578 906.837 187.071 904.076C186.299 904.177 184.162 892.427 184.744 891.706C183.669 890.075 181.744 889.264 180.57 887.672C174.73 879.754 166.684 881.136 162.484 891.896C153.511 896.425 153.424 903.935 158.93 911.159C162.432 915.754 162.914 921.973 165.987 926.892C165.671 927.297 165.342 927.689 165.026 928.094C159.246 935.526 154.208 943.507 149.985 951.923C151.012 942.495 149.786 932.959 146.408 924.097C142.985 915.839 136.569 908.884 130.918 901.745C129.424 899.827 127.394 898.395 125.086 897.63C122.778 896.866 120.295 896.802 117.951 897.449C115.607 898.095 113.508 899.421 111.918 901.261C110.327 903.1 109.318 905.37 109.018 907.782C109.006 907.888 108.995 907.993 108.984 908.098C109.823 908.571 110.645 909.074 111.448 909.606C112.458 910.28 113.241 911.244 113.693 912.371C114.146 913.498 114.248 914.736 113.985 915.921C113.722 917.107 113.107 918.186 112.221 919.016C111.335 919.846 110.219 920.39 109.018 920.575L108.895 920.594C109.194 923.619 109.723 926.616 110.476 929.561C103.227 957.594 118.877 967.805 141.223 968.263C141.716 968.516 142.197 968.769 142.69 969.01C138.447 981.034 135.786 993.559 134.773 1006.27C134.199 1013.77 134.233 1021.3 134.874 1028.8L134.836 1028.53C133.217 1020.2 128.772 1012.68 122.251 1007.24C112.567 999.288 98.8843 996.359 88.4365 989.964C87.3261 989.251 86.0351 988.87 84.7156 988.867C83.396 988.864 82.1031 989.238 80.9893 989.946C79.8754 990.653 78.9872 991.664 78.4292 992.86C77.8713 994.056 77.6669 995.386 77.8402 996.694L77.883 996.974C79.4404 997.608 80.9569 998.339 82.4234 999.162C83.2627 999.635 84.0842 1000.14 84.8881 1000.67C85.8979 1001.34 86.6804 1002.31 87.133 1003.43C87.5855 1004.56 87.6871 1005.8 87.4244 1006.99C87.1617 1008.17 86.547 1009.25 85.6607 1010.08C84.7745 1010.91 83.6581 1011.45 82.4578 1011.64L82.3348 1011.66C82.2463 1011.67 82.1703 1011.68 82.082 1011.7C84.7431 1018.05 88.4781 1023.9 93.1234 1028.99C97.6559 1053.46 117.123 1055.78 137.947 1048.65H137.96C140.244 1058.58 143.555 1068.25 147.837 1077.49H183.125C183.251 1077.1 183.365 1076.69 183.479 1076.3C180.213 1076.51 176.934 1076.31 173.715 1075.72C176.333 1072.51 178.951 1069.27 181.569 1066.06C181.628 1066 181.682 1065.93 181.734 1065.87C183.062 1064.22 184.402 1062.59 185.73 1060.95L185.731 1060.94C185.802 1055.9 185.222 1050.88 184.009 1045.98Z" fill="#00A55B"/>
<path d="M565.849 1045.98C566.759 1046.02 567.66 1045.79 568.43 1045.3C569.2 1044.81 569.802 1044.1 570.153 1043.26C570.505 1042.42 570.589 1041.49 570.395 1040.6C570.202 1039.71 569.739 1038.9 569.07 1038.28L568.765 1037.07C568.805 1036.97 568.846 1036.88 568.886 1036.78C569.803 1034.61 571.34 1032.77 573.303 1031.47C575.266 1030.18 577.568 1029.49 579.92 1029.5C582.272 1029.51 584.569 1030.21 586.522 1031.52C588.476 1032.83 589.998 1034.69 590.899 1036.86C594.499 1045.53 599.083 1054.22 600.212 1063.39C600.709 1067.44 600.499 1071.55 599.592 1075.53C608.048 1057.08 612.439 1037.03 612.468 1016.74C612.469 1011.65 612.187 1006.56 611.62 1001.5C611.152 997.353 610.503 993.234 609.672 989.145C605.14 966.956 595.409 946.158 581.278 928.461C574.439 924.729 568.908 918.991 565.431 912.019C564.171 909.512 563.28 906.837 562.787 904.076C563.559 904.177 565.696 892.427 565.114 891.706C566.189 890.075 568.114 889.264 569.288 887.672C575.128 879.754 583.174 881.136 587.374 891.896C596.347 896.425 596.434 903.935 590.929 911.159C587.426 915.754 586.945 921.973 583.871 926.892C584.187 927.297 584.516 927.689 584.832 928.094C590.612 935.526 595.65 943.507 599.873 951.923C598.846 942.495 600.072 932.959 603.45 924.097C606.873 915.839 613.289 908.884 618.94 901.745C620.434 899.827 622.464 898.395 624.772 897.63C627.08 896.866 629.563 896.802 631.907 897.449C634.251 898.095 636.35 899.421 637.941 901.261C639.531 903.1 640.54 905.37 640.84 907.782C640.852 907.888 640.863 907.993 640.874 908.098C640.035 908.571 639.213 909.074 638.41 909.606C637.4 910.28 636.617 911.244 636.165 912.371C635.712 913.498 635.611 914.736 635.873 915.921C636.136 917.107 636.751 918.186 637.637 919.016C638.523 919.847 639.64 920.39 640.84 920.575L640.963 920.594C640.664 923.619 640.135 926.616 639.382 929.561C646.631 957.594 630.981 967.805 608.635 968.263C608.142 968.516 607.661 968.769 607.168 969.01C611.411 981.034 614.073 993.559 615.086 1006.27C615.659 1013.77 615.625 1021.3 614.984 1028.8L615.022 1028.53C616.641 1020.2 621.086 1012.68 627.607 1007.24C637.291 999.288 650.974 996.358 661.422 989.964C662.532 989.251 663.823 988.87 665.143 988.867C666.462 988.864 667.755 989.238 668.869 989.946C669.983 990.653 670.871 991.664 671.429 992.86C671.987 994.056 672.191 995.386 672.018 996.694L671.975 996.974C670.418 997.608 668.901 998.339 667.435 999.162C666.595 999.635 665.774 1000.14 664.97 1000.67C663.96 1001.34 663.178 1002.31 662.725 1003.43C662.272 1004.56 662.171 1005.8 662.434 1006.99C662.696 1008.17 663.311 1009.25 664.197 1010.08C665.083 1010.91 666.2 1011.45 667.4 1011.64L667.523 1011.66C667.612 1011.67 667.688 1011.68 667.776 1011.7C665.115 1018.05 661.38 1023.9 656.734 1028.98C652.202 1053.46 632.735 1055.78 611.911 1048.65H611.898C609.613 1058.58 606.303 1068.24 602.02 1077.49H566.733C566.607 1077.1 566.493 1076.69 566.379 1076.3C569.645 1076.51 572.924 1076.31 576.143 1075.72C573.525 1072.51 570.907 1069.27 568.289 1066.06C568.23 1066 568.176 1065.93 568.124 1065.87C566.796 1064.22 565.456 1062.59 564.128 1060.95L564.127 1060.94C564.056 1055.9 564.636 1050.88 565.849 1045.98Z" fill="#00A55B"/>
<path d="M284.665 512.725L237.4 611.323L240.774 1004.25H281.257C281.257 1004.25 289.128 993.635 289.128 986.197C289.128 978.758 275.74 977.68 284.665 968.549C293.591 959.419 296.567 956.444 296.567 947.518V804.718L328.487 666.289L325.113 818.39L439.814 955.286L466.534 928.566C466.534 928.566 474.348 925.122 466.534 917.724C458.72 910.327 453.847 923.393 453.308 902.727C452.77 882.061 457.232 886.524 452.77 882.061C448.307 877.598 385.837 803.025 385.837 803.025C385.837 803.025 442.356 562.217 414.091 516.1L284.665 512.725Z" fill="#2F2E41"/>
<path d="M417.066 523.539C417.066 523.539 295.079 480.397 304.005 456.594C312.931 432.792 327.924 437.372 310.014 429.875C292.104 422.379 280.238 420.891 291.378 410.477C302.517 400.064 318.881 389.65 318.881 379.237C318.881 368.823 332.27 287.003 332.27 287.003H353.704L375.412 249.812H406.079L421.529 284.027H454.152L455.745 336.095C455.745 336.095 457.854 436.681 447.873 440.687C437.893 444.693 428.967 444.693 437.893 453.619C446.819 462.545 451.903 467.16 447.873 475.266C443.844 483.372 417.066 523.539 417.066 523.539Z" fill="#F1C21B"/>
<path d="M434.918 298.904L454.152 284.027C454.152 284.027 486.986 284.027 491.449 301.879C495.912 319.731 522.773 363.387 522.773 363.387C522.773 363.387 549.467 347.996 559.88 347.996C570.294 347.996 577.732 355.434 577.732 346.509C577.732 337.583 571.782 336.095 580.707 336.095C589.633 336.095 613.436 327.169 613.436 327.169L638.825 352.559C638.825 352.559 635.75 376.262 625.337 374.774C614.923 373.286 608.973 365.848 608.973 374.774C608.973 383.7 614.923 397.089 601.534 398.576C588.146 400.064 498.887 422.379 498.887 422.379L437.893 333.12L434.918 298.904Z" fill="#F1C21B"/>
<path d="M357.56 298.904L338.326 284.027C338.326 284.027 305.492 284.027 301.029 301.879C296.567 319.731 268.207 363.387 268.207 363.387C268.207 363.387 243.011 347.996 232.598 347.996C222.184 347.996 214.746 355.434 214.746 346.509C214.746 337.583 220.697 336.095 211.771 336.095C202.845 336.095 179.042 327.169 179.042 327.169L153.653 352.559C153.653 352.559 156.728 376.261 167.141 374.774C177.555 373.286 183.505 365.848 183.505 374.774C183.505 383.7 177.555 397.089 190.944 398.576C204.332 400.064 293.591 422.379 293.591 422.379L354.585 333.12L357.56 298.904Z" fill="#F1C21B"/>
<path d="M387.179 241.732C413.399 241.732 434.654 220.477 434.654 194.257C434.654 168.037 413.399 146.782 387.179 146.782C360.96 146.782 339.705 168.037 339.705 194.257C339.705 220.477 360.96 241.732 387.179 241.732Z" fill="#FFB6B6"/>
<path d="M438.982 187.089C433.401 193.845 425.098 193.493 417.716 192.416C415.386 192.083 413.055 191.711 410.725 191.28C410.314 189.968 409.844 188.656 409.315 187.383C407.131 182.068 403.863 177.267 399.72 173.284C400.156 178.491 399.753 183.734 398.526 188.813C394.198 187.814 389.89 186.698 385.602 185.464C381.807 184.847 378.395 182.796 376.07 179.735C373.745 176.673 372.684 172.836 373.108 169.015C366.94 173.715 360.223 177.788 353.174 177.866C349.2 177.763 345.364 176.39 342.228 173.948C339.091 171.506 336.82 168.123 335.746 164.296C333.827 158.421 334.121 151.646 334.904 145.301C335.844 137.762 337.959 129.479 343.05 126.444C347.143 123.977 351.862 125.739 356.072 127.736C365.347 132.188 374.14 137.582 382.312 143.833L382.41 145.889C384.525 135.765 391.515 127.952 399.133 127.168C404.263 126.659 409.276 129.029 414.113 131.418C420.435 134.207 426.313 137.908 431.561 142.403C437.489 147.796 441.606 154.888 443.349 162.71C445.17 171.189 443.799 181.254 438.982 187.089Z" fill="#2F2E41"/>
<path d="M391.987 121.204C392.473 121.245 391.278 120.971 391.666 121.134C391.475 121.047 391.292 120.944 391.118 120.828C391.089 120.808 390.703 120.497 390.955 120.714C390.374 120.262 389.937 119.651 389.696 118.956C389.156 117.266 388.905 115.498 388.953 113.725C389.05 111.395 388.652 109.071 387.787 106.905C387.531 106.319 387.14 105.801 386.646 105.394C386.151 104.987 385.568 104.703 384.944 104.563C384.319 104.424 383.67 104.434 383.05 104.592C382.43 104.751 381.856 105.053 381.374 105.475C379.772 107.047 379.645 109.701 379.532 111.812C379.409 114.004 379.642 116.202 380.219 118.319C381.213 121.802 383.198 124.92 385.933 127.294C389.091 130.06 393.057 131.734 397.243 132.069C397.818 132.056 398.377 131.876 398.851 131.551C399.326 131.226 399.696 130.77 399.916 130.239C400.136 129.707 400.197 129.123 400.091 128.558C399.985 127.992 399.717 127.47 399.32 127.054L394.064 122.064C393.513 121.514 392.766 121.204 391.987 121.204C391.208 121.204 390.46 121.514 389.91 122.064C389.359 122.615 389.049 123.362 389.049 124.141C389.049 124.92 389.359 125.668 389.91 126.218L395.166 131.208L397.243 126.194C396.375 126.116 395.519 125.941 394.691 125.673C393.792 125.423 392.934 125.047 392.141 124.555C391.365 124.13 390.637 123.621 389.97 123.038C389.544 122.663 389.137 122.267 388.751 121.851C388.611 121.7 388.473 121.546 388.339 121.39C388.348 121.401 387.786 120.695 388.027 121.018C387.42 120.187 386.891 119.301 386.448 118.371C386.292 118.042 386.163 117.701 386.062 117.351C385.876 116.775 385.724 116.189 385.607 115.595C385.383 114.347 385.316 113.077 385.406 111.812C385.431 111.276 385.485 110.742 385.566 110.211C385.64 109.931 385.695 109.647 385.73 109.36C385.74 108.647 385.633 109.741 385.261 109.907L383.778 110.308C383.537 110.288 383.303 110.214 383.094 110.092C382.885 109.969 382.706 109.802 382.571 109.601C382.509 109.355 382.526 109.399 382.623 109.731C382.734 110.121 382.821 110.517 382.882 110.918C382.995 111.85 383.06 112.787 383.079 113.725C383.097 115.713 383.328 117.694 383.767 119.633C384.179 121.581 385.195 123.35 386.671 124.687C388.147 126.024 390.007 126.861 391.986 127.079C392.764 127.073 393.507 126.761 394.056 126.212C394.606 125.662 394.917 124.919 394.924 124.142C394.908 123.367 394.594 122.629 394.046 122.082C393.499 121.534 392.761 121.22 391.987 121.204Z" fill="#2F2E41"/>
<path d="M634.443 311.87C618.29 290.385 608.954 266.359 608.648 238.968C608.127 237.492 608.214 235.869 608.888 234.457C609.562 233.044 610.769 231.957 612.244 231.433L667.301 211.952C668.777 211.432 670.4 211.518 671.812 212.193C673.225 212.867 674.312 214.074 674.836 215.549L700.631 288.451C701.151 289.927 701.065 291.549 700.391 292.962C699.716 294.374 698.509 295.462 697.034 295.985L641.977 315.466C640.501 315.987 638.879 315.9 637.466 315.226C636.054 314.552 634.966 313.345 634.443 311.87Z" fill="#00A55B"/>
<path opacity="0.2" d="M646.873 310.571C645.397 311.091 643.775 311.005 642.362 310.33C640.95 309.656 639.862 308.449 639.339 306.974C623.186 285.489 613.85 261.463 613.544 234.072C613.207 233.101 613.132 232.059 613.328 231.05L612.245 231.433C610.77 231.957 609.563 233.044 608.888 234.457C608.214 235.869 608.128 237.492 608.648 238.968C608.954 266.359 618.29 290.385 634.443 311.87C634.967 313.345 636.054 314.552 637.467 315.226C638.879 315.9 640.502 315.986 641.978 315.466L697.035 295.985C698.012 295.636 698.879 295.035 699.548 294.242C700.218 293.45 700.666 292.495 700.847 291.473L646.873 310.571Z" fill="black"/>
<path d="M672.667 256.005L635.808 269.162C635.221 269.371 634.576 269.339 634.013 269.072C633.45 268.806 633.016 268.326 632.807 267.74C632.598 267.153 632.63 266.507 632.897 265.945C633.163 265.382 633.643 264.948 634.229 264.739L671.088 251.582C671.378 251.478 671.686 251.433 671.994 251.448C672.302 251.464 672.604 251.539 672.883 251.672C673.162 251.804 673.412 251.989 673.618 252.218C673.825 252.447 673.985 252.714 674.089 253.004C674.193 253.295 674.238 253.603 674.223 253.91C674.207 254.218 674.131 254.52 673.999 254.799C673.867 255.078 673.682 255.328 673.453 255.535C673.224 255.742 672.957 255.901 672.667 256.005Z" fill="white"/>
<path d="M639.588 254.139L631.479 257.033C631.189 257.137 630.881 257.183 630.573 257.168C630.265 257.153 629.963 257.078 629.684 256.946C629.405 256.814 629.155 256.629 628.948 256.401C628.741 256.172 628.58 255.905 628.476 255.615C628.372 255.325 628.327 255.017 628.342 254.709C628.357 254.401 628.432 254.099 628.564 253.82C628.696 253.541 628.881 253.291 629.109 253.084C629.338 252.876 629.605 252.716 629.895 252.612L629.9 252.61L638.009 249.716C638.596 249.507 639.241 249.54 639.803 249.807C640.365 250.074 640.799 250.553 641.008 251.139C641.217 251.725 641.185 252.37 640.919 252.933C640.653 253.495 640.174 253.929 639.588 254.139Z" fill="white"/>
<path d="M679.608 275.45L642.749 288.606C642.163 288.816 641.517 288.785 640.954 288.519C640.391 288.253 639.957 287.774 639.747 287.188C639.536 286.601 639.568 285.956 639.834 285.393C640.1 284.829 640.579 284.395 641.165 284.185L641.17 284.183L678.029 271.026C678.615 270.818 679.261 270.851 679.823 271.117C680.385 271.384 680.818 271.863 681.028 272.449C681.237 273.036 681.205 273.681 680.939 274.243C680.672 274.806 680.194 275.24 679.608 275.45Z" fill="white"/>
<path d="M676.137 265.728L639.278 278.884C638.988 278.988 638.68 279.034 638.372 279.019C638.064 279.004 637.762 278.929 637.483 278.797C637.205 278.665 636.954 278.48 636.747 278.252C636.54 278.023 636.38 277.756 636.276 277.466C636.172 277.176 636.126 276.868 636.141 276.56C636.156 276.252 636.231 275.95 636.363 275.671C636.495 275.392 636.68 275.142 636.909 274.935C637.137 274.727 637.404 274.567 637.694 274.463L637.7 274.461L674.558 261.305C674.849 261.201 675.157 261.155 675.465 261.17C675.773 261.185 676.075 261.26 676.353 261.392C676.632 261.524 676.882 261.709 677.09 261.937C677.297 262.166 677.457 262.433 677.561 262.723C677.665 263.013 677.711 263.321 677.696 263.629C677.681 263.937 677.605 264.239 677.474 264.518C677.342 264.797 677.157 265.047 676.928 265.254C676.7 265.462 676.433 265.622 676.142 265.726L676.137 265.728Z" fill="white"/>
<path d="M638.307 232.187C643.715 232.187 648.098 227.804 648.098 222.396C648.098 216.989 643.715 212.605 638.307 212.605C632.9 212.605 628.516 216.989 628.516 222.396C628.516 227.804 632.9 232.187 638.307 232.187Z" fill="#3F3D56"/>
<path d="M154.831 62.3081C164.692 37.3025 180.284 16.7774 203.469 2.18776C204.454 0.972039 205.882 0.197017 207.439 0.0326852C208.995 -0.131647 210.553 0.328148 211.771 1.31121L257.175 38.0436C258.391 39.0294 259.166 40.4572 259.331 42.0137C259.495 43.5702 259.035 45.1284 258.052 46.3463L209.414 106.467C208.428 107.682 207.001 108.457 205.444 108.622C203.888 108.786 202.329 108.326 201.111 107.343L155.707 70.6108C154.492 69.625 153.717 68.1972 153.552 66.6407C153.388 65.0842 153.848 63.526 154.831 62.3081Z" fill="#00A55B"/>
<path opacity="0.2" d="M162.441 72.2222C161.225 71.2364 160.45 69.8086 160.285 68.2521C160.121 66.6955 160.581 65.1374 161.564 63.9194C171.425 38.9137 187.017 18.3887 210.202 3.79902C210.853 3.00406 211.703 2.39523 212.665 2.03412L211.771 1.31123C210.553 0.328187 208.995 -0.131638 207.439 0.0326783C205.882 0.196995 204.454 0.972036 203.469 2.18773C180.284 16.7774 164.692 37.3024 154.831 62.3081C153.848 63.5261 153.388 65.0842 153.552 66.6408C153.717 68.1973 154.492 69.6251 155.707 70.6109L201.111 107.343C201.92 107.993 202.886 108.417 203.912 108.573C204.937 108.729 205.986 108.612 206.951 108.232L162.441 72.2222Z" fill="black"/>
<path d="M222.438 65.661L191.944 41.1302C191.46 40.7393 191.151 40.1726 191.085 39.5544C191.019 38.9362 191.201 38.3169 191.59 37.8324C191.98 37.3479 192.546 37.0378 193.164 36.97C193.782 36.9023 194.402 37.0824 194.887 37.471L225.382 62.0016C225.865 62.3926 226.174 62.9593 226.24 63.5775C226.306 64.1956 226.124 64.8148 225.735 65.2992C225.345 65.7836 224.779 66.0937 224.161 66.1615C223.543 66.2293 222.923 66.0494 222.438 65.661Z" fill="white"/>
<path d="M206.724 36.4933L200.015 31.0965C199.533 30.7054 199.225 30.1388 199.159 29.5209C199.093 28.9031 199.275 28.2843 199.664 27.8002C200.053 27.3161 200.619 27.006 201.237 26.938C201.854 26.8699 202.474 27.0495 202.959 27.4372L209.668 32.834C210.151 33.2251 210.459 33.7917 210.525 34.4097C210.591 35.0277 210.41 35.6466 210.02 36.1309C209.63 36.6152 209.065 36.9252 208.447 36.9932C207.829 37.0611 207.21 36.8814 206.724 36.4933Z" fill="white"/>
<path d="M209.497 81.7489L179.003 57.2182C178.519 56.8273 178.21 56.2606 178.144 55.6423C178.078 55.0241 178.26 54.4048 178.649 53.9203C179.039 53.4358 179.605 53.1257 180.223 53.0579C180.841 52.9902 181.461 53.1703 181.946 53.5589L212.441 78.0896C212.924 78.4808 213.232 79.0473 213.298 79.6652C213.363 80.283 213.182 80.9018 212.792 81.3859C212.403 81.87 211.837 82.1801 211.22 82.2481C210.602 82.3162 209.983 82.1366 209.497 81.7489Z" fill="white"/>
<path d="M215.967 73.7047L185.473 49.174C185.232 48.9814 185.032 48.7432 184.883 48.4731C184.734 48.203 184.64 47.9062 184.606 47.5997C184.537 46.9808 184.717 46.3598 185.106 45.8735C185.495 45.3872 186.062 45.0753 186.681 45.0066C187.3 44.9378 187.921 45.1177 188.407 45.5067L188.417 45.5147L218.911 70.0454C219.398 70.4345 219.709 71.0008 219.778 71.6198C219.847 72.2387 219.667 72.8597 219.278 73.346C218.889 73.8323 218.323 74.1441 217.704 74.2129C217.085 74.2817 216.464 74.1018 215.977 73.7127L215.967 73.7047Z" fill="white"/>
<path d="M233.107 28.5869C238.515 28.5869 242.898 24.2033 242.898 18.7959C242.898 13.3885 238.515 9.00488 233.107 9.00488C227.7 9.00488 223.316 13.3885 223.316 18.7959C223.316 24.2033 227.7 28.5869 233.107 28.5869Z" fill="#3F3D56"/>
<path d="M42.5221 355.023C18.6298 323.243 4.82053 287.706 4.36799 247.19C3.59823 245.007 3.72597 242.607 4.7232 240.518C5.72043 238.429 7.50571 236.82 9.68736 236.046L91.1247 207.231C93.3081 206.461 95.7078 206.589 97.7971 207.586C99.8864 208.583 101.495 210.369 102.27 212.55L140.424 320.383C141.193 322.566 141.066 324.966 140.068 327.055C139.071 329.144 137.286 330.753 135.104 331.527L53.6669 360.342C51.4835 361.112 49.0839 360.984 46.9945 359.987C44.9052 358.99 43.2968 357.204 42.5221 355.023Z" fill="#00A55B"/>
<path opacity="0.2" d="M60.9076 353.101C58.7242 353.871 56.3247 353.743 54.2353 352.746C52.146 351.748 50.5376 349.963 49.7629 347.782C25.8706 316.002 12.0614 280.465 11.6087 239.949C11.1104 238.513 11.0002 236.971 11.2894 235.479L9.68687 236.045C7.50523 236.82 5.72001 238.429 4.72276 240.518C3.72551 242.607 3.59774 245.007 4.36743 247.19C4.81999 287.706 18.6292 323.243 42.5216 355.023C43.2963 357.204 44.9048 358.989 46.9941 359.987C49.0834 360.984 51.483 361.112 53.6664 360.342L135.104 331.527C136.549 331.011 137.831 330.121 138.821 328.949C139.811 327.777 140.474 326.364 140.742 324.853L60.9076 353.101Z" fill="black"/>
<path d="M99.0605 272.391L44.5413 291.852C44.1114 292.006 43.6551 292.075 43.1986 292.053C42.7422 292.032 42.2944 291.92 41.8812 291.725C41.4679 291.53 41.0972 291.255 40.7903 290.916C40.4834 290.578 40.2464 290.182 40.0928 289.752C39.9391 289.321 39.872 288.865 39.8951 288.408C39.9182 287.952 40.0311 287.504 40.2275 287.092C40.4238 286.679 40.6996 286.309 41.0391 286.003C41.3786 285.698 41.7752 285.462 42.206 285.309L96.7252 265.849C97.1548 265.695 97.6103 265.628 98.0659 265.651C98.5215 265.674 98.9681 265.786 99.3803 265.981C99.7924 266.176 100.162 266.451 100.468 266.789C100.774 267.127 101.011 267.523 101.164 267.952C101.317 268.382 101.385 268.837 101.362 269.293C101.339 269.748 101.227 270.195 101.032 270.607C100.836 271.019 100.562 271.389 100.223 271.695C99.8852 272.001 99.4901 272.238 99.0605 272.391Z" fill="white"/>
<path d="M50.1324 269.631L38.1382 273.912C37.2714 274.219 36.3184 274.169 35.4881 273.774C34.6579 273.379 34.0181 272.671 33.709 271.805C33.3999 270.939 33.4468 269.986 33.8393 269.155C34.2318 268.323 34.9379 267.681 35.8029 267.37L47.7971 263.088C48.6639 262.782 49.6168 262.832 50.4471 263.226C51.2773 263.621 51.9172 264.329 52.2263 265.195C52.5353 266.061 52.4885 267.014 52.096 267.846C51.7035 268.677 50.9974 269.319 50.1324 269.631Z" fill="white"/>
<path d="M109.327 301.153L54.808 320.613C53.9404 320.923 52.9854 320.875 52.1529 320.481C51.3205 320.086 50.6788 319.377 50.3692 318.51C50.0595 317.642 50.1071 316.687 50.5016 315.855C50.8961 315.022 51.6051 314.381 52.4727 314.071L106.992 294.61C107.421 294.457 107.877 294.39 108.333 294.413C108.788 294.435 109.235 294.547 109.647 294.743C110.059 294.938 110.429 295.213 110.735 295.551C111.041 295.889 111.277 296.284 111.431 296.714C111.584 297.143 111.651 297.599 111.628 298.055C111.606 298.51 111.494 298.957 111.298 299.369C111.103 299.781 110.828 300.151 110.49 300.457C110.152 300.763 109.757 300.999 109.327 301.153Z" fill="white"/>
<path d="M104.194 286.772L49.6747 306.232C49.2451 306.386 48.7895 306.453 48.334 306.43C47.8784 306.408 47.4318 306.295 47.0196 306.1C46.6074 305.905 46.2378 305.63 45.9317 305.292C45.6257 304.954 45.3892 304.558 45.2359 304.129C45.0825 303.699 45.0153 303.244 45.038 302.788C45.0607 302.333 45.173 301.886 45.3683 301.474C45.5636 301.062 45.8382 300.692 46.1764 300.386C46.5146 300.08 46.9098 299.843 47.3394 299.69L101.859 280.23C102.288 280.076 102.744 280.009 103.199 280.032C103.655 280.054 104.101 280.167 104.514 280.362C104.926 280.557 105.295 280.832 105.602 281.17C105.908 281.508 106.144 281.903 106.297 282.333C106.451 282.763 106.518 283.218 106.495 283.674C106.472 284.129 106.36 284.576 106.165 284.988C105.97 285.4 105.695 285.77 105.357 286.076C105.019 286.382 104.623 286.619 104.194 286.772Z" fill="white"/>
<path d="M48.2376 237.162C56.236 237.162 62.7199 230.678 62.7199 222.68C62.7199 214.681 56.236 208.197 48.2376 208.197C40.2393 208.197 33.7554 214.681 33.7554 222.68C33.7554 230.678 40.2393 237.162 48.2376 237.162Z" fill="#3F3D56"/>
<path d="M579.93 878.813C553.05 878.676 528.272 871.575 506.277 855.248C504.786 854.769 503.547 853.719 502.83 852.327C502.113 850.936 501.978 849.317 502.453 847.826L520.25 792.202C520.728 790.711 521.779 789.472 523.17 788.755C524.561 788.038 526.18 787.902 527.672 788.378L601.325 811.943C602.815 812.422 604.054 813.472 604.771 814.863C605.488 816.255 605.624 817.873 605.148 819.365L587.351 874.989C586.873 876.479 585.823 877.719 584.431 878.436C583.04 879.153 581.421 879.288 579.93 878.813Z" fill="#E5E0DF"/>
<path opacity="0.2" d="M586.415 868.129C585.936 869.62 584.886 870.859 583.495 871.576C582.103 872.293 580.485 872.428 578.993 871.953C552.114 871.817 527.335 864.715 505.34 848.388C504.363 848.069 503.488 847.497 502.803 846.731L502.453 847.826C501.978 849.317 502.113 850.936 502.83 852.327C503.547 853.719 504.786 854.769 506.277 855.248C528.272 871.575 553.05 878.677 579.93 878.813C581.421 879.288 583.04 879.152 584.431 878.436C585.822 877.719 586.873 876.479 587.351 874.989L605.148 819.365C605.461 818.376 605.507 817.321 605.281 816.309C605.055 815.297 604.565 814.362 603.862 813.6L586.415 868.129Z" fill="black"/>
<path d="M558.572 814.58L546.749 851.888C546.658 852.183 546.509 852.457 546.311 852.694C546.114 852.931 545.871 853.127 545.598 853.27C545.325 853.414 545.026 853.502 544.719 853.53C544.411 853.558 544.101 853.525 543.807 853.433C543.512 853.341 543.238 853.191 543.002 852.994C542.765 852.796 542.569 852.553 542.426 852.28C542.283 852.006 542.195 851.707 542.168 851.399C542.141 851.092 542.174 850.782 542.267 850.488L542.272 850.47L554.095 813.162C554.285 812.571 554.702 812.079 555.254 811.794C555.806 811.51 556.448 811.455 557.039 811.643C557.631 811.83 558.125 812.245 558.412 812.795C558.699 813.346 558.757 813.987 558.572 814.58Z" fill="white"/>
<path d="M537.074 839.79L534.473 847.998C534.381 848.292 534.232 848.566 534.035 848.802C533.837 849.039 533.595 849.235 533.322 849.378C533.049 849.521 532.75 849.609 532.443 849.637C532.136 849.664 531.826 849.631 531.532 849.539C531.237 849.447 530.964 849.298 530.727 849.101C530.491 848.903 530.295 848.661 530.152 848.388C530.009 848.114 529.921 847.816 529.893 847.509C529.866 847.201 529.899 846.892 529.991 846.598L529.996 846.579L532.597 838.372C532.689 838.077 532.838 837.804 533.036 837.567C533.234 837.33 533.476 837.135 533.749 836.992C534.022 836.849 534.321 836.761 534.628 836.733C534.935 836.705 535.245 836.738 535.539 836.83C535.833 836.922 536.107 837.071 536.343 837.269C536.58 837.467 536.776 837.709 536.919 837.982C537.062 838.255 537.15 838.554 537.177 838.861C537.205 839.168 537.172 839.478 537.08 839.772L537.074 839.79Z" fill="white"/>
<path d="M578.254 820.817L566.431 858.125C566.339 858.419 566.19 858.692 565.993 858.929C565.795 859.166 565.553 859.361 565.28 859.504C565.007 859.648 564.708 859.735 564.401 859.763C564.094 859.791 563.784 859.758 563.49 859.666C563.195 859.574 562.922 859.425 562.685 859.227C562.449 859.03 562.253 858.787 562.11 858.514C561.967 858.241 561.879 857.942 561.851 857.635C561.824 857.328 561.857 857.019 561.949 856.724L561.954 856.706L573.777 819.398C573.868 819.103 574.017 818.829 574.215 818.592C574.412 818.354 574.654 818.158 574.928 818.015C575.201 817.871 575.5 817.783 575.808 817.755C576.115 817.727 576.425 817.76 576.72 817.852C577.015 817.944 577.289 818.093 577.525 818.291C577.762 818.489 577.958 818.732 578.101 819.006C578.244 819.28 578.332 819.579 578.359 819.886C578.386 820.194 578.352 820.504 578.26 820.798L578.254 820.817Z" fill="white"/>
<path d="M568.413 817.698L556.591 855.006C556.499 855.301 556.35 855.575 556.153 855.812C555.955 856.049 555.713 856.245 555.439 856.389C555.166 856.532 554.867 856.62 554.56 856.648C554.253 856.676 553.943 856.643 553.648 856.551C553.353 856.459 553.08 856.31 552.843 856.112C552.606 855.914 552.41 855.671 552.267 855.398C552.124 855.124 552.037 854.825 552.009 854.518C551.982 854.21 552.015 853.901 552.108 853.606L552.114 853.588L563.936 816.28C564.028 815.985 564.177 815.712 564.375 815.475C564.573 815.239 564.815 815.043 565.088 814.9C565.361 814.757 565.66 814.669 565.967 814.641C566.274 814.614 566.584 814.647 566.878 814.739C567.172 814.831 567.446 814.98 567.682 815.177C567.919 815.375 568.115 815.617 568.258 815.89C568.401 816.163 568.489 816.462 568.516 816.769C568.544 817.076 568.511 817.386 568.419 817.68L568.413 817.698Z" fill="white"/>
<path d="M511.024 831.397C516.432 831.397 520.815 827.014 520.815 821.606C520.815 816.199 516.432 811.815 511.024 811.815C505.617 811.815 501.233 816.199 501.233 821.606C501.233 827.014 505.617 831.397 511.024 831.397Z" fill="#CCCCCC"/>
<path d="M726.562 439.315C727.519 435.539 723.895 431.364 718.468 429.989C713.041 428.613 707.866 430.559 706.91 434.334C705.953 438.109 709.577 442.285 715.003 443.66C720.43 445.035 725.605 443.09 726.562 439.315Z" fill="white"/>
<path d="M660.29 438.888C661.246 435.113 657.622 430.937 652.196 429.562C646.769 428.187 641.594 430.132 640.637 433.908C639.68 437.683 643.304 441.858 648.731 443.233C654.158 444.609 659.333 442.663 660.29 438.888Z" fill="#3F3D56"/>
<path d="M738.998 494.298C739.955 490.523 736.331 486.347 730.905 484.972C725.478 483.597 720.303 485.542 719.346 489.318C718.389 493.093 722.013 497.268 727.44 498.644C732.867 500.019 738.042 498.073 738.998 494.298Z" fill="#FF6584"/>
<path d="M754.448 515.031C754.841 511.515 753.176 508.443 750.73 508.169C748.284 507.896 745.982 510.525 745.589 514.041C745.196 517.558 746.861 520.63 749.307 520.903C751.753 521.176 754.055 518.547 754.448 515.031Z" fill="#E5E0DF"/>
<path d="M759.897 556.559C760.29 553.043 758.625 549.971 756.179 549.698C753.733 549.424 751.431 552.053 751.039 555.57C750.646 559.086 752.31 562.158 754.756 562.431C757.202 562.705 759.504 560.076 759.897 556.559Z" fill="#3F3D56"/>
<path d="M692.142 477.418C692.535 473.902 690.871 470.829 688.425 470.556C685.979 470.283 683.677 472.912 683.284 476.428C682.891 479.944 684.556 483.016 687.002 483.29C689.448 483.563 691.75 480.934 692.142 477.418Z" fill="#E5E0DF"/>
<path d="M725.494 464.888C725.887 461.371 724.222 458.299 721.776 458.026C719.33 457.753 717.029 460.381 716.636 463.898C716.243 467.414 717.907 470.486 720.353 470.76C722.8 471.033 725.101 468.404 725.494 464.888Z" fill="#FF6584"/>
<path d="M684.407 431.037C684.799 427.521 683.135 424.449 680.689 424.175C678.243 423.902 675.941 426.531 675.548 430.047C675.155 433.564 676.82 436.636 679.266 436.909C681.712 437.182 684.014 434.553 684.407 431.037Z" fill="#3F3D56"/>
<path d="M107.77 415.817C108.727 412.041 105.103 407.866 99.6765 406.491C94.2497 405.116 89.0748 407.061 88.118 410.836C87.1613 414.611 90.7851 418.787 96.2119 420.162C101.639 421.537 106.814 419.592 107.77 415.817Z" fill="white"/>
<path d="M41.498 415.389C42.4547 411.614 38.831 407.438 33.4041 406.063C27.9772 404.688 22.8023 406.633 21.8456 410.409C20.8889 414.184 24.5126 418.359 29.9395 419.734C35.3664 421.11 40.5413 419.164 41.498 415.389Z" fill="#3F3D56"/>
<path d="M120.207 470.8C121.164 467.025 117.54 462.85 112.113 461.474C106.686 460.099 101.511 462.044 100.555 465.82C99.5978 469.595 103.222 473.77 108.648 475.145C114.075 476.521 119.25 474.575 120.207 470.8Z" fill="#FF6584"/>
<path d="M135.656 491.532C136.049 488.016 134.385 484.944 131.938 484.67C129.492 484.397 127.191 487.026 126.798 490.542C126.405 494.059 128.069 497.131 130.516 497.404C132.962 497.677 135.263 495.048 135.656 491.532Z" fill="#E5E0DF"/>
<path d="M141.105 533.061C141.498 529.545 139.834 526.473 137.388 526.2C134.941 525.926 132.64 528.555 132.247 532.072C131.854 535.588 133.519 538.66 135.965 538.933C138.411 539.207 140.712 536.578 141.105 533.061Z" fill="#3F3D56"/>
<path d="M73.3514 453.919C73.7443 450.403 72.0798 447.33 69.6337 447.057C67.1876 446.784 64.8861 449.413 64.4932 452.929C64.1003 456.445 65.7647 459.517 68.2109 459.791C70.657 460.064 72.9585 457.435 73.3514 453.919Z" fill="#E5E0DF"/>
<path d="M106.703 441.39C107.096 437.873 105.431 434.801 102.985 434.528C100.539 434.254 98.2376 436.883 97.8447 440.4C97.4518 443.916 99.1163 446.988 101.562 447.262C104.009 447.535 106.31 444.906 106.703 441.39Z" fill="#FF6584"/>
<path d="M65.6151 407.539C66.008 404.023 64.3435 400.951 61.8974 400.677C59.4512 400.404 57.1497 403.033 56.7568 406.549C56.3639 410.065 58.0284 413.138 60.4745 413.411C62.9207 413.684 65.2222 411.055 65.6151 407.539Z" fill="#3F3D56"/>
<path d="M530.658 603.641C514.505 582.156 505.169 558.131 504.863 530.739C504.343 529.263 504.429 527.641 505.103 526.228C505.777 524.816 506.984 523.728 508.459 523.205L563.517 503.724C564.993 503.204 566.615 503.29 568.028 503.964C569.44 504.638 570.528 505.845 571.051 507.32L596.846 580.222C597.366 581.698 597.28 583.321 596.606 584.733C595.932 586.146 594.725 587.233 593.25 587.757L538.192 607.238C536.716 607.758 535.094 607.672 533.682 606.998C532.269 606.323 531.182 605.116 530.658 603.641Z" fill="#E5E0DF"/>
<path opacity="0.2" d="M543.089 602.343C541.612 602.863 539.99 602.777 538.577 602.103C537.165 601.429 536.078 600.222 535.554 598.747C519.401 577.262 510.065 553.236 509.759 525.845C509.422 524.874 509.348 523.831 509.543 522.822L508.46 523.206C506.985 523.729 505.778 524.817 505.104 526.229C504.43 527.642 504.343 529.264 504.864 530.74C505.17 558.131 514.506 582.157 530.658 603.642C531.182 605.117 532.269 606.324 533.682 606.998C535.095 607.673 536.717 607.759 538.193 607.238L593.25 587.758C594.227 587.409 595.094 586.807 595.764 586.015C596.433 585.222 596.881 584.267 597.062 583.246L543.089 602.343Z" fill="black"/>
<path d="M568.882 547.777L532.023 560.933C531.437 561.143 530.791 561.11 530.228 560.844C529.666 560.577 529.232 560.098 529.022 559.511C528.813 558.925 528.845 558.279 529.112 557.716C529.379 557.153 529.858 556.72 530.444 556.51L567.303 543.354C567.594 543.25 567.902 543.204 568.21 543.22C568.518 543.235 568.82 543.311 569.098 543.443C569.377 543.575 569.627 543.761 569.834 543.989C570.041 544.218 570.201 544.485 570.304 544.776C570.408 545.066 570.453 545.374 570.438 545.682C570.423 545.99 570.347 546.292 570.215 546.571C570.083 546.849 569.897 547.099 569.668 547.306C569.44 547.513 569.172 547.673 568.882 547.777Z" fill="white"/>
<path d="M535.803 545.91L527.694 548.805C527.404 548.909 527.096 548.955 526.788 548.94C526.48 548.925 526.178 548.849 525.899 548.718C525.621 548.586 525.37 548.4 525.163 548.172C524.956 547.944 524.796 547.677 524.692 547.386C524.588 547.096 524.542 546.788 524.557 546.48C524.572 546.172 524.647 545.87 524.779 545.591C524.911 545.312 525.096 545.062 525.325 544.855C525.553 544.648 525.82 544.488 526.11 544.384L526.116 544.382L534.225 541.487C534.811 541.279 535.456 541.311 536.018 541.578C536.581 541.845 537.014 542.324 537.223 542.91C537.432 543.496 537.4 544.142 537.134 544.704C536.868 545.267 536.389 545.701 535.803 545.91Z" fill="white"/>
<path d="M575.823 567.222L538.964 580.379C538.674 580.483 538.366 580.529 538.058 580.514C537.75 580.499 537.448 580.423 537.169 580.291C536.89 580.16 536.64 579.974 536.433 579.746C536.226 579.517 536.066 579.25 535.962 578.96C535.858 578.67 535.812 578.362 535.827 578.054C535.842 577.746 535.917 577.444 536.049 577.165C536.181 576.886 536.366 576.636 536.595 576.429C536.823 576.222 537.09 576.062 537.38 575.958L537.386 575.956L574.244 562.799C574.831 562.59 575.476 562.623 576.038 562.89C576.6 563.157 577.034 563.636 577.243 564.222C577.452 564.808 577.42 565.453 577.154 566.016C576.888 566.578 576.409 567.012 575.823 567.222Z" fill="white"/>
<path d="M572.353 557.499L535.494 570.656C535.203 570.76 534.896 570.806 534.588 570.791C534.28 570.776 533.978 570.7 533.699 570.569C533.42 570.437 533.17 570.251 532.962 570.023C532.755 569.795 532.595 569.528 532.491 569.237C532.387 568.947 532.341 568.639 532.356 568.331C532.371 568.023 532.447 567.721 532.578 567.442C532.71 567.163 532.896 566.913 533.124 566.706C533.352 566.499 533.619 566.339 533.91 566.235L533.915 566.233L570.774 553.076C571.36 552.866 572.006 552.897 572.569 553.163C573.132 553.429 573.566 553.908 573.776 554.495C573.986 555.081 573.955 555.727 573.689 556.29C573.423 556.853 572.944 557.287 572.358 557.497L572.353 557.499Z" fill="white"/>
<path d="M534.522 523.959C539.93 523.959 544.313 519.575 544.313 514.168C544.313 508.761 539.93 504.377 534.522 504.377C529.115 504.377 524.731 508.761 524.731 514.168C524.731 519.575 529.115 523.959 534.522 523.959Z" fill="#CCCCCC"/>
</g>
<defs>
<clipPath id="clip0_414_2598">
<rect width="763.052" height="1080" fill="white" transform="translate(0.384766)"/>
</clipPath>
</defs>
</svg>
